<?xml version="1.0" encoding="utf-8" standalone="no"?>
<!DOCTYPE svg PUBLIC "-//W3C//DTD SVG 1.1//EN"
  "http://www.w3.org/Graphics/SVG/1.1/DTD/svg11.dtd">
<svg height="432pt" version="1.1" viewBox="0 0 576 432" width="576pt" xmlns="http://www.w3.org/2000/svg" xmlns:xlink="http://www.w3.org/1999/xlink">
 <metadata>
  <rdf:RDF xmlns:cc="http://creativecommons.org/ns#" xmlns:dc="http://purl.org/dc/elements/1.1/" xmlns:rdf="http://www.w3.org/1999/02/22-rdf-syntax-ns#">
   <cc:Work>
    <dc:type rdf:resource="http://purl.org/dc/dcmitype/StillImage"/>
    <dc:date>2021-07-12T22:38:09.815067</dc:date>
    <dc:format>image/svg+xml</dc:format>
    <dc:creator>
     <cc:Agent>
      <dc:title>Matplotlib v3.4.2, https://matplotlib.org/</dc:title>
     </cc:Agent>
    </dc:creator>
   </cc:Work>
  </rdf:RDF>
 </metadata>
 <defs>
  <style type="text/css">*{stroke-linecap:butt;stroke-linejoin:round;}</style>
 </defs>
 <g id="figure_1">
  <g id="patch_1">
   <path d="M 0 432 
L 576 432 
L 576 0 
L 0 0 
z
" style="fill:#ffffff;"/>
  </g>
  <g id="axes_1">
   <g id="patch_2">
    <path d="M 72 384.48 
L 518.4 384.48 
L 518.4 51.84 
L 72 51.84 
z
" style="fill:#ffffff;"/>
   </g>
   <g id="matplotlib.axis_1">
    <g id="xtick_1">
     <g id="line2d_1">
      <defs>
       <path d="M 0 0 
L 0 3.5 
" id="mb1fcda7190" style="stroke:#000000;stroke-width:0.8;"/>
      </defs>
      <g>
       <use style="stroke:#000000;stroke-width:0.8;" x="92.290909" xlink:href="#mb1fcda7190" y="384.48"/>
      </g>
     </g>
     <g id="text_1">
      <!-- 0 -->
      <g transform="translate(89.109659 399.078438)scale(0.1 -0.1)">
       <defs>
        <path d="M 2034 4250 
Q 1547 4250 1301 3770 
Q 1056 3291 1056 2328 
Q 1056 1369 1301 889 
Q 1547 409 2034 409 
Q 2525 409 2770 889 
Q 3016 1369 3016 2328 
Q 3016 3291 2770 3770 
Q 2525 4250 2034 4250 
z
M 2034 4750 
Q 2819 4750 3233 4129 
Q 3647 3509 3647 2328 
Q 3647 1150 3233 529 
Q 2819 -91 2034 -91 
Q 1250 -91 836 529 
Q 422 1150 422 2328 
Q 422 3509 836 4129 
Q 1250 4750 2034 4750 
z
" id="DejaVuSans-30" transform="scale(0.015625)"/>
       </defs>
       <use xlink:href="#DejaVuSans-30"/>
      </g>
     </g>
    </g>
    <g id="xtick_2">
     <g id="line2d_2">
      <g>
       <use style="stroke:#000000;stroke-width:0.8;" x="173.454545" xlink:href="#mb1fcda7190" y="384.48"/>
      </g>
     </g>
     <g id="text_2">
      <!-- 20 -->
      <g transform="translate(167.092045 399.078438)scale(0.1 -0.1)">
       <defs>
        <path d="M 1228 531 
L 3431 531 
L 3431 0 
L 469 0 
L 469 531 
Q 828 903 1448 1529 
Q 2069 2156 2228 2338 
Q 2531 2678 2651 2914 
Q 2772 3150 2772 3378 
Q 2772 3750 2511 3984 
Q 2250 4219 1831 4219 
Q 1534 4219 1204 4116 
Q 875 4013 500 3803 
L 500 4441 
Q 881 4594 1212 4672 
Q 1544 4750 1819 4750 
Q 2544 4750 2975 4387 
Q 3406 4025 3406 3419 
Q 3406 3131 3298 2873 
Q 3191 2616 2906 2266 
Q 2828 2175 2409 1742 
Q 1991 1309 1228 531 
z
" id="DejaVuSans-32" transform="scale(0.015625)"/>
       </defs>
       <use xlink:href="#DejaVuSans-32"/>
       <use x="63.623047" xlink:href="#DejaVuSans-30"/>
      </g>
     </g>
    </g>
    <g id="xtick_3">
     <g id="line2d_3">
      <g>
       <use style="stroke:#000000;stroke-width:0.8;" x="254.618182" xlink:href="#mb1fcda7190" y="384.48"/>
      </g>
     </g>
     <g id="text_3">
      <!-- 40 -->
      <g transform="translate(248.255682 399.078438)scale(0.1 -0.1)">
       <defs>
        <path d="M 2419 4116 
L 825 1625 
L 2419 1625 
L 2419 4116 
z
M 2253 4666 
L 3047 4666 
L 3047 1625 
L 3713 1625 
L 3713 1100 
L 3047 1100 
L 3047 0 
L 2419 0 
L 2419 1100 
L 313 1100 
L 313 1709 
L 2253 4666 
z
" id="DejaVuSans-34" transform="scale(0.015625)"/>
       </defs>
       <use xlink:href="#DejaVuSans-34"/>
       <use x="63.623047" xlink:href="#DejaVuSans-30"/>
      </g>
     </g>
    </g>
    <g id="xtick_4">
     <g id="line2d_4">
      <g>
       <use style="stroke:#000000;stroke-width:0.8;" x="335.781818" xlink:href="#mb1fcda7190" y="384.48"/>
      </g>
     </g>
     <g id="text_4">
      <!-- 60 -->
      <g transform="translate(329.419318 399.078438)scale(0.1 -0.1)">
       <defs>
        <path d="M 2113 2584 
Q 1688 2584 1439 2293 
Q 1191 2003 1191 1497 
Q 1191 994 1439 701 
Q 1688 409 2113 409 
Q 2538 409 2786 701 
Q 3034 994 3034 1497 
Q 3034 2003 2786 2293 
Q 2538 2584 2113 2584 
z
M 3366 4563 
L 3366 3988 
Q 3128 4100 2886 4159 
Q 2644 4219 2406 4219 
Q 1781 4219 1451 3797 
Q 1122 3375 1075 2522 
Q 1259 2794 1537 2939 
Q 1816 3084 2150 3084 
Q 2853 3084 3261 2657 
Q 3669 2231 3669 1497 
Q 3669 778 3244 343 
Q 2819 -91 2113 -91 
Q 1303 -91 875 529 
Q 447 1150 447 2328 
Q 447 3434 972 4092 
Q 1497 4750 2381 4750 
Q 2619 4750 2861 4703 
Q 3103 4656 3366 4563 
z
" id="DejaVuSans-36" transform="scale(0.015625)"/>
       </defs>
       <use xlink:href="#DejaVuSans-36"/>
       <use x="63.623047" xlink:href="#DejaVuSans-30"/>
      </g>
     </g>
    </g>
    <g id="xtick_5">
     <g id="line2d_5">
      <g>
       <use style="stroke:#000000;stroke-width:0.8;" x="416.945455" xlink:href="#mb1fcda7190" y="384.48"/>
      </g>
     </g>
     <g id="text_5">
      <!-- 80 -->
      <g transform="translate(410.582955 399.078438)scale(0.1 -0.1)">
       <defs>
        <path d="M 2034 2216 
Q 1584 2216 1326 1975 
Q 1069 1734 1069 1313 
Q 1069 891 1326 650 
Q 1584 409 2034 409 
Q 2484 409 2743 651 
Q 3003 894 3003 1313 
Q 3003 1734 2745 1975 
Q 2488 2216 2034 2216 
z
M 1403 2484 
Q 997 2584 770 2862 
Q 544 3141 544 3541 
Q 544 4100 942 4425 
Q 1341 4750 2034 4750 
Q 2731 4750 3128 4425 
Q 3525 4100 3525 3541 
Q 3525 3141 3298 2862 
Q 3072 2584 2669 2484 
Q 3125 2378 3379 2068 
Q 3634 1759 3634 1313 
Q 3634 634 3220 271 
Q 2806 -91 2034 -91 
Q 1263 -91 848 271 
Q 434 634 434 1313 
Q 434 1759 690 2068 
Q 947 2378 1403 2484 
z
M 1172 3481 
Q 1172 3119 1398 2916 
Q 1625 2713 2034 2713 
Q 2441 2713 2670 2916 
Q 2900 3119 2900 3481 
Q 2900 3844 2670 4047 
Q 2441 4250 2034 4250 
Q 1625 4250 1398 4047 
Q 1172 3844 1172 3481 
z
" id="DejaVuSans-38" transform="scale(0.015625)"/>
       </defs>
       <use xlink:href="#DejaVuSans-38"/>
       <use x="63.623047" xlink:href="#DejaVuSans-30"/>
      </g>
     </g>
    </g>
    <g id="xtick_6">
     <g id="line2d_6">
      <g>
       <use style="stroke:#000000;stroke-width:0.8;" x="498.109091" xlink:href="#mb1fcda7190" y="384.48"/>
      </g>
     </g>
     <g id="text_6">
      <!-- 100 -->
      <g transform="translate(488.565341 399.078438)scale(0.1 -0.1)">
       <defs>
        <path d="M 794 531 
L 1825 531 
L 1825 4091 
L 703 3866 
L 703 4441 
L 1819 4666 
L 2450 4666 
L 2450 531 
L 3481 531 
L 3481 0 
L 794 0 
L 794 531 
z
" id="DejaVuSans-31" transform="scale(0.015625)"/>
       </defs>
       <use xlink:href="#DejaVuSans-31"/>
       <use x="63.623047" xlink:href="#DejaVuSans-30"/>
       <use x="127.246094" xlink:href="#DejaVuSans-30"/>
      </g>
     </g>
    </g>
    <g id="text_7">
     <!-- Number of iterations -->
     <g transform="translate(243.389062 412.756563)scale(0.1 -0.1)">
      <defs>
       <path d="M 628 4666 
L 1478 4666 
L 3547 763 
L 3547 4666 
L 4159 4666 
L 4159 0 
L 3309 0 
L 1241 3903 
L 1241 0 
L 628 0 
L 628 4666 
z
" id="DejaVuSans-4e" transform="scale(0.015625)"/>
       <path d="M 544 1381 
L 544 3500 
L 1119 3500 
L 1119 1403 
Q 1119 906 1312 657 
Q 1506 409 1894 409 
Q 2359 409 2629 706 
Q 2900 1003 2900 1516 
L 2900 3500 
L 3475 3500 
L 3475 0 
L 2900 0 
L 2900 538 
Q 2691 219 2414 64 
Q 2138 -91 1772 -91 
Q 1169 -91 856 284 
Q 544 659 544 1381 
z
M 1991 3584 
L 1991 3584 
z
" id="DejaVuSans-75" transform="scale(0.015625)"/>
       <path d="M 3328 2828 
Q 3544 3216 3844 3400 
Q 4144 3584 4550 3584 
Q 5097 3584 5394 3201 
Q 5691 2819 5691 2113 
L 5691 0 
L 5113 0 
L 5113 2094 
Q 5113 2597 4934 2840 
Q 4756 3084 4391 3084 
Q 3944 3084 3684 2787 
Q 3425 2491 3425 1978 
L 3425 0 
L 2847 0 
L 2847 2094 
Q 2847 2600 2669 2842 
Q 2491 3084 2119 3084 
Q 1678 3084 1418 2786 
Q 1159 2488 1159 1978 
L 1159 0 
L 581 0 
L 581 3500 
L 1159 3500 
L 1159 2956 
Q 1356 3278 1631 3431 
Q 1906 3584 2284 3584 
Q 2666 3584 2933 3390 
Q 3200 3197 3328 2828 
z
" id="DejaVuSans-6d" transform="scale(0.015625)"/>
       <path d="M 3116 1747 
Q 3116 2381 2855 2742 
Q 2594 3103 2138 3103 
Q 1681 3103 1420 2742 
Q 1159 2381 1159 1747 
Q 1159 1113 1420 752 
Q 1681 391 2138 391 
Q 2594 391 2855 752 
Q 3116 1113 3116 1747 
z
M 1159 2969 
Q 1341 3281 1617 3432 
Q 1894 3584 2278 3584 
Q 2916 3584 3314 3078 
Q 3713 2572 3713 1747 
Q 3713 922 3314 415 
Q 2916 -91 2278 -91 
Q 1894 -91 1617 61 
Q 1341 213 1159 525 
L 1159 0 
L 581 0 
L 581 4863 
L 1159 4863 
L 1159 2969 
z
" id="DejaVuSans-62" transform="scale(0.015625)"/>
       <path d="M 3597 1894 
L 3597 1613 
L 953 1613 
Q 991 1019 1311 708 
Q 1631 397 2203 397 
Q 2534 397 2845 478 
Q 3156 559 3463 722 
L 3463 178 
Q 3153 47 2828 -22 
Q 2503 -91 2169 -91 
Q 1331 -91 842 396 
Q 353 884 353 1716 
Q 353 2575 817 3079 
Q 1281 3584 2069 3584 
Q 2775 3584 3186 3129 
Q 3597 2675 3597 1894 
z
M 3022 2063 
Q 3016 2534 2758 2815 
Q 2500 3097 2075 3097 
Q 1594 3097 1305 2825 
Q 1016 2553 972 2059 
L 3022 2063 
z
" id="DejaVuSans-65" transform="scale(0.015625)"/>
       <path d="M 2631 2963 
Q 2534 3019 2420 3045 
Q 2306 3072 2169 3072 
Q 1681 3072 1420 2755 
Q 1159 2438 1159 1844 
L 1159 0 
L 581 0 
L 581 3500 
L 1159 3500 
L 1159 2956 
Q 1341 3275 1631 3429 
Q 1922 3584 2338 3584 
Q 2397 3584 2469 3576 
Q 2541 3569 2628 3553 
L 2631 2963 
z
" id="DejaVuSans-72" transform="scale(0.015625)"/>
       <path id="DejaVuSans-20" transform="scale(0.015625)"/>
       <path d="M 1959 3097 
Q 1497 3097 1228 2736 
Q 959 2375 959 1747 
Q 959 1119 1226 758 
Q 1494 397 1959 397 
Q 2419 397 2687 759 
Q 2956 1122 2956 1747 
Q 2956 2369 2687 2733 
Q 2419 3097 1959 3097 
z
M 1959 3584 
Q 2709 3584 3137 3096 
Q 3566 2609 3566 1747 
Q 3566 888 3137 398 
Q 2709 -91 1959 -91 
Q 1206 -91 779 398 
Q 353 888 353 1747 
Q 353 2609 779 3096 
Q 1206 3584 1959 3584 
z
" id="DejaVuSans-6f" transform="scale(0.015625)"/>
       <path d="M 2375 4863 
L 2375 4384 
L 1825 4384 
Q 1516 4384 1395 4259 
Q 1275 4134 1275 3809 
L 1275 3500 
L 2222 3500 
L 2222 3053 
L 1275 3053 
L 1275 0 
L 697 0 
L 697 3053 
L 147 3053 
L 147 3500 
L 697 3500 
L 697 3744 
Q 697 4328 969 4595 
Q 1241 4863 1831 4863 
L 2375 4863 
z
" id="DejaVuSans-66" transform="scale(0.015625)"/>
       <path d="M 603 3500 
L 1178 3500 
L 1178 0 
L 603 0 
L 603 3500 
z
M 603 4863 
L 1178 4863 
L 1178 4134 
L 603 4134 
L 603 4863 
z
" id="DejaVuSans-69" transform="scale(0.015625)"/>
       <path d="M 1172 4494 
L 1172 3500 
L 2356 3500 
L 2356 3053 
L 1172 3053 
L 1172 1153 
Q 1172 725 1289 603 
Q 1406 481 1766 481 
L 2356 481 
L 2356 0 
L 1766 0 
Q 1100 0 847 248 
Q 594 497 594 1153 
L 594 3053 
L 172 3053 
L 172 3500 
L 594 3500 
L 594 4494 
L 1172 4494 
z
" id="DejaVuSans-74" transform="scale(0.015625)"/>
       <path d="M 2194 1759 
Q 1497 1759 1228 1600 
Q 959 1441 959 1056 
Q 959 750 1161 570 
Q 1363 391 1709 391 
Q 2188 391 2477 730 
Q 2766 1069 2766 1631 
L 2766 1759 
L 2194 1759 
z
M 3341 1997 
L 3341 0 
L 2766 0 
L 2766 531 
Q 2569 213 2275 61 
Q 1981 -91 1556 -91 
Q 1019 -91 701 211 
Q 384 513 384 1019 
Q 384 1609 779 1909 
Q 1175 2209 1959 2209 
L 2766 2209 
L 2766 2266 
Q 2766 2663 2505 2880 
Q 2244 3097 1772 3097 
Q 1472 3097 1187 3025 
Q 903 2953 641 2809 
L 641 3341 
Q 956 3463 1253 3523 
Q 1550 3584 1831 3584 
Q 2591 3584 2966 3190 
Q 3341 2797 3341 1997 
z
" id="DejaVuSans-61" transform="scale(0.015625)"/>
       <path d="M 3513 2113 
L 3513 0 
L 2938 0 
L 2938 2094 
Q 2938 2591 2744 2837 
Q 2550 3084 2163 3084 
Q 1697 3084 1428 2787 
Q 1159 2491 1159 1978 
L 1159 0 
L 581 0 
L 581 3500 
L 1159 3500 
L 1159 2956 
Q 1366 3272 1645 3428 
Q 1925 3584 2291 3584 
Q 2894 3584 3203 3211 
Q 3513 2838 3513 2113 
z
" id="DejaVuSans-6e" transform="scale(0.015625)"/>
       <path d="M 2834 3397 
L 2834 2853 
Q 2591 2978 2328 3040 
Q 2066 3103 1784 3103 
Q 1356 3103 1142 2972 
Q 928 2841 928 2578 
Q 928 2378 1081 2264 
Q 1234 2150 1697 2047 
L 1894 2003 
Q 2506 1872 2764 1633 
Q 3022 1394 3022 966 
Q 3022 478 2636 193 
Q 2250 -91 1575 -91 
Q 1294 -91 989 -36 
Q 684 19 347 128 
L 347 722 
Q 666 556 975 473 
Q 1284 391 1588 391 
Q 1994 391 2212 530 
Q 2431 669 2431 922 
Q 2431 1156 2273 1281 
Q 2116 1406 1581 1522 
L 1381 1569 
Q 847 1681 609 1914 
Q 372 2147 372 2553 
Q 372 3047 722 3315 
Q 1072 3584 1716 3584 
Q 2034 3584 2315 3537 
Q 2597 3491 2834 3397 
z
" id="DejaVuSans-73" transform="scale(0.015625)"/>
      </defs>
      <use xlink:href="#DejaVuSans-4e"/>
      <use x="74.804688" xlink:href="#DejaVuSans-75"/>
      <use x="138.183594" xlink:href="#DejaVuSans-6d"/>
      <use x="235.595703" xlink:href="#DejaVuSans-62"/>
      <use x="299.072266" xlink:href="#DejaVuSans-65"/>
      <use x="360.595703" xlink:href="#DejaVuSans-72"/>
      <use x="401.708984" xlink:href="#DejaVuSans-20"/>
      <use x="433.496094" xlink:href="#DejaVuSans-6f"/>
      <use x="494.677734" xlink:href="#DejaVuSans-66"/>
      <use x="529.882812" xlink:href="#DejaVuSans-20"/>
      <use x="561.669922" xlink:href="#DejaVuSans-69"/>
      <use x="589.453125" xlink:href="#DejaVuSans-74"/>
      <use x="628.662109" xlink:href="#DejaVuSans-65"/>
      <use x="690.185547" xlink:href="#DejaVuSans-72"/>
      <use x="731.298828" xlink:href="#DejaVuSans-61"/>
      <use x="792.578125" xlink:href="#DejaVuSans-74"/>
      <use x="831.787109" xlink:href="#DejaVuSans-69"/>
      <use x="859.570312" xlink:href="#DejaVuSans-6f"/>
      <use x="920.751953" xlink:href="#DejaVuSans-6e"/>
      <use x="984.130859" xlink:href="#DejaVuSans-73"/>
     </g>
    </g>
   </g>
   <g id="matplotlib.axis_2">
    <g id="ytick_1">
     <g id="line2d_7">
      <defs>
       <path d="M 0 0 
L -3.5 0 
" id="m4a00054b02" style="stroke:#000000;stroke-width:0.8;"/>
      </defs>
      <g>
       <use style="stroke:#000000;stroke-width:0.8;" x="72" xlink:href="#m4a00054b02" y="334.336415"/>
      </g>
     </g>
     <g id="text_8">
      <!-- $\mathdefault{10^{-10}}$ -->
      <g transform="translate(37.1 338.135634)scale(0.1 -0.1)">
       <defs>
        <path d="M 678 2272 
L 4684 2272 
L 4684 1741 
L 678 1741 
L 678 2272 
z
" id="DejaVuSans-2212" transform="scale(0.015625)"/>
       </defs>
       <use transform="translate(0 0.765625)" xlink:href="#DejaVuSans-31"/>
       <use transform="translate(63.623047 0.765625)" xlink:href="#DejaVuSans-30"/>
       <use transform="translate(128.203125 39.046875)scale(0.7)" xlink:href="#DejaVuSans-2212"/>
       <use transform="translate(186.855469 39.046875)scale(0.7)" xlink:href="#DejaVuSans-31"/>
       <use transform="translate(231.391602 39.046875)scale(0.7)" xlink:href="#DejaVuSans-30"/>
      </g>
     </g>
    </g>
    <g id="ytick_2">
     <g id="line2d_8">
      <g>
       <use style="stroke:#000000;stroke-width:0.8;" x="72" xlink:href="#m4a00054b02" y="283.36542"/>
      </g>
     </g>
     <g id="text_9">
      <!-- $\mathdefault{10^{-7}}$ -->
      <g transform="translate(41.5 287.164639)scale(0.1 -0.1)">
       <defs>
        <path d="M 525 4666 
L 3525 4666 
L 3525 4397 
L 1831 0 
L 1172 0 
L 2766 4134 
L 525 4134 
L 525 4666 
z
" id="DejaVuSans-37" transform="scale(0.015625)"/>
       </defs>
       <use transform="translate(0 0.684375)" xlink:href="#DejaVuSans-31"/>
       <use transform="translate(63.623047 0.684375)" xlink:href="#DejaVuSans-30"/>
       <use transform="translate(128.203125 38.965625)scale(0.7)" xlink:href="#DejaVuSans-2212"/>
       <use transform="translate(186.855469 38.965625)scale(0.7)" xlink:href="#DejaVuSans-37"/>
      </g>
     </g>
    </g>
    <g id="ytick_3">
     <g id="line2d_9">
      <g>
       <use style="stroke:#000000;stroke-width:0.8;" x="72" xlink:href="#m4a00054b02" y="232.394425"/>
      </g>
     </g>
     <g id="text_10">
      <!-- $\mathdefault{10^{-4}}$ -->
      <g transform="translate(41.5 236.193644)scale(0.1 -0.1)">
       <use transform="translate(0 0.684375)" xlink:href="#DejaVuSans-31"/>
       <use transform="translate(63.623047 0.684375)" xlink:href="#DejaVuSans-30"/>
       <use transform="translate(128.203125 38.965625)scale(0.7)" xlink:href="#DejaVuSans-2212"/>
       <use transform="translate(186.855469 38.965625)scale(0.7)" xlink:href="#DejaVuSans-34"/>
      </g>
     </g>
    </g>
    <g id="ytick_4">
     <g id="line2d_10">
      <g>
       <use style="stroke:#000000;stroke-width:0.8;" x="72" xlink:href="#m4a00054b02" y="181.42343"/>
      </g>
     </g>
     <g id="text_11">
      <!-- $\mathdefault{10^{-1}}$ -->
      <g transform="translate(41.5 185.222649)scale(0.1 -0.1)">
       <use transform="translate(0 0.684375)" xlink:href="#DejaVuSans-31"/>
       <use transform="translate(63.623047 0.684375)" xlink:href="#DejaVuSans-30"/>
       <use transform="translate(128.203125 38.965625)scale(0.7)" xlink:href="#DejaVuSans-2212"/>
       <use transform="translate(186.855469 38.965625)scale(0.7)" xlink:href="#DejaVuSans-31"/>
      </g>
     </g>
    </g>
    <g id="ytick_5">
     <g id="line2d_11">
      <g>
       <use style="stroke:#000000;stroke-width:0.8;" x="72" xlink:href="#m4a00054b02" y="130.452435"/>
      </g>
     </g>
     <g id="text_12">
      <!-- $\mathdefault{10^{2}}$ -->
      <g transform="translate(47.4 134.251654)scale(0.1 -0.1)">
       <use transform="translate(0 0.765625)" xlink:href="#DejaVuSans-31"/>
       <use transform="translate(63.623047 0.765625)" xlink:href="#DejaVuSans-30"/>
       <use transform="translate(128.203125 39.046875)scale(0.7)" xlink:href="#DejaVuSans-32"/>
      </g>
     </g>
    </g>
    <g id="ytick_6">
     <g id="line2d_12">
      <g>
       <use style="stroke:#000000;stroke-width:0.8;" x="72" xlink:href="#m4a00054b02" y="79.48144"/>
      </g>
     </g>
     <g id="text_13">
      <!-- $\mathdefault{10^{5}}$ -->
      <g transform="translate(47.4 83.280659)scale(0.1 -0.1)">
       <defs>
        <path d="M 691 4666 
L 3169 4666 
L 3169 4134 
L 1269 4134 
L 1269 2991 
Q 1406 3038 1543 3061 
Q 1681 3084 1819 3084 
Q 2600 3084 3056 2656 
Q 3513 2228 3513 1497 
Q 3513 744 3044 326 
Q 2575 -91 1722 -91 
Q 1428 -91 1123 -41 
Q 819 9 494 109 
L 494 744 
Q 775 591 1075 516 
Q 1375 441 1709 441 
Q 2250 441 2565 725 
Q 2881 1009 2881 1497 
Q 2881 1984 2565 2268 
Q 2250 2553 1709 2553 
Q 1456 2553 1204 2497 
Q 953 2441 691 2322 
L 691 4666 
z
" id="DejaVuSans-35" transform="scale(0.015625)"/>
       </defs>
       <use transform="translate(0 0.684375)" xlink:href="#DejaVuSans-31"/>
       <use transform="translate(63.623047 0.684375)" xlink:href="#DejaVuSans-30"/>
       <use transform="translate(128.203125 38.965625)scale(0.7)" xlink:href="#DejaVuSans-35"/>
      </g>
     </g>
    </g>
    <g id="text_14">
     <!-- Norm of the residuals -->
     <g transform="translate(31.020312 272.004531)rotate(-90)scale(0.1 -0.1)">
      <defs>
       <path d="M 3513 2113 
L 3513 0 
L 2938 0 
L 2938 2094 
Q 2938 2591 2744 2837 
Q 2550 3084 2163 3084 
Q 1697 3084 1428 2787 
Q 1159 2491 1159 1978 
L 1159 0 
L 581 0 
L 581 4863 
L 1159 4863 
L 1159 2956 
Q 1366 3272 1645 3428 
Q 1925 3584 2291 3584 
Q 2894 3584 3203 3211 
Q 3513 2838 3513 2113 
z
" id="DejaVuSans-68" transform="scale(0.015625)"/>
       <path d="M 2906 2969 
L 2906 4863 
L 3481 4863 
L 3481 0 
L 2906 0 
L 2906 525 
Q 2725 213 2448 61 
Q 2172 -91 1784 -91 
Q 1150 -91 751 415 
Q 353 922 353 1747 
Q 353 2572 751 3078 
Q 1150 3584 1784 3584 
Q 2172 3584 2448 3432 
Q 2725 3281 2906 2969 
z
M 947 1747 
Q 947 1113 1208 752 
Q 1469 391 1925 391 
Q 2381 391 2643 752 
Q 2906 1113 2906 1747 
Q 2906 2381 2643 2742 
Q 2381 3103 1925 3103 
Q 1469 3103 1208 2742 
Q 947 2381 947 1747 
z
" id="DejaVuSans-64" transform="scale(0.015625)"/>
       <path d="M 603 4863 
L 1178 4863 
L 1178 0 
L 603 0 
L 603 4863 
z
" id="DejaVuSans-6c" transform="scale(0.015625)"/>
      </defs>
      <use xlink:href="#DejaVuSans-4e"/>
      <use x="74.804688" xlink:href="#DejaVuSans-6f"/>
      <use x="135.986328" xlink:href="#DejaVuSans-72"/>
      <use x="175.349609" xlink:href="#DejaVuSans-6d"/>
      <use x="272.761719" xlink:href="#DejaVuSans-20"/>
      <use x="304.548828" xlink:href="#DejaVuSans-6f"/>
      <use x="365.730469" xlink:href="#DejaVuSans-66"/>
      <use x="400.935547" xlink:href="#DejaVuSans-20"/>
      <use x="432.722656" xlink:href="#DejaVuSans-74"/>
      <use x="471.931641" xlink:href="#DejaVuSans-68"/>
      <use x="535.310547" xlink:href="#DejaVuSans-65"/>
      <use x="596.833984" xlink:href="#DejaVuSans-20"/>
      <use x="628.621094" xlink:href="#DejaVuSans-72"/>
      <use x="667.484375" xlink:href="#DejaVuSans-65"/>
      <use x="729.007812" xlink:href="#DejaVuSans-73"/>
      <use x="781.107422" xlink:href="#DejaVuSans-69"/>
      <use x="808.890625" xlink:href="#DejaVuSans-64"/>
      <use x="872.367188" xlink:href="#DejaVuSans-75"/>
      <use x="935.746094" xlink:href="#DejaVuSans-61"/>
      <use x="997.025391" xlink:href="#DejaVuSans-6c"/>
      <use x="1024.808594" xlink:href="#DejaVuSans-73"/>
     </g>
    </g>
   </g>
   <g id="line2d_13">
    <path clip-path="url(#p265f8e7741)" d="M 92.290909 111.681288 
L 96.349091 111.722708 
L 100.407273 111.787569 
L 104.465455 111.83353 
L 108.523636 111.854161 
L 112.581818 111.865098 
L 116.64 111.944386 
L 120.698182 111.995022 
L 124.756364 112.003108 
L 128.814545 112.003108 
L 132.872727 112.168276 
L 136.930909 112.193976 
L 140.989091 112.195017 
L 145.047273 112.248429 
L 149.105455 112.472856 
L 153.163636 112.477453 
L 157.221818 112.482012 
L 161.28 113.428499 
L 165.338182 113.544855 
L 169.396364 113.689545 
L 173.454545 113.701084 
L 177.512727 113.701437 
L 181.570909 113.745704 
L 185.629091 113.997536 
L 189.687273 114.0508 
L 193.745455 114.055212 
L 197.803636 115.103609 
L 201.861818 115.107402 
L 205.92 115.140408 
L 209.978182 115.145695 
L 214.036364 115.246976 
L 218.094545 115.248623 
L 222.152727 115.704834 
L 226.210909 115.718404 
L 230.269091 115.745811 
L 234.327273 115.907557 
L 238.385455 115.918567 
L 242.443636 116.171038 
L 246.501818 116.287658 
L 250.56 116.77803 
L 254.618182 116.912483 
L 258.676364 117.536644 
L 262.734545 117.846213 
L 266.792727 117.848957 
L 270.850909 118.007514 
L 274.909091 118.39219 
L 278.967273 118.392299 
L 283.025455 118.509218 
L 287.083636 118.564996 
L 291.141818 118.641433 
L 295.2 119.459996 
L 299.258182 119.569037 
L 303.316364 119.650256 
L 307.374545 119.719906 
L 311.432727 119.761576 
L 315.490909 119.763513 
L 319.549091 119.815979 
L 323.607273 119.987892 
L 327.665455 120.312232 
L 331.723636 120.332311 
L 335.781818 120.427879 
L 339.84 120.462253 
L 343.898182 120.484759 
L 347.956364 120.788128 
L 352.014545 121.115759 
L 356.072727 121.116047 
L 360.130909 121.405812 
L 364.189091 122.502468 
L 368.247273 122.760899 
L 372.305455 122.761244 
L 376.363636 122.871517 
L 380.421818 123.805512 
L 384.48 124.101362 
L 388.538182 124.21978 
L 392.596364 124.221155 
L 396.654545 124.82282 
L 400.712727 124.907712 
L 404.770909 125.287153 
L 408.829091 125.295264 
L 412.887273 125.404416 
L 416.945455 126.985979 
L 421.003636 127.26626 
L 425.061818 127.937847 
L 429.12 127.93785 
L 433.178182 128.744713 
L 437.236364 128.975299 
L 441.294545 129.512584 
L 445.352727 129.845213 
L 449.410909 129.845423 
L 453.469091 130.201454 
L 457.527273 130.670858 
L 461.585455 130.745259 
L 465.643636 130.745726 
L 469.701818 134.172773 
L 473.76 136.35685 
L 477.818182 137.379477 
L 481.876364 137.622701 
L 485.934545 138.638402 
L 489.992727 144.880294 
L 494.050909 156.708077 
L 498.109091 349.136664 
" style="fill:none;stroke:#1f77b4;stroke-linecap:square;stroke-width:1.5;"/>
   </g>
   <g id="line2d_14">
    <path clip-path="url(#p265f8e7741)" d="M 92.290909 111.681288 
L 96.349091 117.053432 
L 100.407273 119.639078 
L 104.465455 121.639596 
L 108.523636 123.637592 
L 112.581818 125.895527 
L 116.64 127.727814 
L 120.698182 128.822876 
L 124.756364 129.557694 
L 128.814545 130.02677 
L 132.872727 130.995275 
L 136.930909 131.791641 
L 140.989091 132.435294 
L 145.047273 133.193641 
L 149.105455 133.618575 
L 153.163636 134.108051 
L 157.221818 134.754654 
L 161.28 135.621455 
L 165.338182 136.54513 
L 169.396364 137.025482 
L 173.454545 137.670131 
L 177.512727 138.300585 
L 181.570909 138.727074 
L 185.629091 139.102937 
L 189.687273 139.530596 
L 193.745455 139.975341 
L 197.803636 140.52372 
L 201.861818 141.026868 
L 205.92 141.479556 
L 209.978182 141.901593 
L 214.036364 142.574506 
L 218.094545 143.434947 
L 222.152727 144.420104 
L 226.210909 144.921467 
L 230.269091 145.489932 
L 234.327273 145.995664 
L 238.385455 146.359848 
L 242.443636 146.810666 
L 246.501818 147.192581 
L 250.56 147.752991 
L 254.618182 148.141546 
L 258.676364 148.553734 
L 262.734545 148.864168 
L 266.792727 149.147244 
L 270.850909 149.420344 
L 274.909091 149.636018 
L 278.967273 149.907866 
L 283.025455 150.19186 
L 287.083636 150.438599 
L 291.141818 150.655349 
L 295.2 150.908287 
L 299.258182 151.12774 
L 303.316364 151.477227 
L 307.374545 151.697133 
L 311.432727 151.961183 
L 315.490909 152.211074 
L 319.549091 152.427744 
L 323.607273 152.546262 
L 327.665455 152.825069 
L 331.723636 153.020028 
L 335.781818 153.222544 
L 339.84 153.497712 
L 343.898182 153.895066 
L 347.956364 154.138738 
L 352.014545 154.425183 
L 356.072727 154.971483 
L 360.130909 155.897111 
L 364.189091 156.778377 
L 368.247273 157.796459 
L 372.305455 158.538627 
L 376.363636 159.954557 
L 380.421818 160.714591 
L 384.48 161.014906 
L 388.538182 161.815378 
L 392.596364 162.105138 
L 396.654545 162.558094 
L 400.712727 162.840647 
L 404.770909 163.103759 
L 408.829091 163.258894 
L 412.887273 163.51148 
L 416.945455 163.955445 
L 421.003636 164.334365 
L 425.061818 164.810577 
L 429.12 165.289737 
L 433.178182 165.525604 
L 437.236364 165.859851 
L 441.294545 166.725548 
L 445.352727 167.393455 
L 449.410909 168.556314 
L 453.469091 169.040907 
L 457.527273 169.620038 
L 461.585455 170.302308 
L 465.643636 170.648786 
L 469.701818 170.903096 
L 473.76 171.365959 
L 477.818182 171.923067 
L 481.876364 172.035316 
L 485.934545 172.259196 
L 489.992727 172.808205 
L 494.050909 173.080312 
L 498.109091 363.804004 
" style="fill:none;stroke:#ff7f0e;stroke-linecap:square;stroke-width:1.5;"/>
   </g>
   <g id="line2d_15">
    <path clip-path="url(#p265f8e7741)" d="M 92.290909 111.681288 
L 96.349091 111.786605 
L 100.407273 111.789074 
L 104.465455 111.841347 
L 108.523636 111.894358 
L 112.581818 112.074013 
L 116.64 112.081189 
L 120.698182 112.257798 
L 124.756364 112.448564 
L 128.814545 112.683332 
L 132.872727 112.683887 
L 136.930909 112.686761 
L 140.989091 112.687684 
L 145.047273 112.916368 
L 149.105455 112.91649 
L 153.163636 112.924206 
L 157.221818 113.456565 
L 161.28 113.699671 
L 165.338182 113.747399 
L 169.396364 113.82104 
L 173.454545 113.823566 
L 177.512727 113.876797 
L 181.570909 114.031981 
L 185.629091 114.24976 
L 189.687273 114.501655 
L 193.745455 114.512812 
L 197.803636 114.938868 
L 201.861818 115.094707 
L 205.92 115.103447 
L 209.978182 115.135036 
L 214.036364 115.146511 
L 218.094545 115.172867 
L 222.152727 115.197234 
L 226.210909 115.259319 
L 230.269091 115.473994 
L 234.327273 115.624378 
L 238.385455 115.672011 
L 242.443636 115.673428 
L 246.501818 115.94586 
L 250.56 116.359646 
L 254.618182 116.362912 
L 258.676364 116.429267 
L 262.734545 116.483752 
L 266.792727 116.494958 
L 270.850909 116.494963 
L 274.909091 116.785882 
L 278.967273 117.042119 
L 283.025455 117.046202 
L 287.083636 117.57842 
L 291.141818 117.714929 
L 295.2 118.644706 
L 299.258182 118.646174 
L 303.316364 118.649664 
L 307.374545 118.855272 
L 311.432727 118.944187 
L 315.490909 118.947578 
L 319.549091 119.059747 
L 323.607273 119.079206 
L 327.665455 119.133332 
L 331.723636 119.145021 
L 335.781818 120.121741 
L 339.84 120.190712 
L 343.898182 120.230985 
L 347.956364 120.306643 
L 352.014545 120.43899 
L 356.072727 120.473672 
L 360.130909 120.890603 
L 364.189091 120.966223 
L 368.247273 121.24409 
L 372.305455 121.474145 
L 376.363636 121.902486 
L 380.421818 121.902703 
L 384.48 123.261271 
L 388.538182 123.508519 
L 392.596364 123.638701 
L 396.654545 124.797128 
L 400.712727 124.802956 
L 404.770909 124.860597 
L 408.829091 124.92201 
L 412.887273 125.700831 
L 416.945455 126.50216 
L 421.003636 128.166406 
L 425.061818 128.429129 
L 429.12 128.573764 
L 433.178182 128.613925 
L 437.236364 129.032775 
L 441.294545 129.663251 
L 445.352727 129.664484 
L 449.410909 129.76993 
L 453.469091 132.188852 
L 457.527273 137.293277 
L 461.585455 137.852642 
L 465.643636 138.49769 
L 469.701818 138.538309 
L 473.76 139.667597 
L 477.818182 139.717935 
L 481.876364 142.607894 
L 485.934545 149.557714 
L 489.992727 149.727988 
L 494.050909 150.262836 
L 498.109091 346.0535 
" style="fill:none;stroke:#2ca02c;stroke-linecap:square;stroke-width:1.5;"/>
   </g>
   <g id="line2d_16">
    <path clip-path="url(#p265f8e7741)" d="M 92.290909 111.681288 
L 96.349091 111.601125 
L 100.407273 112.128574 
L 104.465455 108.307683 
L 108.523636 103.778231 
L 112.581818 107.011709 
L 116.64 102.072 
L 120.698182 105.659129 
L 124.756364 76.874486 
L 128.814545 105.62463 
L 132.872727 91.677135 
L 136.930909 84.631346 
L 140.989091 95.881461 
L 145.047273 95.478323 
L 149.105455 95.49799 
L 153.163636 92.903865 
L 157.221818 96.067621 
L 161.28 100.570975 
L 165.338182 102.010973 
L 169.396364 88.809684 
L 173.454545 101.711262 
L 177.512727 92.556007 
L 181.570909 96.336279 
L 185.629091 101.070812 
L 189.687273 78.838412 
L 193.745455 101.208157 
L 197.803636 101.4526 
L 201.861818 101.693242 
L 205.92 94.248495 
L 209.978182 98.83156 
L 214.036364 89.066834 
L 218.094545 71.683932 
L 222.152727 86.709191 
L 226.210909 90.439631 
L 230.269091 89.471113 
L 234.327273 102.24717 
L 238.385455 101.101224 
L 242.443636 101.299266 
L 246.501818 93.34156 
L 250.56 104.797227 
L 254.618182 104.656023 
L 258.676364 104.910969 
L 262.734545 106.222585 
L 266.792727 106.56256 
L 270.850909 106.338874 
L 274.909091 108.077159 
L 278.967273 106.130252 
L 283.025455 98.728976 
L 287.083636 107.251375 
L 291.141818 98.863313 
L 295.2 101.048761 
L 299.258182 95.64611 
L 303.316364 101.160461 
L 307.374545 102.187279 
L 311.432727 101.892331 
L 315.490909 102.442252 
L 319.549091 106.939992 
L 323.607273 107.399875 
L 327.665455 108.800267 
L 331.723636 108.168587 
L 335.781818 94.937125 
L 339.84 98.436864 
L 343.898182 99.994574 
L 347.956364 101.447372 
L 352.014545 99.356288 
L 356.072727 94.742124 
L 360.130909 109.736262 
L 364.189091 110.791261 
L 368.247273 110.732073 
L 372.305455 85.668524 
L 376.363636 102.607465 
L 380.421818 85.377013 
L 384.48 92.738764 
L 388.538182 104.673312 
L 392.596364 103.875484 
L 396.654545 93.012831 
L 400.712727 86.821862 
L 404.770909 116.760181 
L 408.829091 116.054124 
L 412.887273 115.874184 
L 416.945455 116.607905 
L 421.003636 105.232329 
L 425.061818 110.209265 
L 429.12 101.773123 
L 433.178182 117.713412 
L 437.236364 113.076015 
L 441.294545 113.104399 
L 445.352727 119.889003 
L 449.410909 106.0149 
L 453.469091 117.968935 
L 457.527273 117.334312 
L 461.585455 109.635507 
L 465.643636 101.329067 
L 469.701818 120.353108 
L 473.76 117.950416 
L 477.818182 116.485603 
L 481.876364 118.659803 
L 485.934545 134.610937 
L 489.992727 132.200836 
L 494.050909 137.403643 
L 498.109091 358.486445 
" style="fill:none;stroke:#d62728;stroke-linecap:square;stroke-width:1.5;"/>
   </g>
   <g id="line2d_17">
    <path clip-path="url(#p265f8e7741)" d="M 92.290909 111.681288 
L 96.349091 91.396798 
L 100.407273 115.668416 
L 104.465455 119.986032 
L 108.523636 114.133499 
L 112.581818 117.362988 
L 116.64 120.876644 
L 120.698182 123.962081 
L 124.756364 117.205678 
L 128.814545 123.392584 
L 132.872727 114.957957 
L 136.930909 119.436548 
L 140.989091 127.250198 
L 145.047273 124.972736 
L 149.105455 130.422173 
L 153.163636 123.92976 
L 157.221818 118.800424 
L 161.28 126.710789 
L 165.338182 122.532208 
L 169.396364 122.154403 
L 173.454545 122.882906 
L 177.512727 121.521739 
L 181.570909 115.088079 
L 185.629091 105.050484 
L 189.687273 118.091246 
L 193.745455 123.094191 
L 197.803636 123.125051 
L 201.861818 124.170367 
L 205.92 129.71903 
L 209.978182 133.080909 
L 214.036364 131.320284 
L 218.094545 128.593908 
L 222.152727 133.769525 
L 226.210909 125.540435 
L 230.269091 128.67733 
L 234.327273 121.910987 
L 238.385455 125.89988 
L 242.443636 130.408728 
L 246.501818 126.461256 
L 250.56 129.432193 
L 254.618182 134.901865 
L 258.676364 119.118759 
L 262.734545 129.667375 
L 266.792727 138.06196 
L 270.850909 137.769576 
L 274.909091 137.816211 
L 278.967273 137.936571 
L 283.025455 140.450561 
L 287.083636 140.973173 
L 291.141818 130.50219 
L 295.2 137.278695 
L 299.258182 137.143648 
L 303.316364 137.123407 
L 307.374545 136.323067 
L 311.432727 141.364412 
L 315.490909 138.060223 
L 319.549091 138.738908 
L 323.607273 131.556497 
L 327.665455 117.255233 
L 331.723636 136.288702 
L 335.781818 132.966633 
L 339.84 137.267897 
L 343.898182 133.500207 
L 347.956364 134.508053 
L 352.014545 134.17293 
L 356.072727 133.350263 
L 360.130909 99.50859 
L 364.189091 137.971376 
L 368.247273 124.394543 
L 372.305455 144.74378 
L 376.363636 136.029457 
L 380.421818 136.07589 
L 384.48 142.270446 
L 388.538182 149.155439 
L 392.596364 126.874473 
L 396.654545 144.279099 
L 400.712727 146.202176 
L 404.770909 143.820953 
L 408.829091 146.723439 
L 412.887273 150.23888 
L 416.945455 139.18522 
L 421.003636 140.196147 
L 425.061818 143.715341 
L 429.12 140.681738 
L 433.178182 147.34893 
L 437.236364 145.468239 
L 441.294545 147.853813 
L 445.352727 152.428395 
L 449.410909 147.499101 
L 453.469091 150.53326 
L 457.527273 127.262366 
L 461.585455 144.764878 
L 465.643636 143.589616 
L 469.701818 145.554481 
L 473.76 148.948771 
L 477.818182 148.070768 
L 481.876364 143.222499 
L 485.934545 143.134159 
L 489.992727 153.652816 
L 494.050909 153.566685 
L 498.109091 369.36 
" style="fill:none;stroke:#9467bd;stroke-linecap:square;stroke-width:1.5;"/>
   </g>
   <g id="line2d_18">
    <path clip-path="url(#p265f8e7741)" d="M 92.290909 111.681288 
L 96.349091 98.61363 
L 100.407273 84.820862 
L 104.465455 96.110444 
L 108.523636 96.214769 
L 112.581818 100.834502 
L 116.64 89.046388 
L 120.698182 100.956708 
L 124.756364 101.424947 
L 128.814545 102.403648 
L 132.872727 80.209376 
L 136.930909 86.279064 
L 140.989091 82.08988 
L 145.047273 102.542832 
L 149.105455 74.842209 
L 153.163636 90.157119 
L 157.221818 106.051264 
L 161.28 103.544618 
L 165.338182 97.683203 
L 169.396364 99.343859 
L 173.454545 86.939774 
L 177.512727 98.212365 
L 181.570909 102.264375 
L 185.629091 103.701362 
L 189.687273 104.473297 
L 193.745455 93.104396 
L 197.803636 106.76376 
L 201.861818 103.342339 
L 205.92 92.795259 
L 209.978182 97.556251 
L 214.036364 93.841504 
L 218.094545 96.928449 
L 222.152727 96.66424 
L 226.210909 100.15816 
L 230.269091 104.874173 
L 234.327273 103.743238 
L 238.385455 99.600451 
L 242.443636 86.657108 
L 246.501818 106.196519 
L 250.56 108.082747 
L 254.618182 90.425625 
L 258.676364 101.571399 
L 262.734545 100.904609 
L 266.792727 95.102563 
L 270.850909 66.96 
L 274.909091 107.269642 
L 278.967273 107.074678 
L 283.025455 91.932596 
L 287.083636 110.172205 
L 291.141818 105.483559 
L 295.2 113.104562 
L 299.258182 89.760297 
L 303.316364 92.956679 
L 307.374545 108.100729 
L 311.432727 105.154777 
L 315.490909 93.149489 
L 319.549091 106.115945 
L 323.607273 99.718852 
L 327.665455 103.529957 
L 331.723636 97.908255 
L 335.781818 114.740857 
L 339.84 105.474157 
L 343.898182 103.543844 
L 347.956364 105.928206 
L 352.014545 108.095436 
L 356.072727 103.237874 
L 360.130909 112.640098 
L 364.189091 106.585911 
L 368.247273 111.564957 
L 372.305455 111.121977 
L 376.363636 113.745989 
L 380.421818 85.970079 
L 384.48 118.916971 
L 388.538182 113.41376 
L 392.596364 111.235361 
L 396.654545 119.959247 
L 400.712727 101.001499 
L 404.770909 109.487641 
L 408.829091 109.781014 
L 412.887273 119.579628 
L 416.945455 120.475215 
L 421.003636 124.428403 
L 425.061818 118.550702 
L 429.12 116.551675 
L 433.178182 111.916562 
L 437.236364 120.798269 
L 441.294545 122.834265 
L 445.352727 100.133928 
L 449.410909 116.60143 
L 453.469091 129.487783 
L 457.527273 136.228503 
L 461.585455 130.616738 
L 465.643636 131.745928 
L 469.701818 121.882551 
L 473.76 134.749545 
L 477.818182 123.848768 
L 481.876364 140.355724 
L 485.934545 148.949326 
L 489.992727 138.295256 
L 494.050909 142.873526 
L 498.109091 367.511911 
" style="fill:none;stroke:#8c564b;stroke-linecap:square;stroke-width:1.5;"/>
   </g>
   <g id="patch_3">
    <path d="M 72 384.48 
L 72 51.84 
" style="fill:none;stroke:#000000;stroke-linecap:square;stroke-linejoin:miter;stroke-width:0.8;"/>
   </g>
   <g id="patch_4">
    <path d="M 518.4 384.48 
L 518.4 51.84 
" style="fill:none;stroke:#000000;stroke-linecap:square;stroke-linejoin:miter;stroke-width:0.8;"/>
   </g>
   <g id="patch_5">
    <path d="M 72 384.48 
L 518.4 384.48 
" style="fill:none;stroke:#000000;stroke-linecap:square;stroke-linejoin:miter;stroke-width:0.8;"/>
   </g>
   <g id="patch_6">
    <path d="M 72 51.84 
L 518.4 51.84 
" style="fill:none;stroke:#000000;stroke-linecap:square;stroke-linejoin:miter;stroke-width:0.8;"/>
   </g>
   <g id="legend_1">
    <g id="patch_7">
     <path d="M 79 379.48 
L 180.740625 379.48 
Q 182.740625 379.48 182.740625 377.48 
L 182.740625 288.7425 
Q 182.740625 286.7425 180.740625 286.7425 
L 79 286.7425 
Q 77 286.7425 77 288.7425 
L 77 377.48 
Q 77 379.48 79 379.48 
z
" style="fill:#ffffff;opacity:0.8;stroke:#cccccc;stroke-linejoin:miter;"/>
    </g>
    <g id="line2d_19">
     <path d="M 81 294.840937 
L 101 294.840937 
" style="fill:none;stroke:#1f77b4;stroke-linecap:square;stroke-width:1.5;"/>
    </g>
    <g id="line2d_20"/>
    <g id="text_15">
     <!-- rand_minres -->
     <g transform="translate(109 298.340937)scale(0.1 -0.1)">
      <defs>
       <path d="M 3263 -1063 
L 3263 -1509 
L -63 -1509 
L -63 -1063 
L 3263 -1063 
z
" id="DejaVuSans-5f" transform="scale(0.015625)"/>
      </defs>
      <use xlink:href="#DejaVuSans-72"/>
      <use x="41.113281" xlink:href="#DejaVuSans-61"/>
      <use x="102.392578" xlink:href="#DejaVuSans-6e"/>
      <use x="165.771484" xlink:href="#DejaVuSans-64"/>
      <use x="229.248047" xlink:href="#DejaVuSans-5f"/>
      <use x="279.248047" xlink:href="#DejaVuSans-6d"/>
      <use x="376.660156" xlink:href="#DejaVuSans-69"/>
      <use x="404.443359" xlink:href="#DejaVuSans-6e"/>
      <use x="467.822266" xlink:href="#DejaVuSans-72"/>
      <use x="506.685547" xlink:href="#DejaVuSans-65"/>
      <use x="568.208984" xlink:href="#DejaVuSans-73"/>
     </g>
    </g>
    <g id="line2d_21">
     <path d="M 81 309.797188 
L 101 309.797188 
" style="fill:none;stroke:#ff7f0e;stroke-linecap:square;stroke-width:1.5;"/>
    </g>
    <g id="line2d_22"/>
    <g id="text_16">
     <!-- grad_minres -->
     <g transform="translate(109 313.297188)scale(0.1 -0.1)">
      <defs>
       <path d="M 2906 1791 
Q 2906 2416 2648 2759 
Q 2391 3103 1925 3103 
Q 1463 3103 1205 2759 
Q 947 2416 947 1791 
Q 947 1169 1205 825 
Q 1463 481 1925 481 
Q 2391 481 2648 825 
Q 2906 1169 2906 1791 
z
M 3481 434 
Q 3481 -459 3084 -895 
Q 2688 -1331 1869 -1331 
Q 1566 -1331 1297 -1286 
Q 1028 -1241 775 -1147 
L 775 -588 
Q 1028 -725 1275 -790 
Q 1522 -856 1778 -856 
Q 2344 -856 2625 -561 
Q 2906 -266 2906 331 
L 2906 616 
Q 2728 306 2450 153 
Q 2172 0 1784 0 
Q 1141 0 747 490 
Q 353 981 353 1791 
Q 353 2603 747 3093 
Q 1141 3584 1784 3584 
Q 2172 3584 2450 3431 
Q 2728 3278 2906 2969 
L 2906 3500 
L 3481 3500 
L 3481 434 
z
" id="DejaVuSans-67" transform="scale(0.015625)"/>
      </defs>
      <use xlink:href="#DejaVuSans-67"/>
      <use x="63.476562" xlink:href="#DejaVuSans-72"/>
      <use x="104.589844" xlink:href="#DejaVuSans-61"/>
      <use x="165.869141" xlink:href="#DejaVuSans-64"/>
      <use x="229.345703" xlink:href="#DejaVuSans-5f"/>
      <use x="279.345703" xlink:href="#DejaVuSans-6d"/>
      <use x="376.757812" xlink:href="#DejaVuSans-69"/>
      <use x="404.541016" xlink:href="#DejaVuSans-6e"/>
      <use x="467.919922" xlink:href="#DejaVuSans-72"/>
      <use x="506.783203" xlink:href="#DejaVuSans-65"/>
      <use x="568.306641" xlink:href="#DejaVuSans-73"/>
     </g>
    </g>
    <g id="line2d_23">
     <path d="M 81 324.753438 
L 101 324.753438 
" style="fill:none;stroke:#2ca02c;stroke-linecap:square;stroke-width:1.5;"/>
    </g>
    <g id="line2d_24"/>
    <g id="text_17">
     <!-- krylov_minres -->
     <g transform="translate(109 328.253438)scale(0.1 -0.1)">
      <defs>
       <path d="M 581 4863 
L 1159 4863 
L 1159 1991 
L 2875 3500 
L 3609 3500 
L 1753 1863 
L 3688 0 
L 2938 0 
L 1159 1709 
L 1159 0 
L 581 0 
L 581 4863 
z
" id="DejaVuSans-6b" transform="scale(0.015625)"/>
       <path d="M 2059 -325 
Q 1816 -950 1584 -1140 
Q 1353 -1331 966 -1331 
L 506 -1331 
L 506 -850 
L 844 -850 
Q 1081 -850 1212 -737 
Q 1344 -625 1503 -206 
L 1606 56 
L 191 3500 
L 800 3500 
L 1894 763 
L 2988 3500 
L 3597 3500 
L 2059 -325 
z
" id="DejaVuSans-79" transform="scale(0.015625)"/>
       <path d="M 191 3500 
L 800 3500 
L 1894 563 
L 2988 3500 
L 3597 3500 
L 2284 0 
L 1503 0 
L 191 3500 
z
" id="DejaVuSans-76" transform="scale(0.015625)"/>
      </defs>
      <use xlink:href="#DejaVuSans-6b"/>
      <use x="57.910156" xlink:href="#DejaVuSans-72"/>
      <use x="99.023438" xlink:href="#DejaVuSans-79"/>
      <use x="158.203125" xlink:href="#DejaVuSans-6c"/>
      <use x="185.986328" xlink:href="#DejaVuSans-6f"/>
      <use x="247.167969" xlink:href="#DejaVuSans-76"/>
      <use x="306.347656" xlink:href="#DejaVuSans-5f"/>
      <use x="356.347656" xlink:href="#DejaVuSans-6d"/>
      <use x="453.759766" xlink:href="#DejaVuSans-69"/>
      <use x="481.542969" xlink:href="#DejaVuSans-6e"/>
      <use x="544.921875" xlink:href="#DejaVuSans-72"/>
      <use x="583.785156" xlink:href="#DejaVuSans-65"/>
      <use x="645.308594" xlink:href="#DejaVuSans-73"/>
     </g>
    </g>
    <g id="line2d_25">
     <path d="M 81 339.709687 
L 101 339.709687 
" style="fill:none;stroke:#d62728;stroke-linecap:square;stroke-width:1.5;"/>
    </g>
    <g id="line2d_26"/>
    <g id="text_18">
     <!-- rand_fom -->
     <g transform="translate(109 343.209687)scale(0.1 -0.1)">
      <use xlink:href="#DejaVuSans-72"/>
      <use x="41.113281" xlink:href="#DejaVuSans-61"/>
      <use x="102.392578" xlink:href="#DejaVuSans-6e"/>
      <use x="165.771484" xlink:href="#DejaVuSans-64"/>
      <use x="229.248047" xlink:href="#DejaVuSans-5f"/>
      <use x="279.248047" xlink:href="#DejaVuSans-66"/>
      <use x="314.453125" xlink:href="#DejaVuSans-6f"/>
      <use x="375.634766" xlink:href="#DejaVuSans-6d"/>
     </g>
    </g>
    <g id="line2d_27">
     <path d="M 81 354.665937 
L 101 354.665937 
" style="fill:none;stroke:#9467bd;stroke-linecap:square;stroke-width:1.5;"/>
    </g>
    <g id="line2d_28"/>
    <g id="text_19">
     <!-- grad_fom -->
     <g transform="translate(109 358.165937)scale(0.1 -0.1)">
      <use xlink:href="#DejaVuSans-67"/>
      <use x="63.476562" xlink:href="#DejaVuSans-72"/>
      <use x="104.589844" xlink:href="#DejaVuSans-61"/>
      <use x="165.869141" xlink:href="#DejaVuSans-64"/>
      <use x="229.345703" xlink:href="#DejaVuSans-5f"/>
      <use x="279.345703" xlink:href="#DejaVuSans-66"/>
      <use x="314.550781" xlink:href="#DejaVuSans-6f"/>
      <use x="375.732422" xlink:href="#DejaVuSans-6d"/>
     </g>
    </g>
    <g id="line2d_29">
     <path d="M 81 369.622187 
L 101 369.622187 
" style="fill:none;stroke:#8c564b;stroke-linecap:square;stroke-width:1.5;"/>
    </g>
    <g id="line2d_30"/>
    <g id="text_20">
     <!-- krylov_fom -->
     <g transform="translate(109 373.122187)scale(0.1 -0.1)">
      <use xlink:href="#DejaVuSans-6b"/>
      <use x="57.910156" xlink:href="#DejaVuSans-72"/>
      <use x="99.023438" xlink:href="#DejaVuSans-79"/>
      <use x="158.203125" xlink:href="#DejaVuSans-6c"/>
      <use x="185.986328" xlink:href="#DejaVuSans-6f"/>
      <use x="247.167969" xlink:href="#DejaVuSans-76"/>
      <use x="306.347656" xlink:href="#DejaVuSans-5f"/>
      <use x="356.347656" xlink:href="#DejaVuSans-66"/>
      <use x="391.552734" xlink:href="#DejaVuSans-6f"/>
      <use x="452.734375" xlink:href="#DejaVuSans-6d"/>
     </g>
    </g>
   </g>
  </g>
 </g>
 <defs>
  <clipPath id="p265f8e7741">
   <rect height="332.64" width="446.4" x="72" y="51.84"/>
  </clipPath>
 </defs>
</svg>
