<?xml version="1.0" encoding="utf-8" standalone="no"?>
<!DOCTYPE svg PUBLIC "-//W3C//DTD SVG 1.1//EN"
  "http://www.w3.org/Graphics/SVG/1.1/DTD/svg11.dtd">
<svg height="432pt" version="1.1" viewBox="0 0 576 432" width="576pt" xmlns="http://www.w3.org/2000/svg" xmlns:xlink="http://www.w3.org/1999/xlink">
 <metadata>
  <rdf:RDF xmlns:cc="http://creativecommons.org/ns#" xmlns:dc="http://purl.org/dc/elements/1.1/" xmlns:rdf="http://www.w3.org/1999/02/22-rdf-syntax-ns#">
   <cc:Work>
    <dc:type rdf:resource="http://purl.org/dc/dcmitype/StillImage"/>
    <dc:date>2021-07-09T00:18:54.863112</dc:date>
    <dc:format>image/svg+xml</dc:format>
    <dc:creator>
     <cc:Agent>
      <dc:title>Matplotlib v3.4.2, https://matplotlib.org/</dc:title>
     </cc:Agent>
    </dc:creator>
   </cc:Work>
  </rdf:RDF>
 </metadata>
 <defs>
  <style type="text/css">*{stroke-linecap:butt;stroke-linejoin:round;}</style>
 </defs>
 <g id="figure_1">
  <g id="patch_1">
   <path d="M 0 432 
L 576 432 
L 576 0 
L 0 0 
z
" style="fill:#ffffff;"/>
  </g>
  <g id="axes_1">
   <g id="patch_2">
    <path d="M 72 384.48 
L 518.4 384.48 
L 518.4 51.84 
L 72 51.84 
z
" style="fill:#ffffff;"/>
   </g>
   <g id="matplotlib.axis_1">
    <g id="xtick_1">
     <g id="line2d_1">
      <defs>
       <path d="M 0 0 
L 0 3.5 
" id="m4b2bd0988b" style="stroke:#000000;stroke-width:0.8;"/>
      </defs>
      <g>
       <use style="stroke:#000000;stroke-width:0.8;" x="92.290909" xlink:href="#m4b2bd0988b" y="384.48"/>
      </g>
     </g>
     <g id="text_1">
      <!-- 0 -->
      <g transform="translate(89.109659 399.078438)scale(0.1 -0.1)">
       <defs>
        <path d="M 2034 4250 
Q 1547 4250 1301 3770 
Q 1056 3291 1056 2328 
Q 1056 1369 1301 889 
Q 1547 409 2034 409 
Q 2525 409 2770 889 
Q 3016 1369 3016 2328 
Q 3016 3291 2770 3770 
Q 2525 4250 2034 4250 
z
M 2034 4750 
Q 2819 4750 3233 4129 
Q 3647 3509 3647 2328 
Q 3647 1150 3233 529 
Q 2819 -91 2034 -91 
Q 1250 -91 836 529 
Q 422 1150 422 2328 
Q 422 3509 836 4129 
Q 1250 4750 2034 4750 
z
" id="DejaVuSans-30" transform="scale(0.015625)"/>
       </defs>
       <use xlink:href="#DejaVuSans-30"/>
      </g>
     </g>
    </g>
    <g id="xtick_2">
     <g id="line2d_2">
      <g>
       <use style="stroke:#000000;stroke-width:0.8;" x="173.454545" xlink:href="#m4b2bd0988b" y="384.48"/>
      </g>
     </g>
     <g id="text_2">
      <!-- 20 -->
      <g transform="translate(167.092045 399.078438)scale(0.1 -0.1)">
       <defs>
        <path d="M 1228 531 
L 3431 531 
L 3431 0 
L 469 0 
L 469 531 
Q 828 903 1448 1529 
Q 2069 2156 2228 2338 
Q 2531 2678 2651 2914 
Q 2772 3150 2772 3378 
Q 2772 3750 2511 3984 
Q 2250 4219 1831 4219 
Q 1534 4219 1204 4116 
Q 875 4013 500 3803 
L 500 4441 
Q 881 4594 1212 4672 
Q 1544 4750 1819 4750 
Q 2544 4750 2975 4387 
Q 3406 4025 3406 3419 
Q 3406 3131 3298 2873 
Q 3191 2616 2906 2266 
Q 2828 2175 2409 1742 
Q 1991 1309 1228 531 
z
" id="DejaVuSans-32" transform="scale(0.015625)"/>
       </defs>
       <use xlink:href="#DejaVuSans-32"/>
       <use x="63.623047" xlink:href="#DejaVuSans-30"/>
      </g>
     </g>
    </g>
    <g id="xtick_3">
     <g id="line2d_3">
      <g>
       <use style="stroke:#000000;stroke-width:0.8;" x="254.618182" xlink:href="#m4b2bd0988b" y="384.48"/>
      </g>
     </g>
     <g id="text_3">
      <!-- 40 -->
      <g transform="translate(248.255682 399.078438)scale(0.1 -0.1)">
       <defs>
        <path d="M 2419 4116 
L 825 1625 
L 2419 1625 
L 2419 4116 
z
M 2253 4666 
L 3047 4666 
L 3047 1625 
L 3713 1625 
L 3713 1100 
L 3047 1100 
L 3047 0 
L 2419 0 
L 2419 1100 
L 313 1100 
L 313 1709 
L 2253 4666 
z
" id="DejaVuSans-34" transform="scale(0.015625)"/>
       </defs>
       <use xlink:href="#DejaVuSans-34"/>
       <use x="63.623047" xlink:href="#DejaVuSans-30"/>
      </g>
     </g>
    </g>
    <g id="xtick_4">
     <g id="line2d_4">
      <g>
       <use style="stroke:#000000;stroke-width:0.8;" x="335.781818" xlink:href="#m4b2bd0988b" y="384.48"/>
      </g>
     </g>
     <g id="text_4">
      <!-- 60 -->
      <g transform="translate(329.419318 399.078438)scale(0.1 -0.1)">
       <defs>
        <path d="M 2113 2584 
Q 1688 2584 1439 2293 
Q 1191 2003 1191 1497 
Q 1191 994 1439 701 
Q 1688 409 2113 409 
Q 2538 409 2786 701 
Q 3034 994 3034 1497 
Q 3034 2003 2786 2293 
Q 2538 2584 2113 2584 
z
M 3366 4563 
L 3366 3988 
Q 3128 4100 2886 4159 
Q 2644 4219 2406 4219 
Q 1781 4219 1451 3797 
Q 1122 3375 1075 2522 
Q 1259 2794 1537 2939 
Q 1816 3084 2150 3084 
Q 2853 3084 3261 2657 
Q 3669 2231 3669 1497 
Q 3669 778 3244 343 
Q 2819 -91 2113 -91 
Q 1303 -91 875 529 
Q 447 1150 447 2328 
Q 447 3434 972 4092 
Q 1497 4750 2381 4750 
Q 2619 4750 2861 4703 
Q 3103 4656 3366 4563 
z
" id="DejaVuSans-36" transform="scale(0.015625)"/>
       </defs>
       <use xlink:href="#DejaVuSans-36"/>
       <use x="63.623047" xlink:href="#DejaVuSans-30"/>
      </g>
     </g>
    </g>
    <g id="xtick_5">
     <g id="line2d_5">
      <g>
       <use style="stroke:#000000;stroke-width:0.8;" x="416.945455" xlink:href="#m4b2bd0988b" y="384.48"/>
      </g>
     </g>
     <g id="text_5">
      <!-- 80 -->
      <g transform="translate(410.582955 399.078438)scale(0.1 -0.1)">
       <defs>
        <path d="M 2034 2216 
Q 1584 2216 1326 1975 
Q 1069 1734 1069 1313 
Q 1069 891 1326 650 
Q 1584 409 2034 409 
Q 2484 409 2743 651 
Q 3003 894 3003 1313 
Q 3003 1734 2745 1975 
Q 2488 2216 2034 2216 
z
M 1403 2484 
Q 997 2584 770 2862 
Q 544 3141 544 3541 
Q 544 4100 942 4425 
Q 1341 4750 2034 4750 
Q 2731 4750 3128 4425 
Q 3525 4100 3525 3541 
Q 3525 3141 3298 2862 
Q 3072 2584 2669 2484 
Q 3125 2378 3379 2068 
Q 3634 1759 3634 1313 
Q 3634 634 3220 271 
Q 2806 -91 2034 -91 
Q 1263 -91 848 271 
Q 434 634 434 1313 
Q 434 1759 690 2068 
Q 947 2378 1403 2484 
z
M 1172 3481 
Q 1172 3119 1398 2916 
Q 1625 2713 2034 2713 
Q 2441 2713 2670 2916 
Q 2900 3119 2900 3481 
Q 2900 3844 2670 4047 
Q 2441 4250 2034 4250 
Q 1625 4250 1398 4047 
Q 1172 3844 1172 3481 
z
" id="DejaVuSans-38" transform="scale(0.015625)"/>
       </defs>
       <use xlink:href="#DejaVuSans-38"/>
       <use x="63.623047" xlink:href="#DejaVuSans-30"/>
      </g>
     </g>
    </g>
    <g id="xtick_6">
     <g id="line2d_6">
      <g>
       <use style="stroke:#000000;stroke-width:0.8;" x="498.109091" xlink:href="#m4b2bd0988b" y="384.48"/>
      </g>
     </g>
     <g id="text_6">
      <!-- 100 -->
      <g transform="translate(488.565341 399.078438)scale(0.1 -0.1)">
       <defs>
        <path d="M 794 531 
L 1825 531 
L 1825 4091 
L 703 3866 
L 703 4441 
L 1819 4666 
L 2450 4666 
L 2450 531 
L 3481 531 
L 3481 0 
L 794 0 
L 794 531 
z
" id="DejaVuSans-31" transform="scale(0.015625)"/>
       </defs>
       <use xlink:href="#DejaVuSans-31"/>
       <use x="63.623047" xlink:href="#DejaVuSans-30"/>
       <use x="127.246094" xlink:href="#DejaVuSans-30"/>
      </g>
     </g>
    </g>
    <g id="text_7">
     <!-- Number of iterations -->
     <g transform="translate(243.389062 412.756563)scale(0.1 -0.1)">
      <defs>
       <path d="M 628 4666 
L 1478 4666 
L 3547 763 
L 3547 4666 
L 4159 4666 
L 4159 0 
L 3309 0 
L 1241 3903 
L 1241 0 
L 628 0 
L 628 4666 
z
" id="DejaVuSans-4e" transform="scale(0.015625)"/>
       <path d="M 544 1381 
L 544 3500 
L 1119 3500 
L 1119 1403 
Q 1119 906 1312 657 
Q 1506 409 1894 409 
Q 2359 409 2629 706 
Q 2900 1003 2900 1516 
L 2900 3500 
L 3475 3500 
L 3475 0 
L 2900 0 
L 2900 538 
Q 2691 219 2414 64 
Q 2138 -91 1772 -91 
Q 1169 -91 856 284 
Q 544 659 544 1381 
z
M 1991 3584 
L 1991 3584 
z
" id="DejaVuSans-75" transform="scale(0.015625)"/>
       <path d="M 3328 2828 
Q 3544 3216 3844 3400 
Q 4144 3584 4550 3584 
Q 5097 3584 5394 3201 
Q 5691 2819 5691 2113 
L 5691 0 
L 5113 0 
L 5113 2094 
Q 5113 2597 4934 2840 
Q 4756 3084 4391 3084 
Q 3944 3084 3684 2787 
Q 3425 2491 3425 1978 
L 3425 0 
L 2847 0 
L 2847 2094 
Q 2847 2600 2669 2842 
Q 2491 3084 2119 3084 
Q 1678 3084 1418 2786 
Q 1159 2488 1159 1978 
L 1159 0 
L 581 0 
L 581 3500 
L 1159 3500 
L 1159 2956 
Q 1356 3278 1631 3431 
Q 1906 3584 2284 3584 
Q 2666 3584 2933 3390 
Q 3200 3197 3328 2828 
z
" id="DejaVuSans-6d" transform="scale(0.015625)"/>
       <path d="M 3116 1747 
Q 3116 2381 2855 2742 
Q 2594 3103 2138 3103 
Q 1681 3103 1420 2742 
Q 1159 2381 1159 1747 
Q 1159 1113 1420 752 
Q 1681 391 2138 391 
Q 2594 391 2855 752 
Q 3116 1113 3116 1747 
z
M 1159 2969 
Q 1341 3281 1617 3432 
Q 1894 3584 2278 3584 
Q 2916 3584 3314 3078 
Q 3713 2572 3713 1747 
Q 3713 922 3314 415 
Q 2916 -91 2278 -91 
Q 1894 -91 1617 61 
Q 1341 213 1159 525 
L 1159 0 
L 581 0 
L 581 4863 
L 1159 4863 
L 1159 2969 
z
" id="DejaVuSans-62" transform="scale(0.015625)"/>
       <path d="M 3597 1894 
L 3597 1613 
L 953 1613 
Q 991 1019 1311 708 
Q 1631 397 2203 397 
Q 2534 397 2845 478 
Q 3156 559 3463 722 
L 3463 178 
Q 3153 47 2828 -22 
Q 2503 -91 2169 -91 
Q 1331 -91 842 396 
Q 353 884 353 1716 
Q 353 2575 817 3079 
Q 1281 3584 2069 3584 
Q 2775 3584 3186 3129 
Q 3597 2675 3597 1894 
z
M 3022 2063 
Q 3016 2534 2758 2815 
Q 2500 3097 2075 3097 
Q 1594 3097 1305 2825 
Q 1016 2553 972 2059 
L 3022 2063 
z
" id="DejaVuSans-65" transform="scale(0.015625)"/>
       <path d="M 2631 2963 
Q 2534 3019 2420 3045 
Q 2306 3072 2169 3072 
Q 1681 3072 1420 2755 
Q 1159 2438 1159 1844 
L 1159 0 
L 581 0 
L 581 3500 
L 1159 3500 
L 1159 2956 
Q 1341 3275 1631 3429 
Q 1922 3584 2338 3584 
Q 2397 3584 2469 3576 
Q 2541 3569 2628 3553 
L 2631 2963 
z
" id="DejaVuSans-72" transform="scale(0.015625)"/>
       <path id="DejaVuSans-20" transform="scale(0.015625)"/>
       <path d="M 1959 3097 
Q 1497 3097 1228 2736 
Q 959 2375 959 1747 
Q 959 1119 1226 758 
Q 1494 397 1959 397 
Q 2419 397 2687 759 
Q 2956 1122 2956 1747 
Q 2956 2369 2687 2733 
Q 2419 3097 1959 3097 
z
M 1959 3584 
Q 2709 3584 3137 3096 
Q 3566 2609 3566 1747 
Q 3566 888 3137 398 
Q 2709 -91 1959 -91 
Q 1206 -91 779 398 
Q 353 888 353 1747 
Q 353 2609 779 3096 
Q 1206 3584 1959 3584 
z
" id="DejaVuSans-6f" transform="scale(0.015625)"/>
       <path d="M 2375 4863 
L 2375 4384 
L 1825 4384 
Q 1516 4384 1395 4259 
Q 1275 4134 1275 3809 
L 1275 3500 
L 2222 3500 
L 2222 3053 
L 1275 3053 
L 1275 0 
L 697 0 
L 697 3053 
L 147 3053 
L 147 3500 
L 697 3500 
L 697 3744 
Q 697 4328 969 4595 
Q 1241 4863 1831 4863 
L 2375 4863 
z
" id="DejaVuSans-66" transform="scale(0.015625)"/>
       <path d="M 603 3500 
L 1178 3500 
L 1178 0 
L 603 0 
L 603 3500 
z
M 603 4863 
L 1178 4863 
L 1178 4134 
L 603 4134 
L 603 4863 
z
" id="DejaVuSans-69" transform="scale(0.015625)"/>
       <path d="M 1172 4494 
L 1172 3500 
L 2356 3500 
L 2356 3053 
L 1172 3053 
L 1172 1153 
Q 1172 725 1289 603 
Q 1406 481 1766 481 
L 2356 481 
L 2356 0 
L 1766 0 
Q 1100 0 847 248 
Q 594 497 594 1153 
L 594 3053 
L 172 3053 
L 172 3500 
L 594 3500 
L 594 4494 
L 1172 4494 
z
" id="DejaVuSans-74" transform="scale(0.015625)"/>
       <path d="M 2194 1759 
Q 1497 1759 1228 1600 
Q 959 1441 959 1056 
Q 959 750 1161 570 
Q 1363 391 1709 391 
Q 2188 391 2477 730 
Q 2766 1069 2766 1631 
L 2766 1759 
L 2194 1759 
z
M 3341 1997 
L 3341 0 
L 2766 0 
L 2766 531 
Q 2569 213 2275 61 
Q 1981 -91 1556 -91 
Q 1019 -91 701 211 
Q 384 513 384 1019 
Q 384 1609 779 1909 
Q 1175 2209 1959 2209 
L 2766 2209 
L 2766 2266 
Q 2766 2663 2505 2880 
Q 2244 3097 1772 3097 
Q 1472 3097 1187 3025 
Q 903 2953 641 2809 
L 641 3341 
Q 956 3463 1253 3523 
Q 1550 3584 1831 3584 
Q 2591 3584 2966 3190 
Q 3341 2797 3341 1997 
z
" id="DejaVuSans-61" transform="scale(0.015625)"/>
       <path d="M 3513 2113 
L 3513 0 
L 2938 0 
L 2938 2094 
Q 2938 2591 2744 2837 
Q 2550 3084 2163 3084 
Q 1697 3084 1428 2787 
Q 1159 2491 1159 1978 
L 1159 0 
L 581 0 
L 581 3500 
L 1159 3500 
L 1159 2956 
Q 1366 3272 1645 3428 
Q 1925 3584 2291 3584 
Q 2894 3584 3203 3211 
Q 3513 2838 3513 2113 
z
" id="DejaVuSans-6e" transform="scale(0.015625)"/>
       <path d="M 2834 3397 
L 2834 2853 
Q 2591 2978 2328 3040 
Q 2066 3103 1784 3103 
Q 1356 3103 1142 2972 
Q 928 2841 928 2578 
Q 928 2378 1081 2264 
Q 1234 2150 1697 2047 
L 1894 2003 
Q 2506 1872 2764 1633 
Q 3022 1394 3022 966 
Q 3022 478 2636 193 
Q 2250 -91 1575 -91 
Q 1294 -91 989 -36 
Q 684 19 347 128 
L 347 722 
Q 666 556 975 473 
Q 1284 391 1588 391 
Q 1994 391 2212 530 
Q 2431 669 2431 922 
Q 2431 1156 2273 1281 
Q 2116 1406 1581 1522 
L 1381 1569 
Q 847 1681 609 1914 
Q 372 2147 372 2553 
Q 372 3047 722 3315 
Q 1072 3584 1716 3584 
Q 2034 3584 2315 3537 
Q 2597 3491 2834 3397 
z
" id="DejaVuSans-73" transform="scale(0.015625)"/>
      </defs>
      <use xlink:href="#DejaVuSans-4e"/>
      <use x="74.804688" xlink:href="#DejaVuSans-75"/>
      <use x="138.183594" xlink:href="#DejaVuSans-6d"/>
      <use x="235.595703" xlink:href="#DejaVuSans-62"/>
      <use x="299.072266" xlink:href="#DejaVuSans-65"/>
      <use x="360.595703" xlink:href="#DejaVuSans-72"/>
      <use x="401.708984" xlink:href="#DejaVuSans-20"/>
      <use x="433.496094" xlink:href="#DejaVuSans-6f"/>
      <use x="494.677734" xlink:href="#DejaVuSans-66"/>
      <use x="529.882812" xlink:href="#DejaVuSans-20"/>
      <use x="561.669922" xlink:href="#DejaVuSans-69"/>
      <use x="589.453125" xlink:href="#DejaVuSans-74"/>
      <use x="628.662109" xlink:href="#DejaVuSans-65"/>
      <use x="690.185547" xlink:href="#DejaVuSans-72"/>
      <use x="731.298828" xlink:href="#DejaVuSans-61"/>
      <use x="792.578125" xlink:href="#DejaVuSans-74"/>
      <use x="831.787109" xlink:href="#DejaVuSans-69"/>
      <use x="859.570312" xlink:href="#DejaVuSans-6f"/>
      <use x="920.751953" xlink:href="#DejaVuSans-6e"/>
      <use x="984.130859" xlink:href="#DejaVuSans-73"/>
     </g>
    </g>
   </g>
   <g id="matplotlib.axis_2">
    <g id="ytick_1">
     <g id="line2d_7">
      <defs>
       <path d="M 0 0 
L -3.5 0 
" id="m2c67b347d8" style="stroke:#000000;stroke-width:0.8;"/>
      </defs>
      <g>
       <use style="stroke:#000000;stroke-width:0.8;" x="72" xlink:href="#m2c67b347d8" y="350.812759"/>
      </g>
     </g>
     <g id="text_8">
      <!-- $\mathdefault{10^{-11}}$ -->
      <g transform="translate(37.1 354.611978)scale(0.1 -0.1)">
       <defs>
        <path d="M 678 2272 
L 4684 2272 
L 4684 1741 
L 678 1741 
L 678 2272 
z
" id="DejaVuSans-2212" transform="scale(0.015625)"/>
       </defs>
       <use transform="translate(0 0.684375)" xlink:href="#DejaVuSans-31"/>
       <use transform="translate(63.623047 0.684375)" xlink:href="#DejaVuSans-30"/>
       <use transform="translate(128.203125 38.965625)scale(0.7)" xlink:href="#DejaVuSans-2212"/>
       <use transform="translate(186.855469 38.965625)scale(0.7)" xlink:href="#DejaVuSans-31"/>
       <use transform="translate(231.391602 38.965625)scale(0.7)" xlink:href="#DejaVuSans-31"/>
      </g>
     </g>
    </g>
    <g id="ytick_2">
     <g id="line2d_8">
      <g>
       <use style="stroke:#000000;stroke-width:0.8;" x="72" xlink:href="#m2c67b347d8" y="310.993147"/>
      </g>
     </g>
     <g id="text_9">
      <!-- $\mathdefault{10^{-9}}$ -->
      <g transform="translate(41.5 314.792365)scale(0.1 -0.1)">
       <defs>
        <path d="M 703 97 
L 703 672 
Q 941 559 1184 500 
Q 1428 441 1663 441 
Q 2288 441 2617 861 
Q 2947 1281 2994 2138 
Q 2813 1869 2534 1725 
Q 2256 1581 1919 1581 
Q 1219 1581 811 2004 
Q 403 2428 403 3163 
Q 403 3881 828 4315 
Q 1253 4750 1959 4750 
Q 2769 4750 3195 4129 
Q 3622 3509 3622 2328 
Q 3622 1225 3098 567 
Q 2575 -91 1691 -91 
Q 1453 -91 1209 -44 
Q 966 3 703 97 
z
M 1959 2075 
Q 2384 2075 2632 2365 
Q 2881 2656 2881 3163 
Q 2881 3666 2632 3958 
Q 2384 4250 1959 4250 
Q 1534 4250 1286 3958 
Q 1038 3666 1038 3163 
Q 1038 2656 1286 2365 
Q 1534 2075 1959 2075 
z
" id="DejaVuSans-39" transform="scale(0.015625)"/>
       </defs>
       <use transform="translate(0 0.765625)" xlink:href="#DejaVuSans-31"/>
       <use transform="translate(63.623047 0.765625)" xlink:href="#DejaVuSans-30"/>
       <use transform="translate(128.203125 39.046875)scale(0.7)" xlink:href="#DejaVuSans-2212"/>
       <use transform="translate(186.855469 39.046875)scale(0.7)" xlink:href="#DejaVuSans-39"/>
      </g>
     </g>
    </g>
    <g id="ytick_3">
     <g id="line2d_9">
      <g>
       <use style="stroke:#000000;stroke-width:0.8;" x="72" xlink:href="#m2c67b347d8" y="271.173534"/>
      </g>
     </g>
     <g id="text_10">
      <!-- $\mathdefault{10^{-7}}$ -->
      <g transform="translate(41.5 274.972753)scale(0.1 -0.1)">
       <defs>
        <path d="M 525 4666 
L 3525 4666 
L 3525 4397 
L 1831 0 
L 1172 0 
L 2766 4134 
L 525 4134 
L 525 4666 
z
" id="DejaVuSans-37" transform="scale(0.015625)"/>
       </defs>
       <use transform="translate(0 0.684375)" xlink:href="#DejaVuSans-31"/>
       <use transform="translate(63.623047 0.684375)" xlink:href="#DejaVuSans-30"/>
       <use transform="translate(128.203125 38.965625)scale(0.7)" xlink:href="#DejaVuSans-2212"/>
       <use transform="translate(186.855469 38.965625)scale(0.7)" xlink:href="#DejaVuSans-37"/>
      </g>
     </g>
    </g>
    <g id="ytick_4">
     <g id="line2d_10">
      <g>
       <use style="stroke:#000000;stroke-width:0.8;" x="72" xlink:href="#m2c67b347d8" y="231.353922"/>
      </g>
     </g>
     <g id="text_11">
      <!-- $\mathdefault{10^{-5}}$ -->
      <g transform="translate(41.5 235.153141)scale(0.1 -0.1)">
       <defs>
        <path d="M 691 4666 
L 3169 4666 
L 3169 4134 
L 1269 4134 
L 1269 2991 
Q 1406 3038 1543 3061 
Q 1681 3084 1819 3084 
Q 2600 3084 3056 2656 
Q 3513 2228 3513 1497 
Q 3513 744 3044 326 
Q 2575 -91 1722 -91 
Q 1428 -91 1123 -41 
Q 819 9 494 109 
L 494 744 
Q 775 591 1075 516 
Q 1375 441 1709 441 
Q 2250 441 2565 725 
Q 2881 1009 2881 1497 
Q 2881 1984 2565 2268 
Q 2250 2553 1709 2553 
Q 1456 2553 1204 2497 
Q 953 2441 691 2322 
L 691 4666 
z
" id="DejaVuSans-35" transform="scale(0.015625)"/>
       </defs>
       <use transform="translate(0 0.684375)" xlink:href="#DejaVuSans-31"/>
       <use transform="translate(63.623047 0.684375)" xlink:href="#DejaVuSans-30"/>
       <use transform="translate(128.203125 38.965625)scale(0.7)" xlink:href="#DejaVuSans-2212"/>
       <use transform="translate(186.855469 38.965625)scale(0.7)" xlink:href="#DejaVuSans-35"/>
      </g>
     </g>
    </g>
    <g id="ytick_5">
     <g id="line2d_11">
      <g>
       <use style="stroke:#000000;stroke-width:0.8;" x="72" xlink:href="#m2c67b347d8" y="191.53431"/>
      </g>
     </g>
     <g id="text_12">
      <!-- $\mathdefault{10^{-3}}$ -->
      <g transform="translate(41.5 195.333529)scale(0.1 -0.1)">
       <defs>
        <path d="M 2597 2516 
Q 3050 2419 3304 2112 
Q 3559 1806 3559 1356 
Q 3559 666 3084 287 
Q 2609 -91 1734 -91 
Q 1441 -91 1130 -33 
Q 819 25 488 141 
L 488 750 
Q 750 597 1062 519 
Q 1375 441 1716 441 
Q 2309 441 2620 675 
Q 2931 909 2931 1356 
Q 2931 1769 2642 2001 
Q 2353 2234 1838 2234 
L 1294 2234 
L 1294 2753 
L 1863 2753 
Q 2328 2753 2575 2939 
Q 2822 3125 2822 3475 
Q 2822 3834 2567 4026 
Q 2313 4219 1838 4219 
Q 1578 4219 1281 4162 
Q 984 4106 628 3988 
L 628 4550 
Q 988 4650 1302 4700 
Q 1616 4750 1894 4750 
Q 2613 4750 3031 4423 
Q 3450 4097 3450 3541 
Q 3450 3153 3228 2886 
Q 3006 2619 2597 2516 
z
" id="DejaVuSans-33" transform="scale(0.015625)"/>
       </defs>
       <use transform="translate(0 0.765625)" xlink:href="#DejaVuSans-31"/>
       <use transform="translate(63.623047 0.765625)" xlink:href="#DejaVuSans-30"/>
       <use transform="translate(128.203125 39.046875)scale(0.7)" xlink:href="#DejaVuSans-2212"/>
       <use transform="translate(186.855469 39.046875)scale(0.7)" xlink:href="#DejaVuSans-33"/>
      </g>
     </g>
    </g>
    <g id="ytick_6">
     <g id="line2d_12">
      <g>
       <use style="stroke:#000000;stroke-width:0.8;" x="72" xlink:href="#m2c67b347d8" y="151.714698"/>
      </g>
     </g>
     <g id="text_13">
      <!-- $\mathdefault{10^{-1}}$ -->
      <g transform="translate(41.5 155.513916)scale(0.1 -0.1)">
       <use transform="translate(0 0.684375)" xlink:href="#DejaVuSans-31"/>
       <use transform="translate(63.623047 0.684375)" xlink:href="#DejaVuSans-30"/>
       <use transform="translate(128.203125 38.965625)scale(0.7)" xlink:href="#DejaVuSans-2212"/>
       <use transform="translate(186.855469 38.965625)scale(0.7)" xlink:href="#DejaVuSans-31"/>
      </g>
     </g>
    </g>
    <g id="ytick_7">
     <g id="line2d_13">
      <g>
       <use style="stroke:#000000;stroke-width:0.8;" x="72" xlink:href="#m2c67b347d8" y="111.895086"/>
      </g>
     </g>
     <g id="text_14">
      <!-- $\mathdefault{10^{1}}$ -->
      <g transform="translate(47.4 115.694304)scale(0.1 -0.1)">
       <use transform="translate(0 0.684375)" xlink:href="#DejaVuSans-31"/>
       <use transform="translate(63.623047 0.684375)" xlink:href="#DejaVuSans-30"/>
       <use transform="translate(128.203125 38.965625)scale(0.7)" xlink:href="#DejaVuSans-31"/>
      </g>
     </g>
    </g>
    <g id="ytick_8">
     <g id="line2d_14">
      <g>
       <use style="stroke:#000000;stroke-width:0.8;" x="72" xlink:href="#m2c67b347d8" y="72.075473"/>
      </g>
     </g>
     <g id="text_15">
      <!-- $\mathdefault{10^{3}}$ -->
      <g transform="translate(47.4 75.874692)scale(0.1 -0.1)">
       <use transform="translate(0 0.765625)" xlink:href="#DejaVuSans-31"/>
       <use transform="translate(63.623047 0.765625)" xlink:href="#DejaVuSans-30"/>
       <use transform="translate(128.203125 39.046875)scale(0.7)" xlink:href="#DejaVuSans-33"/>
      </g>
     </g>
    </g>
    <g id="text_16">
     <!-- Norm of the residuals -->
     <g transform="translate(31.020312 272.004531)rotate(-90)scale(0.1 -0.1)">
      <defs>
       <path d="M 3513 2113 
L 3513 0 
L 2938 0 
L 2938 2094 
Q 2938 2591 2744 2837 
Q 2550 3084 2163 3084 
Q 1697 3084 1428 2787 
Q 1159 2491 1159 1978 
L 1159 0 
L 581 0 
L 581 4863 
L 1159 4863 
L 1159 2956 
Q 1366 3272 1645 3428 
Q 1925 3584 2291 3584 
Q 2894 3584 3203 3211 
Q 3513 2838 3513 2113 
z
" id="DejaVuSans-68" transform="scale(0.015625)"/>
       <path d="M 2906 2969 
L 2906 4863 
L 3481 4863 
L 3481 0 
L 2906 0 
L 2906 525 
Q 2725 213 2448 61 
Q 2172 -91 1784 -91 
Q 1150 -91 751 415 
Q 353 922 353 1747 
Q 353 2572 751 3078 
Q 1150 3584 1784 3584 
Q 2172 3584 2448 3432 
Q 2725 3281 2906 2969 
z
M 947 1747 
Q 947 1113 1208 752 
Q 1469 391 1925 391 
Q 2381 391 2643 752 
Q 2906 1113 2906 1747 
Q 2906 2381 2643 2742 
Q 2381 3103 1925 3103 
Q 1469 3103 1208 2742 
Q 947 2381 947 1747 
z
" id="DejaVuSans-64" transform="scale(0.015625)"/>
       <path d="M 603 4863 
L 1178 4863 
L 1178 0 
L 603 0 
L 603 4863 
z
" id="DejaVuSans-6c" transform="scale(0.015625)"/>
      </defs>
      <use xlink:href="#DejaVuSans-4e"/>
      <use x="74.804688" xlink:href="#DejaVuSans-6f"/>
      <use x="135.986328" xlink:href="#DejaVuSans-72"/>
      <use x="175.349609" xlink:href="#DejaVuSans-6d"/>
      <use x="272.761719" xlink:href="#DejaVuSans-20"/>
      <use x="304.548828" xlink:href="#DejaVuSans-6f"/>
      <use x="365.730469" xlink:href="#DejaVuSans-66"/>
      <use x="400.935547" xlink:href="#DejaVuSans-20"/>
      <use x="432.722656" xlink:href="#DejaVuSans-74"/>
      <use x="471.931641" xlink:href="#DejaVuSans-68"/>
      <use x="535.310547" xlink:href="#DejaVuSans-65"/>
      <use x="596.833984" xlink:href="#DejaVuSans-20"/>
      <use x="628.621094" xlink:href="#DejaVuSans-72"/>
      <use x="667.484375" xlink:href="#DejaVuSans-65"/>
      <use x="729.007812" xlink:href="#DejaVuSans-73"/>
      <use x="781.107422" xlink:href="#DejaVuSans-69"/>
      <use x="808.890625" xlink:href="#DejaVuSans-64"/>
      <use x="872.367188" xlink:href="#DejaVuSans-75"/>
      <use x="935.746094" xlink:href="#DejaVuSans-61"/>
      <use x="997.025391" xlink:href="#DejaVuSans-6c"/>
      <use x="1024.808594" xlink:href="#DejaVuSans-73"/>
     </g>
    </g>
   </g>
   <g id="line2d_15">
    <path clip-path="url(#pd3f9e2a8dd)" d="M 92.290909 66.96 
L 96.349091 76.680064 
L 100.407273 82.280709 
L 104.465455 86.370937 
L 108.523636 88.941641 
L 112.581818 91.370903 
L 116.64 93.933011 
L 120.698182 94.593535 
L 124.756364 96.281613 
L 128.814545 98.68716 
L 132.872727 100.968699 
L 136.930909 103.992195 
L 140.989091 106.490257 
L 145.047273 107.116768 
L 149.105455 109.826181 
L 153.163636 111.523005 
L 157.221818 114.425788 
L 161.28 115.3376 
L 165.338182 116.172733 
L 169.396364 117.637724 
L 173.454545 118.813232 
L 177.512727 121.118888 
L 181.570909 121.875221 
L 185.629091 123.723121 
L 189.687273 125.398014 
L 193.745455 127.473418 
L 197.803636 127.622731 
L 201.861818 129.244915 
L 205.92 130.008982 
L 209.978182 130.427605 
L 214.036364 131.349699 
L 218.094545 131.876991 
L 222.152727 135.341516 
L 226.210909 136.196344 
L 230.269091 139.584227 
L 234.327273 139.728454 
L 238.385455 141.763205 
L 242.443636 143.058286 
L 246.501818 144.3629 
L 250.56 146.486608 
L 254.618182 146.389732 
L 258.676364 148.71668 
L 262.734545 152.72151 
L 266.792727 155.150387 
L 270.850909 156.05667 
L 274.909091 157.530063 
L 278.967273 156.554911 
L 283.025455 160.464651 
L 287.083636 162.888789 
L 291.141818 164.640077 
L 295.2 166.551208 
L 299.258182 166.711291 
L 303.316364 169.852362 
L 307.374545 173.325999 
L 311.432727 172.038661 
L 315.490909 172.589023 
L 319.549091 171.219305 
L 323.607273 175.781799 
L 327.665455 177.031715 
L 331.723636 176.983467 
L 335.781818 178.099168 
L 339.84 183.140418 
L 343.898182 184.956529 
L 347.956364 186.324977 
L 352.014545 189.208134 
L 356.072727 188.821097 
L 360.130909 191.286459 
L 364.189091 192.329908 
L 368.247273 195.454017 
L 372.305455 196.217482 
L 376.363636 196.980661 
L 380.421818 201.897551 
L 384.48 202.234837 
L 388.538182 200.618723 
L 392.596364 206.781705 
L 396.654545 203.587229 
L 400.712727 211.279185 
L 404.770909 213.731756 
L 408.829091 214.895972 
L 412.887273 216.685851 
L 416.945455 216.751215 
L 421.003636 219.754577 
L 425.061818 222.40186 
L 429.12 222.23437 
L 433.178182 225.269069 
L 437.236364 227.152323 
L 441.294545 226.995659 
L 445.352727 226.403131 
L 449.410909 226.816207 
L 453.469091 229.477541 
L 457.527273 234.42508 
L 461.585455 233.901627 
L 465.643636 237.906401 
L 469.701818 240.657005 
L 473.76 237.646225 
L 477.818182 242.276412 
L 481.876364 241.016654 
L 485.934545 245.924854 
L 489.992727 245.633185 
L 494.050909 245.887605 
L 498.109091 246.21028 
" style="fill:none;stroke:#1f77b4;stroke-linecap:square;stroke-width:1.5;"/>
    <defs>
     <path d="M -0 3 
L 3 -3 
L -3 -3 
z
" id="m4811725995" style="stroke:#1f77b4;stroke-linejoin:miter;"/>
    </defs>
    <g clip-path="url(#pd3f9e2a8dd)">
     <use style="fill:#1f77b4;stroke:#1f77b4;stroke-linejoin:miter;" x="92.290909" xlink:href="#m4811725995" y="66.96"/>
     <use style="fill:#1f77b4;stroke:#1f77b4;stroke-linejoin:miter;" x="96.349091" xlink:href="#m4811725995" y="76.680064"/>
     <use style="fill:#1f77b4;stroke:#1f77b4;stroke-linejoin:miter;" x="100.407273" xlink:href="#m4811725995" y="82.280709"/>
     <use style="fill:#1f77b4;stroke:#1f77b4;stroke-linejoin:miter;" x="104.465455" xlink:href="#m4811725995" y="86.370937"/>
     <use style="fill:#1f77b4;stroke:#1f77b4;stroke-linejoin:miter;" x="108.523636" xlink:href="#m4811725995" y="88.941641"/>
     <use style="fill:#1f77b4;stroke:#1f77b4;stroke-linejoin:miter;" x="112.581818" xlink:href="#m4811725995" y="91.370903"/>
     <use style="fill:#1f77b4;stroke:#1f77b4;stroke-linejoin:miter;" x="116.64" xlink:href="#m4811725995" y="93.933011"/>
     <use style="fill:#1f77b4;stroke:#1f77b4;stroke-linejoin:miter;" x="120.698182" xlink:href="#m4811725995" y="94.593535"/>
     <use style="fill:#1f77b4;stroke:#1f77b4;stroke-linejoin:miter;" x="124.756364" xlink:href="#m4811725995" y="96.281613"/>
     <use style="fill:#1f77b4;stroke:#1f77b4;stroke-linejoin:miter;" x="128.814545" xlink:href="#m4811725995" y="98.68716"/>
     <use style="fill:#1f77b4;stroke:#1f77b4;stroke-linejoin:miter;" x="132.872727" xlink:href="#m4811725995" y="100.968699"/>
     <use style="fill:#1f77b4;stroke:#1f77b4;stroke-linejoin:miter;" x="136.930909" xlink:href="#m4811725995" y="103.992195"/>
     <use style="fill:#1f77b4;stroke:#1f77b4;stroke-linejoin:miter;" x="140.989091" xlink:href="#m4811725995" y="106.490257"/>
     <use style="fill:#1f77b4;stroke:#1f77b4;stroke-linejoin:miter;" x="145.047273" xlink:href="#m4811725995" y="107.116768"/>
     <use style="fill:#1f77b4;stroke:#1f77b4;stroke-linejoin:miter;" x="149.105455" xlink:href="#m4811725995" y="109.826181"/>
     <use style="fill:#1f77b4;stroke:#1f77b4;stroke-linejoin:miter;" x="153.163636" xlink:href="#m4811725995" y="111.523005"/>
     <use style="fill:#1f77b4;stroke:#1f77b4;stroke-linejoin:miter;" x="157.221818" xlink:href="#m4811725995" y="114.425788"/>
     <use style="fill:#1f77b4;stroke:#1f77b4;stroke-linejoin:miter;" x="161.28" xlink:href="#m4811725995" y="115.3376"/>
     <use style="fill:#1f77b4;stroke:#1f77b4;stroke-linejoin:miter;" x="165.338182" xlink:href="#m4811725995" y="116.172733"/>
     <use style="fill:#1f77b4;stroke:#1f77b4;stroke-linejoin:miter;" x="169.396364" xlink:href="#m4811725995" y="117.637724"/>
     <use style="fill:#1f77b4;stroke:#1f77b4;stroke-linejoin:miter;" x="173.454545" xlink:href="#m4811725995" y="118.813232"/>
     <use style="fill:#1f77b4;stroke:#1f77b4;stroke-linejoin:miter;" x="177.512727" xlink:href="#m4811725995" y="121.118888"/>
     <use style="fill:#1f77b4;stroke:#1f77b4;stroke-linejoin:miter;" x="181.570909" xlink:href="#m4811725995" y="121.875221"/>
     <use style="fill:#1f77b4;stroke:#1f77b4;stroke-linejoin:miter;" x="185.629091" xlink:href="#m4811725995" y="123.723121"/>
     <use style="fill:#1f77b4;stroke:#1f77b4;stroke-linejoin:miter;" x="189.687273" xlink:href="#m4811725995" y="125.398014"/>
     <use style="fill:#1f77b4;stroke:#1f77b4;stroke-linejoin:miter;" x="193.745455" xlink:href="#m4811725995" y="127.473418"/>
     <use style="fill:#1f77b4;stroke:#1f77b4;stroke-linejoin:miter;" x="197.803636" xlink:href="#m4811725995" y="127.622731"/>
     <use style="fill:#1f77b4;stroke:#1f77b4;stroke-linejoin:miter;" x="201.861818" xlink:href="#m4811725995" y="129.244915"/>
     <use style="fill:#1f77b4;stroke:#1f77b4;stroke-linejoin:miter;" x="205.92" xlink:href="#m4811725995" y="130.008982"/>
     <use style="fill:#1f77b4;stroke:#1f77b4;stroke-linejoin:miter;" x="209.978182" xlink:href="#m4811725995" y="130.427605"/>
     <use style="fill:#1f77b4;stroke:#1f77b4;stroke-linejoin:miter;" x="214.036364" xlink:href="#m4811725995" y="131.349699"/>
     <use style="fill:#1f77b4;stroke:#1f77b4;stroke-linejoin:miter;" x="218.094545" xlink:href="#m4811725995" y="131.876991"/>
     <use style="fill:#1f77b4;stroke:#1f77b4;stroke-linejoin:miter;" x="222.152727" xlink:href="#m4811725995" y="135.341516"/>
     <use style="fill:#1f77b4;stroke:#1f77b4;stroke-linejoin:miter;" x="226.210909" xlink:href="#m4811725995" y="136.196344"/>
     <use style="fill:#1f77b4;stroke:#1f77b4;stroke-linejoin:miter;" x="230.269091" xlink:href="#m4811725995" y="139.584227"/>
     <use style="fill:#1f77b4;stroke:#1f77b4;stroke-linejoin:miter;" x="234.327273" xlink:href="#m4811725995" y="139.728454"/>
     <use style="fill:#1f77b4;stroke:#1f77b4;stroke-linejoin:miter;" x="238.385455" xlink:href="#m4811725995" y="141.763205"/>
     <use style="fill:#1f77b4;stroke:#1f77b4;stroke-linejoin:miter;" x="242.443636" xlink:href="#m4811725995" y="143.058286"/>
     <use style="fill:#1f77b4;stroke:#1f77b4;stroke-linejoin:miter;" x="246.501818" xlink:href="#m4811725995" y="144.3629"/>
     <use style="fill:#1f77b4;stroke:#1f77b4;stroke-linejoin:miter;" x="250.56" xlink:href="#m4811725995" y="146.486608"/>
     <use style="fill:#1f77b4;stroke:#1f77b4;stroke-linejoin:miter;" x="254.618182" xlink:href="#m4811725995" y="146.389732"/>
     <use style="fill:#1f77b4;stroke:#1f77b4;stroke-linejoin:miter;" x="258.676364" xlink:href="#m4811725995" y="148.71668"/>
     <use style="fill:#1f77b4;stroke:#1f77b4;stroke-linejoin:miter;" x="262.734545" xlink:href="#m4811725995" y="152.72151"/>
     <use style="fill:#1f77b4;stroke:#1f77b4;stroke-linejoin:miter;" x="266.792727" xlink:href="#m4811725995" y="155.150387"/>
     <use style="fill:#1f77b4;stroke:#1f77b4;stroke-linejoin:miter;" x="270.850909" xlink:href="#m4811725995" y="156.05667"/>
     <use style="fill:#1f77b4;stroke:#1f77b4;stroke-linejoin:miter;" x="274.909091" xlink:href="#m4811725995" y="157.530063"/>
     <use style="fill:#1f77b4;stroke:#1f77b4;stroke-linejoin:miter;" x="278.967273" xlink:href="#m4811725995" y="156.554911"/>
     <use style="fill:#1f77b4;stroke:#1f77b4;stroke-linejoin:miter;" x="283.025455" xlink:href="#m4811725995" y="160.464651"/>
     <use style="fill:#1f77b4;stroke:#1f77b4;stroke-linejoin:miter;" x="287.083636" xlink:href="#m4811725995" y="162.888789"/>
     <use style="fill:#1f77b4;stroke:#1f77b4;stroke-linejoin:miter;" x="291.141818" xlink:href="#m4811725995" y="164.640077"/>
     <use style="fill:#1f77b4;stroke:#1f77b4;stroke-linejoin:miter;" x="295.2" xlink:href="#m4811725995" y="166.551208"/>
     <use style="fill:#1f77b4;stroke:#1f77b4;stroke-linejoin:miter;" x="299.258182" xlink:href="#m4811725995" y="166.711291"/>
     <use style="fill:#1f77b4;stroke:#1f77b4;stroke-linejoin:miter;" x="303.316364" xlink:href="#m4811725995" y="169.852362"/>
     <use style="fill:#1f77b4;stroke:#1f77b4;stroke-linejoin:miter;" x="307.374545" xlink:href="#m4811725995" y="173.325999"/>
     <use style="fill:#1f77b4;stroke:#1f77b4;stroke-linejoin:miter;" x="311.432727" xlink:href="#m4811725995" y="172.038661"/>
     <use style="fill:#1f77b4;stroke:#1f77b4;stroke-linejoin:miter;" x="315.490909" xlink:href="#m4811725995" y="172.589023"/>
     <use style="fill:#1f77b4;stroke:#1f77b4;stroke-linejoin:miter;" x="319.549091" xlink:href="#m4811725995" y="171.219305"/>
     <use style="fill:#1f77b4;stroke:#1f77b4;stroke-linejoin:miter;" x="323.607273" xlink:href="#m4811725995" y="175.781799"/>
     <use style="fill:#1f77b4;stroke:#1f77b4;stroke-linejoin:miter;" x="327.665455" xlink:href="#m4811725995" y="177.031715"/>
     <use style="fill:#1f77b4;stroke:#1f77b4;stroke-linejoin:miter;" x="331.723636" xlink:href="#m4811725995" y="176.983467"/>
     <use style="fill:#1f77b4;stroke:#1f77b4;stroke-linejoin:miter;" x="335.781818" xlink:href="#m4811725995" y="178.099168"/>
     <use style="fill:#1f77b4;stroke:#1f77b4;stroke-linejoin:miter;" x="339.84" xlink:href="#m4811725995" y="183.140418"/>
     <use style="fill:#1f77b4;stroke:#1f77b4;stroke-linejoin:miter;" x="343.898182" xlink:href="#m4811725995" y="184.956529"/>
     <use style="fill:#1f77b4;stroke:#1f77b4;stroke-linejoin:miter;" x="347.956364" xlink:href="#m4811725995" y="186.324977"/>
     <use style="fill:#1f77b4;stroke:#1f77b4;stroke-linejoin:miter;" x="352.014545" xlink:href="#m4811725995" y="189.208134"/>
     <use style="fill:#1f77b4;stroke:#1f77b4;stroke-linejoin:miter;" x="356.072727" xlink:href="#m4811725995" y="188.821097"/>
     <use style="fill:#1f77b4;stroke:#1f77b4;stroke-linejoin:miter;" x="360.130909" xlink:href="#m4811725995" y="191.286459"/>
     <use style="fill:#1f77b4;stroke:#1f77b4;stroke-linejoin:miter;" x="364.189091" xlink:href="#m4811725995" y="192.329908"/>
     <use style="fill:#1f77b4;stroke:#1f77b4;stroke-linejoin:miter;" x="368.247273" xlink:href="#m4811725995" y="195.454017"/>
     <use style="fill:#1f77b4;stroke:#1f77b4;stroke-linejoin:miter;" x="372.305455" xlink:href="#m4811725995" y="196.217482"/>
     <use style="fill:#1f77b4;stroke:#1f77b4;stroke-linejoin:miter;" x="376.363636" xlink:href="#m4811725995" y="196.980661"/>
     <use style="fill:#1f77b4;stroke:#1f77b4;stroke-linejoin:miter;" x="380.421818" xlink:href="#m4811725995" y="201.897551"/>
     <use style="fill:#1f77b4;stroke:#1f77b4;stroke-linejoin:miter;" x="384.48" xlink:href="#m4811725995" y="202.234837"/>
     <use style="fill:#1f77b4;stroke:#1f77b4;stroke-linejoin:miter;" x="388.538182" xlink:href="#m4811725995" y="200.618723"/>
     <use style="fill:#1f77b4;stroke:#1f77b4;stroke-linejoin:miter;" x="392.596364" xlink:href="#m4811725995" y="206.781705"/>
     <use style="fill:#1f77b4;stroke:#1f77b4;stroke-linejoin:miter;" x="396.654545" xlink:href="#m4811725995" y="203.587229"/>
     <use style="fill:#1f77b4;stroke:#1f77b4;stroke-linejoin:miter;" x="400.712727" xlink:href="#m4811725995" y="211.279185"/>
     <use style="fill:#1f77b4;stroke:#1f77b4;stroke-linejoin:miter;" x="404.770909" xlink:href="#m4811725995" y="213.731756"/>
     <use style="fill:#1f77b4;stroke:#1f77b4;stroke-linejoin:miter;" x="408.829091" xlink:href="#m4811725995" y="214.895972"/>
     <use style="fill:#1f77b4;stroke:#1f77b4;stroke-linejoin:miter;" x="412.887273" xlink:href="#m4811725995" y="216.685851"/>
     <use style="fill:#1f77b4;stroke:#1f77b4;stroke-linejoin:miter;" x="416.945455" xlink:href="#m4811725995" y="216.751215"/>
     <use style="fill:#1f77b4;stroke:#1f77b4;stroke-linejoin:miter;" x="421.003636" xlink:href="#m4811725995" y="219.754577"/>
     <use style="fill:#1f77b4;stroke:#1f77b4;stroke-linejoin:miter;" x="425.061818" xlink:href="#m4811725995" y="222.40186"/>
     <use style="fill:#1f77b4;stroke:#1f77b4;stroke-linejoin:miter;" x="429.12" xlink:href="#m4811725995" y="222.23437"/>
     <use style="fill:#1f77b4;stroke:#1f77b4;stroke-linejoin:miter;" x="433.178182" xlink:href="#m4811725995" y="225.269069"/>
     <use style="fill:#1f77b4;stroke:#1f77b4;stroke-linejoin:miter;" x="437.236364" xlink:href="#m4811725995" y="227.152323"/>
     <use style="fill:#1f77b4;stroke:#1f77b4;stroke-linejoin:miter;" x="441.294545" xlink:href="#m4811725995" y="226.995659"/>
     <use style="fill:#1f77b4;stroke:#1f77b4;stroke-linejoin:miter;" x="445.352727" xlink:href="#m4811725995" y="226.403131"/>
     <use style="fill:#1f77b4;stroke:#1f77b4;stroke-linejoin:miter;" x="449.410909" xlink:href="#m4811725995" y="226.816207"/>
     <use style="fill:#1f77b4;stroke:#1f77b4;stroke-linejoin:miter;" x="453.469091" xlink:href="#m4811725995" y="229.477541"/>
     <use style="fill:#1f77b4;stroke:#1f77b4;stroke-linejoin:miter;" x="457.527273" xlink:href="#m4811725995" y="234.42508"/>
     <use style="fill:#1f77b4;stroke:#1f77b4;stroke-linejoin:miter;" x="461.585455" xlink:href="#m4811725995" y="233.901627"/>
     <use style="fill:#1f77b4;stroke:#1f77b4;stroke-linejoin:miter;" x="465.643636" xlink:href="#m4811725995" y="237.906401"/>
     <use style="fill:#1f77b4;stroke:#1f77b4;stroke-linejoin:miter;" x="469.701818" xlink:href="#m4811725995" y="240.657005"/>
     <use style="fill:#1f77b4;stroke:#1f77b4;stroke-linejoin:miter;" x="473.76" xlink:href="#m4811725995" y="237.646225"/>
     <use style="fill:#1f77b4;stroke:#1f77b4;stroke-linejoin:miter;" x="477.818182" xlink:href="#m4811725995" y="242.276412"/>
     <use style="fill:#1f77b4;stroke:#1f77b4;stroke-linejoin:miter;" x="481.876364" xlink:href="#m4811725995" y="241.016654"/>
     <use style="fill:#1f77b4;stroke:#1f77b4;stroke-linejoin:miter;" x="485.934545" xlink:href="#m4811725995" y="245.924854"/>
     <use style="fill:#1f77b4;stroke:#1f77b4;stroke-linejoin:miter;" x="489.992727" xlink:href="#m4811725995" y="245.633185"/>
     <use style="fill:#1f77b4;stroke:#1f77b4;stroke-linejoin:miter;" x="494.050909" xlink:href="#m4811725995" y="245.887605"/>
     <use style="fill:#1f77b4;stroke:#1f77b4;stroke-linejoin:miter;" x="498.109091" xlink:href="#m4811725995" y="246.21028"/>
    </g>
   </g>
   <g id="line2d_16">
    <path clip-path="url(#pd3f9e2a8dd)" d="M 92.290909 66.96 
L 96.349091 77.114008 
L 100.407273 83.42392 
L 104.465455 88.140541 
L 108.523636 91.556344 
L 112.581818 94.461342 
L 116.64 97.201966 
L 120.698182 99.088281 
L 124.756364 100.905538 
L 128.814545 102.933824 
L 132.872727 105.058691 
L 136.930909 107.55497 
L 140.989091 110.052031 
L 145.047273 111.825587 
L 149.105455 113.937175 
L 153.163636 115.893179 
L 157.221818 118.218167 
L 161.28 120.010205 
L 165.338182 121.500683 
L 169.396364 122.983745 
L 173.454545 124.379729 
L 177.512727 126.046442 
L 181.570909 127.44223 
L 185.629091 128.967559 
L 189.687273 130.537895 
L 193.745455 132.2684 
L 197.803636 133.538395 
L 201.861818 134.900794 
L 205.92 136.109454 
L 209.978182 137.138326 
L 214.036364 138.144804 
L 218.094545 139.056036 
L 222.152727 140.58273 
L 226.210909 141.920212 
L 230.269091 143.904833 
L 234.327273 145.299199 
L 238.385455 146.879781 
L 242.443636 148.374924 
L 246.501818 149.815226 
L 250.56 151.460373 
L 254.618182 152.626096 
L 258.676364 154.095725 
L 262.734545 156.45985 
L 266.792727 158.854679 
L 270.850909 160.708643 
L 274.909091 162.684253 
L 278.967273 164.53469 
L 283.025455 166.562402 
L 287.083636 168.542998 
L 291.141818 170.492143 
L 295.2 173.012029 
L 299.258182 175.287398 
L 303.316364 176.989698 
L 307.374545 178.619389 
L 311.432727 179.698197 
L 315.490909 181.1813 
L 319.549091 182.854372 
L 323.607273 184.101094 
L 327.665455 186.410784 
L 331.723636 189.230935 
L 335.781818 190.971052 
L 339.84 193.464406 
L 343.898182 195.541287 
L 347.956364 197.230315 
L 352.014545 199.611421 
L 356.072727 202.042214 
L 360.130909 205.382596 
L 364.189091 208.126872 
L 368.247273 209.896135 
L 372.305455 212.815143 
L 376.363636 215.494575 
L 380.421818 218.539922 
L 384.48 221.798896 
L 388.538182 224.305056 
L 392.596364 227.305188 
L 396.654545 229.989999 
L 400.712727 232.248802 
L 404.770909 233.799429 
L 408.829091 235.470599 
L 412.887273 238.476071 
L 416.945455 243.046973 
L 421.003636 246.370815 
L 425.061818 250.15237 
L 429.12 251.731238 
L 433.178182 255.124809 
L 437.236364 260.295241 
L 441.294545 263.965393 
L 445.352727 267.155497 
L 449.410909 270.06362 
L 453.469091 272.646937 
L 457.527273 278.350062 
L 461.585455 282.744786 
L 465.643636 286.220653 
L 469.701818 291.487392 
L 473.76 297.898026 
L 477.818182 300.978941 
L 481.876364 306.103246 
L 485.934545 316.155664 
L 489.992727 326.488315 
L 494.050909 351.735245 
L 498.109091 353.806817 
" style="fill:none;stroke:#ff7f0e;stroke-linecap:square;stroke-width:1.5;"/>
   </g>
   <g id="line2d_17">
    <path clip-path="url(#pd3f9e2a8dd)" d="M 92.290909 66.96 
L 96.349091 73.783529 
L 100.407273 77.340091 
L 104.465455 79.856655 
L 108.523636 81.774885 
L 112.581818 83.491537 
L 116.64 85.020839 
L 120.698182 85.976942 
L 124.756364 86.934864 
L 128.814545 87.788653 
L 132.872727 88.526753 
L 136.930909 89.463674 
L 140.989091 90.504972 
L 145.047273 91.34304 
L 149.105455 92.148627 
L 153.163636 92.886847 
L 157.221818 93.546306 
L 161.28 94.09022 
L 165.338182 94.580666 
L 169.396364 94.88131 
L 173.454545 95.125985 
L 177.512727 95.472012 
L 181.570909 95.815819 
L 185.629091 96.131351 
L 189.687273 96.617305 
L 193.745455 96.975414 
L 197.803636 97.300422 
L 201.861818 97.689809 
L 205.92 98.206988 
L 209.978182 98.418269 
L 214.036364 98.773939 
L 218.094545 99.149466 
L 222.152727 99.533954 
L 226.210909 99.835782 
L 230.269091 100.476247 
L 234.327273 101.085078 
L 238.385455 101.535653 
L 242.443636 102.228713 
L 246.501818 102.813332 
L 250.56 103.25074 
L 254.618182 103.88663 
L 258.676364 104.785087 
L 262.734545 105.252551 
L 266.792727 105.974246 
L 270.850909 106.636489 
L 274.909091 107.47098 
L 278.967273 108.190291 
L 283.025455 108.561729 
L 287.083636 109.251194 
L 291.141818 110.143457 
L 295.2 110.864006 
L 299.258182 112.091775 
L 303.316364 112.745895 
L 307.374545 113.258286 
L 311.432727 113.747545 
L 315.490909 114.052083 
L 319.549091 114.492817 
L 323.607273 115.060024 
L 327.665455 115.643797 
L 331.723636 115.901174 
L 335.781818 116.77704 
L 339.84 117.471329 
L 343.898182 117.979483 
L 347.956364 118.625957 
L 352.014545 119.691559 
L 356.072727 120.927423 
L 360.130909 121.807771 
L 364.189091 122.624078 
L 368.247273 122.97031 
L 372.305455 123.411943 
L 376.363636 123.933804 
L 380.421818 124.362888 
L 384.48 125.038422 
L 388.538182 125.843725 
L 392.596364 126.629272 
L 396.654545 127.148609 
L 400.712727 127.869129 
L 404.770909 128.589413 
L 408.829091 129.438544 
L 412.887273 130.371126 
L 416.945455 131.944681 
L 421.003636 132.260703 
L 425.061818 132.818771 
L 429.12 133.67427 
L 433.178182 134.710645 
L 437.236364 136.524395 
L 441.294545 140.028107 
L 445.352727 143.159769 
L 449.410909 148.240645 
L 453.469091 151.418573 
L 457.527273 155.911186 
L 461.585455 159.955048 
L 465.643636 165.628504 
L 469.701818 173.283123 
L 473.76 180.903814 
L 477.818182 189.370194 
L 481.876364 197.387493 
L 485.934545 212.457706 
L 489.992727 227.699296 
L 494.050909 258.429991 
L 498.109091 363.861242 
" style="fill:none;stroke:#2ca02c;stroke-linecap:square;stroke-width:1.5;"/>
   </g>
   <g id="line2d_18">
    <path clip-path="url(#pd3f9e2a8dd)" d="M 92.290909 66.96 
L 96.349091 76.680064 
L 100.407273 82.280709 
L 104.465455 86.370937 
L 108.523636 88.941641 
L 112.581818 91.370903 
L 116.64 93.933011 
L 120.698182 94.593535 
L 124.756364 96.281613 
L 128.814545 98.68716 
L 132.872727 100.968699 
L 136.930909 103.992195 
L 140.989091 106.490257 
L 145.047273 107.116768 
L 149.105455 109.826181 
L 153.163636 111.523005 
L 157.221818 114.425788 
L 161.28 115.3376 
L 165.338182 116.172733 
L 169.396364 117.637724 
L 173.454545 118.813232 
L 177.512727 121.118888 
L 181.570909 121.875221 
L 185.629091 123.723121 
L 189.687273 125.398014 
L 193.745455 127.473418 
L 197.803636 127.622731 
L 201.861818 129.244915 
L 205.92 130.008982 
L 209.978182 130.427605 
L 214.036364 131.349699 
L 218.094545 131.876991 
L 222.152727 135.341516 
L 226.210909 136.196344 
L 230.269091 139.584227 
L 234.327273 139.728454 
L 238.385455 141.763205 
L 242.443636 143.058286 
L 246.501818 144.3629 
L 250.56 146.486608 
L 254.618182 146.389733 
L 258.676364 148.716702 
L 262.734545 152.721833 
L 266.792727 155.158499 
L 270.850909 156.154119 
L 274.909091 158.348136 
L 278.967273 159.973571 
L 283.025455 162.314777 
L 287.083636 164.215475 
L 291.141818 166.109953 
L 295.2 169.479279 
L 299.258182 171.424371 
L 303.316364 172.136842 
L 307.374545 173.612058 
L 311.432727 173.168421 
L 315.490909 175.83538 
L 319.549091 177.940305 
L 323.607273 178.116542 
L 327.665455 182.596831 
L 331.723636 186.050118 
L 335.781818 186.195532 
L 339.84 189.897886 
L 343.898182 191.374599 
L 347.956364 192.349824 
L 352.014545 195.896628 
L 356.072727 198.394158 
L 360.130909 202.704213 
L 364.189091 204.862039 
L 368.247273 205.17884 
L 372.305455 209.73928 
L 376.363636 212.155414 
L 380.421818 215.591279 
L 384.48 219.049418 
L 388.538182 220.754894 
L 392.596364 224.311868 
L 396.654545 226.657096 
L 400.712727 228.361747 
L 404.770909 228.614205 
L 408.829091 230.552505 
L 412.887273 235.488075 
L 416.945455 241.201753 
L 421.003636 243.678189 
L 425.061818 247.819657 
L 429.12 246.61078 
L 433.178182 252.491546 
L 437.236364 258.738216 
L 441.294545 261.551198 
L 445.352727 264.343867 
L 449.410909 266.97644 
L 453.469091 269.193051 
L 457.527273 277.005005 
L 461.585455 280.802752 
L 465.643636 283.655187 
L 469.701818 289.9713 
L 473.76 296.784792 
L 477.818182 298.065188 
L 481.876364 304.526355 
L 485.934545 315.711157 
L 489.992727 326.083845 
L 494.050909 355.754263 
L 498.109091 369.36 
" style="fill:none;stroke:#d62728;stroke-dasharray:5.55,2.4;stroke-dashoffset:0;stroke-width:1.5;"/>
   </g>
   <g id="line2d_19">
    <path clip-path="url(#pd3f9e2a8dd)" d="M 92.290909 66.96 
L 96.349091 73.669274 
L 100.407273 76.981783 
L 104.465455 79.281769 
L 108.523636 81.099553 
L 112.581818 82.775277 
L 116.64 84.338311 
L 120.698182 84.808699 
L 124.756364 85.789331 
L 128.814545 86.347656 
L 132.872727 87.024687 
L 136.930909 88.118228 
L 140.989091 89.53922 
L 145.047273 90.167861 
L 149.105455 91.04282 
L 153.163636 91.909157 
L 157.221818 92.574113 
L 161.28 93.013373 
L 165.338182 93.558202 
L 169.396364 93.401507 
L 173.454545 93.225849 
L 177.512727 93.512191 
L 181.570909 93.869905 
L 185.629091 93.890689 
L 189.687273 94.694024 
L 193.745455 94.899364 
L 197.803636 95.305672 
L 201.861818 95.606133 
L 205.92 96.493781 
L 209.978182 96.074344 
L 214.036364 96.174107 
L 218.094545 96.750596 
L 222.152727 97.094647 
L 226.210909 96.934182 
L 230.269091 98.286665 
L 234.327273 99.133357 
L 238.385455 99.201568 
L 242.443636 100.163665 
L 246.501818 100.798285 
L 250.56 101.117308 
L 254.618182 101.989218 
L 258.676364 103.201941 
L 262.734545 103.450355 
L 266.792727 104.378072 
L 270.850909 104.573029 
L 274.909091 106.117215 
L 278.967273 106.827165 
L 283.025455 106.631437 
L 287.083636 107.648656 
L 291.141818 108.430835 
L 295.2 109.319065 
L 299.258182 111.145742 
L 303.316364 111.758218 
L 307.374545 111.967918 
L 311.432727 112.167495 
L 315.490909 112.192163 
L 319.549091 112.292965 
L 323.607273 113.427425 
L 327.665455 114.134723 
L 331.723636 113.108686 
L 335.781818 114.59242 
L 339.84 115.630494 
L 343.898182 115.974976 
L 347.956364 116.592867 
L 352.014545 117.980551 
L 356.072727 119.867147 
L 360.130909 120.87147 
L 364.189091 121.676127 
L 368.247273 121.568562 
L 372.305455 121.979728 
L 376.363636 122.319203 
L 380.421818 122.09981 
L 384.48 123.288523 
L 388.538182 124.297248 
L 392.596364 125.097431 
L 396.654545 125.686334 
L 400.712727 126.35941 
L 404.770909 127.30044 
L 408.829091 127.796826 
L 412.887273 128.438816 
L 416.945455 131.014088 
L 421.003636 130.680684 
L 425.061818 130.593019 
L 429.12 131.597314 
L 433.178182 132.553553 
L 437.236364 135.025187 
L 441.294545 139.180315 
L 445.352727 142.53305 
L 449.410909 147.857541 
L 453.469091 151.08024 
L 457.527273 155.280894 
L 461.585455 159.674166 
L 465.643636 165.236758 
L 469.701818 173.007313 
L 473.76 180.754304 
L 477.818182 189.233061 
L 481.876364 197.207987 
L 485.934545 212.428057 
L 489.992727 227.670578 
L 494.050909 258.429032 
L 498.109091 368.429957 
" style="fill:none;stroke:#9467bd;stroke-dasharray:5.55,2.4;stroke-dashoffset:0;stroke-width:1.5;"/>
   </g>
   <g id="line2d_20">
    <path clip-path="url(#pd3f9e2a8dd)" d="M 92.290909 66.96 
L 96.349091 76.680064 
L 100.407273 82.280709 
L 104.465455 86.370937 
L 108.523636 88.941641 
L 112.581818 91.370903 
L 116.64 93.933011 
L 120.698182 94.593535 
L 124.756364 96.281613 
L 128.814545 98.68716 
L 132.872727 100.968699 
L 136.930909 103.992195 
L 140.989091 106.490257 
L 145.047273 107.116768 
L 149.105455 109.826181 
L 153.163636 111.523005 
L 157.221818 114.425788 
L 161.28 115.3376 
L 165.338182 116.172733 
L 169.396364 117.637724 
L 173.454545 118.813232 
L 177.512727 121.118888 
L 181.570909 121.875221 
L 185.629091 123.723121 
L 189.687273 125.398014 
L 193.745455 127.473418 
L 197.803636 127.622731 
L 201.861818 129.244915 
L 205.92 130.008982 
L 209.978182 130.427605 
L 214.036364 131.349699 
L 218.094545 131.876991 
L 222.152727 135.341516 
L 226.210909 136.196344 
L 230.269091 139.584227 
L 234.327273 139.728454 
L 238.385455 141.763205 
L 242.443636 143.058286 
L 246.501818 144.3629 
L 250.56 146.486608 
L 254.618182 146.389731 
L 258.676364 148.716669 
L 262.734545 152.721346 
L 266.792727 155.146279 
L 270.850909 156.009502 
L 274.909091 157.264316 
L 278.967273 156.745811 
L 283.025455 160.529102 
L 287.083636 162.887215 
L 291.141818 164.545875 
L 295.2 164.923591 
L 299.258182 166.883425 
L 303.316364 170.360755 
L 307.374545 173.336798 
L 311.432727 171.936703 
L 315.490909 172.252395 
L 319.549091 171.01005 
L 323.607273 176.027371 
L 327.665455 177.055496 
L 331.723636 177.118901 
L 335.781818 180.91548 
L 339.84 181.814468 
L 343.898182 184.880948 
L 347.956364 186.347147 
L 352.014545 190.727699 
L 356.072727 189.599842 
L 360.130909 189.658784 
L 364.189091 192.138062 
L 368.247273 195.558758 
L 372.305455 198.075081 
L 376.363636 199.828674 
L 380.421818 199.67456 
L 384.48 203.54262 
L 388.538182 206.630362 
L 392.596364 201.868134 
L 396.654545 209.43193 
L 400.712727 208.39773 
L 404.770909 213.635005 
L 408.829091 217.977985 
L 412.887273 217.737307 
L 416.945455 218.669636 
L 421.003636 222.003055 
L 425.061818 225.291065 
L 429.12 224.916915 
L 433.178182 224.581629 
L 437.236364 225.906653 
L 441.294545 227.176263 
L 445.352727 229.793878 
L 449.410909 230.245469 
L 453.469091 234.122621 
L 457.527273 239.028092 
L 461.585455 237.933715 
L 465.643636 241.246425 
L 469.701818 239.645208 
L 473.76 244.777744 
L 477.818182 246.651684 
L 481.876364 244.005909 
L 485.934545 248.672992 
L 489.992727 245.873655 
L 494.050909 255.110059 
L 498.109091 257.763073 
" style="fill:none;stroke:#8c564b;stroke-linecap:square;stroke-width:1.5;"/>
    <defs>
     <path d="M -3 3 
L 3 -3 
M -3 -3 
L 3 3 
" id="m40dbe67572" style="stroke:#8c564b;"/>
    </defs>
    <g clip-path="url(#pd3f9e2a8dd)">
     <use style="fill:#8c564b;stroke:#8c564b;" x="92.290909" xlink:href="#m40dbe67572" y="66.96"/>
     <use style="fill:#8c564b;stroke:#8c564b;" x="96.349091" xlink:href="#m40dbe67572" y="76.680064"/>
     <use style="fill:#8c564b;stroke:#8c564b;" x="100.407273" xlink:href="#m40dbe67572" y="82.280709"/>
     <use style="fill:#8c564b;stroke:#8c564b;" x="104.465455" xlink:href="#m40dbe67572" y="86.370937"/>
     <use style="fill:#8c564b;stroke:#8c564b;" x="108.523636" xlink:href="#m40dbe67572" y="88.941641"/>
     <use style="fill:#8c564b;stroke:#8c564b;" x="112.581818" xlink:href="#m40dbe67572" y="91.370903"/>
     <use style="fill:#8c564b;stroke:#8c564b;" x="116.64" xlink:href="#m40dbe67572" y="93.933011"/>
     <use style="fill:#8c564b;stroke:#8c564b;" x="120.698182" xlink:href="#m40dbe67572" y="94.593535"/>
     <use style="fill:#8c564b;stroke:#8c564b;" x="124.756364" xlink:href="#m40dbe67572" y="96.281613"/>
     <use style="fill:#8c564b;stroke:#8c564b;" x="128.814545" xlink:href="#m40dbe67572" y="98.68716"/>
     <use style="fill:#8c564b;stroke:#8c564b;" x="132.872727" xlink:href="#m40dbe67572" y="100.968699"/>
     <use style="fill:#8c564b;stroke:#8c564b;" x="136.930909" xlink:href="#m40dbe67572" y="103.992195"/>
     <use style="fill:#8c564b;stroke:#8c564b;" x="140.989091" xlink:href="#m40dbe67572" y="106.490257"/>
     <use style="fill:#8c564b;stroke:#8c564b;" x="145.047273" xlink:href="#m40dbe67572" y="107.116768"/>
     <use style="fill:#8c564b;stroke:#8c564b;" x="149.105455" xlink:href="#m40dbe67572" y="109.826181"/>
     <use style="fill:#8c564b;stroke:#8c564b;" x="153.163636" xlink:href="#m40dbe67572" y="111.523005"/>
     <use style="fill:#8c564b;stroke:#8c564b;" x="157.221818" xlink:href="#m40dbe67572" y="114.425788"/>
     <use style="fill:#8c564b;stroke:#8c564b;" x="161.28" xlink:href="#m40dbe67572" y="115.3376"/>
     <use style="fill:#8c564b;stroke:#8c564b;" x="165.338182" xlink:href="#m40dbe67572" y="116.172733"/>
     <use style="fill:#8c564b;stroke:#8c564b;" x="169.396364" xlink:href="#m40dbe67572" y="117.637724"/>
     <use style="fill:#8c564b;stroke:#8c564b;" x="173.454545" xlink:href="#m40dbe67572" y="118.813232"/>
     <use style="fill:#8c564b;stroke:#8c564b;" x="177.512727" xlink:href="#m40dbe67572" y="121.118888"/>
     <use style="fill:#8c564b;stroke:#8c564b;" x="181.570909" xlink:href="#m40dbe67572" y="121.875221"/>
     <use style="fill:#8c564b;stroke:#8c564b;" x="185.629091" xlink:href="#m40dbe67572" y="123.723121"/>
     <use style="fill:#8c564b;stroke:#8c564b;" x="189.687273" xlink:href="#m40dbe67572" y="125.398014"/>
     <use style="fill:#8c564b;stroke:#8c564b;" x="193.745455" xlink:href="#m40dbe67572" y="127.473418"/>
     <use style="fill:#8c564b;stroke:#8c564b;" x="197.803636" xlink:href="#m40dbe67572" y="127.622731"/>
     <use style="fill:#8c564b;stroke:#8c564b;" x="201.861818" xlink:href="#m40dbe67572" y="129.244915"/>
     <use style="fill:#8c564b;stroke:#8c564b;" x="205.92" xlink:href="#m40dbe67572" y="130.008982"/>
     <use style="fill:#8c564b;stroke:#8c564b;" x="209.978182" xlink:href="#m40dbe67572" y="130.427605"/>
     <use style="fill:#8c564b;stroke:#8c564b;" x="214.036364" xlink:href="#m40dbe67572" y="131.349699"/>
     <use style="fill:#8c564b;stroke:#8c564b;" x="218.094545" xlink:href="#m40dbe67572" y="131.876991"/>
     <use style="fill:#8c564b;stroke:#8c564b;" x="222.152727" xlink:href="#m40dbe67572" y="135.341516"/>
     <use style="fill:#8c564b;stroke:#8c564b;" x="226.210909" xlink:href="#m40dbe67572" y="136.196344"/>
     <use style="fill:#8c564b;stroke:#8c564b;" x="230.269091" xlink:href="#m40dbe67572" y="139.584227"/>
     <use style="fill:#8c564b;stroke:#8c564b;" x="234.327273" xlink:href="#m40dbe67572" y="139.728454"/>
     <use style="fill:#8c564b;stroke:#8c564b;" x="238.385455" xlink:href="#m40dbe67572" y="141.763205"/>
     <use style="fill:#8c564b;stroke:#8c564b;" x="242.443636" xlink:href="#m40dbe67572" y="143.058286"/>
     <use style="fill:#8c564b;stroke:#8c564b;" x="246.501818" xlink:href="#m40dbe67572" y="144.3629"/>
     <use style="fill:#8c564b;stroke:#8c564b;" x="250.56" xlink:href="#m40dbe67572" y="146.486608"/>
     <use style="fill:#8c564b;stroke:#8c564b;" x="254.618182" xlink:href="#m40dbe67572" y="146.389731"/>
     <use style="fill:#8c564b;stroke:#8c564b;" x="258.676364" xlink:href="#m40dbe67572" y="148.716669"/>
     <use style="fill:#8c564b;stroke:#8c564b;" x="262.734545" xlink:href="#m40dbe67572" y="152.721346"/>
     <use style="fill:#8c564b;stroke:#8c564b;" x="266.792727" xlink:href="#m40dbe67572" y="155.146279"/>
     <use style="fill:#8c564b;stroke:#8c564b;" x="270.850909" xlink:href="#m40dbe67572" y="156.009502"/>
     <use style="fill:#8c564b;stroke:#8c564b;" x="274.909091" xlink:href="#m40dbe67572" y="157.264316"/>
     <use style="fill:#8c564b;stroke:#8c564b;" x="278.967273" xlink:href="#m40dbe67572" y="156.745811"/>
     <use style="fill:#8c564b;stroke:#8c564b;" x="283.025455" xlink:href="#m40dbe67572" y="160.529102"/>
     <use style="fill:#8c564b;stroke:#8c564b;" x="287.083636" xlink:href="#m40dbe67572" y="162.887215"/>
     <use style="fill:#8c564b;stroke:#8c564b;" x="291.141818" xlink:href="#m40dbe67572" y="164.545875"/>
     <use style="fill:#8c564b;stroke:#8c564b;" x="295.2" xlink:href="#m40dbe67572" y="164.923591"/>
     <use style="fill:#8c564b;stroke:#8c564b;" x="299.258182" xlink:href="#m40dbe67572" y="166.883425"/>
     <use style="fill:#8c564b;stroke:#8c564b;" x="303.316364" xlink:href="#m40dbe67572" y="170.360755"/>
     <use style="fill:#8c564b;stroke:#8c564b;" x="307.374545" xlink:href="#m40dbe67572" y="173.336798"/>
     <use style="fill:#8c564b;stroke:#8c564b;" x="311.432727" xlink:href="#m40dbe67572" y="171.936703"/>
     <use style="fill:#8c564b;stroke:#8c564b;" x="315.490909" xlink:href="#m40dbe67572" y="172.252395"/>
     <use style="fill:#8c564b;stroke:#8c564b;" x="319.549091" xlink:href="#m40dbe67572" y="171.01005"/>
     <use style="fill:#8c564b;stroke:#8c564b;" x="323.607273" xlink:href="#m40dbe67572" y="176.027371"/>
     <use style="fill:#8c564b;stroke:#8c564b;" x="327.665455" xlink:href="#m40dbe67572" y="177.055496"/>
     <use style="fill:#8c564b;stroke:#8c564b;" x="331.723636" xlink:href="#m40dbe67572" y="177.118901"/>
     <use style="fill:#8c564b;stroke:#8c564b;" x="335.781818" xlink:href="#m40dbe67572" y="180.91548"/>
     <use style="fill:#8c564b;stroke:#8c564b;" x="339.84" xlink:href="#m40dbe67572" y="181.814468"/>
     <use style="fill:#8c564b;stroke:#8c564b;" x="343.898182" xlink:href="#m40dbe67572" y="184.880948"/>
     <use style="fill:#8c564b;stroke:#8c564b;" x="347.956364" xlink:href="#m40dbe67572" y="186.347147"/>
     <use style="fill:#8c564b;stroke:#8c564b;" x="352.014545" xlink:href="#m40dbe67572" y="190.727699"/>
     <use style="fill:#8c564b;stroke:#8c564b;" x="356.072727" xlink:href="#m40dbe67572" y="189.599842"/>
     <use style="fill:#8c564b;stroke:#8c564b;" x="360.130909" xlink:href="#m40dbe67572" y="189.658784"/>
     <use style="fill:#8c564b;stroke:#8c564b;" x="364.189091" xlink:href="#m40dbe67572" y="192.138062"/>
     <use style="fill:#8c564b;stroke:#8c564b;" x="368.247273" xlink:href="#m40dbe67572" y="195.558758"/>
     <use style="fill:#8c564b;stroke:#8c564b;" x="372.305455" xlink:href="#m40dbe67572" y="198.075081"/>
     <use style="fill:#8c564b;stroke:#8c564b;" x="376.363636" xlink:href="#m40dbe67572" y="199.828674"/>
     <use style="fill:#8c564b;stroke:#8c564b;" x="380.421818" xlink:href="#m40dbe67572" y="199.67456"/>
     <use style="fill:#8c564b;stroke:#8c564b;" x="384.48" xlink:href="#m40dbe67572" y="203.54262"/>
     <use style="fill:#8c564b;stroke:#8c564b;" x="388.538182" xlink:href="#m40dbe67572" y="206.630362"/>
     <use style="fill:#8c564b;stroke:#8c564b;" x="392.596364" xlink:href="#m40dbe67572" y="201.868134"/>
     <use style="fill:#8c564b;stroke:#8c564b;" x="396.654545" xlink:href="#m40dbe67572" y="209.43193"/>
     <use style="fill:#8c564b;stroke:#8c564b;" x="400.712727" xlink:href="#m40dbe67572" y="208.39773"/>
     <use style="fill:#8c564b;stroke:#8c564b;" x="404.770909" xlink:href="#m40dbe67572" y="213.635005"/>
     <use style="fill:#8c564b;stroke:#8c564b;" x="408.829091" xlink:href="#m40dbe67572" y="217.977985"/>
     <use style="fill:#8c564b;stroke:#8c564b;" x="412.887273" xlink:href="#m40dbe67572" y="217.737307"/>
     <use style="fill:#8c564b;stroke:#8c564b;" x="416.945455" xlink:href="#m40dbe67572" y="218.669636"/>
     <use style="fill:#8c564b;stroke:#8c564b;" x="421.003636" xlink:href="#m40dbe67572" y="222.003055"/>
     <use style="fill:#8c564b;stroke:#8c564b;" x="425.061818" xlink:href="#m40dbe67572" y="225.291065"/>
     <use style="fill:#8c564b;stroke:#8c564b;" x="429.12" xlink:href="#m40dbe67572" y="224.916915"/>
     <use style="fill:#8c564b;stroke:#8c564b;" x="433.178182" xlink:href="#m40dbe67572" y="224.581629"/>
     <use style="fill:#8c564b;stroke:#8c564b;" x="437.236364" xlink:href="#m40dbe67572" y="225.906653"/>
     <use style="fill:#8c564b;stroke:#8c564b;" x="441.294545" xlink:href="#m40dbe67572" y="227.176263"/>
     <use style="fill:#8c564b;stroke:#8c564b;" x="445.352727" xlink:href="#m40dbe67572" y="229.793878"/>
     <use style="fill:#8c564b;stroke:#8c564b;" x="449.410909" xlink:href="#m40dbe67572" y="230.245469"/>
     <use style="fill:#8c564b;stroke:#8c564b;" x="453.469091" xlink:href="#m40dbe67572" y="234.122621"/>
     <use style="fill:#8c564b;stroke:#8c564b;" x="457.527273" xlink:href="#m40dbe67572" y="239.028092"/>
     <use style="fill:#8c564b;stroke:#8c564b;" x="461.585455" xlink:href="#m40dbe67572" y="237.933715"/>
     <use style="fill:#8c564b;stroke:#8c564b;" x="465.643636" xlink:href="#m40dbe67572" y="241.246425"/>
     <use style="fill:#8c564b;stroke:#8c564b;" x="469.701818" xlink:href="#m40dbe67572" y="239.645208"/>
     <use style="fill:#8c564b;stroke:#8c564b;" x="473.76" xlink:href="#m40dbe67572" y="244.777744"/>
     <use style="fill:#8c564b;stroke:#8c564b;" x="477.818182" xlink:href="#m40dbe67572" y="246.651684"/>
     <use style="fill:#8c564b;stroke:#8c564b;" x="481.876364" xlink:href="#m40dbe67572" y="244.005909"/>
     <use style="fill:#8c564b;stroke:#8c564b;" x="485.934545" xlink:href="#m40dbe67572" y="248.672992"/>
     <use style="fill:#8c564b;stroke:#8c564b;" x="489.992727" xlink:href="#m40dbe67572" y="245.873655"/>
     <use style="fill:#8c564b;stroke:#8c564b;" x="494.050909" xlink:href="#m40dbe67572" y="255.110059"/>
     <use style="fill:#8c564b;stroke:#8c564b;" x="498.109091" xlink:href="#m40dbe67572" y="257.763073"/>
    </g>
   </g>
   <g id="patch_3">
    <path d="M 72 384.48 
L 72 51.84 
" style="fill:none;stroke:#000000;stroke-linecap:square;stroke-linejoin:miter;stroke-width:0.8;"/>
   </g>
   <g id="patch_4">
    <path d="M 518.4 384.48 
L 518.4 51.84 
" style="fill:none;stroke:#000000;stroke-linecap:square;stroke-linejoin:miter;stroke-width:0.8;"/>
   </g>
   <g id="patch_5">
    <path d="M 72 384.48 
L 518.4 384.48 
" style="fill:none;stroke:#000000;stroke-linecap:square;stroke-linejoin:miter;stroke-width:0.8;"/>
   </g>
   <g id="patch_6">
    <path d="M 72 51.84 
L 518.4 51.84 
" style="fill:none;stroke:#000000;stroke-linecap:square;stroke-linejoin:miter;stroke-width:0.8;"/>
   </g>
   <g id="legend_1">
    <g id="patch_7">
     <path d="M 79 379.48 
L 215.382812 379.48 
Q 217.382812 379.48 217.382812 377.48 
L 217.382812 290.41125 
Q 217.382812 288.41125 215.382812 288.41125 
L 79 288.41125 
Q 77 288.41125 77 290.41125 
L 77 377.48 
Q 77 379.48 79 379.48 
z
" style="fill:#ffffff;opacity:0.8;stroke:#cccccc;stroke-linejoin:miter;"/>
    </g>
    <g id="line2d_21">
     <path d="M 81 296.509688 
L 101 296.509688 
" style="fill:none;stroke:#1f77b4;stroke-linecap:square;stroke-width:1.5;"/>
    </g>
    <g id="line2d_22">
     <g>
      <use style="fill:#1f77b4;stroke:#1f77b4;stroke-linejoin:miter;" x="91" xlink:href="#m4811725995" y="296.509688"/>
     </g>
    </g>
    <g id="text_17">
     <!-- CG -->
     <g transform="translate(109 300.009688)scale(0.1 -0.1)">
      <defs>
       <path d="M 4122 4306 
L 4122 3641 
Q 3803 3938 3442 4084 
Q 3081 4231 2675 4231 
Q 1875 4231 1450 3742 
Q 1025 3253 1025 2328 
Q 1025 1406 1450 917 
Q 1875 428 2675 428 
Q 3081 428 3442 575 
Q 3803 722 4122 1019 
L 4122 359 
Q 3791 134 3420 21 
Q 3050 -91 2638 -91 
Q 1578 -91 968 557 
Q 359 1206 359 2328 
Q 359 3453 968 4101 
Q 1578 4750 2638 4750 
Q 3056 4750 3426 4639 
Q 3797 4528 4122 4306 
z
" id="DejaVuSans-43" transform="scale(0.015625)"/>
       <path d="M 3809 666 
L 3809 1919 
L 2778 1919 
L 2778 2438 
L 4434 2438 
L 4434 434 
Q 4069 175 3628 42 
Q 3188 -91 2688 -91 
Q 1594 -91 976 548 
Q 359 1188 359 2328 
Q 359 3472 976 4111 
Q 1594 4750 2688 4750 
Q 3144 4750 3555 4637 
Q 3966 4525 4313 4306 
L 4313 3634 
Q 3963 3931 3569 4081 
Q 3175 4231 2741 4231 
Q 1884 4231 1454 3753 
Q 1025 3275 1025 2328 
Q 1025 1384 1454 906 
Q 1884 428 2741 428 
Q 3075 428 3337 486 
Q 3600 544 3809 666 
z
" id="DejaVuSans-47" transform="scale(0.015625)"/>
      </defs>
      <use xlink:href="#DejaVuSans-43"/>
      <use x="69.824219" xlink:href="#DejaVuSans-47"/>
     </g>
    </g>
    <g id="line2d_23">
     <path d="M 81 311.187813 
L 101 311.187813 
" style="fill:none;stroke:#ff7f0e;stroke-linecap:square;stroke-width:1.5;"/>
    </g>
    <g id="line2d_24"/>
    <g id="text_18">
     <!-- GMRES (krylov) -->
     <g transform="translate(109 314.687813)scale(0.1 -0.1)">
      <defs>
       <path d="M 628 4666 
L 1569 4666 
L 2759 1491 
L 3956 4666 
L 4897 4666 
L 4897 0 
L 4281 0 
L 4281 4097 
L 3078 897 
L 2444 897 
L 1241 4097 
L 1241 0 
L 628 0 
L 628 4666 
z
" id="DejaVuSans-4d" transform="scale(0.015625)"/>
       <path d="M 2841 2188 
Q 3044 2119 3236 1894 
Q 3428 1669 3622 1275 
L 4263 0 
L 3584 0 
L 2988 1197 
Q 2756 1666 2539 1819 
Q 2322 1972 1947 1972 
L 1259 1972 
L 1259 0 
L 628 0 
L 628 4666 
L 2053 4666 
Q 2853 4666 3247 4331 
Q 3641 3997 3641 3322 
Q 3641 2881 3436 2590 
Q 3231 2300 2841 2188 
z
M 1259 4147 
L 1259 2491 
L 2053 2491 
Q 2509 2491 2742 2702 
Q 2975 2913 2975 3322 
Q 2975 3731 2742 3939 
Q 2509 4147 2053 4147 
L 1259 4147 
z
" id="DejaVuSans-52" transform="scale(0.015625)"/>
       <path d="M 628 4666 
L 3578 4666 
L 3578 4134 
L 1259 4134 
L 1259 2753 
L 3481 2753 
L 3481 2222 
L 1259 2222 
L 1259 531 
L 3634 531 
L 3634 0 
L 628 0 
L 628 4666 
z
" id="DejaVuSans-45" transform="scale(0.015625)"/>
       <path d="M 3425 4513 
L 3425 3897 
Q 3066 4069 2747 4153 
Q 2428 4238 2131 4238 
Q 1616 4238 1336 4038 
Q 1056 3838 1056 3469 
Q 1056 3159 1242 3001 
Q 1428 2844 1947 2747 
L 2328 2669 
Q 3034 2534 3370 2195 
Q 3706 1856 3706 1288 
Q 3706 609 3251 259 
Q 2797 -91 1919 -91 
Q 1588 -91 1214 -16 
Q 841 59 441 206 
L 441 856 
Q 825 641 1194 531 
Q 1563 422 1919 422 
Q 2459 422 2753 634 
Q 3047 847 3047 1241 
Q 3047 1584 2836 1778 
Q 2625 1972 2144 2069 
L 1759 2144 
Q 1053 2284 737 2584 
Q 422 2884 422 3419 
Q 422 4038 858 4394 
Q 1294 4750 2059 4750 
Q 2388 4750 2728 4690 
Q 3069 4631 3425 4513 
z
" id="DejaVuSans-53" transform="scale(0.015625)"/>
       <path d="M 1984 4856 
Q 1566 4138 1362 3434 
Q 1159 2731 1159 2009 
Q 1159 1288 1364 580 
Q 1569 -128 1984 -844 
L 1484 -844 
Q 1016 -109 783 600 
Q 550 1309 550 2009 
Q 550 2706 781 3412 
Q 1013 4119 1484 4856 
L 1984 4856 
z
" id="DejaVuSans-28" transform="scale(0.015625)"/>
       <path d="M 581 4863 
L 1159 4863 
L 1159 1991 
L 2875 3500 
L 3609 3500 
L 1753 1863 
L 3688 0 
L 2938 0 
L 1159 1709 
L 1159 0 
L 581 0 
L 581 4863 
z
" id="DejaVuSans-6b" transform="scale(0.015625)"/>
       <path d="M 2059 -325 
Q 1816 -950 1584 -1140 
Q 1353 -1331 966 -1331 
L 506 -1331 
L 506 -850 
L 844 -850 
Q 1081 -850 1212 -737 
Q 1344 -625 1503 -206 
L 1606 56 
L 191 3500 
L 800 3500 
L 1894 763 
L 2988 3500 
L 3597 3500 
L 2059 -325 
z
" id="DejaVuSans-79" transform="scale(0.015625)"/>
       <path d="M 191 3500 
L 800 3500 
L 1894 563 
L 2988 3500 
L 3597 3500 
L 2284 0 
L 1503 0 
L 191 3500 
z
" id="DejaVuSans-76" transform="scale(0.015625)"/>
       <path d="M 513 4856 
L 1013 4856 
Q 1481 4119 1714 3412 
Q 1947 2706 1947 2009 
Q 1947 1309 1714 600 
Q 1481 -109 1013 -844 
L 513 -844 
Q 928 -128 1133 580 
Q 1338 1288 1338 2009 
Q 1338 2731 1133 3434 
Q 928 4138 513 4856 
z
" id="DejaVuSans-29" transform="scale(0.015625)"/>
      </defs>
      <use xlink:href="#DejaVuSans-47"/>
      <use x="77.490234" xlink:href="#DejaVuSans-4d"/>
      <use x="163.769531" xlink:href="#DejaVuSans-52"/>
      <use x="233.251953" xlink:href="#DejaVuSans-45"/>
      <use x="296.435547" xlink:href="#DejaVuSans-53"/>
      <use x="359.912109" xlink:href="#DejaVuSans-20"/>
      <use x="391.699219" xlink:href="#DejaVuSans-28"/>
      <use x="430.712891" xlink:href="#DejaVuSans-6b"/>
      <use x="488.623047" xlink:href="#DejaVuSans-72"/>
      <use x="529.736328" xlink:href="#DejaVuSans-79"/>
      <use x="588.916016" xlink:href="#DejaVuSans-6c"/>
      <use x="616.699219" xlink:href="#DejaVuSans-6f"/>
      <use x="677.880859" xlink:href="#DejaVuSans-76"/>
      <use x="737.060547" xlink:href="#DejaVuSans-29"/>
     </g>
    </g>
    <g id="line2d_25">
     <path d="M 81 325.865938 
L 101 325.865938 
" style="fill:none;stroke:#2ca02c;stroke-linecap:square;stroke-width:1.5;"/>
    </g>
    <g id="line2d_26"/>
    <g id="text_19">
     <!-- GMRES (grad) -->
     <g transform="translate(109 329.365938)scale(0.1 -0.1)">
      <defs>
       <path d="M 2906 1791 
Q 2906 2416 2648 2759 
Q 2391 3103 1925 3103 
Q 1463 3103 1205 2759 
Q 947 2416 947 1791 
Q 947 1169 1205 825 
Q 1463 481 1925 481 
Q 2391 481 2648 825 
Q 2906 1169 2906 1791 
z
M 3481 434 
Q 3481 -459 3084 -895 
Q 2688 -1331 1869 -1331 
Q 1566 -1331 1297 -1286 
Q 1028 -1241 775 -1147 
L 775 -588 
Q 1028 -725 1275 -790 
Q 1522 -856 1778 -856 
Q 2344 -856 2625 -561 
Q 2906 -266 2906 331 
L 2906 616 
Q 2728 306 2450 153 
Q 2172 0 1784 0 
Q 1141 0 747 490 
Q 353 981 353 1791 
Q 353 2603 747 3093 
Q 1141 3584 1784 3584 
Q 2172 3584 2450 3431 
Q 2728 3278 2906 2969 
L 2906 3500 
L 3481 3500 
L 3481 434 
z
" id="DejaVuSans-67" transform="scale(0.015625)"/>
      </defs>
      <use xlink:href="#DejaVuSans-47"/>
      <use x="77.490234" xlink:href="#DejaVuSans-4d"/>
      <use x="163.769531" xlink:href="#DejaVuSans-52"/>
      <use x="233.251953" xlink:href="#DejaVuSans-45"/>
      <use x="296.435547" xlink:href="#DejaVuSans-53"/>
      <use x="359.912109" xlink:href="#DejaVuSans-20"/>
      <use x="391.699219" xlink:href="#DejaVuSans-28"/>
      <use x="430.712891" xlink:href="#DejaVuSans-67"/>
      <use x="494.189453" xlink:href="#DejaVuSans-72"/>
      <use x="535.302734" xlink:href="#DejaVuSans-61"/>
      <use x="596.582031" xlink:href="#DejaVuSans-64"/>
      <use x="660.058594" xlink:href="#DejaVuSans-29"/>
     </g>
    </g>
    <g id="line2d_27">
     <path d="M 81 340.544062 
L 101 340.544062 
" style="fill:none;stroke:#d62728;stroke-dasharray:5.55,2.4;stroke-dashoffset:0;stroke-width:1.5;"/>
    </g>
    <g id="line2d_28"/>
    <g id="text_20">
     <!-- FOM (krylov) -->
     <g transform="translate(109 344.044062)scale(0.1 -0.1)">
      <defs>
       <path d="M 628 4666 
L 3309 4666 
L 3309 4134 
L 1259 4134 
L 1259 2759 
L 3109 2759 
L 3109 2228 
L 1259 2228 
L 1259 0 
L 628 0 
L 628 4666 
z
" id="DejaVuSans-46" transform="scale(0.015625)"/>
       <path d="M 2522 4238 
Q 1834 4238 1429 3725 
Q 1025 3213 1025 2328 
Q 1025 1447 1429 934 
Q 1834 422 2522 422 
Q 3209 422 3611 934 
Q 4013 1447 4013 2328 
Q 4013 3213 3611 3725 
Q 3209 4238 2522 4238 
z
M 2522 4750 
Q 3503 4750 4090 4092 
Q 4678 3434 4678 2328 
Q 4678 1225 4090 567 
Q 3503 -91 2522 -91 
Q 1538 -91 948 565 
Q 359 1222 359 2328 
Q 359 3434 948 4092 
Q 1538 4750 2522 4750 
z
" id="DejaVuSans-4f" transform="scale(0.015625)"/>
      </defs>
      <use xlink:href="#DejaVuSans-46"/>
      <use x="57.519531" xlink:href="#DejaVuSans-4f"/>
      <use x="136.230469" xlink:href="#DejaVuSans-4d"/>
      <use x="222.509766" xlink:href="#DejaVuSans-20"/>
      <use x="254.296875" xlink:href="#DejaVuSans-28"/>
      <use x="293.310547" xlink:href="#DejaVuSans-6b"/>
      <use x="351.220703" xlink:href="#DejaVuSans-72"/>
      <use x="392.333984" xlink:href="#DejaVuSans-79"/>
      <use x="451.513672" xlink:href="#DejaVuSans-6c"/>
      <use x="479.296875" xlink:href="#DejaVuSans-6f"/>
      <use x="540.478516" xlink:href="#DejaVuSans-76"/>
      <use x="599.658203" xlink:href="#DejaVuSans-29"/>
     </g>
    </g>
    <g id="line2d_29">
     <path d="M 81 355.222188 
L 101 355.222188 
" style="fill:none;stroke:#9467bd;stroke-dasharray:5.55,2.4;stroke-dashoffset:0;stroke-width:1.5;"/>
    </g>
    <g id="line2d_30"/>
    <g id="text_21">
     <!-- FOM (grad) -->
     <g transform="translate(109 358.722188)scale(0.1 -0.1)">
      <use xlink:href="#DejaVuSans-46"/>
      <use x="57.519531" xlink:href="#DejaVuSans-4f"/>
      <use x="136.230469" xlink:href="#DejaVuSans-4d"/>
      <use x="222.509766" xlink:href="#DejaVuSans-20"/>
      <use x="254.296875" xlink:href="#DejaVuSans-28"/>
      <use x="293.310547" xlink:href="#DejaVuSans-67"/>
      <use x="356.787109" xlink:href="#DejaVuSans-72"/>
      <use x="397.900391" xlink:href="#DejaVuSans-61"/>
      <use x="459.179688" xlink:href="#DejaVuSans-64"/>
      <use x="522.65625" xlink:href="#DejaVuSans-29"/>
     </g>
    </g>
    <g id="line2d_31">
     <path d="M 81 369.900313 
L 101 369.900313 
" style="fill:none;stroke:#8c564b;stroke-linecap:square;stroke-width:1.5;"/>
    </g>
    <g id="line2d_32">
     <g>
      <use style="fill:#8c564b;stroke:#8c564b;" x="91" xlink:href="#m40dbe67572" y="369.900313"/>
     </g>
    </g>
    <g id="text_22">
     <!-- CG (IterativeSolvers) -->
     <g transform="translate(109 373.400313)scale(0.1 -0.1)">
      <defs>
       <path d="M 628 4666 
L 1259 4666 
L 1259 0 
L 628 0 
L 628 4666 
z
" id="DejaVuSans-49" transform="scale(0.015625)"/>
      </defs>
      <use xlink:href="#DejaVuSans-43"/>
      <use x="69.824219" xlink:href="#DejaVuSans-47"/>
      <use x="147.314453" xlink:href="#DejaVuSans-20"/>
      <use x="179.101562" xlink:href="#DejaVuSans-28"/>
      <use x="218.115234" xlink:href="#DejaVuSans-49"/>
      <use x="247.607422" xlink:href="#DejaVuSans-74"/>
      <use x="286.816406" xlink:href="#DejaVuSans-65"/>
      <use x="348.339844" xlink:href="#DejaVuSans-72"/>
      <use x="389.453125" xlink:href="#DejaVuSans-61"/>
      <use x="450.732422" xlink:href="#DejaVuSans-74"/>
      <use x="489.941406" xlink:href="#DejaVuSans-69"/>
      <use x="517.724609" xlink:href="#DejaVuSans-76"/>
      <use x="576.904297" xlink:href="#DejaVuSans-65"/>
      <use x="638.427734" xlink:href="#DejaVuSans-53"/>
      <use x="701.904297" xlink:href="#DejaVuSans-6f"/>
      <use x="763.085938" xlink:href="#DejaVuSans-6c"/>
      <use x="790.869141" xlink:href="#DejaVuSans-76"/>
      <use x="850.048828" xlink:href="#DejaVuSans-65"/>
      <use x="911.572266" xlink:href="#DejaVuSans-72"/>
      <use x="952.685547" xlink:href="#DejaVuSans-73"/>
      <use x="1004.785156" xlink:href="#DejaVuSans-29"/>
     </g>
    </g>
   </g>
  </g>
 </g>
 <defs>
  <clipPath id="pd3f9e2a8dd">
   <rect height="332.64" width="446.4" x="72" y="51.84"/>
  </clipPath>
 </defs>
</svg>
