<?xml version="1.0" encoding="utf-8" standalone="no"?>
<!DOCTYPE svg PUBLIC "-//W3C//DTD SVG 1.1//EN"
  "http://www.w3.org/Graphics/SVG/1.1/DTD/svg11.dtd">
<svg height="432pt" version="1.1" viewBox="0 0 576 432" width="576pt" xmlns="http://www.w3.org/2000/svg" xmlns:xlink="http://www.w3.org/1999/xlink">
 <metadata>
  <rdf:RDF xmlns:cc="http://creativecommons.org/ns#" xmlns:dc="http://purl.org/dc/elements/1.1/" xmlns:rdf="http://www.w3.org/1999/02/22-rdf-syntax-ns#">
   <cc:Work>
    <dc:type rdf:resource="http://purl.org/dc/dcmitype/StillImage"/>
    <dc:date>2021-07-09T00:18:50.863223</dc:date>
    <dc:format>image/svg+xml</dc:format>
    <dc:creator>
     <cc:Agent>
      <dc:title>Matplotlib v3.4.2, https://matplotlib.org/</dc:title>
     </cc:Agent>
    </dc:creator>
   </cc:Work>
  </rdf:RDF>
 </metadata>
 <defs>
  <style type="text/css">*{stroke-linecap:butt;stroke-linejoin:round;}</style>
 </defs>
 <g id="figure_1">
  <g id="patch_1">
   <path d="M 0 432 
L 576 432 
L 576 0 
L 0 0 
z
" style="fill:#ffffff;"/>
  </g>
  <g id="axes_1">
   <g id="patch_2">
    <path d="M 72 384.48 
L 518.4 384.48 
L 518.4 51.84 
L 72 51.84 
z
" style="fill:#ffffff;"/>
   </g>
   <g id="matplotlib.axis_1">
    <g id="xtick_1">
     <g id="line2d_1">
      <defs>
       <path d="M 0 0 
L 0 3.5 
" id="m4bfb1269e3" style="stroke:#000000;stroke-width:0.8;"/>
      </defs>
      <g>
       <use style="stroke:#000000;stroke-width:0.8;" x="92.290909" xlink:href="#m4bfb1269e3" y="384.48"/>
      </g>
     </g>
     <g id="text_1">
      <!-- 0 -->
      <g transform="translate(89.109659 399.078438)scale(0.1 -0.1)">
       <defs>
        <path d="M 2034 4250 
Q 1547 4250 1301 3770 
Q 1056 3291 1056 2328 
Q 1056 1369 1301 889 
Q 1547 409 2034 409 
Q 2525 409 2770 889 
Q 3016 1369 3016 2328 
Q 3016 3291 2770 3770 
Q 2525 4250 2034 4250 
z
M 2034 4750 
Q 2819 4750 3233 4129 
Q 3647 3509 3647 2328 
Q 3647 1150 3233 529 
Q 2819 -91 2034 -91 
Q 1250 -91 836 529 
Q 422 1150 422 2328 
Q 422 3509 836 4129 
Q 1250 4750 2034 4750 
z
" id="DejaVuSans-30" transform="scale(0.015625)"/>
       </defs>
       <use xlink:href="#DejaVuSans-30"/>
      </g>
     </g>
    </g>
    <g id="xtick_2">
     <g id="line2d_2">
      <g>
       <use style="stroke:#000000;stroke-width:0.8;" x="173.454545" xlink:href="#m4bfb1269e3" y="384.48"/>
      </g>
     </g>
     <g id="text_2">
      <!-- 20 -->
      <g transform="translate(167.092045 399.078438)scale(0.1 -0.1)">
       <defs>
        <path d="M 1228 531 
L 3431 531 
L 3431 0 
L 469 0 
L 469 531 
Q 828 903 1448 1529 
Q 2069 2156 2228 2338 
Q 2531 2678 2651 2914 
Q 2772 3150 2772 3378 
Q 2772 3750 2511 3984 
Q 2250 4219 1831 4219 
Q 1534 4219 1204 4116 
Q 875 4013 500 3803 
L 500 4441 
Q 881 4594 1212 4672 
Q 1544 4750 1819 4750 
Q 2544 4750 2975 4387 
Q 3406 4025 3406 3419 
Q 3406 3131 3298 2873 
Q 3191 2616 2906 2266 
Q 2828 2175 2409 1742 
Q 1991 1309 1228 531 
z
" id="DejaVuSans-32" transform="scale(0.015625)"/>
       </defs>
       <use xlink:href="#DejaVuSans-32"/>
       <use x="63.623047" xlink:href="#DejaVuSans-30"/>
      </g>
     </g>
    </g>
    <g id="xtick_3">
     <g id="line2d_3">
      <g>
       <use style="stroke:#000000;stroke-width:0.8;" x="254.618182" xlink:href="#m4bfb1269e3" y="384.48"/>
      </g>
     </g>
     <g id="text_3">
      <!-- 40 -->
      <g transform="translate(248.255682 399.078438)scale(0.1 -0.1)">
       <defs>
        <path d="M 2419 4116 
L 825 1625 
L 2419 1625 
L 2419 4116 
z
M 2253 4666 
L 3047 4666 
L 3047 1625 
L 3713 1625 
L 3713 1100 
L 3047 1100 
L 3047 0 
L 2419 0 
L 2419 1100 
L 313 1100 
L 313 1709 
L 2253 4666 
z
" id="DejaVuSans-34" transform="scale(0.015625)"/>
       </defs>
       <use xlink:href="#DejaVuSans-34"/>
       <use x="63.623047" xlink:href="#DejaVuSans-30"/>
      </g>
     </g>
    </g>
    <g id="xtick_4">
     <g id="line2d_4">
      <g>
       <use style="stroke:#000000;stroke-width:0.8;" x="335.781818" xlink:href="#m4bfb1269e3" y="384.48"/>
      </g>
     </g>
     <g id="text_4">
      <!-- 60 -->
      <g transform="translate(329.419318 399.078438)scale(0.1 -0.1)">
       <defs>
        <path d="M 2113 2584 
Q 1688 2584 1439 2293 
Q 1191 2003 1191 1497 
Q 1191 994 1439 701 
Q 1688 409 2113 409 
Q 2538 409 2786 701 
Q 3034 994 3034 1497 
Q 3034 2003 2786 2293 
Q 2538 2584 2113 2584 
z
M 3366 4563 
L 3366 3988 
Q 3128 4100 2886 4159 
Q 2644 4219 2406 4219 
Q 1781 4219 1451 3797 
Q 1122 3375 1075 2522 
Q 1259 2794 1537 2939 
Q 1816 3084 2150 3084 
Q 2853 3084 3261 2657 
Q 3669 2231 3669 1497 
Q 3669 778 3244 343 
Q 2819 -91 2113 -91 
Q 1303 -91 875 529 
Q 447 1150 447 2328 
Q 447 3434 972 4092 
Q 1497 4750 2381 4750 
Q 2619 4750 2861 4703 
Q 3103 4656 3366 4563 
z
" id="DejaVuSans-36" transform="scale(0.015625)"/>
       </defs>
       <use xlink:href="#DejaVuSans-36"/>
       <use x="63.623047" xlink:href="#DejaVuSans-30"/>
      </g>
     </g>
    </g>
    <g id="xtick_5">
     <g id="line2d_5">
      <g>
       <use style="stroke:#000000;stroke-width:0.8;" x="416.945455" xlink:href="#m4bfb1269e3" y="384.48"/>
      </g>
     </g>
     <g id="text_5">
      <!-- 80 -->
      <g transform="translate(410.582955 399.078438)scale(0.1 -0.1)">
       <defs>
        <path d="M 2034 2216 
Q 1584 2216 1326 1975 
Q 1069 1734 1069 1313 
Q 1069 891 1326 650 
Q 1584 409 2034 409 
Q 2484 409 2743 651 
Q 3003 894 3003 1313 
Q 3003 1734 2745 1975 
Q 2488 2216 2034 2216 
z
M 1403 2484 
Q 997 2584 770 2862 
Q 544 3141 544 3541 
Q 544 4100 942 4425 
Q 1341 4750 2034 4750 
Q 2731 4750 3128 4425 
Q 3525 4100 3525 3541 
Q 3525 3141 3298 2862 
Q 3072 2584 2669 2484 
Q 3125 2378 3379 2068 
Q 3634 1759 3634 1313 
Q 3634 634 3220 271 
Q 2806 -91 2034 -91 
Q 1263 -91 848 271 
Q 434 634 434 1313 
Q 434 1759 690 2068 
Q 947 2378 1403 2484 
z
M 1172 3481 
Q 1172 3119 1398 2916 
Q 1625 2713 2034 2713 
Q 2441 2713 2670 2916 
Q 2900 3119 2900 3481 
Q 2900 3844 2670 4047 
Q 2441 4250 2034 4250 
Q 1625 4250 1398 4047 
Q 1172 3844 1172 3481 
z
" id="DejaVuSans-38" transform="scale(0.015625)"/>
       </defs>
       <use xlink:href="#DejaVuSans-38"/>
       <use x="63.623047" xlink:href="#DejaVuSans-30"/>
      </g>
     </g>
    </g>
    <g id="xtick_6">
     <g id="line2d_6">
      <g>
       <use style="stroke:#000000;stroke-width:0.8;" x="498.109091" xlink:href="#m4bfb1269e3" y="384.48"/>
      </g>
     </g>
     <g id="text_6">
      <!-- 100 -->
      <g transform="translate(488.565341 399.078438)scale(0.1 -0.1)">
       <defs>
        <path d="M 794 531 
L 1825 531 
L 1825 4091 
L 703 3866 
L 703 4441 
L 1819 4666 
L 2450 4666 
L 2450 531 
L 3481 531 
L 3481 0 
L 794 0 
L 794 531 
z
" id="DejaVuSans-31" transform="scale(0.015625)"/>
       </defs>
       <use xlink:href="#DejaVuSans-31"/>
       <use x="63.623047" xlink:href="#DejaVuSans-30"/>
       <use x="127.246094" xlink:href="#DejaVuSans-30"/>
      </g>
     </g>
    </g>
    <g id="text_7">
     <!-- Number of iterations -->
     <g transform="translate(243.389062 412.756563)scale(0.1 -0.1)">
      <defs>
       <path d="M 628 4666 
L 1478 4666 
L 3547 763 
L 3547 4666 
L 4159 4666 
L 4159 0 
L 3309 0 
L 1241 3903 
L 1241 0 
L 628 0 
L 628 4666 
z
" id="DejaVuSans-4e" transform="scale(0.015625)"/>
       <path d="M 544 1381 
L 544 3500 
L 1119 3500 
L 1119 1403 
Q 1119 906 1312 657 
Q 1506 409 1894 409 
Q 2359 409 2629 706 
Q 2900 1003 2900 1516 
L 2900 3500 
L 3475 3500 
L 3475 0 
L 2900 0 
L 2900 538 
Q 2691 219 2414 64 
Q 2138 -91 1772 -91 
Q 1169 -91 856 284 
Q 544 659 544 1381 
z
M 1991 3584 
L 1991 3584 
z
" id="DejaVuSans-75" transform="scale(0.015625)"/>
       <path d="M 3328 2828 
Q 3544 3216 3844 3400 
Q 4144 3584 4550 3584 
Q 5097 3584 5394 3201 
Q 5691 2819 5691 2113 
L 5691 0 
L 5113 0 
L 5113 2094 
Q 5113 2597 4934 2840 
Q 4756 3084 4391 3084 
Q 3944 3084 3684 2787 
Q 3425 2491 3425 1978 
L 3425 0 
L 2847 0 
L 2847 2094 
Q 2847 2600 2669 2842 
Q 2491 3084 2119 3084 
Q 1678 3084 1418 2786 
Q 1159 2488 1159 1978 
L 1159 0 
L 581 0 
L 581 3500 
L 1159 3500 
L 1159 2956 
Q 1356 3278 1631 3431 
Q 1906 3584 2284 3584 
Q 2666 3584 2933 3390 
Q 3200 3197 3328 2828 
z
" id="DejaVuSans-6d" transform="scale(0.015625)"/>
       <path d="M 3116 1747 
Q 3116 2381 2855 2742 
Q 2594 3103 2138 3103 
Q 1681 3103 1420 2742 
Q 1159 2381 1159 1747 
Q 1159 1113 1420 752 
Q 1681 391 2138 391 
Q 2594 391 2855 752 
Q 3116 1113 3116 1747 
z
M 1159 2969 
Q 1341 3281 1617 3432 
Q 1894 3584 2278 3584 
Q 2916 3584 3314 3078 
Q 3713 2572 3713 1747 
Q 3713 922 3314 415 
Q 2916 -91 2278 -91 
Q 1894 -91 1617 61 
Q 1341 213 1159 525 
L 1159 0 
L 581 0 
L 581 4863 
L 1159 4863 
L 1159 2969 
z
" id="DejaVuSans-62" transform="scale(0.015625)"/>
       <path d="M 3597 1894 
L 3597 1613 
L 953 1613 
Q 991 1019 1311 708 
Q 1631 397 2203 397 
Q 2534 397 2845 478 
Q 3156 559 3463 722 
L 3463 178 
Q 3153 47 2828 -22 
Q 2503 -91 2169 -91 
Q 1331 -91 842 396 
Q 353 884 353 1716 
Q 353 2575 817 3079 
Q 1281 3584 2069 3584 
Q 2775 3584 3186 3129 
Q 3597 2675 3597 1894 
z
M 3022 2063 
Q 3016 2534 2758 2815 
Q 2500 3097 2075 3097 
Q 1594 3097 1305 2825 
Q 1016 2553 972 2059 
L 3022 2063 
z
" id="DejaVuSans-65" transform="scale(0.015625)"/>
       <path d="M 2631 2963 
Q 2534 3019 2420 3045 
Q 2306 3072 2169 3072 
Q 1681 3072 1420 2755 
Q 1159 2438 1159 1844 
L 1159 0 
L 581 0 
L 581 3500 
L 1159 3500 
L 1159 2956 
Q 1341 3275 1631 3429 
Q 1922 3584 2338 3584 
Q 2397 3584 2469 3576 
Q 2541 3569 2628 3553 
L 2631 2963 
z
" id="DejaVuSans-72" transform="scale(0.015625)"/>
       <path id="DejaVuSans-20" transform="scale(0.015625)"/>
       <path d="M 1959 3097 
Q 1497 3097 1228 2736 
Q 959 2375 959 1747 
Q 959 1119 1226 758 
Q 1494 397 1959 397 
Q 2419 397 2687 759 
Q 2956 1122 2956 1747 
Q 2956 2369 2687 2733 
Q 2419 3097 1959 3097 
z
M 1959 3584 
Q 2709 3584 3137 3096 
Q 3566 2609 3566 1747 
Q 3566 888 3137 398 
Q 2709 -91 1959 -91 
Q 1206 -91 779 398 
Q 353 888 353 1747 
Q 353 2609 779 3096 
Q 1206 3584 1959 3584 
z
" id="DejaVuSans-6f" transform="scale(0.015625)"/>
       <path d="M 2375 4863 
L 2375 4384 
L 1825 4384 
Q 1516 4384 1395 4259 
Q 1275 4134 1275 3809 
L 1275 3500 
L 2222 3500 
L 2222 3053 
L 1275 3053 
L 1275 0 
L 697 0 
L 697 3053 
L 147 3053 
L 147 3500 
L 697 3500 
L 697 3744 
Q 697 4328 969 4595 
Q 1241 4863 1831 4863 
L 2375 4863 
z
" id="DejaVuSans-66" transform="scale(0.015625)"/>
       <path d="M 603 3500 
L 1178 3500 
L 1178 0 
L 603 0 
L 603 3500 
z
M 603 4863 
L 1178 4863 
L 1178 4134 
L 603 4134 
L 603 4863 
z
" id="DejaVuSans-69" transform="scale(0.015625)"/>
       <path d="M 1172 4494 
L 1172 3500 
L 2356 3500 
L 2356 3053 
L 1172 3053 
L 1172 1153 
Q 1172 725 1289 603 
Q 1406 481 1766 481 
L 2356 481 
L 2356 0 
L 1766 0 
Q 1100 0 847 248 
Q 594 497 594 1153 
L 594 3053 
L 172 3053 
L 172 3500 
L 594 3500 
L 594 4494 
L 1172 4494 
z
" id="DejaVuSans-74" transform="scale(0.015625)"/>
       <path d="M 2194 1759 
Q 1497 1759 1228 1600 
Q 959 1441 959 1056 
Q 959 750 1161 570 
Q 1363 391 1709 391 
Q 2188 391 2477 730 
Q 2766 1069 2766 1631 
L 2766 1759 
L 2194 1759 
z
M 3341 1997 
L 3341 0 
L 2766 0 
L 2766 531 
Q 2569 213 2275 61 
Q 1981 -91 1556 -91 
Q 1019 -91 701 211 
Q 384 513 384 1019 
Q 384 1609 779 1909 
Q 1175 2209 1959 2209 
L 2766 2209 
L 2766 2266 
Q 2766 2663 2505 2880 
Q 2244 3097 1772 3097 
Q 1472 3097 1187 3025 
Q 903 2953 641 2809 
L 641 3341 
Q 956 3463 1253 3523 
Q 1550 3584 1831 3584 
Q 2591 3584 2966 3190 
Q 3341 2797 3341 1997 
z
" id="DejaVuSans-61" transform="scale(0.015625)"/>
       <path d="M 3513 2113 
L 3513 0 
L 2938 0 
L 2938 2094 
Q 2938 2591 2744 2837 
Q 2550 3084 2163 3084 
Q 1697 3084 1428 2787 
Q 1159 2491 1159 1978 
L 1159 0 
L 581 0 
L 581 3500 
L 1159 3500 
L 1159 2956 
Q 1366 3272 1645 3428 
Q 1925 3584 2291 3584 
Q 2894 3584 3203 3211 
Q 3513 2838 3513 2113 
z
" id="DejaVuSans-6e" transform="scale(0.015625)"/>
       <path d="M 2834 3397 
L 2834 2853 
Q 2591 2978 2328 3040 
Q 2066 3103 1784 3103 
Q 1356 3103 1142 2972 
Q 928 2841 928 2578 
Q 928 2378 1081 2264 
Q 1234 2150 1697 2047 
L 1894 2003 
Q 2506 1872 2764 1633 
Q 3022 1394 3022 966 
Q 3022 478 2636 193 
Q 2250 -91 1575 -91 
Q 1294 -91 989 -36 
Q 684 19 347 128 
L 347 722 
Q 666 556 975 473 
Q 1284 391 1588 391 
Q 1994 391 2212 530 
Q 2431 669 2431 922 
Q 2431 1156 2273 1281 
Q 2116 1406 1581 1522 
L 1381 1569 
Q 847 1681 609 1914 
Q 372 2147 372 2553 
Q 372 3047 722 3315 
Q 1072 3584 1716 3584 
Q 2034 3584 2315 3537 
Q 2597 3491 2834 3397 
z
" id="DejaVuSans-73" transform="scale(0.015625)"/>
      </defs>
      <use xlink:href="#DejaVuSans-4e"/>
      <use x="74.804688" xlink:href="#DejaVuSans-75"/>
      <use x="138.183594" xlink:href="#DejaVuSans-6d"/>
      <use x="235.595703" xlink:href="#DejaVuSans-62"/>
      <use x="299.072266" xlink:href="#DejaVuSans-65"/>
      <use x="360.595703" xlink:href="#DejaVuSans-72"/>
      <use x="401.708984" xlink:href="#DejaVuSans-20"/>
      <use x="433.496094" xlink:href="#DejaVuSans-6f"/>
      <use x="494.677734" xlink:href="#DejaVuSans-66"/>
      <use x="529.882812" xlink:href="#DejaVuSans-20"/>
      <use x="561.669922" xlink:href="#DejaVuSans-69"/>
      <use x="589.453125" xlink:href="#DejaVuSans-74"/>
      <use x="628.662109" xlink:href="#DejaVuSans-65"/>
      <use x="690.185547" xlink:href="#DejaVuSans-72"/>
      <use x="731.298828" xlink:href="#DejaVuSans-61"/>
      <use x="792.578125" xlink:href="#DejaVuSans-74"/>
      <use x="831.787109" xlink:href="#DejaVuSans-69"/>
      <use x="859.570312" xlink:href="#DejaVuSans-6f"/>
      <use x="920.751953" xlink:href="#DejaVuSans-6e"/>
      <use x="984.130859" xlink:href="#DejaVuSans-73"/>
     </g>
    </g>
   </g>
   <g id="matplotlib.axis_2">
    <g id="ytick_1">
     <g id="line2d_7">
      <defs>
       <path d="M 0 0 
L -3.5 0 
" id="m93d522c615" style="stroke:#000000;stroke-width:0.8;"/>
      </defs>
      <g>
       <use style="stroke:#000000;stroke-width:0.8;" x="72" xlink:href="#m93d522c615" y="334.552855"/>
      </g>
     </g>
     <g id="text_8">
      <!-- $\mathdefault{10^{-10}}$ -->
      <g transform="translate(37.1 338.352074)scale(0.1 -0.1)">
       <defs>
        <path d="M 678 2272 
L 4684 2272 
L 4684 1741 
L 678 1741 
L 678 2272 
z
" id="DejaVuSans-2212" transform="scale(0.015625)"/>
       </defs>
       <use transform="translate(0 0.765625)" xlink:href="#DejaVuSans-31"/>
       <use transform="translate(63.623047 0.765625)" xlink:href="#DejaVuSans-30"/>
       <use transform="translate(128.203125 39.046875)scale(0.7)" xlink:href="#DejaVuSans-2212"/>
       <use transform="translate(186.855469 39.046875)scale(0.7)" xlink:href="#DejaVuSans-31"/>
       <use transform="translate(231.391602 39.046875)scale(0.7)" xlink:href="#DejaVuSans-30"/>
      </g>
     </g>
    </g>
    <g id="ytick_2">
     <g id="line2d_8">
      <g>
       <use style="stroke:#000000;stroke-width:0.8;" x="72" xlink:href="#m93d522c615" y="283.896853"/>
      </g>
     </g>
     <g id="text_9">
      <!-- $\mathdefault{10^{-7}}$ -->
      <g transform="translate(41.5 287.696072)scale(0.1 -0.1)">
       <defs>
        <path d="M 525 4666 
L 3525 4666 
L 3525 4397 
L 1831 0 
L 1172 0 
L 2766 4134 
L 525 4134 
L 525 4666 
z
" id="DejaVuSans-37" transform="scale(0.015625)"/>
       </defs>
       <use transform="translate(0 0.684375)" xlink:href="#DejaVuSans-31"/>
       <use transform="translate(63.623047 0.684375)" xlink:href="#DejaVuSans-30"/>
       <use transform="translate(128.203125 38.965625)scale(0.7)" xlink:href="#DejaVuSans-2212"/>
       <use transform="translate(186.855469 38.965625)scale(0.7)" xlink:href="#DejaVuSans-37"/>
      </g>
     </g>
    </g>
    <g id="ytick_3">
     <g id="line2d_9">
      <g>
       <use style="stroke:#000000;stroke-width:0.8;" x="72" xlink:href="#m93d522c615" y="233.240851"/>
      </g>
     </g>
     <g id="text_10">
      <!-- $\mathdefault{10^{-4}}$ -->
      <g transform="translate(41.5 237.04007)scale(0.1 -0.1)">
       <use transform="translate(0 0.684375)" xlink:href="#DejaVuSans-31"/>
       <use transform="translate(63.623047 0.684375)" xlink:href="#DejaVuSans-30"/>
       <use transform="translate(128.203125 38.965625)scale(0.7)" xlink:href="#DejaVuSans-2212"/>
       <use transform="translate(186.855469 38.965625)scale(0.7)" xlink:href="#DejaVuSans-34"/>
      </g>
     </g>
    </g>
    <g id="ytick_4">
     <g id="line2d_10">
      <g>
       <use style="stroke:#000000;stroke-width:0.8;" x="72" xlink:href="#m93d522c615" y="182.584849"/>
      </g>
     </g>
     <g id="text_11">
      <!-- $\mathdefault{10^{-1}}$ -->
      <g transform="translate(41.5 186.384068)scale(0.1 -0.1)">
       <use transform="translate(0 0.684375)" xlink:href="#DejaVuSans-31"/>
       <use transform="translate(63.623047 0.684375)" xlink:href="#DejaVuSans-30"/>
       <use transform="translate(128.203125 38.965625)scale(0.7)" xlink:href="#DejaVuSans-2212"/>
       <use transform="translate(186.855469 38.965625)scale(0.7)" xlink:href="#DejaVuSans-31"/>
      </g>
     </g>
    </g>
    <g id="ytick_5">
     <g id="line2d_11">
      <g>
       <use style="stroke:#000000;stroke-width:0.8;" x="72" xlink:href="#m93d522c615" y="131.928847"/>
      </g>
     </g>
     <g id="text_12">
      <!-- $\mathdefault{10^{2}}$ -->
      <g transform="translate(47.4 135.728066)scale(0.1 -0.1)">
       <use transform="translate(0 0.765625)" xlink:href="#DejaVuSans-31"/>
       <use transform="translate(63.623047 0.765625)" xlink:href="#DejaVuSans-30"/>
       <use transform="translate(128.203125 39.046875)scale(0.7)" xlink:href="#DejaVuSans-32"/>
      </g>
     </g>
    </g>
    <g id="ytick_6">
     <g id="line2d_12">
      <g>
       <use style="stroke:#000000;stroke-width:0.8;" x="72" xlink:href="#m93d522c615" y="81.272845"/>
      </g>
     </g>
     <g id="text_13">
      <!-- $\mathdefault{10^{5}}$ -->
      <g transform="translate(47.4 85.072064)scale(0.1 -0.1)">
       <defs>
        <path d="M 691 4666 
L 3169 4666 
L 3169 4134 
L 1269 4134 
L 1269 2991 
Q 1406 3038 1543 3061 
Q 1681 3084 1819 3084 
Q 2600 3084 3056 2656 
Q 3513 2228 3513 1497 
Q 3513 744 3044 326 
Q 2575 -91 1722 -91 
Q 1428 -91 1123 -41 
Q 819 9 494 109 
L 494 744 
Q 775 591 1075 516 
Q 1375 441 1709 441 
Q 2250 441 2565 725 
Q 2881 1009 2881 1497 
Q 2881 1984 2565 2268 
Q 2250 2553 1709 2553 
Q 1456 2553 1204 2497 
Q 953 2441 691 2322 
L 691 4666 
z
" id="DejaVuSans-35" transform="scale(0.015625)"/>
       </defs>
       <use transform="translate(0 0.684375)" xlink:href="#DejaVuSans-31"/>
       <use transform="translate(63.623047 0.684375)" xlink:href="#DejaVuSans-30"/>
       <use transform="translate(128.203125 38.965625)scale(0.7)" xlink:href="#DejaVuSans-35"/>
      </g>
     </g>
    </g>
    <g id="text_14">
     <!-- Norm of the residuals -->
     <g transform="translate(31.020312 272.004531)rotate(-90)scale(0.1 -0.1)">
      <defs>
       <path d="M 3513 2113 
L 3513 0 
L 2938 0 
L 2938 2094 
Q 2938 2591 2744 2837 
Q 2550 3084 2163 3084 
Q 1697 3084 1428 2787 
Q 1159 2491 1159 1978 
L 1159 0 
L 581 0 
L 581 4863 
L 1159 4863 
L 1159 2956 
Q 1366 3272 1645 3428 
Q 1925 3584 2291 3584 
Q 2894 3584 3203 3211 
Q 3513 2838 3513 2113 
z
" id="DejaVuSans-68" transform="scale(0.015625)"/>
       <path d="M 2906 2969 
L 2906 4863 
L 3481 4863 
L 3481 0 
L 2906 0 
L 2906 525 
Q 2725 213 2448 61 
Q 2172 -91 1784 -91 
Q 1150 -91 751 415 
Q 353 922 353 1747 
Q 353 2572 751 3078 
Q 1150 3584 1784 3584 
Q 2172 3584 2448 3432 
Q 2725 3281 2906 2969 
z
M 947 1747 
Q 947 1113 1208 752 
Q 1469 391 1925 391 
Q 2381 391 2643 752 
Q 2906 1113 2906 1747 
Q 2906 2381 2643 2742 
Q 2381 3103 1925 3103 
Q 1469 3103 1208 2742 
Q 947 2381 947 1747 
z
" id="DejaVuSans-64" transform="scale(0.015625)"/>
       <path d="M 603 4863 
L 1178 4863 
L 1178 0 
L 603 0 
L 603 4863 
z
" id="DejaVuSans-6c" transform="scale(0.015625)"/>
      </defs>
      <use xlink:href="#DejaVuSans-4e"/>
      <use x="74.804688" xlink:href="#DejaVuSans-6f"/>
      <use x="135.986328" xlink:href="#DejaVuSans-72"/>
      <use x="175.349609" xlink:href="#DejaVuSans-6d"/>
      <use x="272.761719" xlink:href="#DejaVuSans-20"/>
      <use x="304.548828" xlink:href="#DejaVuSans-6f"/>
      <use x="365.730469" xlink:href="#DejaVuSans-66"/>
      <use x="400.935547" xlink:href="#DejaVuSans-20"/>
      <use x="432.722656" xlink:href="#DejaVuSans-74"/>
      <use x="471.931641" xlink:href="#DejaVuSans-68"/>
      <use x="535.310547" xlink:href="#DejaVuSans-65"/>
      <use x="596.833984" xlink:href="#DejaVuSans-20"/>
      <use x="628.621094" xlink:href="#DejaVuSans-72"/>
      <use x="667.484375" xlink:href="#DejaVuSans-65"/>
      <use x="729.007812" xlink:href="#DejaVuSans-73"/>
      <use x="781.107422" xlink:href="#DejaVuSans-69"/>
      <use x="808.890625" xlink:href="#DejaVuSans-64"/>
      <use x="872.367188" xlink:href="#DejaVuSans-75"/>
      <use x="935.746094" xlink:href="#DejaVuSans-61"/>
      <use x="997.025391" xlink:href="#DejaVuSans-6c"/>
      <use x="1024.808594" xlink:href="#DejaVuSans-73"/>
     </g>
    </g>
   </g>
   <g id="line2d_13">
    <path clip-path="url(#pee4d801328)" d="M 92.290909 113.273703 
L 96.349091 113.289195 
L 100.407273 113.514837 
L 104.465455 113.655257 
L 108.523636 113.677783 
L 112.581818 114.257033 
L 116.64 114.623747 
L 120.698182 114.676729 
L 124.756364 114.744683 
L 128.814545 115.162484 
L 132.872727 115.176776 
L 136.930909 115.242835 
L 140.989091 115.260302 
L 145.047273 115.555251 
L 149.105455 115.769394 
L 153.163636 116.273113 
L 157.221818 116.358838 
L 161.28 116.441128 
L 165.338182 116.450368 
L 169.396364 116.466008 
L 173.454545 116.510865 
L 177.512727 116.512385 
L 181.570909 116.529266 
L 185.629091 116.878104 
L 189.687273 116.987667 
L 193.745455 117.013171 
L 197.803636 117.144967 
L 201.861818 117.145508 
L 205.92 117.168874 
L 209.978182 117.194413 
L 214.036364 117.198093 
L 218.094545 117.26363 
L 222.152727 117.371437 
L 226.210909 117.52117 
L 230.269091 117.62248 
L 234.327273 117.624048 
L 238.385455 117.626828 
L 242.443636 117.632467 
L 246.501818 117.725535 
L 250.56 118.100585 
L 254.618182 118.280688 
L 258.676364 118.332247 
L 262.734545 118.452386 
L 266.792727 118.770229 
L 270.850909 118.77813 
L 274.909091 118.8372 
L 278.967273 118.93551 
L 283.025455 118.996579 
L 287.083636 119.048507 
L 291.141818 119.432078 
L 295.2 119.666787 
L 299.258182 119.667354 
L 303.316364 119.847644 
L 307.374545 120.324318 
L 311.432727 120.34842 
L 315.490909 120.825967 
L 319.549091 121.242079 
L 323.607273 121.242746 
L 327.665455 121.244941 
L 331.723636 121.67057 
L 335.781818 122.035898 
L 339.84 122.05544 
L 343.898182 122.287492 
L 347.956364 122.840384 
L 352.014545 122.863197 
L 356.072727 122.865963 
L 360.130909 122.940241 
L 364.189091 122.994414 
L 368.247273 122.994486 
L 372.305455 123.006034 
L 376.363636 123.368518 
L 380.421818 123.880406 
L 384.48 125.906319 
L 388.538182 126.103974 
L 392.596364 126.45209 
L 396.654545 126.485071 
L 400.712727 126.510914 
L 404.770909 126.511918 
L 408.829091 126.515496 
L 412.887273 127.118646 
L 416.945455 128.967206 
L 421.003636 128.969771 
L 425.061818 129.881419 
L 429.12 129.921847 
L 433.178182 129.921861 
L 437.236364 130.458002 
L 441.294545 130.458729 
L 445.352727 136.441045 
L 449.410909 138.001447 
L 453.469091 138.284549 
L 457.527273 138.307955 
L 461.585455 138.737752 
L 465.643636 139.156317 
L 469.701818 141.075936 
L 473.76 142.438663 
L 477.818182 143.090694 
L 481.876364 143.356933 
L 485.934545 146.61536 
L 489.992727 151.122443 
L 494.050909 158.795464 
L 498.109091 355.148283 
" style="fill:none;stroke:#1f77b4;stroke-linecap:square;stroke-width:1.5;"/>
   </g>
   <g id="line2d_14">
    <path clip-path="url(#pee4d801328)" d="M 92.290909 113.273703 
L 96.349091 118.612648 
L 100.407273 121.182315 
L 104.465455 123.170471 
L 108.523636 125.156119 
L 112.581818 127.400101 
L 116.64 129.221064 
L 120.698182 130.309359 
L 124.756364 131.039635 
L 128.814545 131.505812 
L 132.872727 132.468333 
L 136.930909 133.259777 
L 140.989091 133.899452 
L 145.047273 134.653113 
L 149.105455 135.075421 
L 153.163636 135.561872 
L 157.221818 136.204479 
L 161.28 137.065923 
L 165.338182 137.98389 
L 169.396364 138.461273 
L 173.454545 139.101939 
L 177.512727 139.728497 
L 181.570909 140.15235 
L 185.629091 140.52589 
L 189.687273 140.950907 
L 193.745455 141.392903 
L 197.803636 141.937893 
L 201.861818 142.437931 
L 205.92 142.887822 
L 209.978182 143.307252 
L 214.036364 143.976006 
L 218.094545 144.83113 
L 222.152727 145.810199 
L 226.210909 146.308463 
L 230.269091 146.873415 
L 234.327273 147.376021 
L 238.385455 147.737954 
L 242.443636 148.185987 
L 246.501818 148.565541 
L 250.56 149.122488 
L 254.618182 149.508642 
L 258.676364 149.918283 
L 262.734545 150.226799 
L 266.792727 150.508125 
L 270.850909 150.779537 
L 274.909091 150.993879 
L 278.967273 151.264047 
L 283.025455 151.546286 
L 287.083636 151.7915 
L 291.141818 152.00691 
L 295.2 152.258285 
L 299.258182 152.476382 
L 303.316364 152.823709 
L 307.374545 153.042256 
L 311.432727 153.304675 
L 315.490909 153.553021 
L 319.549091 153.768353 
L 323.607273 153.886138 
L 327.665455 154.163221 
L 331.723636 154.356976 
L 335.781818 154.558241 
L 339.84 154.831708 
L 343.898182 155.226606 
L 347.956364 155.468773 
L 352.014545 155.753447 
L 356.072727 156.296371 
L 360.130909 157.216279 
L 364.189091 158.092099 
L 368.247273 159.103889 
L 372.305455 159.841471 
L 376.363636 161.24865 
L 380.421818 162.003988 
L 384.48 162.302446 
L 388.538182 163.097972 
L 392.596364 163.385942 
L 396.654545 163.836098 
L 400.712727 164.116905 
L 404.770909 164.378391 
L 408.829091 164.532567 
L 412.887273 164.783592 
L 416.945455 165.224813 
L 421.003636 165.601392 
L 425.061818 166.074661 
L 429.12 166.55086 
L 433.178182 166.78527 
L 437.236364 167.117451 
L 441.294545 167.977798 
L 445.352727 168.641577 
L 449.410909 169.79725 
L 453.469091 170.278848 
L 457.527273 170.854401 
L 461.585455 171.532454 
L 465.643636 171.876791 
L 469.701818 172.12953 
L 473.76 172.589532 
L 477.818182 173.143197 
L 481.876364 173.254753 
L 485.934545 173.477249 
L 489.992727 174.022865 
L 494.050909 174.29329 
L 498.109091 363.838339 
" style="fill:none;stroke:#ff7f0e;stroke-linecap:square;stroke-width:1.5;"/>
   </g>
   <g id="line2d_15">
    <path clip-path="url(#pee4d801328)" d="M 92.290909 113.273703 
L 96.349091 113.378369 
L 100.407273 113.380823 
L 104.465455 113.432773 
L 108.523636 113.485457 
L 112.581818 113.664001 
L 116.64 113.671133 
L 120.698182 113.84665 
L 124.756364 114.036238 
L 128.814545 114.269554 
L 132.872727 114.270106 
L 136.930909 114.272963 
L 140.989091 114.27388 
L 145.047273 114.501151 
L 149.105455 114.501271 
L 153.163636 114.50894 
L 157.221818 115.038009 
L 161.28 115.279612 
L 165.338182 115.327046 
L 169.396364 115.400232 
L 173.454545 115.402742 
L 177.512727 115.455644 
L 181.570909 115.609869 
L 185.629091 115.826302 
L 189.687273 116.07664 
L 193.745455 116.087728 
L 197.803636 116.511151 
L 201.861818 116.666028 
L 205.92 116.674713 
L 209.978182 116.706108 
L 214.036364 116.717511 
L 218.094545 116.743705 
L 222.152727 116.767921 
L 226.210909 116.829622 
L 230.269091 117.042971 
L 234.327273 117.192425 
L 238.385455 117.239764 
L 242.443636 117.241173 
L 246.501818 117.511921 
L 250.56 117.92315 
L 254.618182 117.926395 
L 258.676364 117.992341 
L 262.734545 118.046489 
L 266.792727 118.057625 
L 270.850909 118.05763 
L 274.909091 118.346751 
L 278.967273 118.601405 
L 283.025455 118.605463 
L 287.083636 119.134391 
L 291.141818 119.270057 
L 295.2 120.194088 
L 299.258182 120.195547 
L 303.316364 120.199015 
L 307.374545 120.403353 
L 311.432727 120.491718 
L 315.490909 120.495088 
L 319.549091 120.606565 
L 323.607273 120.625903 
L 327.665455 120.679694 
L 331.723636 120.691311 
L 335.781818 121.661995 
L 339.84 121.73054 
L 343.898182 121.770564 
L 347.956364 121.845755 
L 352.014545 121.977284 
L 356.072727 122.011751 
L 360.130909 122.426106 
L 364.189091 122.501258 
L 368.247273 122.777409 
L 372.305455 123.006042 
L 376.363636 123.431735 
L 380.421818 123.431951 
L 384.48 124.782124 
L 388.538182 125.027844 
L 392.596364 125.157221 
L 396.654545 126.308489 
L 400.712727 126.314281 
L 404.770909 126.371566 
L 408.829091 126.432599 
L 412.887273 127.206608 
L 416.945455 128.002985 
L 421.003636 129.656946 
L 425.061818 129.918045 
L 429.12 130.061786 
L 433.178182 130.101699 
L 437.236364 130.517961 
L 441.294545 131.14454 
L 445.352727 131.145765 
L 449.410909 131.25056 
L 453.469091 133.654534 
L 457.527273 138.727414 
L 461.585455 139.283322 
L 465.643636 139.924384 
L 469.701818 139.964751 
L 473.76 141.087061 
L 477.818182 141.137088 
L 481.876364 144.009187 
L 485.934545 150.916059 
L 489.992727 151.08528 
L 494.050909 151.616823 
L 498.109091 346.197531 
" style="fill:none;stroke:#2ca02c;stroke-linecap:square;stroke-width:1.5;"/>
   </g>
   <g id="line2d_16">
    <path clip-path="url(#pee4d801328)" d="M 92.290909 113.273703 
L 96.349091 110.805664 
L 100.407273 95.926976 
L 104.465455 103.686422 
L 108.523636 105.99041 
L 112.581818 103.60467 
L 116.64 105.876524 
L 120.698182 108.797502 
L 124.756364 110.209871 
L 128.814545 109.193436 
L 132.872727 104.318379 
L 136.930909 110.062457 
L 140.989091 108.876737 
L 145.047273 97.47444 
L 149.105455 105.669427 
L 153.163636 99.557783 
L 157.221818 91.857643 
L 161.28 79.951493 
L 165.338182 106.946572 
L 169.396364 103.988327 
L 173.454545 95.653294 
L 177.512727 97.653469 
L 181.570909 96.397327 
L 185.629091 92.762062 
L 189.687273 94.268287 
L 193.745455 94.306978 
L 197.803636 103.110745 
L 201.861818 106.48213 
L 205.92 106.364959 
L 209.978182 100.805417 
L 214.036364 96.489281 
L 218.094545 96.984418 
L 222.152727 98.218554 
L 226.210909 99.63124 
L 230.269091 102.411032 
L 234.327273 92.812534 
L 238.385455 102.65791 
L 242.443636 100.189772 
L 246.501818 96.079666 
L 250.56 102.08986 
L 254.618182 102.175965 
L 258.676364 98.190322 
L 262.734545 92.237513 
L 266.792727 102.00947 
L 270.850909 99.24269 
L 274.909091 104.303622 
L 278.967273 101.01263 
L 283.025455 102.224035 
L 287.083636 106.154476 
L 291.141818 101.889232 
L 295.2 106.574424 
L 299.258182 102.505312 
L 303.316364 102.523175 
L 307.374545 103.420421 
L 311.432727 106.975765 
L 315.490909 106.949114 
L 319.549091 104.960972 
L 323.607273 106.893629 
L 327.665455 106.627087 
L 331.723636 106.536507 
L 335.781818 106.588486 
L 339.84 104.648892 
L 343.898182 66.96 
L 347.956364 88.593098 
L 352.014545 99.442261 
L 356.072727 92.940428 
L 360.130909 105.187517 
L 364.189091 112.683523 
L 368.247273 112.37891 
L 372.305455 112.445255 
L 376.363636 115.047479 
L 380.421818 116.493443 
L 384.48 115.304565 
L 388.538182 115.219567 
L 392.596364 86.410592 
L 396.654545 99.621737 
L 400.712727 102.485202 
L 404.770909 108.094351 
L 408.829091 99.402521 
L 412.887273 105.162675 
L 416.945455 107.760032 
L 421.003636 115.257161 
L 425.061818 117.346536 
L 429.12 118.654986 
L 433.178182 112.595359 
L 437.236364 120.794012 
L 441.294545 121.286638 
L 445.352727 101.233936 
L 449.410909 98.375786 
L 453.469091 106.882393 
L 457.527273 118.459502 
L 461.585455 115.11766 
L 465.643636 114.190477 
L 469.701818 109.492686 
L 473.76 125.780477 
L 477.818182 129.720876 
L 481.876364 121.915736 
L 485.934545 132.640277 
L 489.992727 138.659503 
L 494.050909 148.292502 
L 498.109091 364.297721 
" style="fill:none;stroke:#d62728;stroke-linecap:square;stroke-width:1.5;"/>
   </g>
   <g id="line2d_17">
    <path clip-path="url(#pee4d801328)" d="M 92.290909 113.273703 
L 96.349091 93.114568 
L 100.407273 117.236191 
L 104.465455 121.527125 
L 108.523636 115.71076 
L 112.581818 118.920291 
L 116.64 122.412233 
L 120.698182 125.478603 
L 124.756364 118.763953 
L 128.814545 124.912625 
L 132.872727 116.530123 
L 136.930909 120.981036 
L 140.989091 128.7464 
L 145.047273 126.483012 
L 149.105455 131.898772 
L 153.163636 125.446482 
L 157.221818 120.348844 
L 161.28 128.210324 
L 165.338182 124.057566 
L 169.396364 123.682096 
L 173.454545 124.406097 
L 177.512727 123.053341 
L 181.570909 116.659441 
L 185.629091 106.683876 
L 189.687273 119.644049 
L 193.745455 124.616076 
L 197.803636 124.646746 
L 201.861818 125.685601 
L 205.92 131.199974 
L 209.978182 134.541078 
L 214.036364 132.791333 
L 218.094545 130.081806 
L 222.152727 135.225438 
L 226.210909 127.047202 
L 230.269091 130.164712 
L 234.327273 123.440184 
L 238.385455 127.404426 
L 242.443636 131.88541 
L 246.501818 127.962333 
L 250.56 130.91491 
L 254.618182 136.35078 
L 258.676364 120.665212 
L 262.734545 131.148639 
L 266.792727 139.491346 
L 270.850909 139.20077 
L 274.909091 139.247117 
L 278.967273 139.366733 
L 283.025455 141.865187 
L 287.083636 142.384568 
L 291.141818 131.978295 
L 295.2 138.712922 
L 299.258182 138.578709 
L 303.316364 138.558593 
L 307.374545 137.763199 
L 311.432727 142.77339 
L 315.490909 139.48962 
L 319.549091 140.164111 
L 323.607273 133.026086 
L 327.665455 118.813202 
L 331.723636 137.729047 
L 335.781818 134.427508 
L 339.84 138.702191 
L 343.898182 134.957784 
L 347.956364 135.959402 
L 352.014545 135.62635 
L 356.072727 134.808767 
L 360.130909 101.17623 
L 364.189091 139.401322 
L 368.247273 125.908392 
L 372.305455 146.131874 
L 376.363636 137.471404 
L 380.421818 137.51755 
L 384.48 143.673825 
L 388.538182 150.51627 
L 392.596364 128.372997 
L 396.654545 145.670064 
L 400.712727 147.581258 
L 404.770909 145.21475 
L 408.829091 148.099299 
L 412.887273 151.593015 
L 416.945455 140.607665 
L 421.003636 141.612344 
L 425.061818 145.10979 
L 429.12 142.094934 
L 433.178182 148.720924 
L 437.236364 146.851856 
L 441.294545 149.222687 
L 445.352727 153.768999 
L 449.410909 148.870168 
L 453.469091 151.885576 
L 457.527273 128.758493 
L 461.585455 146.152841 
L 465.643636 144.984843 
L 469.701818 146.937565 
L 473.76 150.310878 
L 477.818182 149.438302 
L 481.876364 144.619995 
L 485.934545 144.5322 
L 489.992727 154.985853 
L 494.050909 154.900254 
L 498.109091 369.36 
" style="fill:none;stroke:#9467bd;stroke-linecap:square;stroke-width:1.5;"/>
   </g>
   <g id="line2d_18">
    <path clip-path="url(#pee4d801328)" d="M 92.290909 113.273703 
L 96.349091 100.286801 
L 100.407273 86.57927 
L 104.465455 97.799085 
L 108.523636 97.902764 
L 112.581818 102.493948 
L 116.64 90.778683 
L 120.698182 102.615399 
L 124.756364 103.080745 
L 128.814545 104.053398 
L 132.872727 81.996282 
L 136.930909 88.028461 
L 140.989091 83.865166 
L 145.047273 104.191721 
L 149.105455 76.662284 
L 153.163636 91.88255 
L 157.221818 107.678471 
L 161.28 105.187317 
L 165.338182 99.362124 
L 169.396364 101.012517 
L 173.454545 88.685088 
L 177.512727 99.888016 
L 181.570909 103.914985 
L 185.629091 105.343091 
L 189.687273 106.110256 
L 193.745455 94.811613 
L 197.803636 108.386565 
L 201.861818 104.986287 
L 205.92 94.504387 
L 209.978182 99.235957 
L 214.036364 95.544166 
L 218.094545 98.612034 
L 222.152727 98.349458 
L 226.210909 101.821786 
L 230.269091 106.508655 
L 234.327273 105.384709 
L 238.385455 101.267523 
L 242.443636 88.404168 
L 246.501818 107.822829 
L 250.56 109.6974 
L 254.618182 92.149397 
L 258.676364 103.226291 
L 262.734545 102.563622 
L 266.792727 96.797432 
L 270.850909 68.828786 
L 274.909091 108.889321 
L 278.967273 108.695561 
L 283.025455 93.647055 
L 287.083636 111.773946 
L 291.141818 107.114275 
L 295.2 114.688181 
L 299.258182 91.48818 
L 303.316364 94.664809 
L 307.374545 109.715271 
L 311.432727 106.787525 
L 315.490909 94.856428 
L 319.549091 107.742753 
L 323.607273 101.385193 
L 327.665455 105.172746 
L 331.723636 99.585785 
L 335.781818 116.314364 
L 339.84 107.104931 
L 343.898182 105.186547 
L 347.956364 107.556174 
L 352.014545 109.710011 
L 356.072727 104.882468 
L 360.130909 114.226587 
L 364.189091 108.209815 
L 368.247273 113.158091 
L 372.305455 112.717848 
L 376.363636 115.325644 
L 380.421818 87.721385 
L 384.48 120.464671 
L 388.538182 114.995468 
L 392.596364 112.830531 
L 396.654545 121.500505 
L 400.712727 102.659914 
L 404.770909 111.093612 
L 408.829091 111.385172 
L 412.887273 121.123233 
L 416.945455 122.013285 
L 421.003636 125.942042 
L 425.061818 120.100665 
L 429.12 118.113992 
L 433.178182 113.507523 
L 437.236364 122.334343 
L 441.294545 124.357756 
L 445.352727 101.797704 
L 449.410909 118.16344 
L 453.469091 130.970156 
L 457.527273 137.66922 
L 461.585455 132.092135 
L 465.643636 133.214346 
L 469.701818 123.411923 
L 473.76 136.199401 
L 477.818182 125.36599 
L 481.876364 141.770936 
L 485.934545 150.31143 
L 489.992727 139.723201 
L 494.050909 144.273178 
L 498.109091 367.523331 
" style="fill:none;stroke:#8c564b;stroke-linecap:square;stroke-width:1.5;"/>
   </g>
   <g id="patch_3">
    <path d="M 72 384.48 
L 72 51.84 
" style="fill:none;stroke:#000000;stroke-linecap:square;stroke-linejoin:miter;stroke-width:0.8;"/>
   </g>
   <g id="patch_4">
    <path d="M 518.4 384.48 
L 518.4 51.84 
" style="fill:none;stroke:#000000;stroke-linecap:square;stroke-linejoin:miter;stroke-width:0.8;"/>
   </g>
   <g id="patch_5">
    <path d="M 72 384.48 
L 518.4 384.48 
" style="fill:none;stroke:#000000;stroke-linecap:square;stroke-linejoin:miter;stroke-width:0.8;"/>
   </g>
   <g id="patch_6">
    <path d="M 72 51.84 
L 518.4 51.84 
" style="fill:none;stroke:#000000;stroke-linecap:square;stroke-linejoin:miter;stroke-width:0.8;"/>
   </g>
   <g id="legend_1">
    <g id="patch_7">
     <path d="M 79 379.48 
L 180.740625 379.48 
Q 182.740625 379.48 182.740625 377.48 
L 182.740625 288.7425 
Q 182.740625 286.7425 180.740625 286.7425 
L 79 286.7425 
Q 77 286.7425 77 288.7425 
L 77 377.48 
Q 77 379.48 79 379.48 
z
" style="fill:#ffffff;opacity:0.8;stroke:#cccccc;stroke-linejoin:miter;"/>
    </g>
    <g id="line2d_19">
     <path d="M 81 294.840937 
L 101 294.840937 
" style="fill:none;stroke:#1f77b4;stroke-linecap:square;stroke-width:1.5;"/>
    </g>
    <g id="line2d_20"/>
    <g id="text_15">
     <!-- rand_minres -->
     <g transform="translate(109 298.340937)scale(0.1 -0.1)">
      <defs>
       <path d="M 3263 -1063 
L 3263 -1509 
L -63 -1509 
L -63 -1063 
L 3263 -1063 
z
" id="DejaVuSans-5f" transform="scale(0.015625)"/>
      </defs>
      <use xlink:href="#DejaVuSans-72"/>
      <use x="41.113281" xlink:href="#DejaVuSans-61"/>
      <use x="102.392578" xlink:href="#DejaVuSans-6e"/>
      <use x="165.771484" xlink:href="#DejaVuSans-64"/>
      <use x="229.248047" xlink:href="#DejaVuSans-5f"/>
      <use x="279.248047" xlink:href="#DejaVuSans-6d"/>
      <use x="376.660156" xlink:href="#DejaVuSans-69"/>
      <use x="404.443359" xlink:href="#DejaVuSans-6e"/>
      <use x="467.822266" xlink:href="#DejaVuSans-72"/>
      <use x="506.685547" xlink:href="#DejaVuSans-65"/>
      <use x="568.208984" xlink:href="#DejaVuSans-73"/>
     </g>
    </g>
    <g id="line2d_21">
     <path d="M 81 309.797188 
L 101 309.797188 
" style="fill:none;stroke:#ff7f0e;stroke-linecap:square;stroke-width:1.5;"/>
    </g>
    <g id="line2d_22"/>
    <g id="text_16">
     <!-- grad_minres -->
     <g transform="translate(109 313.297188)scale(0.1 -0.1)">
      <defs>
       <path d="M 2906 1791 
Q 2906 2416 2648 2759 
Q 2391 3103 1925 3103 
Q 1463 3103 1205 2759 
Q 947 2416 947 1791 
Q 947 1169 1205 825 
Q 1463 481 1925 481 
Q 2391 481 2648 825 
Q 2906 1169 2906 1791 
z
M 3481 434 
Q 3481 -459 3084 -895 
Q 2688 -1331 1869 -1331 
Q 1566 -1331 1297 -1286 
Q 1028 -1241 775 -1147 
L 775 -588 
Q 1028 -725 1275 -790 
Q 1522 -856 1778 -856 
Q 2344 -856 2625 -561 
Q 2906 -266 2906 331 
L 2906 616 
Q 2728 306 2450 153 
Q 2172 0 1784 0 
Q 1141 0 747 490 
Q 353 981 353 1791 
Q 353 2603 747 3093 
Q 1141 3584 1784 3584 
Q 2172 3584 2450 3431 
Q 2728 3278 2906 2969 
L 2906 3500 
L 3481 3500 
L 3481 434 
z
" id="DejaVuSans-67" transform="scale(0.015625)"/>
      </defs>
      <use xlink:href="#DejaVuSans-67"/>
      <use x="63.476562" xlink:href="#DejaVuSans-72"/>
      <use x="104.589844" xlink:href="#DejaVuSans-61"/>
      <use x="165.869141" xlink:href="#DejaVuSans-64"/>
      <use x="229.345703" xlink:href="#DejaVuSans-5f"/>
      <use x="279.345703" xlink:href="#DejaVuSans-6d"/>
      <use x="376.757812" xlink:href="#DejaVuSans-69"/>
      <use x="404.541016" xlink:href="#DejaVuSans-6e"/>
      <use x="467.919922" xlink:href="#DejaVuSans-72"/>
      <use x="506.783203" xlink:href="#DejaVuSans-65"/>
      <use x="568.306641" xlink:href="#DejaVuSans-73"/>
     </g>
    </g>
    <g id="line2d_23">
     <path d="M 81 324.753438 
L 101 324.753438 
" style="fill:none;stroke:#2ca02c;stroke-linecap:square;stroke-width:1.5;"/>
    </g>
    <g id="line2d_24"/>
    <g id="text_17">
     <!-- krylov_minres -->
     <g transform="translate(109 328.253438)scale(0.1 -0.1)">
      <defs>
       <path d="M 581 4863 
L 1159 4863 
L 1159 1991 
L 2875 3500 
L 3609 3500 
L 1753 1863 
L 3688 0 
L 2938 0 
L 1159 1709 
L 1159 0 
L 581 0 
L 581 4863 
z
" id="DejaVuSans-6b" transform="scale(0.015625)"/>
       <path d="M 2059 -325 
Q 1816 -950 1584 -1140 
Q 1353 -1331 966 -1331 
L 506 -1331 
L 506 -850 
L 844 -850 
Q 1081 -850 1212 -737 
Q 1344 -625 1503 -206 
L 1606 56 
L 191 3500 
L 800 3500 
L 1894 763 
L 2988 3500 
L 3597 3500 
L 2059 -325 
z
" id="DejaVuSans-79" transform="scale(0.015625)"/>
       <path d="M 191 3500 
L 800 3500 
L 1894 563 
L 2988 3500 
L 3597 3500 
L 2284 0 
L 1503 0 
L 191 3500 
z
" id="DejaVuSans-76" transform="scale(0.015625)"/>
      </defs>
      <use xlink:href="#DejaVuSans-6b"/>
      <use x="57.910156" xlink:href="#DejaVuSans-72"/>
      <use x="99.023438" xlink:href="#DejaVuSans-79"/>
      <use x="158.203125" xlink:href="#DejaVuSans-6c"/>
      <use x="185.986328" xlink:href="#DejaVuSans-6f"/>
      <use x="247.167969" xlink:href="#DejaVuSans-76"/>
      <use x="306.347656" xlink:href="#DejaVuSans-5f"/>
      <use x="356.347656" xlink:href="#DejaVuSans-6d"/>
      <use x="453.759766" xlink:href="#DejaVuSans-69"/>
      <use x="481.542969" xlink:href="#DejaVuSans-6e"/>
      <use x="544.921875" xlink:href="#DejaVuSans-72"/>
      <use x="583.785156" xlink:href="#DejaVuSans-65"/>
      <use x="645.308594" xlink:href="#DejaVuSans-73"/>
     </g>
    </g>
    <g id="line2d_25">
     <path d="M 81 339.709687 
L 101 339.709687 
" style="fill:none;stroke:#d62728;stroke-linecap:square;stroke-width:1.5;"/>
    </g>
    <g id="line2d_26"/>
    <g id="text_18">
     <!-- rand_fom -->
     <g transform="translate(109 343.209687)scale(0.1 -0.1)">
      <use xlink:href="#DejaVuSans-72"/>
      <use x="41.113281" xlink:href="#DejaVuSans-61"/>
      <use x="102.392578" xlink:href="#DejaVuSans-6e"/>
      <use x="165.771484" xlink:href="#DejaVuSans-64"/>
      <use x="229.248047" xlink:href="#DejaVuSans-5f"/>
      <use x="279.248047" xlink:href="#DejaVuSans-66"/>
      <use x="314.453125" xlink:href="#DejaVuSans-6f"/>
      <use x="375.634766" xlink:href="#DejaVuSans-6d"/>
     </g>
    </g>
    <g id="line2d_27">
     <path d="M 81 354.665937 
L 101 354.665937 
" style="fill:none;stroke:#9467bd;stroke-linecap:square;stroke-width:1.5;"/>
    </g>
    <g id="line2d_28"/>
    <g id="text_19">
     <!-- grad_fom -->
     <g transform="translate(109 358.165937)scale(0.1 -0.1)">
      <use xlink:href="#DejaVuSans-67"/>
      <use x="63.476562" xlink:href="#DejaVuSans-72"/>
      <use x="104.589844" xlink:href="#DejaVuSans-61"/>
      <use x="165.869141" xlink:href="#DejaVuSans-64"/>
      <use x="229.345703" xlink:href="#DejaVuSans-5f"/>
      <use x="279.345703" xlink:href="#DejaVuSans-66"/>
      <use x="314.550781" xlink:href="#DejaVuSans-6f"/>
      <use x="375.732422" xlink:href="#DejaVuSans-6d"/>
     </g>
    </g>
    <g id="line2d_29">
     <path d="M 81 369.622187 
L 101 369.622187 
" style="fill:none;stroke:#8c564b;stroke-linecap:square;stroke-width:1.5;"/>
    </g>
    <g id="line2d_30"/>
    <g id="text_20">
     <!-- krylov_fom -->
     <g transform="translate(109 373.122187)scale(0.1 -0.1)">
      <use xlink:href="#DejaVuSans-6b"/>
      <use x="57.910156" xlink:href="#DejaVuSans-72"/>
      <use x="99.023438" xlink:href="#DejaVuSans-79"/>
      <use x="158.203125" xlink:href="#DejaVuSans-6c"/>
      <use x="185.986328" xlink:href="#DejaVuSans-6f"/>
      <use x="247.167969" xlink:href="#DejaVuSans-76"/>
      <use x="306.347656" xlink:href="#DejaVuSans-5f"/>
      <use x="356.347656" xlink:href="#DejaVuSans-66"/>
      <use x="391.552734" xlink:href="#DejaVuSans-6f"/>
      <use x="452.734375" xlink:href="#DejaVuSans-6d"/>
     </g>
    </g>
   </g>
  </g>
 </g>
 <defs>
  <clipPath id="pee4d801328">
   <rect height="332.64" width="446.4" x="72" y="51.84"/>
  </clipPath>
 </defs>
</svg>
