<?xml version="1.0" encoding="utf-8" standalone="no"?>
<!DOCTYPE svg PUBLIC "-//W3C//DTD SVG 1.1//EN"
  "http://www.w3.org/Graphics/SVG/1.1/DTD/svg11.dtd">
<svg height="432pt" version="1.1" viewBox="0 0 576 432" width="576pt" xmlns="http://www.w3.org/2000/svg" xmlns:xlink="http://www.w3.org/1999/xlink">
 <metadata>
  <rdf:RDF xmlns:cc="http://creativecommons.org/ns#" xmlns:dc="http://purl.org/dc/elements/1.1/" xmlns:rdf="http://www.w3.org/1999/02/22-rdf-syntax-ns#">
   <cc:Work>
    <dc:type rdf:resource="http://purl.org/dc/dcmitype/StillImage"/>
    <dc:date>2021-08-12T21:38:30.693701</dc:date>
    <dc:format>image/svg+xml</dc:format>
    <dc:creator>
     <cc:Agent>
      <dc:title>Matplotlib v3.4.2, https://matplotlib.org/</dc:title>
     </cc:Agent>
    </dc:creator>
   </cc:Work>
  </rdf:RDF>
 </metadata>
 <defs>
  <style type="text/css">*{stroke-linecap:butt;stroke-linejoin:round;}</style>
 </defs>
 <g id="figure_1">
  <g id="patch_1">
   <path d="M 0 432 
L 576 432 
L 576 0 
L 0 0 
z
" style="fill:#ffffff;"/>
  </g>
  <g id="axes_1">
   <g id="patch_2">
    <path d="M 72 384.48 
L 518.4 384.48 
L 518.4 51.84 
L 72 51.84 
z
" style="fill:#ffffff;"/>
   </g>
   <g id="matplotlib.axis_1">
    <g id="xtick_1">
     <g id="line2d_1">
      <defs>
       <path d="M 0 0 
L 0 3.5 
" id="mfd9e4ea6f2" style="stroke:#000000;stroke-width:0.8;"/>
      </defs>
      <g>
       <use style="stroke:#000000;stroke-width:0.8;" x="92.290909" xlink:href="#mfd9e4ea6f2" y="384.48"/>
      </g>
     </g>
     <g id="text_1">
      <!-- 0 -->
      <g transform="translate(89.109659 399.078438)scale(0.1 -0.1)">
       <defs>
        <path d="M 2034 4250 
Q 1547 4250 1301 3770 
Q 1056 3291 1056 2328 
Q 1056 1369 1301 889 
Q 1547 409 2034 409 
Q 2525 409 2770 889 
Q 3016 1369 3016 2328 
Q 3016 3291 2770 3770 
Q 2525 4250 2034 4250 
z
M 2034 4750 
Q 2819 4750 3233 4129 
Q 3647 3509 3647 2328 
Q 3647 1150 3233 529 
Q 2819 -91 2034 -91 
Q 1250 -91 836 529 
Q 422 1150 422 2328 
Q 422 3509 836 4129 
Q 1250 4750 2034 4750 
z
" id="DejaVuSans-30" transform="scale(0.015625)"/>
       </defs>
       <use xlink:href="#DejaVuSans-30"/>
      </g>
     </g>
    </g>
    <g id="xtick_2">
     <g id="line2d_2">
      <g>
       <use style="stroke:#000000;stroke-width:0.8;" x="173.454545" xlink:href="#mfd9e4ea6f2" y="384.48"/>
      </g>
     </g>
     <g id="text_2">
      <!-- 20 -->
      <g transform="translate(167.092045 399.078438)scale(0.1 -0.1)">
       <defs>
        <path d="M 1228 531 
L 3431 531 
L 3431 0 
L 469 0 
L 469 531 
Q 828 903 1448 1529 
Q 2069 2156 2228 2338 
Q 2531 2678 2651 2914 
Q 2772 3150 2772 3378 
Q 2772 3750 2511 3984 
Q 2250 4219 1831 4219 
Q 1534 4219 1204 4116 
Q 875 4013 500 3803 
L 500 4441 
Q 881 4594 1212 4672 
Q 1544 4750 1819 4750 
Q 2544 4750 2975 4387 
Q 3406 4025 3406 3419 
Q 3406 3131 3298 2873 
Q 3191 2616 2906 2266 
Q 2828 2175 2409 1742 
Q 1991 1309 1228 531 
z
" id="DejaVuSans-32" transform="scale(0.015625)"/>
       </defs>
       <use xlink:href="#DejaVuSans-32"/>
       <use x="63.623047" xlink:href="#DejaVuSans-30"/>
      </g>
     </g>
    </g>
    <g id="xtick_3">
     <g id="line2d_3">
      <g>
       <use style="stroke:#000000;stroke-width:0.8;" x="254.618182" xlink:href="#mfd9e4ea6f2" y="384.48"/>
      </g>
     </g>
     <g id="text_3">
      <!-- 40 -->
      <g transform="translate(248.255682 399.078438)scale(0.1 -0.1)">
       <defs>
        <path d="M 2419 4116 
L 825 1625 
L 2419 1625 
L 2419 4116 
z
M 2253 4666 
L 3047 4666 
L 3047 1625 
L 3713 1625 
L 3713 1100 
L 3047 1100 
L 3047 0 
L 2419 0 
L 2419 1100 
L 313 1100 
L 313 1709 
L 2253 4666 
z
" id="DejaVuSans-34" transform="scale(0.015625)"/>
       </defs>
       <use xlink:href="#DejaVuSans-34"/>
       <use x="63.623047" xlink:href="#DejaVuSans-30"/>
      </g>
     </g>
    </g>
    <g id="xtick_4">
     <g id="line2d_4">
      <g>
       <use style="stroke:#000000;stroke-width:0.8;" x="335.781818" xlink:href="#mfd9e4ea6f2" y="384.48"/>
      </g>
     </g>
     <g id="text_4">
      <!-- 60 -->
      <g transform="translate(329.419318 399.078438)scale(0.1 -0.1)">
       <defs>
        <path d="M 2113 2584 
Q 1688 2584 1439 2293 
Q 1191 2003 1191 1497 
Q 1191 994 1439 701 
Q 1688 409 2113 409 
Q 2538 409 2786 701 
Q 3034 994 3034 1497 
Q 3034 2003 2786 2293 
Q 2538 2584 2113 2584 
z
M 3366 4563 
L 3366 3988 
Q 3128 4100 2886 4159 
Q 2644 4219 2406 4219 
Q 1781 4219 1451 3797 
Q 1122 3375 1075 2522 
Q 1259 2794 1537 2939 
Q 1816 3084 2150 3084 
Q 2853 3084 3261 2657 
Q 3669 2231 3669 1497 
Q 3669 778 3244 343 
Q 2819 -91 2113 -91 
Q 1303 -91 875 529 
Q 447 1150 447 2328 
Q 447 3434 972 4092 
Q 1497 4750 2381 4750 
Q 2619 4750 2861 4703 
Q 3103 4656 3366 4563 
z
" id="DejaVuSans-36" transform="scale(0.015625)"/>
       </defs>
       <use xlink:href="#DejaVuSans-36"/>
       <use x="63.623047" xlink:href="#DejaVuSans-30"/>
      </g>
     </g>
    </g>
    <g id="xtick_5">
     <g id="line2d_5">
      <g>
       <use style="stroke:#000000;stroke-width:0.8;" x="416.945455" xlink:href="#mfd9e4ea6f2" y="384.48"/>
      </g>
     </g>
     <g id="text_5">
      <!-- 80 -->
      <g transform="translate(410.582955 399.078438)scale(0.1 -0.1)">
       <defs>
        <path d="M 2034 2216 
Q 1584 2216 1326 1975 
Q 1069 1734 1069 1313 
Q 1069 891 1326 650 
Q 1584 409 2034 409 
Q 2484 409 2743 651 
Q 3003 894 3003 1313 
Q 3003 1734 2745 1975 
Q 2488 2216 2034 2216 
z
M 1403 2484 
Q 997 2584 770 2862 
Q 544 3141 544 3541 
Q 544 4100 942 4425 
Q 1341 4750 2034 4750 
Q 2731 4750 3128 4425 
Q 3525 4100 3525 3541 
Q 3525 3141 3298 2862 
Q 3072 2584 2669 2484 
Q 3125 2378 3379 2068 
Q 3634 1759 3634 1313 
Q 3634 634 3220 271 
Q 2806 -91 2034 -91 
Q 1263 -91 848 271 
Q 434 634 434 1313 
Q 434 1759 690 2068 
Q 947 2378 1403 2484 
z
M 1172 3481 
Q 1172 3119 1398 2916 
Q 1625 2713 2034 2713 
Q 2441 2713 2670 2916 
Q 2900 3119 2900 3481 
Q 2900 3844 2670 4047 
Q 2441 4250 2034 4250 
Q 1625 4250 1398 4047 
Q 1172 3844 1172 3481 
z
" id="DejaVuSans-38" transform="scale(0.015625)"/>
       </defs>
       <use xlink:href="#DejaVuSans-38"/>
       <use x="63.623047" xlink:href="#DejaVuSans-30"/>
      </g>
     </g>
    </g>
    <g id="xtick_6">
     <g id="line2d_6">
      <g>
       <use style="stroke:#000000;stroke-width:0.8;" x="498.109091" xlink:href="#mfd9e4ea6f2" y="384.48"/>
      </g>
     </g>
     <g id="text_6">
      <!-- 100 -->
      <g transform="translate(488.565341 399.078438)scale(0.1 -0.1)">
       <defs>
        <path d="M 794 531 
L 1825 531 
L 1825 4091 
L 703 3866 
L 703 4441 
L 1819 4666 
L 2450 4666 
L 2450 531 
L 3481 531 
L 3481 0 
L 794 0 
L 794 531 
z
" id="DejaVuSans-31" transform="scale(0.015625)"/>
       </defs>
       <use xlink:href="#DejaVuSans-31"/>
       <use x="63.623047" xlink:href="#DejaVuSans-30"/>
       <use x="127.246094" xlink:href="#DejaVuSans-30"/>
      </g>
     </g>
    </g>
    <g id="text_7">
     <!-- Number of iterations -->
     <g transform="translate(243.389062 412.756563)scale(0.1 -0.1)">
      <defs>
       <path d="M 628 4666 
L 1478 4666 
L 3547 763 
L 3547 4666 
L 4159 4666 
L 4159 0 
L 3309 0 
L 1241 3903 
L 1241 0 
L 628 0 
L 628 4666 
z
" id="DejaVuSans-4e" transform="scale(0.015625)"/>
       <path d="M 544 1381 
L 544 3500 
L 1119 3500 
L 1119 1403 
Q 1119 906 1312 657 
Q 1506 409 1894 409 
Q 2359 409 2629 706 
Q 2900 1003 2900 1516 
L 2900 3500 
L 3475 3500 
L 3475 0 
L 2900 0 
L 2900 538 
Q 2691 219 2414 64 
Q 2138 -91 1772 -91 
Q 1169 -91 856 284 
Q 544 659 544 1381 
z
M 1991 3584 
L 1991 3584 
z
" id="DejaVuSans-75" transform="scale(0.015625)"/>
       <path d="M 3328 2828 
Q 3544 3216 3844 3400 
Q 4144 3584 4550 3584 
Q 5097 3584 5394 3201 
Q 5691 2819 5691 2113 
L 5691 0 
L 5113 0 
L 5113 2094 
Q 5113 2597 4934 2840 
Q 4756 3084 4391 3084 
Q 3944 3084 3684 2787 
Q 3425 2491 3425 1978 
L 3425 0 
L 2847 0 
L 2847 2094 
Q 2847 2600 2669 2842 
Q 2491 3084 2119 3084 
Q 1678 3084 1418 2786 
Q 1159 2488 1159 1978 
L 1159 0 
L 581 0 
L 581 3500 
L 1159 3500 
L 1159 2956 
Q 1356 3278 1631 3431 
Q 1906 3584 2284 3584 
Q 2666 3584 2933 3390 
Q 3200 3197 3328 2828 
z
" id="DejaVuSans-6d" transform="scale(0.015625)"/>
       <path d="M 3116 1747 
Q 3116 2381 2855 2742 
Q 2594 3103 2138 3103 
Q 1681 3103 1420 2742 
Q 1159 2381 1159 1747 
Q 1159 1113 1420 752 
Q 1681 391 2138 391 
Q 2594 391 2855 752 
Q 3116 1113 3116 1747 
z
M 1159 2969 
Q 1341 3281 1617 3432 
Q 1894 3584 2278 3584 
Q 2916 3584 3314 3078 
Q 3713 2572 3713 1747 
Q 3713 922 3314 415 
Q 2916 -91 2278 -91 
Q 1894 -91 1617 61 
Q 1341 213 1159 525 
L 1159 0 
L 581 0 
L 581 4863 
L 1159 4863 
L 1159 2969 
z
" id="DejaVuSans-62" transform="scale(0.015625)"/>
       <path d="M 3597 1894 
L 3597 1613 
L 953 1613 
Q 991 1019 1311 708 
Q 1631 397 2203 397 
Q 2534 397 2845 478 
Q 3156 559 3463 722 
L 3463 178 
Q 3153 47 2828 -22 
Q 2503 -91 2169 -91 
Q 1331 -91 842 396 
Q 353 884 353 1716 
Q 353 2575 817 3079 
Q 1281 3584 2069 3584 
Q 2775 3584 3186 3129 
Q 3597 2675 3597 1894 
z
M 3022 2063 
Q 3016 2534 2758 2815 
Q 2500 3097 2075 3097 
Q 1594 3097 1305 2825 
Q 1016 2553 972 2059 
L 3022 2063 
z
" id="DejaVuSans-65" transform="scale(0.015625)"/>
       <path d="M 2631 2963 
Q 2534 3019 2420 3045 
Q 2306 3072 2169 3072 
Q 1681 3072 1420 2755 
Q 1159 2438 1159 1844 
L 1159 0 
L 581 0 
L 581 3500 
L 1159 3500 
L 1159 2956 
Q 1341 3275 1631 3429 
Q 1922 3584 2338 3584 
Q 2397 3584 2469 3576 
Q 2541 3569 2628 3553 
L 2631 2963 
z
" id="DejaVuSans-72" transform="scale(0.015625)"/>
       <path id="DejaVuSans-20" transform="scale(0.015625)"/>
       <path d="M 1959 3097 
Q 1497 3097 1228 2736 
Q 959 2375 959 1747 
Q 959 1119 1226 758 
Q 1494 397 1959 397 
Q 2419 397 2687 759 
Q 2956 1122 2956 1747 
Q 2956 2369 2687 2733 
Q 2419 3097 1959 3097 
z
M 1959 3584 
Q 2709 3584 3137 3096 
Q 3566 2609 3566 1747 
Q 3566 888 3137 398 
Q 2709 -91 1959 -91 
Q 1206 -91 779 398 
Q 353 888 353 1747 
Q 353 2609 779 3096 
Q 1206 3584 1959 3584 
z
" id="DejaVuSans-6f" transform="scale(0.015625)"/>
       <path d="M 2375 4863 
L 2375 4384 
L 1825 4384 
Q 1516 4384 1395 4259 
Q 1275 4134 1275 3809 
L 1275 3500 
L 2222 3500 
L 2222 3053 
L 1275 3053 
L 1275 0 
L 697 0 
L 697 3053 
L 147 3053 
L 147 3500 
L 697 3500 
L 697 3744 
Q 697 4328 969 4595 
Q 1241 4863 1831 4863 
L 2375 4863 
z
" id="DejaVuSans-66" transform="scale(0.015625)"/>
       <path d="M 603 3500 
L 1178 3500 
L 1178 0 
L 603 0 
L 603 3500 
z
M 603 4863 
L 1178 4863 
L 1178 4134 
L 603 4134 
L 603 4863 
z
" id="DejaVuSans-69" transform="scale(0.015625)"/>
       <path d="M 1172 4494 
L 1172 3500 
L 2356 3500 
L 2356 3053 
L 1172 3053 
L 1172 1153 
Q 1172 725 1289 603 
Q 1406 481 1766 481 
L 2356 481 
L 2356 0 
L 1766 0 
Q 1100 0 847 248 
Q 594 497 594 1153 
L 594 3053 
L 172 3053 
L 172 3500 
L 594 3500 
L 594 4494 
L 1172 4494 
z
" id="DejaVuSans-74" transform="scale(0.015625)"/>
       <path d="M 2194 1759 
Q 1497 1759 1228 1600 
Q 959 1441 959 1056 
Q 959 750 1161 570 
Q 1363 391 1709 391 
Q 2188 391 2477 730 
Q 2766 1069 2766 1631 
L 2766 1759 
L 2194 1759 
z
M 3341 1997 
L 3341 0 
L 2766 0 
L 2766 531 
Q 2569 213 2275 61 
Q 1981 -91 1556 -91 
Q 1019 -91 701 211 
Q 384 513 384 1019 
Q 384 1609 779 1909 
Q 1175 2209 1959 2209 
L 2766 2209 
L 2766 2266 
Q 2766 2663 2505 2880 
Q 2244 3097 1772 3097 
Q 1472 3097 1187 3025 
Q 903 2953 641 2809 
L 641 3341 
Q 956 3463 1253 3523 
Q 1550 3584 1831 3584 
Q 2591 3584 2966 3190 
Q 3341 2797 3341 1997 
z
" id="DejaVuSans-61" transform="scale(0.015625)"/>
       <path d="M 3513 2113 
L 3513 0 
L 2938 0 
L 2938 2094 
Q 2938 2591 2744 2837 
Q 2550 3084 2163 3084 
Q 1697 3084 1428 2787 
Q 1159 2491 1159 1978 
L 1159 0 
L 581 0 
L 581 3500 
L 1159 3500 
L 1159 2956 
Q 1366 3272 1645 3428 
Q 1925 3584 2291 3584 
Q 2894 3584 3203 3211 
Q 3513 2838 3513 2113 
z
" id="DejaVuSans-6e" transform="scale(0.015625)"/>
       <path d="M 2834 3397 
L 2834 2853 
Q 2591 2978 2328 3040 
Q 2066 3103 1784 3103 
Q 1356 3103 1142 2972 
Q 928 2841 928 2578 
Q 928 2378 1081 2264 
Q 1234 2150 1697 2047 
L 1894 2003 
Q 2506 1872 2764 1633 
Q 3022 1394 3022 966 
Q 3022 478 2636 193 
Q 2250 -91 1575 -91 
Q 1294 -91 989 -36 
Q 684 19 347 128 
L 347 722 
Q 666 556 975 473 
Q 1284 391 1588 391 
Q 1994 391 2212 530 
Q 2431 669 2431 922 
Q 2431 1156 2273 1281 
Q 2116 1406 1581 1522 
L 1381 1569 
Q 847 1681 609 1914 
Q 372 2147 372 2553 
Q 372 3047 722 3315 
Q 1072 3584 1716 3584 
Q 2034 3584 2315 3537 
Q 2597 3491 2834 3397 
z
" id="DejaVuSans-73" transform="scale(0.015625)"/>
      </defs>
      <use xlink:href="#DejaVuSans-4e"/>
      <use x="74.804688" xlink:href="#DejaVuSans-75"/>
      <use x="138.183594" xlink:href="#DejaVuSans-6d"/>
      <use x="235.595703" xlink:href="#DejaVuSans-62"/>
      <use x="299.072266" xlink:href="#DejaVuSans-65"/>
      <use x="360.595703" xlink:href="#DejaVuSans-72"/>
      <use x="401.708984" xlink:href="#DejaVuSans-20"/>
      <use x="433.496094" xlink:href="#DejaVuSans-6f"/>
      <use x="494.677734" xlink:href="#DejaVuSans-66"/>
      <use x="529.882812" xlink:href="#DejaVuSans-20"/>
      <use x="561.669922" xlink:href="#DejaVuSans-69"/>
      <use x="589.453125" xlink:href="#DejaVuSans-74"/>
      <use x="628.662109" xlink:href="#DejaVuSans-65"/>
      <use x="690.185547" xlink:href="#DejaVuSans-72"/>
      <use x="731.298828" xlink:href="#DejaVuSans-61"/>
      <use x="792.578125" xlink:href="#DejaVuSans-74"/>
      <use x="831.787109" xlink:href="#DejaVuSans-69"/>
      <use x="859.570312" xlink:href="#DejaVuSans-6f"/>
      <use x="920.751953" xlink:href="#DejaVuSans-6e"/>
      <use x="984.130859" xlink:href="#DejaVuSans-73"/>
     </g>
    </g>
   </g>
   <g id="matplotlib.axis_2">
    <g id="ytick_1">
     <g id="line2d_7">
      <defs>
       <path d="M 0 0 
L -3.5 0 
" id="ma14caa8a7b" style="stroke:#000000;stroke-width:0.8;"/>
      </defs>
      <g>
       <use style="stroke:#000000;stroke-width:0.8;" x="72" xlink:href="#ma14caa8a7b" y="349.679484"/>
      </g>
     </g>
     <g id="text_8">
      <!-- $\mathdefault{10^{-11}}$ -->
      <g transform="translate(37.1 353.478702)scale(0.1 -0.1)">
       <defs>
        <path d="M 678 2272 
L 4684 2272 
L 4684 1741 
L 678 1741 
L 678 2272 
z
" id="DejaVuSans-2212" transform="scale(0.015625)"/>
       </defs>
       <use transform="translate(0 0.684375)" xlink:href="#DejaVuSans-31"/>
       <use transform="translate(63.623047 0.684375)" xlink:href="#DejaVuSans-30"/>
       <use transform="translate(128.203125 38.965625)scale(0.7)" xlink:href="#DejaVuSans-2212"/>
       <use transform="translate(186.855469 38.965625)scale(0.7)" xlink:href="#DejaVuSans-31"/>
       <use transform="translate(231.391602 38.965625)scale(0.7)" xlink:href="#DejaVuSans-31"/>
      </g>
     </g>
    </g>
    <g id="ytick_2">
     <g id="line2d_8">
      <g>
       <use style="stroke:#000000;stroke-width:0.8;" x="72" xlink:href="#ma14caa8a7b" y="299.00375"/>
      </g>
     </g>
     <g id="text_9">
      <!-- $\mathdefault{10^{-8}}$ -->
      <g transform="translate(41.5 302.802969)scale(0.1 -0.1)">
       <use transform="translate(0 0.765625)" xlink:href="#DejaVuSans-31"/>
       <use transform="translate(63.623047 0.765625)" xlink:href="#DejaVuSans-30"/>
       <use transform="translate(128.203125 39.046875)scale(0.7)" xlink:href="#DejaVuSans-2212"/>
       <use transform="translate(186.855469 39.046875)scale(0.7)" xlink:href="#DejaVuSans-38"/>
      </g>
     </g>
    </g>
    <g id="ytick_3">
     <g id="line2d_9">
      <g>
       <use style="stroke:#000000;stroke-width:0.8;" x="72" xlink:href="#ma14caa8a7b" y="248.328017"/>
      </g>
     </g>
     <g id="text_10">
      <!-- $\mathdefault{10^{-5}}$ -->
      <g transform="translate(41.5 252.127236)scale(0.1 -0.1)">
       <defs>
        <path d="M 691 4666 
L 3169 4666 
L 3169 4134 
L 1269 4134 
L 1269 2991 
Q 1406 3038 1543 3061 
Q 1681 3084 1819 3084 
Q 2600 3084 3056 2656 
Q 3513 2228 3513 1497 
Q 3513 744 3044 326 
Q 2575 -91 1722 -91 
Q 1428 -91 1123 -41 
Q 819 9 494 109 
L 494 744 
Q 775 591 1075 516 
Q 1375 441 1709 441 
Q 2250 441 2565 725 
Q 2881 1009 2881 1497 
Q 2881 1984 2565 2268 
Q 2250 2553 1709 2553 
Q 1456 2553 1204 2497 
Q 953 2441 691 2322 
L 691 4666 
z
" id="DejaVuSans-35" transform="scale(0.015625)"/>
       </defs>
       <use transform="translate(0 0.684375)" xlink:href="#DejaVuSans-31"/>
       <use transform="translate(63.623047 0.684375)" xlink:href="#DejaVuSans-30"/>
       <use transform="translate(128.203125 38.965625)scale(0.7)" xlink:href="#DejaVuSans-2212"/>
       <use transform="translate(186.855469 38.965625)scale(0.7)" xlink:href="#DejaVuSans-35"/>
      </g>
     </g>
    </g>
    <g id="ytick_4">
     <g id="line2d_10">
      <g>
       <use style="stroke:#000000;stroke-width:0.8;" x="72" xlink:href="#ma14caa8a7b" y="197.652284"/>
      </g>
     </g>
     <g id="text_11">
      <!-- $\mathdefault{10^{-2}}$ -->
      <g transform="translate(41.5 201.451503)scale(0.1 -0.1)">
       <use transform="translate(0 0.765625)" xlink:href="#DejaVuSans-31"/>
       <use transform="translate(63.623047 0.765625)" xlink:href="#DejaVuSans-30"/>
       <use transform="translate(128.203125 39.046875)scale(0.7)" xlink:href="#DejaVuSans-2212"/>
       <use transform="translate(186.855469 39.046875)scale(0.7)" xlink:href="#DejaVuSans-32"/>
      </g>
     </g>
    </g>
    <g id="ytick_5">
     <g id="line2d_11">
      <g>
       <use style="stroke:#000000;stroke-width:0.8;" x="72" xlink:href="#ma14caa8a7b" y="146.976551"/>
      </g>
     </g>
     <g id="text_12">
      <!-- $\mathdefault{10^{1}}$ -->
      <g transform="translate(47.4 150.775769)scale(0.1 -0.1)">
       <use transform="translate(0 0.684375)" xlink:href="#DejaVuSans-31"/>
       <use transform="translate(63.623047 0.684375)" xlink:href="#DejaVuSans-30"/>
       <use transform="translate(128.203125 38.965625)scale(0.7)" xlink:href="#DejaVuSans-31"/>
      </g>
     </g>
    </g>
    <g id="ytick_6">
     <g id="line2d_12">
      <g>
       <use style="stroke:#000000;stroke-width:0.8;" x="72" xlink:href="#ma14caa8a7b" y="96.300817"/>
      </g>
     </g>
     <g id="text_13">
      <!-- $\mathdefault{10^{4}}$ -->
      <g transform="translate(47.4 100.100036)scale(0.1 -0.1)">
       <use transform="translate(0 0.684375)" xlink:href="#DejaVuSans-31"/>
       <use transform="translate(63.623047 0.684375)" xlink:href="#DejaVuSans-30"/>
       <use transform="translate(128.203125 38.965625)scale(0.7)" xlink:href="#DejaVuSans-34"/>
      </g>
     </g>
    </g>
    <g id="text_14">
     <!-- Norm of the residuals -->
     <g transform="translate(31.020312 272.004531)rotate(-90)scale(0.1 -0.1)">
      <defs>
       <path d="M 3513 2113 
L 3513 0 
L 2938 0 
L 2938 2094 
Q 2938 2591 2744 2837 
Q 2550 3084 2163 3084 
Q 1697 3084 1428 2787 
Q 1159 2491 1159 1978 
L 1159 0 
L 581 0 
L 581 4863 
L 1159 4863 
L 1159 2956 
Q 1366 3272 1645 3428 
Q 1925 3584 2291 3584 
Q 2894 3584 3203 3211 
Q 3513 2838 3513 2113 
z
" id="DejaVuSans-68" transform="scale(0.015625)"/>
       <path d="M 2906 2969 
L 2906 4863 
L 3481 4863 
L 3481 0 
L 2906 0 
L 2906 525 
Q 2725 213 2448 61 
Q 2172 -91 1784 -91 
Q 1150 -91 751 415 
Q 353 922 353 1747 
Q 353 2572 751 3078 
Q 1150 3584 1784 3584 
Q 2172 3584 2448 3432 
Q 2725 3281 2906 2969 
z
M 947 1747 
Q 947 1113 1208 752 
Q 1469 391 1925 391 
Q 2381 391 2643 752 
Q 2906 1113 2906 1747 
Q 2906 2381 2643 2742 
Q 2381 3103 1925 3103 
Q 1469 3103 1208 2742 
Q 947 2381 947 1747 
z
" id="DejaVuSans-64" transform="scale(0.015625)"/>
       <path d="M 603 4863 
L 1178 4863 
L 1178 0 
L 603 0 
L 603 4863 
z
" id="DejaVuSans-6c" transform="scale(0.015625)"/>
      </defs>
      <use xlink:href="#DejaVuSans-4e"/>
      <use x="74.804688" xlink:href="#DejaVuSans-6f"/>
      <use x="135.986328" xlink:href="#DejaVuSans-72"/>
      <use x="175.349609" xlink:href="#DejaVuSans-6d"/>
      <use x="272.761719" xlink:href="#DejaVuSans-20"/>
      <use x="304.548828" xlink:href="#DejaVuSans-6f"/>
      <use x="365.730469" xlink:href="#DejaVuSans-66"/>
      <use x="400.935547" xlink:href="#DejaVuSans-20"/>
      <use x="432.722656" xlink:href="#DejaVuSans-74"/>
      <use x="471.931641" xlink:href="#DejaVuSans-68"/>
      <use x="535.310547" xlink:href="#DejaVuSans-65"/>
      <use x="596.833984" xlink:href="#DejaVuSans-20"/>
      <use x="628.621094" xlink:href="#DejaVuSans-72"/>
      <use x="667.484375" xlink:href="#DejaVuSans-65"/>
      <use x="729.007812" xlink:href="#DejaVuSans-73"/>
      <use x="781.107422" xlink:href="#DejaVuSans-69"/>
      <use x="808.890625" xlink:href="#DejaVuSans-64"/>
      <use x="872.367188" xlink:href="#DejaVuSans-75"/>
      <use x="935.746094" xlink:href="#DejaVuSans-61"/>
      <use x="997.025391" xlink:href="#DejaVuSans-6c"/>
      <use x="1024.808594" xlink:href="#DejaVuSans-73"/>
     </g>
    </g>
   </g>
   <g id="line2d_13">
    <path clip-path="url(#p912593337c)" d="M 92.290909 111.422229 
L 96.349091 111.561015 
L 100.407273 111.64809 
L 104.465455 111.699981 
L 108.523636 111.750291 
L 112.581818 111.755094 
L 116.64 111.7647 
L 120.698182 111.901867 
L 124.756364 112.252644 
L 128.814545 112.308856 
L 132.872727 112.371421 
L 136.930909 112.884849 
L 140.989091 112.919546 
L 145.047273 113.288692 
L 149.105455 113.314211 
L 153.163636 113.324867 
L 157.221818 113.419136 
L 161.28 113.485951 
L 165.338182 113.486807 
L 169.396364 113.620413 
L 173.454545 113.621554 
L 177.512727 113.961103 
L 181.570909 114.062881 
L 185.629091 114.358014 
L 189.687273 114.369661 
L 193.745455 114.975225 
L 197.803636 115.021091 
L 201.861818 115.039992 
L 205.92 115.077573 
L 209.978182 115.156212 
L 214.036364 115.167214 
L 218.094545 115.168025 
L 222.152727 115.232656 
L 226.210909 115.250639 
L 230.269091 115.251648 
L 234.327273 116.35147 
L 238.385455 116.357645 
L 242.443636 116.358253 
L 246.501818 116.443846 
L 250.56 116.461044 
L 254.618182 116.512378 
L 258.676364 116.790053 
L 262.734545 117.495372 
L 266.792727 117.822905 
L 270.850909 117.94566 
L 274.909091 118.335511 
L 278.967273 118.40144 
L 283.025455 118.851171 
L 287.083636 118.976768 
L 291.141818 118.988993 
L 295.2 119.452216 
L 299.258182 119.78344 
L 303.316364 119.795865 
L 307.374545 119.813162 
L 311.432727 119.840379 
L 315.490909 120.077215 
L 319.549091 121.201753 
L 323.607273 121.810104 
L 327.665455 122.062767 
L 331.723636 122.874677 
L 335.781818 122.910245 
L 339.84 122.910273 
L 343.898182 122.950417 
L 347.956364 123.976248 
L 352.014545 123.979067 
L 356.072727 124.807459 
L 360.130909 125.612547 
L 364.189091 125.613262 
L 368.247273 127.543807 
L 372.305455 127.715069 
L 376.363636 128.18785 
L 380.421818 128.271339 
L 384.48 128.299643 
L 388.538182 128.801868 
L 392.596364 128.926607 
L 396.654545 129.254579 
L 400.712727 129.550335 
L 404.770909 129.550726 
L 408.829091 131.835164 
L 412.887273 131.875435 
L 416.945455 132.032704 
L 421.003636 132.834194 
L 425.061818 133.198218 
L 429.12 133.205235 
L 433.178182 134.055035 
L 437.236364 134.097389 
L 441.294545 134.098162 
L 445.352727 134.430141 
L 449.410909 134.575331 
L 453.469091 135.064166 
L 457.527273 135.644817 
L 461.585455 136.000824 
L 465.643636 136.003481 
L 469.701818 136.064569 
L 473.76 137.196325 
L 477.818182 142.185353 
L 481.876364 143.259254 
L 485.934545 144.081593 
L 489.992727 147.009646 
L 494.050909 151.866882 
L 498.109091 357.189289 
" style="fill:none;stroke:#1f77b4;stroke-linecap:square;stroke-width:1.5;"/>
   </g>
   <g id="line2d_14">
    <path clip-path="url(#p912593337c)" d="M 92.290909 111.422229 
L 96.349091 116.763254 
L 100.407273 119.333921 
L 104.465455 121.322852 
L 108.523636 123.309273 
L 112.581818 125.554129 
L 116.64 127.375801 
L 120.698182 128.46452 
L 124.756364 129.195081 
L 128.814545 129.66144 
L 132.872727 130.624336 
L 136.930909 131.416088 
L 140.989091 132.056012 
L 145.047273 132.809967 
L 149.105455 133.232439 
L 153.163636 133.71908 
L 157.221818 134.361937 
L 161.28 135.223717 
L 165.338182 136.142041 
L 169.396364 136.61961 
L 173.454545 137.260526 
L 177.512727 137.887328 
L 181.570909 138.311346 
L 185.629091 138.685031 
L 189.687273 139.110213 
L 193.745455 139.552382 
L 197.803636 140.097585 
L 201.861818 140.597817 
L 205.92 141.047883 
L 209.978182 141.467476 
L 214.036364 142.136491 
L 218.094545 142.991948 
L 222.152727 143.971398 
L 226.210909 144.469857 
L 230.269091 145.035029 
L 234.327273 145.537831 
L 238.385455 145.899905 
L 242.443636 146.348112 
L 246.501818 146.727814 
L 250.56 147.284978 
L 254.618182 147.671283 
L 258.676364 148.081083 
L 262.734545 148.389718 
L 266.792727 148.671155 
L 270.850909 148.942672 
L 274.909091 149.157097 
L 278.967273 149.42737 
L 283.025455 149.70972 
L 287.083636 149.955029 
L 291.141818 150.170523 
L 295.2 150.421996 
L 299.258182 150.640178 
L 303.316364 150.98764 
L 307.374545 151.206272 
L 311.432727 151.468793 
L 315.490909 151.717237 
L 319.549091 151.932652 
L 323.607273 152.050483 
L 327.665455 152.327675 
L 331.723636 152.521505 
L 335.781818 152.722848 
L 339.84 152.996421 
L 343.898182 153.391474 
L 347.956364 153.633734 
L 352.014545 153.91852 
L 356.072727 154.461655 
L 360.130909 155.381921 
L 364.189091 156.258082 
L 368.247273 157.270267 
L 372.305455 158.008136 
L 376.363636 159.415863 
L 380.421818 160.171495 
L 384.48 160.47007 
L 388.538182 161.265906 
L 392.596364 161.553987 
L 396.654545 162.004318 
L 400.712727 162.285235 
L 404.770909 162.546823 
L 408.829091 162.701059 
L 412.887273 162.952182 
L 416.945455 163.393575 
L 421.003636 163.770301 
L 425.061818 164.243754 
L 429.12 164.720138 
L 433.178182 164.954639 
L 437.236364 165.28695 
L 441.294545 166.147632 
L 445.352727 166.81167 
L 449.410909 167.967793 
L 453.469091 168.449578 
L 457.527273 169.025355 
L 461.585455 169.703673 
L 465.643636 170.048144 
L 469.701818 170.300981 
L 473.76 170.761162 
L 477.818182 171.315043 
L 481.876364 171.426642 
L 485.934545 171.649225 
L 489.992727 172.195054 
L 494.050909 172.465584 
L 498.109091 362.899693 
" style="fill:none;stroke:#ff7f0e;stroke-linecap:square;stroke-width:1.5;"/>
   </g>
   <g id="line2d_15">
    <path clip-path="url(#p912593337c)" d="M 92.290909 111.422229 
L 96.349091 111.526936 
L 100.407273 111.529391 
L 104.465455 111.581361 
L 108.523636 111.634065 
L 112.581818 111.812679 
L 116.64 111.819814 
L 120.698182 111.995399 
L 124.756364 112.185061 
L 128.814545 112.418468 
L 132.872727 112.41902 
L 136.930909 112.421878 
L 140.989091 112.422796 
L 145.047273 112.650155 
L 149.105455 112.650276 
L 153.163636 112.657947 
L 157.221818 113.187223 
L 161.28 113.42892 
L 165.338182 113.476372 
L 169.396364 113.549586 
L 173.454545 113.552098 
L 177.512727 113.60502 
L 181.570909 113.759305 
L 185.629091 113.975823 
L 189.687273 114.226258 
L 193.745455 114.237351 
L 197.803636 114.660938 
L 201.861818 114.815875 
L 205.92 114.824564 
L 209.978182 114.855971 
L 214.036364 114.867379 
L 218.094545 114.893582 
L 222.152727 114.917808 
L 226.210909 114.979533 
L 230.269091 115.192965 
L 234.327273 115.342478 
L 238.385455 115.389835 
L 242.443636 115.391244 
L 246.501818 115.662098 
L 250.56 116.073487 
L 254.618182 116.076734 
L 258.676364 116.142705 
L 262.734545 116.196874 
L 266.792727 116.208014 
L 270.850909 116.20802 
L 274.909091 116.497253 
L 278.967273 116.752007 
L 283.025455 116.756066 
L 287.083636 117.2852 
L 291.141818 117.420919 
L 295.2 118.34531 
L 299.258182 118.34677 
L 303.316364 118.350239 
L 307.374545 118.554656 
L 311.432727 118.643056 
L 315.490909 118.646427 
L 319.549091 118.757947 
L 323.607273 118.777293 
L 327.665455 118.831105 
L 331.723636 118.842726 
L 335.781818 119.813789 
L 339.84 119.88236 
L 343.898182 119.922399 
L 347.956364 119.99762 
L 352.014545 120.1292 
L 356.072727 120.163681 
L 360.130909 120.578197 
L 364.189091 120.653378 
L 368.247273 120.929637 
L 372.305455 121.158359 
L 376.363636 121.584218 
L 380.421818 121.584434 
L 384.48 122.935133 
L 388.538182 123.180948 
L 392.596364 123.310376 
L 396.654545 124.462093 
L 400.712727 124.467887 
L 404.770909 124.525194 
L 408.829091 124.586251 
L 412.887273 125.360561 
L 416.945455 126.157248 
L 421.003636 127.811853 
L 425.061818 128.073054 
L 429.12 128.216851 
L 433.178182 128.25678 
L 437.236364 128.673204 
L 441.294545 129.300027 
L 445.352727 129.301253 
L 449.410909 129.406088 
L 453.469091 131.810999 
L 457.527273 136.885854 
L 461.585455 137.441979 
L 465.643636 138.08329 
L 469.701818 138.123674 
L 473.76 139.246421 
L 477.818182 139.296467 
L 481.876364 142.169685 
L 485.934545 149.079247 
L 489.992727 149.248534 
L 494.050909 149.780284 
L 498.109091 343.316187 
" style="fill:none;stroke:#2ca02c;stroke-linecap:square;stroke-width:1.5;"/>
   </g>
   <g id="line2d_16">
    <path clip-path="url(#p912593337c)" d="M 92.290909 111.422229 
L 96.349091 107.434914 
L 100.407273 107.297463 
L 104.465455 107.117105 
L 108.523636 107.900073 
L 112.581818 91.653491 
L 116.64 104.041746 
L 120.698182 106.0999 
L 124.756364 101.293187 
L 128.814545 106.50314 
L 132.872727 100.43221 
L 136.930909 98.533909 
L 140.989091 98.278819 
L 145.047273 94.501687 
L 149.105455 101.657242 
L 153.163636 108.060302 
L 157.221818 105.449031 
L 161.28 105.918355 
L 165.338182 102.870637 
L 169.396364 103.139188 
L 173.454545 100.690392 
L 177.512727 103.272146 
L 181.570909 91.843695 
L 185.629091 86.61217 
L 189.687273 92.429636 
L 193.745455 99.59207 
L 197.803636 102.224158 
L 201.861818 100.810034 
L 205.92 93.374899 
L 209.978182 97.487903 
L 214.036364 99.904341 
L 218.094545 99.719621 
L 222.152727 97.961385 
L 226.210909 101.185682 
L 230.269091 101.253558 
L 234.327273 100.023868 
L 238.385455 92.117628 
L 242.443636 79.655852 
L 246.501818 102.059726 
L 250.56 105.411492 
L 254.618182 96.736608 
L 258.676364 96.767782 
L 262.734545 102.709294 
L 266.792727 103.556706 
L 270.850909 103.634028 
L 274.909091 102.836052 
L 278.967273 104.634639 
L 283.025455 81.184866 
L 287.083636 102.652048 
L 291.141818 105.358135 
L 295.2 98.181113 
L 299.258182 101.481881 
L 303.316364 103.147247 
L 307.374545 98.559883 
L 311.432727 103.97845 
L 315.490909 88.143978 
L 319.549091 78.102978 
L 323.607273 89.79694 
L 327.665455 92.597372 
L 331.723636 96.170555 
L 335.781818 91.578588 
L 339.84 111.791814 
L 343.898182 104.998547 
L 347.956364 109.517629 
L 352.014545 100.067367 
L 356.072727 105.498561 
L 360.130909 108.405835 
L 364.189091 98.899099 
L 368.247273 106.331045 
L 372.305455 112.616765 
L 376.363636 115.270888 
L 380.421818 112.359647 
L 384.48 114.648486 
L 388.538182 110.658034 
L 392.596364 107.746281 
L 396.654545 96.689321 
L 400.712727 113.662904 
L 404.770909 111.447054 
L 408.829091 112.792794 
L 412.887273 115.765165 
L 416.945455 118.306962 
L 421.003636 118.467252 
L 425.061818 114.075778 
L 429.12 103.764069 
L 433.178182 106.576757 
L 437.236364 107.01065 
L 441.294545 110.73616 
L 445.352727 118.65954 
L 449.410909 114.688035 
L 453.469091 108.811022 
L 457.527273 119.18268 
L 461.585455 110.569742 
L 465.643636 118.791085 
L 469.701818 119.044362 
L 473.76 112.318793 
L 477.818182 136.111428 
L 481.876364 115.44673 
L 485.934545 130.196584 
L 489.992727 127.29862 
L 494.050909 132.800156 
L 498.109091 360.790819 
" style="fill:none;stroke:#d62728;stroke-linecap:square;stroke-width:1.5;"/>
   </g>
   <g id="line2d_17">
    <path clip-path="url(#p912593337c)" d="M 92.290909 111.422229 
L 96.349091 91.255242 
L 100.407273 115.386261 
L 104.465455 119.678866 
L 108.523636 113.860235 
L 112.581818 117.071017 
L 116.64 120.564319 
L 120.698182 123.631883 
L 124.756364 116.914617 
L 128.814545 123.065685 
L 132.872727 114.679917 
L 136.930909 119.132565 
L 140.989091 126.900953 
L 145.047273 124.636683 
L 149.105455 130.054553 
L 153.163636 123.599749 
L 157.221818 118.500126 
L 161.28 126.364668 
L 165.338182 122.210293 
L 169.396364 121.834677 
L 173.454545 122.558959 
L 177.512727 121.205677 
L 181.570909 114.809286 
L 185.629091 104.829836 
L 189.687273 117.795056 
L 193.745455 122.76902 
L 197.803636 122.799702 
L 201.861818 123.838962 
L 205.92 129.355483 
L 209.978182 132.697888 
L 214.036364 130.947461 
L 218.094545 128.236879 
L 222.152727 133.382515 
L 226.210909 125.201094 
L 230.269091 128.319818 
L 234.327273 121.59267 
L 238.385455 125.558456 
L 242.443636 130.041185 
L 246.501818 126.11658 
L 250.56 129.070308 
L 254.618182 134.508295 
L 258.676364 118.816617 
L 262.734545 129.304127 
L 266.792727 137.650085 
L 270.850909 137.359395 
L 274.909091 137.40576 
L 278.967273 137.525422 
L 283.025455 140.024849 
L 287.083636 140.544434 
L 291.141818 130.134107 
L 295.2 136.871357 
L 299.258182 136.737092 
L 303.316364 136.716968 
L 307.374545 135.921264 
L 311.432727 140.933406 
L 315.490909 137.648358 
L 319.549091 138.323111 
L 323.607273 131.182306 
L 327.665455 116.963886 
L 331.723636 135.887098 
L 335.781818 132.584274 
L 339.84 136.860622 
L 343.898182 133.114756 
L 347.956364 134.116765 
L 352.014545 133.783583 
L 356.072727 132.965681 
L 360.130909 99.320044 
L 364.189091 137.560025 
L 368.247273 124.06184 
L 372.305455 144.293199 
L 376.363636 135.629355 
L 380.421818 135.675519 
L 384.48 141.834192 
L 388.538182 148.679302 
L 392.596364 126.527404 
L 396.654545 143.831209 
L 400.712727 145.743147 
L 404.770909 143.375718 
L 408.829091 146.26139 
L 412.887273 149.756467 
L 416.945455 138.766838 
L 421.003636 139.771909 
L 425.061818 143.270717 
L 429.12 140.254687 
L 433.178182 146.883257 
L 437.236364 145.013461 
L 441.294545 147.385216 
L 445.352727 151.933299 
L 449.410909 147.032559 
L 453.469091 150.049142 
L 457.527273 126.91305 
L 461.585455 144.314174 
L 465.643636 143.145721 
L 469.701818 145.099204 
L 473.76 148.473831 
L 477.818182 147.600914 
L 481.876364 142.78073 
L 485.934545 142.692902 
L 489.992727 153.150627 
L 494.050909 153.064995 
L 498.109091 369.36 
" style="fill:none;stroke:#9467bd;stroke-linecap:square;stroke-width:1.5;"/>
   </g>
   <g id="line2d_18">
    <path clip-path="url(#p912593337c)" d="M 92.290909 111.422229 
L 96.349091 98.430269 
L 100.407273 84.717399 
L 104.465455 95.941583 
L 108.523636 96.045303 
L 112.581818 100.638275 
L 116.64 88.918447 
L 120.698182 100.759773 
L 124.756364 101.2253 
L 128.814545 102.198332 
L 132.872727 80.132626 
L 136.930909 86.167154 
L 140.989091 82.002237 
L 145.047273 102.336709 
L 149.105455 74.796549 
L 153.163636 90.022744 
L 157.221818 105.824818 
L 161.28 103.332693 
L 165.338182 97.505232 
L 169.396364 99.156267 
L 173.454545 86.824036 
L 177.512727 98.031328 
L 181.570909 102.059866 
L 185.629091 103.488528 
L 189.687273 104.255992 
L 193.745455 92.952948 
L 197.803636 106.533187 
L 201.861818 103.131585 
L 205.92 92.645602 
L 209.978182 97.379015 
L 214.036364 93.685787 
L 218.094545 96.754849 
L 222.152727 96.492171 
L 226.210909 99.965852 
L 230.269091 104.654546 
L 234.327273 103.530162 
L 238.385455 99.411373 
L 242.443636 86.543008 
L 246.501818 105.969232 
L 250.56 107.844533 
L 254.618182 90.289695 
L 258.676364 101.370904 
L 262.734545 100.707977 
L 266.792727 94.93954 
L 270.850909 66.96 
L 274.909091 107.036139 
L 278.967273 106.842304 
L 283.025455 91.787936 
L 287.083636 109.921888 
L 291.141818 105.260402 
L 295.2 112.837259 
L 299.258182 89.628221 
L 303.316364 92.806087 
L 307.374545 107.862411 
L 311.432727 104.933525 
L 315.490909 92.99778 
L 319.549091 105.889125 
L 323.607273 99.529088 
L 327.665455 103.318117 
L 331.723636 97.728979 
L 335.781818 114.464075 
L 339.84 105.251054 
L 343.898182 103.331923 
L 347.956364 105.702473 
L 352.014545 107.857149 
L 356.072727 103.027725 
L 360.130909 112.375485 
L 364.189091 106.356368 
L 368.247273 111.306572 
L 372.305455 110.866158 
L 376.363636 113.47497 
L 380.421818 85.859958 
L 384.48 118.615998 
L 388.538182 113.144665 
L 392.596364 110.978885 
L 396.654545 119.652236 
L 400.712727 100.804306 
L 404.770909 109.241289 
L 408.829091 109.532963 
L 412.887273 119.274816 
L 416.945455 120.165216 
L 421.003636 124.095503 
L 425.061818 118.25185 
L 429.12 116.264403 
L 433.178182 111.65614 
L 437.236364 120.486398 
L 441.294545 122.510599 
L 445.352727 99.94176 
L 449.410909 116.31387 
L 453.469091 129.125575 
L 457.527273 135.827249 
L 461.585455 130.247991 
L 465.643636 131.37064 
L 469.701818 121.564398 
L 473.76 134.356857 
L 477.818182 123.519226 
L 481.876364 139.930562 
L 485.934545 148.474383 
L 489.992727 137.882029 
L 494.050909 142.433778 
L 498.109091 363.586681 
" style="fill:none;stroke:#8c564b;stroke-linecap:square;stroke-width:1.5;"/>
   </g>
   <g id="patch_3">
    <path d="M 72 384.48 
L 72 51.84 
" style="fill:none;stroke:#000000;stroke-linecap:square;stroke-linejoin:miter;stroke-width:0.8;"/>
   </g>
   <g id="patch_4">
    <path d="M 518.4 384.48 
L 518.4 51.84 
" style="fill:none;stroke:#000000;stroke-linecap:square;stroke-linejoin:miter;stroke-width:0.8;"/>
   </g>
   <g id="patch_5">
    <path d="M 72 384.48 
L 518.4 384.48 
" style="fill:none;stroke:#000000;stroke-linecap:square;stroke-linejoin:miter;stroke-width:0.8;"/>
   </g>
   <g id="patch_6">
    <path d="M 72 51.84 
L 518.4 51.84 
" style="fill:none;stroke:#000000;stroke-linecap:square;stroke-linejoin:miter;stroke-width:0.8;"/>
   </g>
   <g id="legend_1">
    <g id="patch_7">
     <path d="M 79 379.48 
L 180.740625 379.48 
Q 182.740625 379.48 182.740625 377.48 
L 182.740625 288.7425 
Q 182.740625 286.7425 180.740625 286.7425 
L 79 286.7425 
Q 77 286.7425 77 288.7425 
L 77 377.48 
Q 77 379.48 79 379.48 
z
" style="fill:#ffffff;opacity:0.8;stroke:#cccccc;stroke-linejoin:miter;"/>
    </g>
    <g id="line2d_19">
     <path d="M 81 294.840937 
L 101 294.840937 
" style="fill:none;stroke:#1f77b4;stroke-linecap:square;stroke-width:1.5;"/>
    </g>
    <g id="line2d_20"/>
    <g id="text_15">
     <!-- rand_minres -->
     <g transform="translate(109 298.340937)scale(0.1 -0.1)">
      <defs>
       <path d="M 3263 -1063 
L 3263 -1509 
L -63 -1509 
L -63 -1063 
L 3263 -1063 
z
" id="DejaVuSans-5f" transform="scale(0.015625)"/>
      </defs>
      <use xlink:href="#DejaVuSans-72"/>
      <use x="41.113281" xlink:href="#DejaVuSans-61"/>
      <use x="102.392578" xlink:href="#DejaVuSans-6e"/>
      <use x="165.771484" xlink:href="#DejaVuSans-64"/>
      <use x="229.248047" xlink:href="#DejaVuSans-5f"/>
      <use x="279.248047" xlink:href="#DejaVuSans-6d"/>
      <use x="376.660156" xlink:href="#DejaVuSans-69"/>
      <use x="404.443359" xlink:href="#DejaVuSans-6e"/>
      <use x="467.822266" xlink:href="#DejaVuSans-72"/>
      <use x="506.685547" xlink:href="#DejaVuSans-65"/>
      <use x="568.208984" xlink:href="#DejaVuSans-73"/>
     </g>
    </g>
    <g id="line2d_21">
     <path d="M 81 309.797188 
L 101 309.797188 
" style="fill:none;stroke:#ff7f0e;stroke-linecap:square;stroke-width:1.5;"/>
    </g>
    <g id="line2d_22"/>
    <g id="text_16">
     <!-- grad_minres -->
     <g transform="translate(109 313.297188)scale(0.1 -0.1)">
      <defs>
       <path d="M 2906 1791 
Q 2906 2416 2648 2759 
Q 2391 3103 1925 3103 
Q 1463 3103 1205 2759 
Q 947 2416 947 1791 
Q 947 1169 1205 825 
Q 1463 481 1925 481 
Q 2391 481 2648 825 
Q 2906 1169 2906 1791 
z
M 3481 434 
Q 3481 -459 3084 -895 
Q 2688 -1331 1869 -1331 
Q 1566 -1331 1297 -1286 
Q 1028 -1241 775 -1147 
L 775 -588 
Q 1028 -725 1275 -790 
Q 1522 -856 1778 -856 
Q 2344 -856 2625 -561 
Q 2906 -266 2906 331 
L 2906 616 
Q 2728 306 2450 153 
Q 2172 0 1784 0 
Q 1141 0 747 490 
Q 353 981 353 1791 
Q 353 2603 747 3093 
Q 1141 3584 1784 3584 
Q 2172 3584 2450 3431 
Q 2728 3278 2906 2969 
L 2906 3500 
L 3481 3500 
L 3481 434 
z
" id="DejaVuSans-67" transform="scale(0.015625)"/>
      </defs>
      <use xlink:href="#DejaVuSans-67"/>
      <use x="63.476562" xlink:href="#DejaVuSans-72"/>
      <use x="104.589844" xlink:href="#DejaVuSans-61"/>
      <use x="165.869141" xlink:href="#DejaVuSans-64"/>
      <use x="229.345703" xlink:href="#DejaVuSans-5f"/>
      <use x="279.345703" xlink:href="#DejaVuSans-6d"/>
      <use x="376.757812" xlink:href="#DejaVuSans-69"/>
      <use x="404.541016" xlink:href="#DejaVuSans-6e"/>
      <use x="467.919922" xlink:href="#DejaVuSans-72"/>
      <use x="506.783203" xlink:href="#DejaVuSans-65"/>
      <use x="568.306641" xlink:href="#DejaVuSans-73"/>
     </g>
    </g>
    <g id="line2d_23">
     <path d="M 81 324.753438 
L 101 324.753438 
" style="fill:none;stroke:#2ca02c;stroke-linecap:square;stroke-width:1.5;"/>
    </g>
    <g id="line2d_24"/>
    <g id="text_17">
     <!-- krylov_minres -->
     <g transform="translate(109 328.253438)scale(0.1 -0.1)">
      <defs>
       <path d="M 581 4863 
L 1159 4863 
L 1159 1991 
L 2875 3500 
L 3609 3500 
L 1753 1863 
L 3688 0 
L 2938 0 
L 1159 1709 
L 1159 0 
L 581 0 
L 581 4863 
z
" id="DejaVuSans-6b" transform="scale(0.015625)"/>
       <path d="M 2059 -325 
Q 1816 -950 1584 -1140 
Q 1353 -1331 966 -1331 
L 506 -1331 
L 506 -850 
L 844 -850 
Q 1081 -850 1212 -737 
Q 1344 -625 1503 -206 
L 1606 56 
L 191 3500 
L 800 3500 
L 1894 763 
L 2988 3500 
L 3597 3500 
L 2059 -325 
z
" id="DejaVuSans-79" transform="scale(0.015625)"/>
       <path d="M 191 3500 
L 800 3500 
L 1894 563 
L 2988 3500 
L 3597 3500 
L 2284 0 
L 1503 0 
L 191 3500 
z
" id="DejaVuSans-76" transform="scale(0.015625)"/>
      </defs>
      <use xlink:href="#DejaVuSans-6b"/>
      <use x="57.910156" xlink:href="#DejaVuSans-72"/>
      <use x="99.023438" xlink:href="#DejaVuSans-79"/>
      <use x="158.203125" xlink:href="#DejaVuSans-6c"/>
      <use x="185.986328" xlink:href="#DejaVuSans-6f"/>
      <use x="247.167969" xlink:href="#DejaVuSans-76"/>
      <use x="306.347656" xlink:href="#DejaVuSans-5f"/>
      <use x="356.347656" xlink:href="#DejaVuSans-6d"/>
      <use x="453.759766" xlink:href="#DejaVuSans-69"/>
      <use x="481.542969" xlink:href="#DejaVuSans-6e"/>
      <use x="544.921875" xlink:href="#DejaVuSans-72"/>
      <use x="583.785156" xlink:href="#DejaVuSans-65"/>
      <use x="645.308594" xlink:href="#DejaVuSans-73"/>
     </g>
    </g>
    <g id="line2d_25">
     <path d="M 81 339.709687 
L 101 339.709687 
" style="fill:none;stroke:#d62728;stroke-linecap:square;stroke-width:1.5;"/>
    </g>
    <g id="line2d_26"/>
    <g id="text_18">
     <!-- rand_fom -->
     <g transform="translate(109 343.209687)scale(0.1 -0.1)">
      <use xlink:href="#DejaVuSans-72"/>
      <use x="41.113281" xlink:href="#DejaVuSans-61"/>
      <use x="102.392578" xlink:href="#DejaVuSans-6e"/>
      <use x="165.771484" xlink:href="#DejaVuSans-64"/>
      <use x="229.248047" xlink:href="#DejaVuSans-5f"/>
      <use x="279.248047" xlink:href="#DejaVuSans-66"/>
      <use x="314.453125" xlink:href="#DejaVuSans-6f"/>
      <use x="375.634766" xlink:href="#DejaVuSans-6d"/>
     </g>
    </g>
    <g id="line2d_27">
     <path d="M 81 354.665937 
L 101 354.665937 
" style="fill:none;stroke:#9467bd;stroke-linecap:square;stroke-width:1.5;"/>
    </g>
    <g id="line2d_28"/>
    <g id="text_19">
     <!-- grad_fom -->
     <g transform="translate(109 358.165937)scale(0.1 -0.1)">
      <use xlink:href="#DejaVuSans-67"/>
      <use x="63.476562" xlink:href="#DejaVuSans-72"/>
      <use x="104.589844" xlink:href="#DejaVuSans-61"/>
      <use x="165.869141" xlink:href="#DejaVuSans-64"/>
      <use x="229.345703" xlink:href="#DejaVuSans-5f"/>
      <use x="279.345703" xlink:href="#DejaVuSans-66"/>
      <use x="314.550781" xlink:href="#DejaVuSans-6f"/>
      <use x="375.732422" xlink:href="#DejaVuSans-6d"/>
     </g>
    </g>
    <g id="line2d_29">
     <path d="M 81 369.622187 
L 101 369.622187 
" style="fill:none;stroke:#8c564b;stroke-linecap:square;stroke-width:1.5;"/>
    </g>
    <g id="line2d_30"/>
    <g id="text_20">
     <!-- krylov_fom -->
     <g transform="translate(109 373.122187)scale(0.1 -0.1)">
      <use xlink:href="#DejaVuSans-6b"/>
      <use x="57.910156" xlink:href="#DejaVuSans-72"/>
      <use x="99.023438" xlink:href="#DejaVuSans-79"/>
      <use x="158.203125" xlink:href="#DejaVuSans-6c"/>
      <use x="185.986328" xlink:href="#DejaVuSans-6f"/>
      <use x="247.167969" xlink:href="#DejaVuSans-76"/>
      <use x="306.347656" xlink:href="#DejaVuSans-5f"/>
      <use x="356.347656" xlink:href="#DejaVuSans-66"/>
      <use x="391.552734" xlink:href="#DejaVuSans-6f"/>
      <use x="452.734375" xlink:href="#DejaVuSans-6d"/>
     </g>
    </g>
   </g>
  </g>
 </g>
 <defs>
  <clipPath id="p912593337c">
   <rect height="332.64" width="446.4" x="72" y="51.84"/>
  </clipPath>
 </defs>
</svg>
