<?xml version="1.0" encoding="utf-8" standalone="no"?>
<!DOCTYPE svg PUBLIC "-//W3C//DTD SVG 1.1//EN"
  "http://www.w3.org/Graphics/SVG/1.1/DTD/svg11.dtd">
<svg height="432pt" version="1.1" viewBox="0 0 576 432" width="576pt" xmlns="http://www.w3.org/2000/svg" xmlns:xlink="http://www.w3.org/1999/xlink">
 <metadata>
  <rdf:RDF xmlns:cc="http://creativecommons.org/ns#" xmlns:dc="http://purl.org/dc/elements/1.1/" xmlns:rdf="http://www.w3.org/1999/02/22-rdf-syntax-ns#">
   <cc:Work>
    <dc:type rdf:resource="http://purl.org/dc/dcmitype/StillImage"/>
    <dc:date>2021-07-14T09:46:24.126232</dc:date>
    <dc:format>image/svg+xml</dc:format>
    <dc:creator>
     <cc:Agent>
      <dc:title>Matplotlib v3.4.2, https://matplotlib.org/</dc:title>
     </cc:Agent>
    </dc:creator>
   </cc:Work>
  </rdf:RDF>
 </metadata>
 <defs>
  <style type="text/css">*{stroke-linecap:butt;stroke-linejoin:round;}</style>
 </defs>
 <g id="figure_1">
  <g id="patch_1">
   <path d="M 0 432 
L 576 432 
L 576 0 
L 0 0 
z
" style="fill:#ffffff;"/>
  </g>
  <g id="axes_1">
   <g id="patch_2">
    <path d="M 72 384.48 
L 518.4 384.48 
L 518.4 51.84 
L 72 51.84 
z
" style="fill:#ffffff;"/>
   </g>
   <g id="matplotlib.axis_1">
    <g id="xtick_1">
     <g id="line2d_1">
      <defs>
       <path d="M 0 0 
L 0 3.5 
" id="m88f1763381" style="stroke:#000000;stroke-width:0.8;"/>
      </defs>
      <g>
       <use style="stroke:#000000;stroke-width:0.8;" x="92.290909" xlink:href="#m88f1763381" y="384.48"/>
      </g>
     </g>
     <g id="text_1">
      <!-- 0 -->
      <g transform="translate(89.109659 399.078438)scale(0.1 -0.1)">
       <defs>
        <path d="M 2034 4250 
Q 1547 4250 1301 3770 
Q 1056 3291 1056 2328 
Q 1056 1369 1301 889 
Q 1547 409 2034 409 
Q 2525 409 2770 889 
Q 3016 1369 3016 2328 
Q 3016 3291 2770 3770 
Q 2525 4250 2034 4250 
z
M 2034 4750 
Q 2819 4750 3233 4129 
Q 3647 3509 3647 2328 
Q 3647 1150 3233 529 
Q 2819 -91 2034 -91 
Q 1250 -91 836 529 
Q 422 1150 422 2328 
Q 422 3509 836 4129 
Q 1250 4750 2034 4750 
z
" id="DejaVuSans-30" transform="scale(0.015625)"/>
       </defs>
       <use xlink:href="#DejaVuSans-30"/>
      </g>
     </g>
    </g>
    <g id="xtick_2">
     <g id="line2d_2">
      <g>
       <use style="stroke:#000000;stroke-width:0.8;" x="173.454545" xlink:href="#m88f1763381" y="384.48"/>
      </g>
     </g>
     <g id="text_2">
      <!-- 20 -->
      <g transform="translate(167.092045 399.078438)scale(0.1 -0.1)">
       <defs>
        <path d="M 1228 531 
L 3431 531 
L 3431 0 
L 469 0 
L 469 531 
Q 828 903 1448 1529 
Q 2069 2156 2228 2338 
Q 2531 2678 2651 2914 
Q 2772 3150 2772 3378 
Q 2772 3750 2511 3984 
Q 2250 4219 1831 4219 
Q 1534 4219 1204 4116 
Q 875 4013 500 3803 
L 500 4441 
Q 881 4594 1212 4672 
Q 1544 4750 1819 4750 
Q 2544 4750 2975 4387 
Q 3406 4025 3406 3419 
Q 3406 3131 3298 2873 
Q 3191 2616 2906 2266 
Q 2828 2175 2409 1742 
Q 1991 1309 1228 531 
z
" id="DejaVuSans-32" transform="scale(0.015625)"/>
       </defs>
       <use xlink:href="#DejaVuSans-32"/>
       <use x="63.623047" xlink:href="#DejaVuSans-30"/>
      </g>
     </g>
    </g>
    <g id="xtick_3">
     <g id="line2d_3">
      <g>
       <use style="stroke:#000000;stroke-width:0.8;" x="254.618182" xlink:href="#m88f1763381" y="384.48"/>
      </g>
     </g>
     <g id="text_3">
      <!-- 40 -->
      <g transform="translate(248.255682 399.078438)scale(0.1 -0.1)">
       <defs>
        <path d="M 2419 4116 
L 825 1625 
L 2419 1625 
L 2419 4116 
z
M 2253 4666 
L 3047 4666 
L 3047 1625 
L 3713 1625 
L 3713 1100 
L 3047 1100 
L 3047 0 
L 2419 0 
L 2419 1100 
L 313 1100 
L 313 1709 
L 2253 4666 
z
" id="DejaVuSans-34" transform="scale(0.015625)"/>
       </defs>
       <use xlink:href="#DejaVuSans-34"/>
       <use x="63.623047" xlink:href="#DejaVuSans-30"/>
      </g>
     </g>
    </g>
    <g id="xtick_4">
     <g id="line2d_4">
      <g>
       <use style="stroke:#000000;stroke-width:0.8;" x="335.781818" xlink:href="#m88f1763381" y="384.48"/>
      </g>
     </g>
     <g id="text_4">
      <!-- 60 -->
      <g transform="translate(329.419318 399.078438)scale(0.1 -0.1)">
       <defs>
        <path d="M 2113 2584 
Q 1688 2584 1439 2293 
Q 1191 2003 1191 1497 
Q 1191 994 1439 701 
Q 1688 409 2113 409 
Q 2538 409 2786 701 
Q 3034 994 3034 1497 
Q 3034 2003 2786 2293 
Q 2538 2584 2113 2584 
z
M 3366 4563 
L 3366 3988 
Q 3128 4100 2886 4159 
Q 2644 4219 2406 4219 
Q 1781 4219 1451 3797 
Q 1122 3375 1075 2522 
Q 1259 2794 1537 2939 
Q 1816 3084 2150 3084 
Q 2853 3084 3261 2657 
Q 3669 2231 3669 1497 
Q 3669 778 3244 343 
Q 2819 -91 2113 -91 
Q 1303 -91 875 529 
Q 447 1150 447 2328 
Q 447 3434 972 4092 
Q 1497 4750 2381 4750 
Q 2619 4750 2861 4703 
Q 3103 4656 3366 4563 
z
" id="DejaVuSans-36" transform="scale(0.015625)"/>
       </defs>
       <use xlink:href="#DejaVuSans-36"/>
       <use x="63.623047" xlink:href="#DejaVuSans-30"/>
      </g>
     </g>
    </g>
    <g id="xtick_5">
     <g id="line2d_5">
      <g>
       <use style="stroke:#000000;stroke-width:0.8;" x="416.945455" xlink:href="#m88f1763381" y="384.48"/>
      </g>
     </g>
     <g id="text_5">
      <!-- 80 -->
      <g transform="translate(410.582955 399.078438)scale(0.1 -0.1)">
       <defs>
        <path d="M 2034 2216 
Q 1584 2216 1326 1975 
Q 1069 1734 1069 1313 
Q 1069 891 1326 650 
Q 1584 409 2034 409 
Q 2484 409 2743 651 
Q 3003 894 3003 1313 
Q 3003 1734 2745 1975 
Q 2488 2216 2034 2216 
z
M 1403 2484 
Q 997 2584 770 2862 
Q 544 3141 544 3541 
Q 544 4100 942 4425 
Q 1341 4750 2034 4750 
Q 2731 4750 3128 4425 
Q 3525 4100 3525 3541 
Q 3525 3141 3298 2862 
Q 3072 2584 2669 2484 
Q 3125 2378 3379 2068 
Q 3634 1759 3634 1313 
Q 3634 634 3220 271 
Q 2806 -91 2034 -91 
Q 1263 -91 848 271 
Q 434 634 434 1313 
Q 434 1759 690 2068 
Q 947 2378 1403 2484 
z
M 1172 3481 
Q 1172 3119 1398 2916 
Q 1625 2713 2034 2713 
Q 2441 2713 2670 2916 
Q 2900 3119 2900 3481 
Q 2900 3844 2670 4047 
Q 2441 4250 2034 4250 
Q 1625 4250 1398 4047 
Q 1172 3844 1172 3481 
z
" id="DejaVuSans-38" transform="scale(0.015625)"/>
       </defs>
       <use xlink:href="#DejaVuSans-38"/>
       <use x="63.623047" xlink:href="#DejaVuSans-30"/>
      </g>
     </g>
    </g>
    <g id="xtick_6">
     <g id="line2d_6">
      <g>
       <use style="stroke:#000000;stroke-width:0.8;" x="498.109091" xlink:href="#m88f1763381" y="384.48"/>
      </g>
     </g>
     <g id="text_6">
      <!-- 100 -->
      <g transform="translate(488.565341 399.078438)scale(0.1 -0.1)">
       <defs>
        <path d="M 794 531 
L 1825 531 
L 1825 4091 
L 703 3866 
L 703 4441 
L 1819 4666 
L 2450 4666 
L 2450 531 
L 3481 531 
L 3481 0 
L 794 0 
L 794 531 
z
" id="DejaVuSans-31" transform="scale(0.015625)"/>
       </defs>
       <use xlink:href="#DejaVuSans-31"/>
       <use x="63.623047" xlink:href="#DejaVuSans-30"/>
       <use x="127.246094" xlink:href="#DejaVuSans-30"/>
      </g>
     </g>
    </g>
    <g id="text_7">
     <!-- Number of iterations -->
     <g transform="translate(243.389062 412.756563)scale(0.1 -0.1)">
      <defs>
       <path d="M 628 4666 
L 1478 4666 
L 3547 763 
L 3547 4666 
L 4159 4666 
L 4159 0 
L 3309 0 
L 1241 3903 
L 1241 0 
L 628 0 
L 628 4666 
z
" id="DejaVuSans-4e" transform="scale(0.015625)"/>
       <path d="M 544 1381 
L 544 3500 
L 1119 3500 
L 1119 1403 
Q 1119 906 1312 657 
Q 1506 409 1894 409 
Q 2359 409 2629 706 
Q 2900 1003 2900 1516 
L 2900 3500 
L 3475 3500 
L 3475 0 
L 2900 0 
L 2900 538 
Q 2691 219 2414 64 
Q 2138 -91 1772 -91 
Q 1169 -91 856 284 
Q 544 659 544 1381 
z
M 1991 3584 
L 1991 3584 
z
" id="DejaVuSans-75" transform="scale(0.015625)"/>
       <path d="M 3328 2828 
Q 3544 3216 3844 3400 
Q 4144 3584 4550 3584 
Q 5097 3584 5394 3201 
Q 5691 2819 5691 2113 
L 5691 0 
L 5113 0 
L 5113 2094 
Q 5113 2597 4934 2840 
Q 4756 3084 4391 3084 
Q 3944 3084 3684 2787 
Q 3425 2491 3425 1978 
L 3425 0 
L 2847 0 
L 2847 2094 
Q 2847 2600 2669 2842 
Q 2491 3084 2119 3084 
Q 1678 3084 1418 2786 
Q 1159 2488 1159 1978 
L 1159 0 
L 581 0 
L 581 3500 
L 1159 3500 
L 1159 2956 
Q 1356 3278 1631 3431 
Q 1906 3584 2284 3584 
Q 2666 3584 2933 3390 
Q 3200 3197 3328 2828 
z
" id="DejaVuSans-6d" transform="scale(0.015625)"/>
       <path d="M 3116 1747 
Q 3116 2381 2855 2742 
Q 2594 3103 2138 3103 
Q 1681 3103 1420 2742 
Q 1159 2381 1159 1747 
Q 1159 1113 1420 752 
Q 1681 391 2138 391 
Q 2594 391 2855 752 
Q 3116 1113 3116 1747 
z
M 1159 2969 
Q 1341 3281 1617 3432 
Q 1894 3584 2278 3584 
Q 2916 3584 3314 3078 
Q 3713 2572 3713 1747 
Q 3713 922 3314 415 
Q 2916 -91 2278 -91 
Q 1894 -91 1617 61 
Q 1341 213 1159 525 
L 1159 0 
L 581 0 
L 581 4863 
L 1159 4863 
L 1159 2969 
z
" id="DejaVuSans-62" transform="scale(0.015625)"/>
       <path d="M 3597 1894 
L 3597 1613 
L 953 1613 
Q 991 1019 1311 708 
Q 1631 397 2203 397 
Q 2534 397 2845 478 
Q 3156 559 3463 722 
L 3463 178 
Q 3153 47 2828 -22 
Q 2503 -91 2169 -91 
Q 1331 -91 842 396 
Q 353 884 353 1716 
Q 353 2575 817 3079 
Q 1281 3584 2069 3584 
Q 2775 3584 3186 3129 
Q 3597 2675 3597 1894 
z
M 3022 2063 
Q 3016 2534 2758 2815 
Q 2500 3097 2075 3097 
Q 1594 3097 1305 2825 
Q 1016 2553 972 2059 
L 3022 2063 
z
" id="DejaVuSans-65" transform="scale(0.015625)"/>
       <path d="M 2631 2963 
Q 2534 3019 2420 3045 
Q 2306 3072 2169 3072 
Q 1681 3072 1420 2755 
Q 1159 2438 1159 1844 
L 1159 0 
L 581 0 
L 581 3500 
L 1159 3500 
L 1159 2956 
Q 1341 3275 1631 3429 
Q 1922 3584 2338 3584 
Q 2397 3584 2469 3576 
Q 2541 3569 2628 3553 
L 2631 2963 
z
" id="DejaVuSans-72" transform="scale(0.015625)"/>
       <path id="DejaVuSans-20" transform="scale(0.015625)"/>
       <path d="M 1959 3097 
Q 1497 3097 1228 2736 
Q 959 2375 959 1747 
Q 959 1119 1226 758 
Q 1494 397 1959 397 
Q 2419 397 2687 759 
Q 2956 1122 2956 1747 
Q 2956 2369 2687 2733 
Q 2419 3097 1959 3097 
z
M 1959 3584 
Q 2709 3584 3137 3096 
Q 3566 2609 3566 1747 
Q 3566 888 3137 398 
Q 2709 -91 1959 -91 
Q 1206 -91 779 398 
Q 353 888 353 1747 
Q 353 2609 779 3096 
Q 1206 3584 1959 3584 
z
" id="DejaVuSans-6f" transform="scale(0.015625)"/>
       <path d="M 2375 4863 
L 2375 4384 
L 1825 4384 
Q 1516 4384 1395 4259 
Q 1275 4134 1275 3809 
L 1275 3500 
L 2222 3500 
L 2222 3053 
L 1275 3053 
L 1275 0 
L 697 0 
L 697 3053 
L 147 3053 
L 147 3500 
L 697 3500 
L 697 3744 
Q 697 4328 969 4595 
Q 1241 4863 1831 4863 
L 2375 4863 
z
" id="DejaVuSans-66" transform="scale(0.015625)"/>
       <path d="M 603 3500 
L 1178 3500 
L 1178 0 
L 603 0 
L 603 3500 
z
M 603 4863 
L 1178 4863 
L 1178 4134 
L 603 4134 
L 603 4863 
z
" id="DejaVuSans-69" transform="scale(0.015625)"/>
       <path d="M 1172 4494 
L 1172 3500 
L 2356 3500 
L 2356 3053 
L 1172 3053 
L 1172 1153 
Q 1172 725 1289 603 
Q 1406 481 1766 481 
L 2356 481 
L 2356 0 
L 1766 0 
Q 1100 0 847 248 
Q 594 497 594 1153 
L 594 3053 
L 172 3053 
L 172 3500 
L 594 3500 
L 594 4494 
L 1172 4494 
z
" id="DejaVuSans-74" transform="scale(0.015625)"/>
       <path d="M 2194 1759 
Q 1497 1759 1228 1600 
Q 959 1441 959 1056 
Q 959 750 1161 570 
Q 1363 391 1709 391 
Q 2188 391 2477 730 
Q 2766 1069 2766 1631 
L 2766 1759 
L 2194 1759 
z
M 3341 1997 
L 3341 0 
L 2766 0 
L 2766 531 
Q 2569 213 2275 61 
Q 1981 -91 1556 -91 
Q 1019 -91 701 211 
Q 384 513 384 1019 
Q 384 1609 779 1909 
Q 1175 2209 1959 2209 
L 2766 2209 
L 2766 2266 
Q 2766 2663 2505 2880 
Q 2244 3097 1772 3097 
Q 1472 3097 1187 3025 
Q 903 2953 641 2809 
L 641 3341 
Q 956 3463 1253 3523 
Q 1550 3584 1831 3584 
Q 2591 3584 2966 3190 
Q 3341 2797 3341 1997 
z
" id="DejaVuSans-61" transform="scale(0.015625)"/>
       <path d="M 3513 2113 
L 3513 0 
L 2938 0 
L 2938 2094 
Q 2938 2591 2744 2837 
Q 2550 3084 2163 3084 
Q 1697 3084 1428 2787 
Q 1159 2491 1159 1978 
L 1159 0 
L 581 0 
L 581 3500 
L 1159 3500 
L 1159 2956 
Q 1366 3272 1645 3428 
Q 1925 3584 2291 3584 
Q 2894 3584 3203 3211 
Q 3513 2838 3513 2113 
z
" id="DejaVuSans-6e" transform="scale(0.015625)"/>
       <path d="M 2834 3397 
L 2834 2853 
Q 2591 2978 2328 3040 
Q 2066 3103 1784 3103 
Q 1356 3103 1142 2972 
Q 928 2841 928 2578 
Q 928 2378 1081 2264 
Q 1234 2150 1697 2047 
L 1894 2003 
Q 2506 1872 2764 1633 
Q 3022 1394 3022 966 
Q 3022 478 2636 193 
Q 2250 -91 1575 -91 
Q 1294 -91 989 -36 
Q 684 19 347 128 
L 347 722 
Q 666 556 975 473 
Q 1284 391 1588 391 
Q 1994 391 2212 530 
Q 2431 669 2431 922 
Q 2431 1156 2273 1281 
Q 2116 1406 1581 1522 
L 1381 1569 
Q 847 1681 609 1914 
Q 372 2147 372 2553 
Q 372 3047 722 3315 
Q 1072 3584 1716 3584 
Q 2034 3584 2315 3537 
Q 2597 3491 2834 3397 
z
" id="DejaVuSans-73" transform="scale(0.015625)"/>
      </defs>
      <use xlink:href="#DejaVuSans-4e"/>
      <use x="74.804688" xlink:href="#DejaVuSans-75"/>
      <use x="138.183594" xlink:href="#DejaVuSans-6d"/>
      <use x="235.595703" xlink:href="#DejaVuSans-62"/>
      <use x="299.072266" xlink:href="#DejaVuSans-65"/>
      <use x="360.595703" xlink:href="#DejaVuSans-72"/>
      <use x="401.708984" xlink:href="#DejaVuSans-20"/>
      <use x="433.496094" xlink:href="#DejaVuSans-6f"/>
      <use x="494.677734" xlink:href="#DejaVuSans-66"/>
      <use x="529.882812" xlink:href="#DejaVuSans-20"/>
      <use x="561.669922" xlink:href="#DejaVuSans-69"/>
      <use x="589.453125" xlink:href="#DejaVuSans-74"/>
      <use x="628.662109" xlink:href="#DejaVuSans-65"/>
      <use x="690.185547" xlink:href="#DejaVuSans-72"/>
      <use x="731.298828" xlink:href="#DejaVuSans-61"/>
      <use x="792.578125" xlink:href="#DejaVuSans-74"/>
      <use x="831.787109" xlink:href="#DejaVuSans-69"/>
      <use x="859.570312" xlink:href="#DejaVuSans-6f"/>
      <use x="920.751953" xlink:href="#DejaVuSans-6e"/>
      <use x="984.130859" xlink:href="#DejaVuSans-73"/>
     </g>
    </g>
   </g>
   <g id="matplotlib.axis_2">
    <g id="ytick_1">
     <g id="line2d_7">
      <defs>
       <path d="M 0 0 
L -3.5 0 
" id="m546b398a2e" style="stroke:#000000;stroke-width:0.8;"/>
      </defs>
      <g>
       <use style="stroke:#000000;stroke-width:0.8;" x="72" xlink:href="#m546b398a2e" y="353.035262"/>
      </g>
     </g>
     <g id="text_8">
      <!-- $\mathdefault{10^{-11}}$ -->
      <g transform="translate(37.1 356.83448)scale(0.1 -0.1)">
       <defs>
        <path d="M 678 2272 
L 4684 2272 
L 4684 1741 
L 678 1741 
L 678 2272 
z
" id="DejaVuSans-2212" transform="scale(0.015625)"/>
       </defs>
       <use transform="translate(0 0.684375)" xlink:href="#DejaVuSans-31"/>
       <use transform="translate(63.623047 0.684375)" xlink:href="#DejaVuSans-30"/>
       <use transform="translate(128.203125 38.965625)scale(0.7)" xlink:href="#DejaVuSans-2212"/>
       <use transform="translate(186.855469 38.965625)scale(0.7)" xlink:href="#DejaVuSans-31"/>
       <use transform="translate(231.391602 38.965625)scale(0.7)" xlink:href="#DejaVuSans-31"/>
      </g>
     </g>
    </g>
    <g id="ytick_2">
     <g id="line2d_8">
      <g>
       <use style="stroke:#000000;stroke-width:0.8;" x="72" xlink:href="#m546b398a2e" y="306.893384"/>
      </g>
     </g>
     <g id="text_9">
      <!-- $\mathdefault{10^{-8}}$ -->
      <g transform="translate(41.5 310.692603)scale(0.1 -0.1)">
       <use transform="translate(0 0.765625)" xlink:href="#DejaVuSans-31"/>
       <use transform="translate(63.623047 0.765625)" xlink:href="#DejaVuSans-30"/>
       <use transform="translate(128.203125 39.046875)scale(0.7)" xlink:href="#DejaVuSans-2212"/>
       <use transform="translate(186.855469 39.046875)scale(0.7)" xlink:href="#DejaVuSans-38"/>
      </g>
     </g>
    </g>
    <g id="ytick_3">
     <g id="line2d_9">
      <g>
       <use style="stroke:#000000;stroke-width:0.8;" x="72" xlink:href="#m546b398a2e" y="260.751507"/>
      </g>
     </g>
     <g id="text_10">
      <!-- $\mathdefault{10^{-5}}$ -->
      <g transform="translate(41.5 264.550726)scale(0.1 -0.1)">
       <defs>
        <path d="M 691 4666 
L 3169 4666 
L 3169 4134 
L 1269 4134 
L 1269 2991 
Q 1406 3038 1543 3061 
Q 1681 3084 1819 3084 
Q 2600 3084 3056 2656 
Q 3513 2228 3513 1497 
Q 3513 744 3044 326 
Q 2575 -91 1722 -91 
Q 1428 -91 1123 -41 
Q 819 9 494 109 
L 494 744 
Q 775 591 1075 516 
Q 1375 441 1709 441 
Q 2250 441 2565 725 
Q 2881 1009 2881 1497 
Q 2881 1984 2565 2268 
Q 2250 2553 1709 2553 
Q 1456 2553 1204 2497 
Q 953 2441 691 2322 
L 691 4666 
z
" id="DejaVuSans-35" transform="scale(0.015625)"/>
       </defs>
       <use transform="translate(0 0.684375)" xlink:href="#DejaVuSans-31"/>
       <use transform="translate(63.623047 0.684375)" xlink:href="#DejaVuSans-30"/>
       <use transform="translate(128.203125 38.965625)scale(0.7)" xlink:href="#DejaVuSans-2212"/>
       <use transform="translate(186.855469 38.965625)scale(0.7)" xlink:href="#DejaVuSans-35"/>
      </g>
     </g>
    </g>
    <g id="ytick_4">
     <g id="line2d_10">
      <g>
       <use style="stroke:#000000;stroke-width:0.8;" x="72" xlink:href="#m546b398a2e" y="214.609629"/>
      </g>
     </g>
     <g id="text_11">
      <!-- $\mathdefault{10^{-2}}$ -->
      <g transform="translate(41.5 218.408848)scale(0.1 -0.1)">
       <use transform="translate(0 0.765625)" xlink:href="#DejaVuSans-31"/>
       <use transform="translate(63.623047 0.765625)" xlink:href="#DejaVuSans-30"/>
       <use transform="translate(128.203125 39.046875)scale(0.7)" xlink:href="#DejaVuSans-2212"/>
       <use transform="translate(186.855469 39.046875)scale(0.7)" xlink:href="#DejaVuSans-32"/>
      </g>
     </g>
    </g>
    <g id="ytick_5">
     <g id="line2d_11">
      <g>
       <use style="stroke:#000000;stroke-width:0.8;" x="72" xlink:href="#m546b398a2e" y="168.467752"/>
      </g>
     </g>
     <g id="text_12">
      <!-- $\mathdefault{10^{1}}$ -->
      <g transform="translate(47.4 172.266971)scale(0.1 -0.1)">
       <use transform="translate(0 0.684375)" xlink:href="#DejaVuSans-31"/>
       <use transform="translate(63.623047 0.684375)" xlink:href="#DejaVuSans-30"/>
       <use transform="translate(128.203125 38.965625)scale(0.7)" xlink:href="#DejaVuSans-31"/>
      </g>
     </g>
    </g>
    <g id="ytick_6">
     <g id="line2d_12">
      <g>
       <use style="stroke:#000000;stroke-width:0.8;" x="72" xlink:href="#m546b398a2e" y="122.325875"/>
      </g>
     </g>
     <g id="text_13">
      <!-- $\mathdefault{10^{4}}$ -->
      <g transform="translate(47.4 126.125094)scale(0.1 -0.1)">
       <use transform="translate(0 0.684375)" xlink:href="#DejaVuSans-31"/>
       <use transform="translate(63.623047 0.684375)" xlink:href="#DejaVuSans-30"/>
       <use transform="translate(128.203125 38.965625)scale(0.7)" xlink:href="#DejaVuSans-34"/>
      </g>
     </g>
    </g>
    <g id="ytick_7">
     <g id="line2d_13">
      <g>
       <use style="stroke:#000000;stroke-width:0.8;" x="72" xlink:href="#m546b398a2e" y="76.183997"/>
      </g>
     </g>
     <g id="text_14">
      <!-- $\mathdefault{10^{7}}$ -->
      <g transform="translate(47.4 79.983216)scale(0.1 -0.1)">
       <defs>
        <path d="M 525 4666 
L 3525 4666 
L 3525 4397 
L 1831 0 
L 1172 0 
L 2766 4134 
L 525 4134 
L 525 4666 
z
" id="DejaVuSans-37" transform="scale(0.015625)"/>
       </defs>
       <use transform="translate(0 0.684375)" xlink:href="#DejaVuSans-31"/>
       <use transform="translate(63.623047 0.684375)" xlink:href="#DejaVuSans-30"/>
       <use transform="translate(128.203125 38.965625)scale(0.7)" xlink:href="#DejaVuSans-37"/>
      </g>
     </g>
    </g>
    <g id="text_15">
     <!-- Norm of the residuals -->
     <g transform="translate(31.020312 272.004531)rotate(-90)scale(0.1 -0.1)">
      <defs>
       <path d="M 3513 2113 
L 3513 0 
L 2938 0 
L 2938 2094 
Q 2938 2591 2744 2837 
Q 2550 3084 2163 3084 
Q 1697 3084 1428 2787 
Q 1159 2491 1159 1978 
L 1159 0 
L 581 0 
L 581 4863 
L 1159 4863 
L 1159 2956 
Q 1366 3272 1645 3428 
Q 1925 3584 2291 3584 
Q 2894 3584 3203 3211 
Q 3513 2838 3513 2113 
z
" id="DejaVuSans-68" transform="scale(0.015625)"/>
       <path d="M 2906 2969 
L 2906 4863 
L 3481 4863 
L 3481 0 
L 2906 0 
L 2906 525 
Q 2725 213 2448 61 
Q 2172 -91 1784 -91 
Q 1150 -91 751 415 
Q 353 922 353 1747 
Q 353 2572 751 3078 
Q 1150 3584 1784 3584 
Q 2172 3584 2448 3432 
Q 2725 3281 2906 2969 
z
M 947 1747 
Q 947 1113 1208 752 
Q 1469 391 1925 391 
Q 2381 391 2643 752 
Q 2906 1113 2906 1747 
Q 2906 2381 2643 2742 
Q 2381 3103 1925 3103 
Q 1469 3103 1208 2742 
Q 947 2381 947 1747 
z
" id="DejaVuSans-64" transform="scale(0.015625)"/>
       <path d="M 603 4863 
L 1178 4863 
L 1178 0 
L 603 0 
L 603 4863 
z
" id="DejaVuSans-6c" transform="scale(0.015625)"/>
      </defs>
      <use xlink:href="#DejaVuSans-4e"/>
      <use x="74.804688" xlink:href="#DejaVuSans-6f"/>
      <use x="135.986328" xlink:href="#DejaVuSans-72"/>
      <use x="175.349609" xlink:href="#DejaVuSans-6d"/>
      <use x="272.761719" xlink:href="#DejaVuSans-20"/>
      <use x="304.548828" xlink:href="#DejaVuSans-6f"/>
      <use x="365.730469" xlink:href="#DejaVuSans-66"/>
      <use x="400.935547" xlink:href="#DejaVuSans-20"/>
      <use x="432.722656" xlink:href="#DejaVuSans-74"/>
      <use x="471.931641" xlink:href="#DejaVuSans-68"/>
      <use x="535.310547" xlink:href="#DejaVuSans-65"/>
      <use x="596.833984" xlink:href="#DejaVuSans-20"/>
      <use x="628.621094" xlink:href="#DejaVuSans-72"/>
      <use x="667.484375" xlink:href="#DejaVuSans-65"/>
      <use x="729.007812" xlink:href="#DejaVuSans-73"/>
      <use x="781.107422" xlink:href="#DejaVuSans-69"/>
      <use x="808.890625" xlink:href="#DejaVuSans-64"/>
      <use x="872.367188" xlink:href="#DejaVuSans-75"/>
      <use x="935.746094" xlink:href="#DejaVuSans-61"/>
      <use x="997.025391" xlink:href="#DejaVuSans-6c"/>
      <use x="1024.808594" xlink:href="#DejaVuSans-73"/>
     </g>
    </g>
   </g>
   <g id="line2d_14">
    <path clip-path="url(#p120b17b70b)" d="M 92.290909 136.094404 
L 96.349091 136.200006 
L 100.407273 136.943235 
L 104.465455 137.159758 
L 108.523636 137.575506 
L 112.581818 137.580653 
L 116.64 137.745085 
L 120.698182 137.755544 
L 124.756364 138.233784 
L 128.814545 138.245155 
L 132.872727 138.388333 
L 136.930909 138.394243 
L 140.989091 138.407768 
L 145.047273 138.453142 
L 149.105455 138.481097 
L 153.163636 138.525427 
L 157.221818 138.639113 
L 161.28 138.994249 
L 165.338182 139.124313 
L 169.396364 139.202604 
L 173.454545 139.326866 
L 177.512727 139.367346 
L 181.570909 139.409507 
L 185.629091 139.411413 
L 189.687273 139.767186 
L 193.745455 139.803837 
L 197.803636 139.880324 
L 201.861818 139.887374 
L 205.92 139.930664 
L 209.978182 140.045994 
L 214.036364 140.046979 
L 218.094545 140.234277 
L 222.152727 140.247804 
L 226.210909 140.335563 
L 230.269091 140.340111 
L 234.327273 140.3703 
L 238.385455 140.482109 
L 242.443636 140.507995 
L 246.501818 140.548108 
L 250.56 140.550814 
L 254.618182 140.564211 
L 258.676364 140.575178 
L 262.734545 140.578324 
L 266.792727 140.641903 
L 270.850909 140.643125 
L 274.909091 140.683039 
L 278.967273 140.685381 
L 283.025455 140.752471 
L 287.083636 141.019467 
L 291.141818 141.027492 
L 295.2 141.055594 
L 299.258182 141.06585 
L 303.316364 141.066451 
L 307.374545 141.46052 
L 311.432727 141.462156 
L 315.490909 141.967821 
L 319.549091 141.994581 
L 323.607273 142.760018 
L 327.665455 142.763286 
L 331.723636 142.763847 
L 335.781818 142.783929 
L 339.84 143.009821 
L 343.898182 143.147465 
L 347.956364 143.299064 
L 352.014545 143.754375 
L 356.072727 143.754456 
L 360.130909 143.915028 
L 364.189091 143.934029 
L 368.247273 143.959796 
L 372.305455 145.226366 
L 376.363636 145.236002 
L 380.421818 145.357551 
L 384.48 145.45353 
L 388.538182 145.498691 
L 392.596364 146.551926 
L 396.654545 146.612827 
L 400.712727 146.852114 
L 404.770909 146.890492 
L 408.829091 147.279447 
L 412.887273 147.339917 
L 416.945455 150.492599 
L 421.003636 151.711267 
L 425.061818 151.713691 
L 429.12 153.176508 
L 433.178182 153.904391 
L 437.236364 153.911384 
L 441.294545 155.876399 
L 445.352727 155.88179 
L 449.410909 156.600444 
L 453.469091 156.618033 
L 457.527273 156.895451 
L 461.585455 157.197778 
L 465.643636 159.434076 
L 469.701818 161.670859 
L 473.76 162.494579 
L 477.818182 167.8242 
L 481.876364 169.65473 
L 485.934545 170.259038 
L 489.992727 171.947165 
L 494.050909 181.518536 
L 498.109091 352.206698 
" style="fill:none;stroke:#1f77b4;stroke-linecap:square;stroke-width:1.5;"/>
   </g>
   <g id="line2d_15">
    <path clip-path="url(#p120b17b70b)" d="M 92.290909 136.094404 
L 96.349091 140.957578 
L 100.407273 143.298253 
L 104.465455 145.109238 
L 108.523636 146.917938 
L 112.581818 148.961952 
L 116.64 150.620642 
L 120.698182 151.611956 
L 124.756364 152.277155 
L 128.814545 152.70179 
L 132.872727 153.578537 
L 136.930909 154.299453 
L 140.989091 154.882124 
L 145.047273 155.568624 
L 149.105455 155.953299 
L 153.163636 156.3964 
L 157.221818 156.981743 
L 161.28 157.766421 
L 165.338182 158.602584 
L 169.396364 159.037426 
L 173.454545 159.621001 
L 177.512727 160.191724 
L 181.570909 160.577806 
L 185.629091 160.918058 
L 189.687273 161.3052 
L 193.745455 161.707809 
L 197.803636 162.204233 
L 201.861818 162.659711 
L 205.92 163.069511 
L 209.978182 163.451564 
L 214.036364 164.060723 
L 218.094545 164.839644 
L 222.152727 165.731465 
L 226.210909 166.185327 
L 230.269091 166.699934 
L 234.327273 167.157752 
L 238.385455 167.487432 
L 242.443636 167.895538 
L 246.501818 168.24127 
L 250.56 168.748585 
L 254.618182 169.100328 
L 258.676364 169.473464 
L 262.734545 169.754487 
L 266.792727 170.010743 
L 270.850909 170.257969 
L 274.909091 170.45321 
L 278.967273 170.699302 
L 283.025455 170.95639 
L 287.083636 171.179752 
L 291.141818 171.375966 
L 295.2 171.60494 
L 299.258182 171.803602 
L 303.316364 172.119978 
L 307.374545 172.319049 
L 311.432727 172.558083 
L 315.490909 172.784299 
L 319.549091 172.980441 
L 323.607273 173.08773 
L 327.665455 173.340122 
L 331.723636 173.51661 
L 335.781818 173.69994 
L 339.84 173.949037 
L 343.898182 174.308745 
L 347.956364 174.529331 
L 352.014545 174.788637 
L 356.072727 175.28318 
L 360.130909 176.121111 
L 364.189091 176.918884 
L 368.247273 177.84051 
L 372.305455 178.512364 
L 376.363636 179.794145 
L 380.421818 180.482171 
L 384.48 180.754033 
L 388.538182 181.478667 
L 392.596364 181.740975 
L 396.654545 182.151016 
L 400.712727 182.406799 
L 404.770909 182.644983 
L 408.829091 182.78542 
L 412.887273 183.014076 
L 416.945455 183.415979 
L 421.003636 183.758999 
L 425.061818 184.190093 
L 429.12 184.623856 
L 433.178182 184.837377 
L 437.236364 185.139957 
L 441.294545 185.923635 
L 445.352727 186.528263 
L 449.410909 187.58095 
L 453.469091 188.019631 
L 457.527273 188.543894 
L 461.585455 189.161524 
L 465.643636 189.475177 
L 469.701818 189.705393 
L 473.76 190.124402 
L 477.818182 190.628728 
L 481.876364 190.730343 
L 485.934545 190.933012 
L 489.992727 191.430007 
L 494.050909 191.676333 
L 498.109091 364.330393 
" style="fill:none;stroke:#ff7f0e;stroke-linecap:square;stroke-width:1.5;"/>
   </g>
   <g id="line2d_16">
    <path clip-path="url(#p120b17b70b)" d="M 92.290909 136.094404 
L 96.349091 136.189743 
L 100.407273 136.191978 
L 104.465455 136.239299 
L 108.523636 136.287288 
L 112.581818 136.449922 
L 116.64 136.456418 
L 120.698182 136.616294 
L 124.756364 136.788987 
L 128.814545 137.001512 
L 132.872727 137.002014 
L 136.930909 137.004616 
L 140.989091 137.005452 
L 145.047273 137.21247 
L 149.105455 137.21258 
L 153.163636 137.219565 
L 157.221818 137.701487 
L 161.28 137.92156 
L 165.338182 137.964767 
L 169.396364 138.031431 
L 173.454545 138.033718 
L 177.512727 138.081905 
L 181.570909 138.222386 
L 185.629091 138.419533 
L 189.687273 138.647563 
L 193.745455 138.657662 
L 197.803636 139.043353 
L 201.861818 139.184428 
L 205.92 139.192339 
L 209.978182 139.220936 
L 214.036364 139.231323 
L 218.094545 139.255183 
L 222.152727 139.277241 
L 226.210909 139.333444 
L 230.269091 139.52778 
L 234.327273 139.663916 
L 238.385455 139.707037 
L 242.443636 139.708319 
L 246.501818 139.95494 
L 250.56 140.329523 
L 254.618182 140.33248 
L 258.676364 140.392548 
L 262.734545 140.441871 
L 266.792727 140.452015 
L 270.850909 140.45202 
L 274.909091 140.715376 
L 278.967273 140.947337 
L 283.025455 140.951033 
L 287.083636 141.432827 
L 291.141818 141.556403 
L 295.2 142.398091 
L 299.258182 142.39942 
L 303.316364 142.402579 
L 307.374545 142.588708 
L 311.432727 142.669198 
L 315.490909 142.672268 
L 319.549091 142.77381 
L 323.607273 142.791425 
L 327.665455 142.840423 
L 331.723636 142.851005 
L 335.781818 143.735188 
L 339.84 143.797624 
L 343.898182 143.834081 
L 347.956364 143.902572 
L 352.014545 144.02238 
L 356.072727 144.053776 
L 360.130909 144.431206 
L 364.189091 144.499661 
L 368.247273 144.751203 
L 372.305455 144.959462 
L 376.363636 145.34722 
L 380.421818 145.347417 
L 384.48 146.577272 
L 388.538182 146.801095 
L 392.596364 146.918942 
L 396.654545 147.967617 
L 400.712727 147.972893 
L 404.770909 148.025073 
L 408.829091 148.080668 
L 412.887273 148.785702 
L 416.945455 149.511111 
L 421.003636 151.017682 
L 425.061818 151.255514 
L 429.12 151.386446 
L 433.178182 151.422802 
L 437.236364 151.801969 
L 441.294545 152.372712 
L 445.352727 152.373828 
L 449.410909 152.469284 
L 453.469091 154.659032 
L 457.527273 159.27985 
L 461.585455 159.78622 
L 465.643636 160.370154 
L 469.701818 160.406925 
L 473.76 161.429222 
L 477.818182 161.47479 
L 481.876364 164.090948 
L 485.934545 170.382325 
L 489.992727 170.536466 
L 494.050909 171.020641 
L 498.109091 348.261616 
" style="fill:none;stroke:#2ca02c;stroke-linecap:square;stroke-width:1.5;"/>
   </g>
   <g id="line2d_17">
    <path clip-path="url(#p120b17b70b)" d="M 92.290909 136.094404 
L 96.349091 135.785186 
L 100.407273 135.819395 
L 104.465455 136.016597 
L 108.523636 135.12944 
L 112.581818 133.98873 
L 116.64 120.379062 
L 120.698182 123.157926 
L 124.756364 123.702043 
L 128.814545 130.956476 
L 132.872727 121.952863 
L 136.930909 133.288112 
L 140.989091 118.857635 
L 145.047273 127.996689 
L 149.105455 132.112799 
L 153.163636 124.645183 
L 157.221818 130.622566 
L 161.28 128.785277 
L 165.338182 130.0333 
L 169.396364 123.354093 
L 173.454545 116.767797 
L 177.512727 126.925969 
L 181.570909 118.608441 
L 185.629091 128.977295 
L 189.687273 130.362294 
L 193.745455 130.611609 
L 197.803636 130.502673 
L 201.861818 131.932636 
L 205.92 129.976226 
L 209.978182 130.771807 
L 214.036364 131.995136 
L 218.094545 124.15249 
L 222.152727 132.666939 
L 226.210909 132.435826 
L 230.269091 129.036012 
L 234.327273 135.071724 
L 238.385455 121.622102 
L 242.443636 127.410226 
L 246.501818 130.832412 
L 250.56 130.627305 
L 254.618182 66.96 
L 258.676364 115.737886 
L 262.734545 113.610789 
L 266.792727 112.708661 
L 270.850909 115.952813 
L 274.909091 119.256873 
L 278.967273 113.102045 
L 283.025455 121.116648 
L 287.083636 121.020413 
L 291.141818 112.621806 
L 295.2 126.042421 
L 299.258182 124.994556 
L 303.316364 124.595813 
L 307.374545 121.895227 
L 311.432727 127.923722 
L 315.490909 130.782072 
L 319.549091 131.063979 
L 323.607273 128.959712 
L 327.665455 120.868757 
L 331.723636 118.924959 
L 335.781818 126.56529 
L 339.84 126.311016 
L 343.898182 126.341932 
L 347.956364 129.43118 
L 352.014545 130.324753 
L 356.072727 130.280674 
L 360.130909 128.291646 
L 364.189091 128.355994 
L 368.247273 128.815044 
L 372.305455 125.272973 
L 376.363636 122.155082 
L 380.421818 128.795226 
L 384.48 132.984265 
L 388.538182 120.701676 
L 392.596364 127.795583 
L 396.654545 103.675447 
L 400.712727 130.055508 
L 404.770909 127.921232 
L 408.829091 122.681264 
L 412.887273 130.240724 
L 416.945455 137.064109 
L 421.003636 139.301427 
L 425.061818 137.306826 
L 429.12 141.71804 
L 433.178182 136.893539 
L 437.236364 122.965885 
L 441.294545 123.150017 
L 445.352727 126.935609 
L 449.410909 127.505558 
L 453.469091 129.815326 
L 457.527273 137.256754 
L 461.585455 129.738569 
L 465.643636 146.052793 
L 469.701818 146.207161 
L 473.76 146.266936 
L 477.818182 139.085159 
L 481.876364 132.122074 
L 485.934545 147.98649 
L 489.992727 139.033722 
L 494.050909 144.371496 
L 498.109091 357.377707 
" style="fill:none;stroke:#d62728;stroke-linecap:square;stroke-width:1.5;"/>
   </g>
   <g id="line2d_18">
    <path clip-path="url(#p120b17b70b)" d="M 92.290909 136.094404 
L 96.349091 117.731717 
L 100.407273 139.703782 
L 104.465455 143.612336 
L 108.523636 138.314287 
L 112.581818 141.237806 
L 116.64 144.41857 
L 120.698182 147.211685 
L 124.756364 141.0954 
L 128.814545 146.696143 
L 132.872727 139.060633 
L 136.930909 143.114911 
L 140.989091 150.188278 
L 145.047273 148.126588 
L 149.105455 153.059731 
L 153.163636 147.182426 
L 157.221818 142.539056 
L 161.28 149.699974 
L 165.338182 145.917282 
L 169.396364 145.575271 
L 173.454545 146.234754 
L 177.512727 145.002547 
L 181.570909 139.178428 
L 185.629091 130.091819 
L 189.687273 141.897067 
L 193.745455 146.426021 
L 197.803636 146.453957 
L 201.861818 147.400237 
L 205.92 152.423206 
L 209.978182 155.466572 
L 214.036364 153.872753 
L 218.094545 151.404681 
L 222.152727 156.089947 
L 226.210909 148.640501 
L 230.269091 151.480199 
L 234.327273 145.354916 
L 238.385455 148.965892 
L 242.443636 153.04756 
L 246.501818 149.474081 
L 250.56 152.163545 
L 254.618182 157.115006 
L 258.676364 142.827231 
L 262.734545 152.376445 
L 266.792727 159.975706 
L 270.850909 159.711024 
L 274.909091 159.753241 
L 278.967273 159.862197 
L 283.025455 162.138006 
L 287.083636 162.611104 
L 291.141818 153.132168 
L 295.2 159.26665 
L 299.258182 159.144397 
L 303.316364 159.126074 
L 307.374545 158.40156 
L 311.432727 162.965276 
L 315.490909 159.974134 
L 319.549091 160.588518 
L 323.607273 154.086587 
L 327.665455 141.14026 
L 331.723636 158.370451 
L 335.781818 155.363124 
L 339.84 159.256875 
L 343.898182 155.846145 
L 347.956364 156.758506 
L 352.014545 156.455133 
L 356.072727 155.710407 
L 360.130909 125.074977 
L 364.189091 159.893704 
L 368.247273 147.603174 
L 372.305455 166.024475 
L 376.363636 158.135768 
L 380.421818 158.177801 
L 384.48 163.78547 
L 388.538182 170.018162 
L 392.596364 149.84815 
L 396.654545 165.603818 
L 400.712727 167.344699 
L 404.770909 165.189078 
L 408.829091 167.816576 
L 412.887273 170.998955 
L 416.945455 160.992546 
L 421.003636 161.907695 
L 425.061818 165.093472 
L 429.12 162.34728 
L 433.178182 168.382805 
L 437.236364 166.680296 
L 441.294545 168.839855 
L 445.352727 172.98103 
L 449.410909 168.51875 
L 453.469091 171.265445 
L 457.527273 150.199293 
L 461.585455 166.043573 
L 465.643636 164.979659 
L 469.701818 166.758368 
L 473.76 169.831074 
L 477.818182 169.036255 
L 481.876364 164.647324 
L 485.934545 164.567353 
L 489.992727 174.089446 
L 494.050909 174.011475 
L 498.109091 369.36 
" style="fill:none;stroke:#9467bd;stroke-linecap:square;stroke-width:1.5;"/>
   </g>
   <g id="line2d_19">
    <path clip-path="url(#p120b17b70b)" d="M 92.290909 136.094404 
L 96.349091 124.264808 
L 100.407273 111.778801 
L 104.465455 121.998781 
L 108.523636 122.093221 
L 112.581818 126.275269 
L 116.64 115.60399 
L 120.698182 126.385897 
L 124.756364 126.809774 
L 128.814545 127.695751 
L 132.872727 107.604219 
L 136.930909 113.09885 
L 140.989091 109.306559 
L 145.047273 127.821748 
L 149.105455 102.74555 
L 153.163636 116.609488 
L 157.221818 130.997782 
L 161.28 128.728623 
L 165.338182 123.422533 
L 169.396364 124.925853 
L 173.454545 113.696962 
L 177.512727 123.90156 
L 181.570909 127.569673 
L 185.629091 128.870516 
L 189.687273 129.569316 
L 193.745455 119.277533 
L 197.803636 131.642775 
L 201.861818 128.545508 
L 205.92 118.997684 
L 209.978182 123.307608 
L 214.036364 119.944805 
L 218.094545 122.739285 
L 222.152727 122.500109 
L 226.210909 125.663006 
L 230.269091 129.932213 
L 234.327273 128.908425 
L 238.385455 125.158135 
L 242.443636 113.441077 
L 246.501818 131.129275 
L 250.56 132.836798 
L 254.618182 116.852555 
L 258.676364 126.942351 
L 262.734545 126.338734 
L 266.792727 121.086388 
L 270.850909 95.610121 
L 274.909091 132.100729 
L 278.967273 131.924236 
L 283.025455 118.216752 
L 287.083636 134.728295 
L 291.141818 130.483864 
L 295.2 137.382834 
L 299.258182 116.250262 
L 303.316364 119.143811 
L 307.374545 132.853076 
L 311.432727 130.186231 
L 315.490909 119.318354 
L 319.549091 131.056336 
L 323.607273 125.265319 
L 327.665455 128.715351 
L 331.723636 123.626262 
L 335.781818 138.864102 
L 339.84 130.475352 
L 343.898182 128.727922 
L 347.956364 130.886383 
L 352.014545 132.848285 
L 356.072727 128.45094 
L 360.130909 136.962374 
L 364.189091 131.481776 
L 368.247273 135.989095 
L 372.305455 135.588084 
L 376.363636 137.96349 
L 380.421818 112.819138 
L 384.48 142.644561 
L 388.538182 137.662737 
L 392.596364 135.690725 
L 396.654545 143.588089 
L 400.712727 126.426445 
L 404.770909 134.108589 
L 408.829091 134.374167 
L 412.887273 143.244436 
L 416.945455 144.055173 
L 421.003636 147.633826 
L 425.061818 142.312993 
L 429.12 140.503359 
L 433.178182 136.307388 
L 437.236364 144.34762 
L 441.294545 146.19072 
L 445.352727 125.64107 
L 449.410909 140.5484 
L 453.469091 152.213868 
L 457.527273 158.315956 
L 461.585455 153.235863 
L 465.643636 154.258071 
L 469.701818 145.329174 
L 473.76 156.977117 
L 477.818182 147.109107 
L 481.876364 162.052154 
L 485.934545 169.831577 
L 489.992727 160.186899 
L 494.050909 164.331413 
L 498.109091 367.687003 
" style="fill:none;stroke:#8c564b;stroke-linecap:square;stroke-width:1.5;"/>
   </g>
   <g id="patch_3">
    <path d="M 72 384.48 
L 72 51.84 
" style="fill:none;stroke:#000000;stroke-linecap:square;stroke-linejoin:miter;stroke-width:0.8;"/>
   </g>
   <g id="patch_4">
    <path d="M 518.4 384.48 
L 518.4 51.84 
" style="fill:none;stroke:#000000;stroke-linecap:square;stroke-linejoin:miter;stroke-width:0.8;"/>
   </g>
   <g id="patch_5">
    <path d="M 72 384.48 
L 518.4 384.48 
" style="fill:none;stroke:#000000;stroke-linecap:square;stroke-linejoin:miter;stroke-width:0.8;"/>
   </g>
   <g id="patch_6">
    <path d="M 72 51.84 
L 518.4 51.84 
" style="fill:none;stroke:#000000;stroke-linecap:square;stroke-linejoin:miter;stroke-width:0.8;"/>
   </g>
   <g id="legend_1">
    <g id="patch_7">
     <path d="M 79 379.48 
L 180.740625 379.48 
Q 182.740625 379.48 182.740625 377.48 
L 182.740625 288.7425 
Q 182.740625 286.7425 180.740625 286.7425 
L 79 286.7425 
Q 77 286.7425 77 288.7425 
L 77 377.48 
Q 77 379.48 79 379.48 
z
" style="fill:#ffffff;opacity:0.8;stroke:#cccccc;stroke-linejoin:miter;"/>
    </g>
    <g id="line2d_20">
     <path d="M 81 294.840937 
L 101 294.840937 
" style="fill:none;stroke:#1f77b4;stroke-linecap:square;stroke-width:1.5;"/>
    </g>
    <g id="line2d_21"/>
    <g id="text_16">
     <!-- rand_minres -->
     <g transform="translate(109 298.340937)scale(0.1 -0.1)">
      <defs>
       <path d="M 3263 -1063 
L 3263 -1509 
L -63 -1509 
L -63 -1063 
L 3263 -1063 
z
" id="DejaVuSans-5f" transform="scale(0.015625)"/>
      </defs>
      <use xlink:href="#DejaVuSans-72"/>
      <use x="41.113281" xlink:href="#DejaVuSans-61"/>
      <use x="102.392578" xlink:href="#DejaVuSans-6e"/>
      <use x="165.771484" xlink:href="#DejaVuSans-64"/>
      <use x="229.248047" xlink:href="#DejaVuSans-5f"/>
      <use x="279.248047" xlink:href="#DejaVuSans-6d"/>
      <use x="376.660156" xlink:href="#DejaVuSans-69"/>
      <use x="404.443359" xlink:href="#DejaVuSans-6e"/>
      <use x="467.822266" xlink:href="#DejaVuSans-72"/>
      <use x="506.685547" xlink:href="#DejaVuSans-65"/>
      <use x="568.208984" xlink:href="#DejaVuSans-73"/>
     </g>
    </g>
    <g id="line2d_22">
     <path d="M 81 309.797188 
L 101 309.797188 
" style="fill:none;stroke:#ff7f0e;stroke-linecap:square;stroke-width:1.5;"/>
    </g>
    <g id="line2d_23"/>
    <g id="text_17">
     <!-- grad_minres -->
     <g transform="translate(109 313.297188)scale(0.1 -0.1)">
      <defs>
       <path d="M 2906 1791 
Q 2906 2416 2648 2759 
Q 2391 3103 1925 3103 
Q 1463 3103 1205 2759 
Q 947 2416 947 1791 
Q 947 1169 1205 825 
Q 1463 481 1925 481 
Q 2391 481 2648 825 
Q 2906 1169 2906 1791 
z
M 3481 434 
Q 3481 -459 3084 -895 
Q 2688 -1331 1869 -1331 
Q 1566 -1331 1297 -1286 
Q 1028 -1241 775 -1147 
L 775 -588 
Q 1028 -725 1275 -790 
Q 1522 -856 1778 -856 
Q 2344 -856 2625 -561 
Q 2906 -266 2906 331 
L 2906 616 
Q 2728 306 2450 153 
Q 2172 0 1784 0 
Q 1141 0 747 490 
Q 353 981 353 1791 
Q 353 2603 747 3093 
Q 1141 3584 1784 3584 
Q 2172 3584 2450 3431 
Q 2728 3278 2906 2969 
L 2906 3500 
L 3481 3500 
L 3481 434 
z
" id="DejaVuSans-67" transform="scale(0.015625)"/>
      </defs>
      <use xlink:href="#DejaVuSans-67"/>
      <use x="63.476562" xlink:href="#DejaVuSans-72"/>
      <use x="104.589844" xlink:href="#DejaVuSans-61"/>
      <use x="165.869141" xlink:href="#DejaVuSans-64"/>
      <use x="229.345703" xlink:href="#DejaVuSans-5f"/>
      <use x="279.345703" xlink:href="#DejaVuSans-6d"/>
      <use x="376.757812" xlink:href="#DejaVuSans-69"/>
      <use x="404.541016" xlink:href="#DejaVuSans-6e"/>
      <use x="467.919922" xlink:href="#DejaVuSans-72"/>
      <use x="506.783203" xlink:href="#DejaVuSans-65"/>
      <use x="568.306641" xlink:href="#DejaVuSans-73"/>
     </g>
    </g>
    <g id="line2d_24">
     <path d="M 81 324.753438 
L 101 324.753438 
" style="fill:none;stroke:#2ca02c;stroke-linecap:square;stroke-width:1.5;"/>
    </g>
    <g id="line2d_25"/>
    <g id="text_18">
     <!-- krylov_minres -->
     <g transform="translate(109 328.253438)scale(0.1 -0.1)">
      <defs>
       <path d="M 581 4863 
L 1159 4863 
L 1159 1991 
L 2875 3500 
L 3609 3500 
L 1753 1863 
L 3688 0 
L 2938 0 
L 1159 1709 
L 1159 0 
L 581 0 
L 581 4863 
z
" id="DejaVuSans-6b" transform="scale(0.015625)"/>
       <path d="M 2059 -325 
Q 1816 -950 1584 -1140 
Q 1353 -1331 966 -1331 
L 506 -1331 
L 506 -850 
L 844 -850 
Q 1081 -850 1212 -737 
Q 1344 -625 1503 -206 
L 1606 56 
L 191 3500 
L 800 3500 
L 1894 763 
L 2988 3500 
L 3597 3500 
L 2059 -325 
z
" id="DejaVuSans-79" transform="scale(0.015625)"/>
       <path d="M 191 3500 
L 800 3500 
L 1894 563 
L 2988 3500 
L 3597 3500 
L 2284 0 
L 1503 0 
L 191 3500 
z
" id="DejaVuSans-76" transform="scale(0.015625)"/>
      </defs>
      <use xlink:href="#DejaVuSans-6b"/>
      <use x="57.910156" xlink:href="#DejaVuSans-72"/>
      <use x="99.023438" xlink:href="#DejaVuSans-79"/>
      <use x="158.203125" xlink:href="#DejaVuSans-6c"/>
      <use x="185.986328" xlink:href="#DejaVuSans-6f"/>
      <use x="247.167969" xlink:href="#DejaVuSans-76"/>
      <use x="306.347656" xlink:href="#DejaVuSans-5f"/>
      <use x="356.347656" xlink:href="#DejaVuSans-6d"/>
      <use x="453.759766" xlink:href="#DejaVuSans-69"/>
      <use x="481.542969" xlink:href="#DejaVuSans-6e"/>
      <use x="544.921875" xlink:href="#DejaVuSans-72"/>
      <use x="583.785156" xlink:href="#DejaVuSans-65"/>
      <use x="645.308594" xlink:href="#DejaVuSans-73"/>
     </g>
    </g>
    <g id="line2d_26">
     <path d="M 81 339.709687 
L 101 339.709687 
" style="fill:none;stroke:#d62728;stroke-linecap:square;stroke-width:1.5;"/>
    </g>
    <g id="line2d_27"/>
    <g id="text_19">
     <!-- rand_fom -->
     <g transform="translate(109 343.209687)scale(0.1 -0.1)">
      <use xlink:href="#DejaVuSans-72"/>
      <use x="41.113281" xlink:href="#DejaVuSans-61"/>
      <use x="102.392578" xlink:href="#DejaVuSans-6e"/>
      <use x="165.771484" xlink:href="#DejaVuSans-64"/>
      <use x="229.248047" xlink:href="#DejaVuSans-5f"/>
      <use x="279.248047" xlink:href="#DejaVuSans-66"/>
      <use x="314.453125" xlink:href="#DejaVuSans-6f"/>
      <use x="375.634766" xlink:href="#DejaVuSans-6d"/>
     </g>
    </g>
    <g id="line2d_28">
     <path d="M 81 354.665937 
L 101 354.665937 
" style="fill:none;stroke:#9467bd;stroke-linecap:square;stroke-width:1.5;"/>
    </g>
    <g id="line2d_29"/>
    <g id="text_20">
     <!-- grad_fom -->
     <g transform="translate(109 358.165937)scale(0.1 -0.1)">
      <use xlink:href="#DejaVuSans-67"/>
      <use x="63.476562" xlink:href="#DejaVuSans-72"/>
      <use x="104.589844" xlink:href="#DejaVuSans-61"/>
      <use x="165.869141" xlink:href="#DejaVuSans-64"/>
      <use x="229.345703" xlink:href="#DejaVuSans-5f"/>
      <use x="279.345703" xlink:href="#DejaVuSans-66"/>
      <use x="314.550781" xlink:href="#DejaVuSans-6f"/>
      <use x="375.732422" xlink:href="#DejaVuSans-6d"/>
     </g>
    </g>
    <g id="line2d_30">
     <path d="M 81 369.622187 
L 101 369.622187 
" style="fill:none;stroke:#8c564b;stroke-linecap:square;stroke-width:1.5;"/>
    </g>
    <g id="line2d_31"/>
    <g id="text_21">
     <!-- krylov_fom -->
     <g transform="translate(109 373.122187)scale(0.1 -0.1)">
      <use xlink:href="#DejaVuSans-6b"/>
      <use x="57.910156" xlink:href="#DejaVuSans-72"/>
      <use x="99.023438" xlink:href="#DejaVuSans-79"/>
      <use x="158.203125" xlink:href="#DejaVuSans-6c"/>
      <use x="185.986328" xlink:href="#DejaVuSans-6f"/>
      <use x="247.167969" xlink:href="#DejaVuSans-76"/>
      <use x="306.347656" xlink:href="#DejaVuSans-5f"/>
      <use x="356.347656" xlink:href="#DejaVuSans-66"/>
      <use x="391.552734" xlink:href="#DejaVuSans-6f"/>
      <use x="452.734375" xlink:href="#DejaVuSans-6d"/>
     </g>
    </g>
   </g>
  </g>
 </g>
 <defs>
  <clipPath id="p120b17b70b">
   <rect height="332.64" width="446.4" x="72" y="51.84"/>
  </clipPath>
 </defs>
</svg>
