<?xml version="1.0" encoding="utf-8" standalone="no"?>
<!DOCTYPE svg PUBLIC "-//W3C//DTD SVG 1.1//EN"
  "http://www.w3.org/Graphics/SVG/1.1/DTD/svg11.dtd">
<svg height="432pt" version="1.1" viewBox="0 0 576 432" width="576pt" xmlns="http://www.w3.org/2000/svg" xmlns:xlink="http://www.w3.org/1999/xlink">
 <metadata>
  <rdf:RDF xmlns:cc="http://creativecommons.org/ns#" xmlns:dc="http://purl.org/dc/elements/1.1/" xmlns:rdf="http://www.w3.org/1999/02/22-rdf-syntax-ns#">
   <cc:Work>
    <dc:type rdf:resource="http://purl.org/dc/dcmitype/StillImage"/>
    <dc:date>2021-08-12T21:38:36.728252</dc:date>
    <dc:format>image/svg+xml</dc:format>
    <dc:creator>
     <cc:Agent>
      <dc:title>Matplotlib v3.4.2, https://matplotlib.org/</dc:title>
     </cc:Agent>
    </dc:creator>
   </cc:Work>
  </rdf:RDF>
 </metadata>
 <defs>
  <style type="text/css">*{stroke-linecap:butt;stroke-linejoin:round;}</style>
 </defs>
 <g id="figure_1">
  <g id="patch_1">
   <path d="M 0 432 
L 576 432 
L 576 0 
L 0 0 
z
" style="fill:#ffffff;"/>
  </g>
  <g id="axes_1">
   <g id="patch_2">
    <path d="M 72 384.48 
L 518.4 384.48 
L 518.4 51.84 
L 72 51.84 
z
" style="fill:#ffffff;"/>
   </g>
   <g id="matplotlib.axis_1">
    <g id="xtick_1">
     <g id="line2d_1">
      <defs>
       <path d="M 0 0 
L 0 3.5 
" id="m37a903566f" style="stroke:#000000;stroke-width:0.8;"/>
      </defs>
      <g>
       <use style="stroke:#000000;stroke-width:0.8;" x="92.290909" xlink:href="#m37a903566f" y="384.48"/>
      </g>
     </g>
     <g id="text_1">
      <!-- 0 -->
      <g transform="translate(89.109659 399.078438)scale(0.1 -0.1)">
       <defs>
        <path d="M 2034 4250 
Q 1547 4250 1301 3770 
Q 1056 3291 1056 2328 
Q 1056 1369 1301 889 
Q 1547 409 2034 409 
Q 2525 409 2770 889 
Q 3016 1369 3016 2328 
Q 3016 3291 2770 3770 
Q 2525 4250 2034 4250 
z
M 2034 4750 
Q 2819 4750 3233 4129 
Q 3647 3509 3647 2328 
Q 3647 1150 3233 529 
Q 2819 -91 2034 -91 
Q 1250 -91 836 529 
Q 422 1150 422 2328 
Q 422 3509 836 4129 
Q 1250 4750 2034 4750 
z
" id="DejaVuSans-30" transform="scale(0.015625)"/>
       </defs>
       <use xlink:href="#DejaVuSans-30"/>
      </g>
     </g>
    </g>
    <g id="xtick_2">
     <g id="line2d_2">
      <g>
       <use style="stroke:#000000;stroke-width:0.8;" x="173.454545" xlink:href="#m37a903566f" y="384.48"/>
      </g>
     </g>
     <g id="text_2">
      <!-- 20 -->
      <g transform="translate(167.092045 399.078438)scale(0.1 -0.1)">
       <defs>
        <path d="M 1228 531 
L 3431 531 
L 3431 0 
L 469 0 
L 469 531 
Q 828 903 1448 1529 
Q 2069 2156 2228 2338 
Q 2531 2678 2651 2914 
Q 2772 3150 2772 3378 
Q 2772 3750 2511 3984 
Q 2250 4219 1831 4219 
Q 1534 4219 1204 4116 
Q 875 4013 500 3803 
L 500 4441 
Q 881 4594 1212 4672 
Q 1544 4750 1819 4750 
Q 2544 4750 2975 4387 
Q 3406 4025 3406 3419 
Q 3406 3131 3298 2873 
Q 3191 2616 2906 2266 
Q 2828 2175 2409 1742 
Q 1991 1309 1228 531 
z
" id="DejaVuSans-32" transform="scale(0.015625)"/>
       </defs>
       <use xlink:href="#DejaVuSans-32"/>
       <use x="63.623047" xlink:href="#DejaVuSans-30"/>
      </g>
     </g>
    </g>
    <g id="xtick_3">
     <g id="line2d_3">
      <g>
       <use style="stroke:#000000;stroke-width:0.8;" x="254.618182" xlink:href="#m37a903566f" y="384.48"/>
      </g>
     </g>
     <g id="text_3">
      <!-- 40 -->
      <g transform="translate(248.255682 399.078438)scale(0.1 -0.1)">
       <defs>
        <path d="M 2419 4116 
L 825 1625 
L 2419 1625 
L 2419 4116 
z
M 2253 4666 
L 3047 4666 
L 3047 1625 
L 3713 1625 
L 3713 1100 
L 3047 1100 
L 3047 0 
L 2419 0 
L 2419 1100 
L 313 1100 
L 313 1709 
L 2253 4666 
z
" id="DejaVuSans-34" transform="scale(0.015625)"/>
       </defs>
       <use xlink:href="#DejaVuSans-34"/>
       <use x="63.623047" xlink:href="#DejaVuSans-30"/>
      </g>
     </g>
    </g>
    <g id="xtick_4">
     <g id="line2d_4">
      <g>
       <use style="stroke:#000000;stroke-width:0.8;" x="335.781818" xlink:href="#m37a903566f" y="384.48"/>
      </g>
     </g>
     <g id="text_4">
      <!-- 60 -->
      <g transform="translate(329.419318 399.078438)scale(0.1 -0.1)">
       <defs>
        <path d="M 2113 2584 
Q 1688 2584 1439 2293 
Q 1191 2003 1191 1497 
Q 1191 994 1439 701 
Q 1688 409 2113 409 
Q 2538 409 2786 701 
Q 3034 994 3034 1497 
Q 3034 2003 2786 2293 
Q 2538 2584 2113 2584 
z
M 3366 4563 
L 3366 3988 
Q 3128 4100 2886 4159 
Q 2644 4219 2406 4219 
Q 1781 4219 1451 3797 
Q 1122 3375 1075 2522 
Q 1259 2794 1537 2939 
Q 1816 3084 2150 3084 
Q 2853 3084 3261 2657 
Q 3669 2231 3669 1497 
Q 3669 778 3244 343 
Q 2819 -91 2113 -91 
Q 1303 -91 875 529 
Q 447 1150 447 2328 
Q 447 3434 972 4092 
Q 1497 4750 2381 4750 
Q 2619 4750 2861 4703 
Q 3103 4656 3366 4563 
z
" id="DejaVuSans-36" transform="scale(0.015625)"/>
       </defs>
       <use xlink:href="#DejaVuSans-36"/>
       <use x="63.623047" xlink:href="#DejaVuSans-30"/>
      </g>
     </g>
    </g>
    <g id="xtick_5">
     <g id="line2d_5">
      <g>
       <use style="stroke:#000000;stroke-width:0.8;" x="416.945455" xlink:href="#m37a903566f" y="384.48"/>
      </g>
     </g>
     <g id="text_5">
      <!-- 80 -->
      <g transform="translate(410.582955 399.078438)scale(0.1 -0.1)">
       <defs>
        <path d="M 2034 2216 
Q 1584 2216 1326 1975 
Q 1069 1734 1069 1313 
Q 1069 891 1326 650 
Q 1584 409 2034 409 
Q 2484 409 2743 651 
Q 3003 894 3003 1313 
Q 3003 1734 2745 1975 
Q 2488 2216 2034 2216 
z
M 1403 2484 
Q 997 2584 770 2862 
Q 544 3141 544 3541 
Q 544 4100 942 4425 
Q 1341 4750 2034 4750 
Q 2731 4750 3128 4425 
Q 3525 4100 3525 3541 
Q 3525 3141 3298 2862 
Q 3072 2584 2669 2484 
Q 3125 2378 3379 2068 
Q 3634 1759 3634 1313 
Q 3634 634 3220 271 
Q 2806 -91 2034 -91 
Q 1263 -91 848 271 
Q 434 634 434 1313 
Q 434 1759 690 2068 
Q 947 2378 1403 2484 
z
M 1172 3481 
Q 1172 3119 1398 2916 
Q 1625 2713 2034 2713 
Q 2441 2713 2670 2916 
Q 2900 3119 2900 3481 
Q 2900 3844 2670 4047 
Q 2441 4250 2034 4250 
Q 1625 4250 1398 4047 
Q 1172 3844 1172 3481 
z
" id="DejaVuSans-38" transform="scale(0.015625)"/>
       </defs>
       <use xlink:href="#DejaVuSans-38"/>
       <use x="63.623047" xlink:href="#DejaVuSans-30"/>
      </g>
     </g>
    </g>
    <g id="xtick_6">
     <g id="line2d_6">
      <g>
       <use style="stroke:#000000;stroke-width:0.8;" x="498.109091" xlink:href="#m37a903566f" y="384.48"/>
      </g>
     </g>
     <g id="text_6">
      <!-- 100 -->
      <g transform="translate(488.565341 399.078438)scale(0.1 -0.1)">
       <defs>
        <path d="M 794 531 
L 1825 531 
L 1825 4091 
L 703 3866 
L 703 4441 
L 1819 4666 
L 2450 4666 
L 2450 531 
L 3481 531 
L 3481 0 
L 794 0 
L 794 531 
z
" id="DejaVuSans-31" transform="scale(0.015625)"/>
       </defs>
       <use xlink:href="#DejaVuSans-31"/>
       <use x="63.623047" xlink:href="#DejaVuSans-30"/>
       <use x="127.246094" xlink:href="#DejaVuSans-30"/>
      </g>
     </g>
    </g>
    <g id="text_7">
     <!-- Number of iterations -->
     <g transform="translate(243.389062 412.756563)scale(0.1 -0.1)">
      <defs>
       <path d="M 628 4666 
L 1478 4666 
L 3547 763 
L 3547 4666 
L 4159 4666 
L 4159 0 
L 3309 0 
L 1241 3903 
L 1241 0 
L 628 0 
L 628 4666 
z
" id="DejaVuSans-4e" transform="scale(0.015625)"/>
       <path d="M 544 1381 
L 544 3500 
L 1119 3500 
L 1119 1403 
Q 1119 906 1312 657 
Q 1506 409 1894 409 
Q 2359 409 2629 706 
Q 2900 1003 2900 1516 
L 2900 3500 
L 3475 3500 
L 3475 0 
L 2900 0 
L 2900 538 
Q 2691 219 2414 64 
Q 2138 -91 1772 -91 
Q 1169 -91 856 284 
Q 544 659 544 1381 
z
M 1991 3584 
L 1991 3584 
z
" id="DejaVuSans-75" transform="scale(0.015625)"/>
       <path d="M 3328 2828 
Q 3544 3216 3844 3400 
Q 4144 3584 4550 3584 
Q 5097 3584 5394 3201 
Q 5691 2819 5691 2113 
L 5691 0 
L 5113 0 
L 5113 2094 
Q 5113 2597 4934 2840 
Q 4756 3084 4391 3084 
Q 3944 3084 3684 2787 
Q 3425 2491 3425 1978 
L 3425 0 
L 2847 0 
L 2847 2094 
Q 2847 2600 2669 2842 
Q 2491 3084 2119 3084 
Q 1678 3084 1418 2786 
Q 1159 2488 1159 1978 
L 1159 0 
L 581 0 
L 581 3500 
L 1159 3500 
L 1159 2956 
Q 1356 3278 1631 3431 
Q 1906 3584 2284 3584 
Q 2666 3584 2933 3390 
Q 3200 3197 3328 2828 
z
" id="DejaVuSans-6d" transform="scale(0.015625)"/>
       <path d="M 3116 1747 
Q 3116 2381 2855 2742 
Q 2594 3103 2138 3103 
Q 1681 3103 1420 2742 
Q 1159 2381 1159 1747 
Q 1159 1113 1420 752 
Q 1681 391 2138 391 
Q 2594 391 2855 752 
Q 3116 1113 3116 1747 
z
M 1159 2969 
Q 1341 3281 1617 3432 
Q 1894 3584 2278 3584 
Q 2916 3584 3314 3078 
Q 3713 2572 3713 1747 
Q 3713 922 3314 415 
Q 2916 -91 2278 -91 
Q 1894 -91 1617 61 
Q 1341 213 1159 525 
L 1159 0 
L 581 0 
L 581 4863 
L 1159 4863 
L 1159 2969 
z
" id="DejaVuSans-62" transform="scale(0.015625)"/>
       <path d="M 3597 1894 
L 3597 1613 
L 953 1613 
Q 991 1019 1311 708 
Q 1631 397 2203 397 
Q 2534 397 2845 478 
Q 3156 559 3463 722 
L 3463 178 
Q 3153 47 2828 -22 
Q 2503 -91 2169 -91 
Q 1331 -91 842 396 
Q 353 884 353 1716 
Q 353 2575 817 3079 
Q 1281 3584 2069 3584 
Q 2775 3584 3186 3129 
Q 3597 2675 3597 1894 
z
M 3022 2063 
Q 3016 2534 2758 2815 
Q 2500 3097 2075 3097 
Q 1594 3097 1305 2825 
Q 1016 2553 972 2059 
L 3022 2063 
z
" id="DejaVuSans-65" transform="scale(0.015625)"/>
       <path d="M 2631 2963 
Q 2534 3019 2420 3045 
Q 2306 3072 2169 3072 
Q 1681 3072 1420 2755 
Q 1159 2438 1159 1844 
L 1159 0 
L 581 0 
L 581 3500 
L 1159 3500 
L 1159 2956 
Q 1341 3275 1631 3429 
Q 1922 3584 2338 3584 
Q 2397 3584 2469 3576 
Q 2541 3569 2628 3553 
L 2631 2963 
z
" id="DejaVuSans-72" transform="scale(0.015625)"/>
       <path id="DejaVuSans-20" transform="scale(0.015625)"/>
       <path d="M 1959 3097 
Q 1497 3097 1228 2736 
Q 959 2375 959 1747 
Q 959 1119 1226 758 
Q 1494 397 1959 397 
Q 2419 397 2687 759 
Q 2956 1122 2956 1747 
Q 2956 2369 2687 2733 
Q 2419 3097 1959 3097 
z
M 1959 3584 
Q 2709 3584 3137 3096 
Q 3566 2609 3566 1747 
Q 3566 888 3137 398 
Q 2709 -91 1959 -91 
Q 1206 -91 779 398 
Q 353 888 353 1747 
Q 353 2609 779 3096 
Q 1206 3584 1959 3584 
z
" id="DejaVuSans-6f" transform="scale(0.015625)"/>
       <path d="M 2375 4863 
L 2375 4384 
L 1825 4384 
Q 1516 4384 1395 4259 
Q 1275 4134 1275 3809 
L 1275 3500 
L 2222 3500 
L 2222 3053 
L 1275 3053 
L 1275 0 
L 697 0 
L 697 3053 
L 147 3053 
L 147 3500 
L 697 3500 
L 697 3744 
Q 697 4328 969 4595 
Q 1241 4863 1831 4863 
L 2375 4863 
z
" id="DejaVuSans-66" transform="scale(0.015625)"/>
       <path d="M 603 3500 
L 1178 3500 
L 1178 0 
L 603 0 
L 603 3500 
z
M 603 4863 
L 1178 4863 
L 1178 4134 
L 603 4134 
L 603 4863 
z
" id="DejaVuSans-69" transform="scale(0.015625)"/>
       <path d="M 1172 4494 
L 1172 3500 
L 2356 3500 
L 2356 3053 
L 1172 3053 
L 1172 1153 
Q 1172 725 1289 603 
Q 1406 481 1766 481 
L 2356 481 
L 2356 0 
L 1766 0 
Q 1100 0 847 248 
Q 594 497 594 1153 
L 594 3053 
L 172 3053 
L 172 3500 
L 594 3500 
L 594 4494 
L 1172 4494 
z
" id="DejaVuSans-74" transform="scale(0.015625)"/>
       <path d="M 2194 1759 
Q 1497 1759 1228 1600 
Q 959 1441 959 1056 
Q 959 750 1161 570 
Q 1363 391 1709 391 
Q 2188 391 2477 730 
Q 2766 1069 2766 1631 
L 2766 1759 
L 2194 1759 
z
M 3341 1997 
L 3341 0 
L 2766 0 
L 2766 531 
Q 2569 213 2275 61 
Q 1981 -91 1556 -91 
Q 1019 -91 701 211 
Q 384 513 384 1019 
Q 384 1609 779 1909 
Q 1175 2209 1959 2209 
L 2766 2209 
L 2766 2266 
Q 2766 2663 2505 2880 
Q 2244 3097 1772 3097 
Q 1472 3097 1187 3025 
Q 903 2953 641 2809 
L 641 3341 
Q 956 3463 1253 3523 
Q 1550 3584 1831 3584 
Q 2591 3584 2966 3190 
Q 3341 2797 3341 1997 
z
" id="DejaVuSans-61" transform="scale(0.015625)"/>
       <path d="M 3513 2113 
L 3513 0 
L 2938 0 
L 2938 2094 
Q 2938 2591 2744 2837 
Q 2550 3084 2163 3084 
Q 1697 3084 1428 2787 
Q 1159 2491 1159 1978 
L 1159 0 
L 581 0 
L 581 3500 
L 1159 3500 
L 1159 2956 
Q 1366 3272 1645 3428 
Q 1925 3584 2291 3584 
Q 2894 3584 3203 3211 
Q 3513 2838 3513 2113 
z
" id="DejaVuSans-6e" transform="scale(0.015625)"/>
       <path d="M 2834 3397 
L 2834 2853 
Q 2591 2978 2328 3040 
Q 2066 3103 1784 3103 
Q 1356 3103 1142 2972 
Q 928 2841 928 2578 
Q 928 2378 1081 2264 
Q 1234 2150 1697 2047 
L 1894 2003 
Q 2506 1872 2764 1633 
Q 3022 1394 3022 966 
Q 3022 478 2636 193 
Q 2250 -91 1575 -91 
Q 1294 -91 989 -36 
Q 684 19 347 128 
L 347 722 
Q 666 556 975 473 
Q 1284 391 1588 391 
Q 1994 391 2212 530 
Q 2431 669 2431 922 
Q 2431 1156 2273 1281 
Q 2116 1406 1581 1522 
L 1381 1569 
Q 847 1681 609 1914 
Q 372 2147 372 2553 
Q 372 3047 722 3315 
Q 1072 3584 1716 3584 
Q 2034 3584 2315 3537 
Q 2597 3491 2834 3397 
z
" id="DejaVuSans-73" transform="scale(0.015625)"/>
      </defs>
      <use xlink:href="#DejaVuSans-4e"/>
      <use x="74.804688" xlink:href="#DejaVuSans-75"/>
      <use x="138.183594" xlink:href="#DejaVuSans-6d"/>
      <use x="235.595703" xlink:href="#DejaVuSans-62"/>
      <use x="299.072266" xlink:href="#DejaVuSans-65"/>
      <use x="360.595703" xlink:href="#DejaVuSans-72"/>
      <use x="401.708984" xlink:href="#DejaVuSans-20"/>
      <use x="433.496094" xlink:href="#DejaVuSans-6f"/>
      <use x="494.677734" xlink:href="#DejaVuSans-66"/>
      <use x="529.882812" xlink:href="#DejaVuSans-20"/>
      <use x="561.669922" xlink:href="#DejaVuSans-69"/>
      <use x="589.453125" xlink:href="#DejaVuSans-74"/>
      <use x="628.662109" xlink:href="#DejaVuSans-65"/>
      <use x="690.185547" xlink:href="#DejaVuSans-72"/>
      <use x="731.298828" xlink:href="#DejaVuSans-61"/>
      <use x="792.578125" xlink:href="#DejaVuSans-74"/>
      <use x="831.787109" xlink:href="#DejaVuSans-69"/>
      <use x="859.570312" xlink:href="#DejaVuSans-6f"/>
      <use x="920.751953" xlink:href="#DejaVuSans-6e"/>
      <use x="984.130859" xlink:href="#DejaVuSans-73"/>
     </g>
    </g>
   </g>
   <g id="matplotlib.axis_2">
    <g id="ytick_1">
     <g id="line2d_7">
      <defs>
       <path d="M 0 0 
L -3.5 0 
" id="m49514c45bc" style="stroke:#000000;stroke-width:0.8;"/>
      </defs>
      <g>
       <use style="stroke:#000000;stroke-width:0.8;" x="72" xlink:href="#m49514c45bc" y="359.356351"/>
      </g>
     </g>
     <g id="text_8">
      <!-- $\mathdefault{10^{-4}}$ -->
      <g transform="translate(41.5 363.15557)scale(0.1 -0.1)">
       <defs>
        <path d="M 678 2272 
L 4684 2272 
L 4684 1741 
L 678 1741 
L 678 2272 
z
" id="DejaVuSans-2212" transform="scale(0.015625)"/>
       </defs>
       <use transform="translate(0 0.684375)" xlink:href="#DejaVuSans-31"/>
       <use transform="translate(63.623047 0.684375)" xlink:href="#DejaVuSans-30"/>
       <use transform="translate(128.203125 38.965625)scale(0.7)" xlink:href="#DejaVuSans-2212"/>
       <use transform="translate(186.855469 38.965625)scale(0.7)" xlink:href="#DejaVuSans-34"/>
      </g>
     </g>
    </g>
    <g id="ytick_2">
     <g id="line2d_8">
      <g>
       <use style="stroke:#000000;stroke-width:0.8;" x="72" xlink:href="#m49514c45bc" y="319.41589"/>
      </g>
     </g>
     <g id="text_9">
      <!-- $\mathdefault{10^{-2}}$ -->
      <g transform="translate(41.5 323.215109)scale(0.1 -0.1)">
       <use transform="translate(0 0.765625)" xlink:href="#DejaVuSans-31"/>
       <use transform="translate(63.623047 0.765625)" xlink:href="#DejaVuSans-30"/>
       <use transform="translate(128.203125 39.046875)scale(0.7)" xlink:href="#DejaVuSans-2212"/>
       <use transform="translate(186.855469 39.046875)scale(0.7)" xlink:href="#DejaVuSans-32"/>
      </g>
     </g>
    </g>
    <g id="ytick_3">
     <g id="line2d_9">
      <g>
       <use style="stroke:#000000;stroke-width:0.8;" x="72" xlink:href="#m49514c45bc" y="279.47543"/>
      </g>
     </g>
     <g id="text_10">
      <!-- $\mathdefault{10^{0}}$ -->
      <g transform="translate(47.4 283.274648)scale(0.1 -0.1)">
       <use transform="translate(0 0.765625)" xlink:href="#DejaVuSans-31"/>
       <use transform="translate(63.623047 0.765625)" xlink:href="#DejaVuSans-30"/>
       <use transform="translate(128.203125 39.046875)scale(0.7)" xlink:href="#DejaVuSans-30"/>
      </g>
     </g>
    </g>
    <g id="ytick_4">
     <g id="line2d_10">
      <g>
       <use style="stroke:#000000;stroke-width:0.8;" x="72" xlink:href="#m49514c45bc" y="239.534969"/>
      </g>
     </g>
     <g id="text_11">
      <!-- $\mathdefault{10^{2}}$ -->
      <g transform="translate(47.4 243.334187)scale(0.1 -0.1)">
       <use transform="translate(0 0.765625)" xlink:href="#DejaVuSans-31"/>
       <use transform="translate(63.623047 0.765625)" xlink:href="#DejaVuSans-30"/>
       <use transform="translate(128.203125 39.046875)scale(0.7)" xlink:href="#DejaVuSans-32"/>
      </g>
     </g>
    </g>
    <g id="ytick_5">
     <g id="line2d_11">
      <g>
       <use style="stroke:#000000;stroke-width:0.8;" x="72" xlink:href="#m49514c45bc" y="199.594508"/>
      </g>
     </g>
     <g id="text_12">
      <!-- $\mathdefault{10^{4}}$ -->
      <g transform="translate(47.4 203.393726)scale(0.1 -0.1)">
       <use transform="translate(0 0.684375)" xlink:href="#DejaVuSans-31"/>
       <use transform="translate(63.623047 0.684375)" xlink:href="#DejaVuSans-30"/>
       <use transform="translate(128.203125 38.965625)scale(0.7)" xlink:href="#DejaVuSans-34"/>
      </g>
     </g>
    </g>
    <g id="ytick_6">
     <g id="line2d_12">
      <g>
       <use style="stroke:#000000;stroke-width:0.8;" x="72" xlink:href="#m49514c45bc" y="159.654047"/>
      </g>
     </g>
     <g id="text_13">
      <!-- $\mathdefault{10^{6}}$ -->
      <g transform="translate(47.4 163.453266)scale(0.1 -0.1)">
       <use transform="translate(0 0.765625)" xlink:href="#DejaVuSans-31"/>
       <use transform="translate(63.623047 0.765625)" xlink:href="#DejaVuSans-30"/>
       <use transform="translate(128.203125 39.046875)scale(0.7)" xlink:href="#DejaVuSans-36"/>
      </g>
     </g>
    </g>
    <g id="ytick_7">
     <g id="line2d_13">
      <g>
       <use style="stroke:#000000;stroke-width:0.8;" x="72" xlink:href="#m49514c45bc" y="119.713586"/>
      </g>
     </g>
     <g id="text_14">
      <!-- $\mathdefault{10^{8}}$ -->
      <g transform="translate(47.4 123.512805)scale(0.1 -0.1)">
       <use transform="translate(0 0.765625)" xlink:href="#DejaVuSans-31"/>
       <use transform="translate(63.623047 0.765625)" xlink:href="#DejaVuSans-30"/>
       <use transform="translate(128.203125 39.046875)scale(0.7)" xlink:href="#DejaVuSans-38"/>
      </g>
     </g>
    </g>
    <g id="ytick_8">
     <g id="line2d_14">
      <g>
       <use style="stroke:#000000;stroke-width:0.8;" x="72" xlink:href="#m49514c45bc" y="79.773125"/>
      </g>
     </g>
     <g id="text_15">
      <!-- $\mathdefault{10^{10}}$ -->
      <g transform="translate(42.9 83.572344)scale(0.1 -0.1)">
       <use transform="translate(0 0.765625)" xlink:href="#DejaVuSans-31"/>
       <use transform="translate(63.623047 0.765625)" xlink:href="#DejaVuSans-30"/>
       <use transform="translate(128.203125 39.046875)scale(0.7)" xlink:href="#DejaVuSans-31"/>
       <use transform="translate(172.739258 39.046875)scale(0.7)" xlink:href="#DejaVuSans-30"/>
      </g>
     </g>
    </g>
    <g id="text_16">
     <!-- Norm of the residuals -->
     <g transform="translate(35.420312 272.004531)rotate(-90)scale(0.1 -0.1)">
      <defs>
       <path d="M 3513 2113 
L 3513 0 
L 2938 0 
L 2938 2094 
Q 2938 2591 2744 2837 
Q 2550 3084 2163 3084 
Q 1697 3084 1428 2787 
Q 1159 2491 1159 1978 
L 1159 0 
L 581 0 
L 581 4863 
L 1159 4863 
L 1159 2956 
Q 1366 3272 1645 3428 
Q 1925 3584 2291 3584 
Q 2894 3584 3203 3211 
Q 3513 2838 3513 2113 
z
" id="DejaVuSans-68" transform="scale(0.015625)"/>
       <path d="M 2906 2969 
L 2906 4863 
L 3481 4863 
L 3481 0 
L 2906 0 
L 2906 525 
Q 2725 213 2448 61 
Q 2172 -91 1784 -91 
Q 1150 -91 751 415 
Q 353 922 353 1747 
Q 353 2572 751 3078 
Q 1150 3584 1784 3584 
Q 2172 3584 2448 3432 
Q 2725 3281 2906 2969 
z
M 947 1747 
Q 947 1113 1208 752 
Q 1469 391 1925 391 
Q 2381 391 2643 752 
Q 2906 1113 2906 1747 
Q 2906 2381 2643 2742 
Q 2381 3103 1925 3103 
Q 1469 3103 1208 2742 
Q 947 2381 947 1747 
z
" id="DejaVuSans-64" transform="scale(0.015625)"/>
       <path d="M 603 4863 
L 1178 4863 
L 1178 0 
L 603 0 
L 603 4863 
z
" id="DejaVuSans-6c" transform="scale(0.015625)"/>
      </defs>
      <use xlink:href="#DejaVuSans-4e"/>
      <use x="74.804688" xlink:href="#DejaVuSans-6f"/>
      <use x="135.986328" xlink:href="#DejaVuSans-72"/>
      <use x="175.349609" xlink:href="#DejaVuSans-6d"/>
      <use x="272.761719" xlink:href="#DejaVuSans-20"/>
      <use x="304.548828" xlink:href="#DejaVuSans-6f"/>
      <use x="365.730469" xlink:href="#DejaVuSans-66"/>
      <use x="400.935547" xlink:href="#DejaVuSans-20"/>
      <use x="432.722656" xlink:href="#DejaVuSans-74"/>
      <use x="471.931641" xlink:href="#DejaVuSans-68"/>
      <use x="535.310547" xlink:href="#DejaVuSans-65"/>
      <use x="596.833984" xlink:href="#DejaVuSans-20"/>
      <use x="628.621094" xlink:href="#DejaVuSans-72"/>
      <use x="667.484375" xlink:href="#DejaVuSans-65"/>
      <use x="729.007812" xlink:href="#DejaVuSans-73"/>
      <use x="781.107422" xlink:href="#DejaVuSans-69"/>
      <use x="808.890625" xlink:href="#DejaVuSans-64"/>
      <use x="872.367188" xlink:href="#DejaVuSans-75"/>
      <use x="935.746094" xlink:href="#DejaVuSans-61"/>
      <use x="997.025391" xlink:href="#DejaVuSans-6c"/>
      <use x="1024.808594" xlink:href="#DejaVuSans-73"/>
     </g>
    </g>
   </g>
   <g id="line2d_15">
    <path clip-path="url(#p61f4e0462a)" d="M 92.290909 66.96 
L 96.349091 78.22733 
L 100.407273 82.394222 
L 104.465455 86.904086 
L 108.523636 90.77208 
L 112.581818 90.542004 
L 116.64 93.221983 
L 120.698182 95.59129 
L 124.756364 96.847554 
L 128.814545 100.050316 
L 132.872727 99.335937 
L 136.930909 103.017725 
L 140.989091 105.680121 
L 145.047273 105.89655 
L 149.105455 105.907697 
L 153.163636 108.108897 
L 157.221818 109.923143 
L 161.28 112.626063 
L 165.338182 113.834835 
L 169.396364 113.369223 
L 173.454545 117.044754 
L 177.512727 116.804415 
L 181.570909 113.327837 
L 185.629091 116.59343 
L 189.687273 121.085576 
L 193.745455 118.136261 
L 197.803636 115.423212 
L 201.861818 120.491844 
L 205.92 122.377512 
L 209.978182 112.077031 
L 214.036364 124.889442 
L 218.094545 126.035964 
L 222.152727 118.429883 
L 226.210909 124.553351 
L 230.269091 119.001959 
L 234.327273 123.223294 
L 238.385455 128.255546 
L 242.443636 126.133079 
L 246.501818 126.382192 
L 250.56 127.074591 
L 254.618182 129.615104 
L 258.676364 128.714274 
L 262.734545 122.704071 
L 266.792727 119.069552 
L 270.850909 132.122973 
L 274.909091 130.674573 
L 278.967273 125.149261 
L 283.025455 124.207896 
L 287.083636 133.803685 
L 291.141818 122.941445 
L 295.2 126.647373 
L 299.258182 126.659023 
L 303.316364 120.669333 
L 307.374545 136.413985 
L 311.432727 126.48873 
L 315.490909 121.896084 
L 319.549091 133.049042 
L 323.607273 135.85787 
L 327.665455 129.406524 
L 331.723636 125.115343 
L 335.781818 133.716192 
L 339.84 134.429045 
L 343.898182 123.756427 
L 347.956364 127.127086 
L 352.014545 138.506015 
L 356.072727 132.553074 
L 360.130909 124.912472 
L 364.189091 140.785389 
L 368.247273 141.911516 
L 372.305455 137.471973 
L 376.363636 130.573737 
L 380.421818 125.721152 
L 384.48 133.599934 
L 388.538182 141.613723 
L 392.596364 136.338176 
L 396.654545 141.794851 
L 400.712727 137.970132 
L 404.770909 140.550576 
L 408.829091 143.80351 
L 412.887273 138.081024 
L 416.945455 139.384995 
L 421.003636 130.270465 
L 425.061818 145.970549 
L 429.12 138.465445 
L 433.178182 133.518528 
L 437.236364 135.137941 
L 441.294545 137.157513 
L 445.352727 136.915481 
L 449.410909 146.988293 
L 453.469091 147.024303 
L 457.527273 141.674175 
L 461.585455 133.680645 
L 465.643636 140.014711 
L 469.701818 140.726589 
L 473.76 147.623549 
L 477.818182 135.221565 
L 481.876364 131.394813 
L 485.934545 136.617237 
L 489.992727 139.385232 
L 494.050909 136.401756 
L 498.109091 138.863611 
" style="fill:none;stroke:#1f77b4;stroke-linecap:square;stroke-width:1.5;"/>
    <defs>
     <path d="M -0 3 
L 3 -3 
L -3 -3 
z
" id="m994249003d" style="stroke:#1f77b4;stroke-linejoin:miter;"/>
    </defs>
    <g clip-path="url(#p61f4e0462a)">
     <use style="fill:#1f77b4;stroke:#1f77b4;stroke-linejoin:miter;" x="92.290909" xlink:href="#m994249003d" y="66.96"/>
     <use style="fill:#1f77b4;stroke:#1f77b4;stroke-linejoin:miter;" x="96.349091" xlink:href="#m994249003d" y="78.22733"/>
     <use style="fill:#1f77b4;stroke:#1f77b4;stroke-linejoin:miter;" x="100.407273" xlink:href="#m994249003d" y="82.394222"/>
     <use style="fill:#1f77b4;stroke:#1f77b4;stroke-linejoin:miter;" x="104.465455" xlink:href="#m994249003d" y="86.904086"/>
     <use style="fill:#1f77b4;stroke:#1f77b4;stroke-linejoin:miter;" x="108.523636" xlink:href="#m994249003d" y="90.77208"/>
     <use style="fill:#1f77b4;stroke:#1f77b4;stroke-linejoin:miter;" x="112.581818" xlink:href="#m994249003d" y="90.542004"/>
     <use style="fill:#1f77b4;stroke:#1f77b4;stroke-linejoin:miter;" x="116.64" xlink:href="#m994249003d" y="93.221983"/>
     <use style="fill:#1f77b4;stroke:#1f77b4;stroke-linejoin:miter;" x="120.698182" xlink:href="#m994249003d" y="95.59129"/>
     <use style="fill:#1f77b4;stroke:#1f77b4;stroke-linejoin:miter;" x="124.756364" xlink:href="#m994249003d" y="96.847554"/>
     <use style="fill:#1f77b4;stroke:#1f77b4;stroke-linejoin:miter;" x="128.814545" xlink:href="#m994249003d" y="100.050316"/>
     <use style="fill:#1f77b4;stroke:#1f77b4;stroke-linejoin:miter;" x="132.872727" xlink:href="#m994249003d" y="99.335937"/>
     <use style="fill:#1f77b4;stroke:#1f77b4;stroke-linejoin:miter;" x="136.930909" xlink:href="#m994249003d" y="103.017725"/>
     <use style="fill:#1f77b4;stroke:#1f77b4;stroke-linejoin:miter;" x="140.989091" xlink:href="#m994249003d" y="105.680121"/>
     <use style="fill:#1f77b4;stroke:#1f77b4;stroke-linejoin:miter;" x="145.047273" xlink:href="#m994249003d" y="105.89655"/>
     <use style="fill:#1f77b4;stroke:#1f77b4;stroke-linejoin:miter;" x="149.105455" xlink:href="#m994249003d" y="105.907697"/>
     <use style="fill:#1f77b4;stroke:#1f77b4;stroke-linejoin:miter;" x="153.163636" xlink:href="#m994249003d" y="108.108897"/>
     <use style="fill:#1f77b4;stroke:#1f77b4;stroke-linejoin:miter;" x="157.221818" xlink:href="#m994249003d" y="109.923143"/>
     <use style="fill:#1f77b4;stroke:#1f77b4;stroke-linejoin:miter;" x="161.28" xlink:href="#m994249003d" y="112.626063"/>
     <use style="fill:#1f77b4;stroke:#1f77b4;stroke-linejoin:miter;" x="165.338182" xlink:href="#m994249003d" y="113.834835"/>
     <use style="fill:#1f77b4;stroke:#1f77b4;stroke-linejoin:miter;" x="169.396364" xlink:href="#m994249003d" y="113.369223"/>
     <use style="fill:#1f77b4;stroke:#1f77b4;stroke-linejoin:miter;" x="173.454545" xlink:href="#m994249003d" y="117.044754"/>
     <use style="fill:#1f77b4;stroke:#1f77b4;stroke-linejoin:miter;" x="177.512727" xlink:href="#m994249003d" y="116.804415"/>
     <use style="fill:#1f77b4;stroke:#1f77b4;stroke-linejoin:miter;" x="181.570909" xlink:href="#m994249003d" y="113.327837"/>
     <use style="fill:#1f77b4;stroke:#1f77b4;stroke-linejoin:miter;" x="185.629091" xlink:href="#m994249003d" y="116.59343"/>
     <use style="fill:#1f77b4;stroke:#1f77b4;stroke-linejoin:miter;" x="189.687273" xlink:href="#m994249003d" y="121.085576"/>
     <use style="fill:#1f77b4;stroke:#1f77b4;stroke-linejoin:miter;" x="193.745455" xlink:href="#m994249003d" y="118.136261"/>
     <use style="fill:#1f77b4;stroke:#1f77b4;stroke-linejoin:miter;" x="197.803636" xlink:href="#m994249003d" y="115.423212"/>
     <use style="fill:#1f77b4;stroke:#1f77b4;stroke-linejoin:miter;" x="201.861818" xlink:href="#m994249003d" y="120.491844"/>
     <use style="fill:#1f77b4;stroke:#1f77b4;stroke-linejoin:miter;" x="205.92" xlink:href="#m994249003d" y="122.377512"/>
     <use style="fill:#1f77b4;stroke:#1f77b4;stroke-linejoin:miter;" x="209.978182" xlink:href="#m994249003d" y="112.077031"/>
     <use style="fill:#1f77b4;stroke:#1f77b4;stroke-linejoin:miter;" x="214.036364" xlink:href="#m994249003d" y="124.889442"/>
     <use style="fill:#1f77b4;stroke:#1f77b4;stroke-linejoin:miter;" x="218.094545" xlink:href="#m994249003d" y="126.035964"/>
     <use style="fill:#1f77b4;stroke:#1f77b4;stroke-linejoin:miter;" x="222.152727" xlink:href="#m994249003d" y="118.429883"/>
     <use style="fill:#1f77b4;stroke:#1f77b4;stroke-linejoin:miter;" x="226.210909" xlink:href="#m994249003d" y="124.553351"/>
     <use style="fill:#1f77b4;stroke:#1f77b4;stroke-linejoin:miter;" x="230.269091" xlink:href="#m994249003d" y="119.001959"/>
     <use style="fill:#1f77b4;stroke:#1f77b4;stroke-linejoin:miter;" x="234.327273" xlink:href="#m994249003d" y="123.223294"/>
     <use style="fill:#1f77b4;stroke:#1f77b4;stroke-linejoin:miter;" x="238.385455" xlink:href="#m994249003d" y="128.255546"/>
     <use style="fill:#1f77b4;stroke:#1f77b4;stroke-linejoin:miter;" x="242.443636" xlink:href="#m994249003d" y="126.133079"/>
     <use style="fill:#1f77b4;stroke:#1f77b4;stroke-linejoin:miter;" x="246.501818" xlink:href="#m994249003d" y="126.382192"/>
     <use style="fill:#1f77b4;stroke:#1f77b4;stroke-linejoin:miter;" x="250.56" xlink:href="#m994249003d" y="127.074591"/>
     <use style="fill:#1f77b4;stroke:#1f77b4;stroke-linejoin:miter;" x="254.618182" xlink:href="#m994249003d" y="129.615104"/>
     <use style="fill:#1f77b4;stroke:#1f77b4;stroke-linejoin:miter;" x="258.676364" xlink:href="#m994249003d" y="128.714274"/>
     <use style="fill:#1f77b4;stroke:#1f77b4;stroke-linejoin:miter;" x="262.734545" xlink:href="#m994249003d" y="122.704071"/>
     <use style="fill:#1f77b4;stroke:#1f77b4;stroke-linejoin:miter;" x="266.792727" xlink:href="#m994249003d" y="119.069552"/>
     <use style="fill:#1f77b4;stroke:#1f77b4;stroke-linejoin:miter;" x="270.850909" xlink:href="#m994249003d" y="132.122973"/>
     <use style="fill:#1f77b4;stroke:#1f77b4;stroke-linejoin:miter;" x="274.909091" xlink:href="#m994249003d" y="130.674573"/>
     <use style="fill:#1f77b4;stroke:#1f77b4;stroke-linejoin:miter;" x="278.967273" xlink:href="#m994249003d" y="125.149261"/>
     <use style="fill:#1f77b4;stroke:#1f77b4;stroke-linejoin:miter;" x="283.025455" xlink:href="#m994249003d" y="124.207896"/>
     <use style="fill:#1f77b4;stroke:#1f77b4;stroke-linejoin:miter;" x="287.083636" xlink:href="#m994249003d" y="133.803685"/>
     <use style="fill:#1f77b4;stroke:#1f77b4;stroke-linejoin:miter;" x="291.141818" xlink:href="#m994249003d" y="122.941445"/>
     <use style="fill:#1f77b4;stroke:#1f77b4;stroke-linejoin:miter;" x="295.2" xlink:href="#m994249003d" y="126.647373"/>
     <use style="fill:#1f77b4;stroke:#1f77b4;stroke-linejoin:miter;" x="299.258182" xlink:href="#m994249003d" y="126.659023"/>
     <use style="fill:#1f77b4;stroke:#1f77b4;stroke-linejoin:miter;" x="303.316364" xlink:href="#m994249003d" y="120.669333"/>
     <use style="fill:#1f77b4;stroke:#1f77b4;stroke-linejoin:miter;" x="307.374545" xlink:href="#m994249003d" y="136.413985"/>
     <use style="fill:#1f77b4;stroke:#1f77b4;stroke-linejoin:miter;" x="311.432727" xlink:href="#m994249003d" y="126.48873"/>
     <use style="fill:#1f77b4;stroke:#1f77b4;stroke-linejoin:miter;" x="315.490909" xlink:href="#m994249003d" y="121.896084"/>
     <use style="fill:#1f77b4;stroke:#1f77b4;stroke-linejoin:miter;" x="319.549091" xlink:href="#m994249003d" y="133.049042"/>
     <use style="fill:#1f77b4;stroke:#1f77b4;stroke-linejoin:miter;" x="323.607273" xlink:href="#m994249003d" y="135.85787"/>
     <use style="fill:#1f77b4;stroke:#1f77b4;stroke-linejoin:miter;" x="327.665455" xlink:href="#m994249003d" y="129.406524"/>
     <use style="fill:#1f77b4;stroke:#1f77b4;stroke-linejoin:miter;" x="331.723636" xlink:href="#m994249003d" y="125.115343"/>
     <use style="fill:#1f77b4;stroke:#1f77b4;stroke-linejoin:miter;" x="335.781818" xlink:href="#m994249003d" y="133.716192"/>
     <use style="fill:#1f77b4;stroke:#1f77b4;stroke-linejoin:miter;" x="339.84" xlink:href="#m994249003d" y="134.429045"/>
     <use style="fill:#1f77b4;stroke:#1f77b4;stroke-linejoin:miter;" x="343.898182" xlink:href="#m994249003d" y="123.756427"/>
     <use style="fill:#1f77b4;stroke:#1f77b4;stroke-linejoin:miter;" x="347.956364" xlink:href="#m994249003d" y="127.127086"/>
     <use style="fill:#1f77b4;stroke:#1f77b4;stroke-linejoin:miter;" x="352.014545" xlink:href="#m994249003d" y="138.506015"/>
     <use style="fill:#1f77b4;stroke:#1f77b4;stroke-linejoin:miter;" x="356.072727" xlink:href="#m994249003d" y="132.553074"/>
     <use style="fill:#1f77b4;stroke:#1f77b4;stroke-linejoin:miter;" x="360.130909" xlink:href="#m994249003d" y="124.912472"/>
     <use style="fill:#1f77b4;stroke:#1f77b4;stroke-linejoin:miter;" x="364.189091" xlink:href="#m994249003d" y="140.785389"/>
     <use style="fill:#1f77b4;stroke:#1f77b4;stroke-linejoin:miter;" x="368.247273" xlink:href="#m994249003d" y="141.911516"/>
     <use style="fill:#1f77b4;stroke:#1f77b4;stroke-linejoin:miter;" x="372.305455" xlink:href="#m994249003d" y="137.471973"/>
     <use style="fill:#1f77b4;stroke:#1f77b4;stroke-linejoin:miter;" x="376.363636" xlink:href="#m994249003d" y="130.573737"/>
     <use style="fill:#1f77b4;stroke:#1f77b4;stroke-linejoin:miter;" x="380.421818" xlink:href="#m994249003d" y="125.721152"/>
     <use style="fill:#1f77b4;stroke:#1f77b4;stroke-linejoin:miter;" x="384.48" xlink:href="#m994249003d" y="133.599934"/>
     <use style="fill:#1f77b4;stroke:#1f77b4;stroke-linejoin:miter;" x="388.538182" xlink:href="#m994249003d" y="141.613723"/>
     <use style="fill:#1f77b4;stroke:#1f77b4;stroke-linejoin:miter;" x="392.596364" xlink:href="#m994249003d" y="136.338176"/>
     <use style="fill:#1f77b4;stroke:#1f77b4;stroke-linejoin:miter;" x="396.654545" xlink:href="#m994249003d" y="141.794851"/>
     <use style="fill:#1f77b4;stroke:#1f77b4;stroke-linejoin:miter;" x="400.712727" xlink:href="#m994249003d" y="137.970132"/>
     <use style="fill:#1f77b4;stroke:#1f77b4;stroke-linejoin:miter;" x="404.770909" xlink:href="#m994249003d" y="140.550576"/>
     <use style="fill:#1f77b4;stroke:#1f77b4;stroke-linejoin:miter;" x="408.829091" xlink:href="#m994249003d" y="143.80351"/>
     <use style="fill:#1f77b4;stroke:#1f77b4;stroke-linejoin:miter;" x="412.887273" xlink:href="#m994249003d" y="138.081024"/>
     <use style="fill:#1f77b4;stroke:#1f77b4;stroke-linejoin:miter;" x="416.945455" xlink:href="#m994249003d" y="139.384995"/>
     <use style="fill:#1f77b4;stroke:#1f77b4;stroke-linejoin:miter;" x="421.003636" xlink:href="#m994249003d" y="130.270465"/>
     <use style="fill:#1f77b4;stroke:#1f77b4;stroke-linejoin:miter;" x="425.061818" xlink:href="#m994249003d" y="145.970549"/>
     <use style="fill:#1f77b4;stroke:#1f77b4;stroke-linejoin:miter;" x="429.12" xlink:href="#m994249003d" y="138.465445"/>
     <use style="fill:#1f77b4;stroke:#1f77b4;stroke-linejoin:miter;" x="433.178182" xlink:href="#m994249003d" y="133.518528"/>
     <use style="fill:#1f77b4;stroke:#1f77b4;stroke-linejoin:miter;" x="437.236364" xlink:href="#m994249003d" y="135.137941"/>
     <use style="fill:#1f77b4;stroke:#1f77b4;stroke-linejoin:miter;" x="441.294545" xlink:href="#m994249003d" y="137.157513"/>
     <use style="fill:#1f77b4;stroke:#1f77b4;stroke-linejoin:miter;" x="445.352727" xlink:href="#m994249003d" y="136.915481"/>
     <use style="fill:#1f77b4;stroke:#1f77b4;stroke-linejoin:miter;" x="449.410909" xlink:href="#m994249003d" y="146.988293"/>
     <use style="fill:#1f77b4;stroke:#1f77b4;stroke-linejoin:miter;" x="453.469091" xlink:href="#m994249003d" y="147.024303"/>
     <use style="fill:#1f77b4;stroke:#1f77b4;stroke-linejoin:miter;" x="457.527273" xlink:href="#m994249003d" y="141.674175"/>
     <use style="fill:#1f77b4;stroke:#1f77b4;stroke-linejoin:miter;" x="461.585455" xlink:href="#m994249003d" y="133.680645"/>
     <use style="fill:#1f77b4;stroke:#1f77b4;stroke-linejoin:miter;" x="465.643636" xlink:href="#m994249003d" y="140.014711"/>
     <use style="fill:#1f77b4;stroke:#1f77b4;stroke-linejoin:miter;" x="469.701818" xlink:href="#m994249003d" y="140.726589"/>
     <use style="fill:#1f77b4;stroke:#1f77b4;stroke-linejoin:miter;" x="473.76" xlink:href="#m994249003d" y="147.623549"/>
     <use style="fill:#1f77b4;stroke:#1f77b4;stroke-linejoin:miter;" x="477.818182" xlink:href="#m994249003d" y="135.221565"/>
     <use style="fill:#1f77b4;stroke:#1f77b4;stroke-linejoin:miter;" x="481.876364" xlink:href="#m994249003d" y="131.394813"/>
     <use style="fill:#1f77b4;stroke:#1f77b4;stroke-linejoin:miter;" x="485.934545" xlink:href="#m994249003d" y="136.617237"/>
     <use style="fill:#1f77b4;stroke:#1f77b4;stroke-linejoin:miter;" x="489.992727" xlink:href="#m994249003d" y="139.385232"/>
     <use style="fill:#1f77b4;stroke:#1f77b4;stroke-linejoin:miter;" x="494.050909" xlink:href="#m994249003d" y="136.401756"/>
     <use style="fill:#1f77b4;stroke:#1f77b4;stroke-linejoin:miter;" x="498.109091" xlink:href="#m994249003d" y="138.863611"/>
    </g>
   </g>
   <g id="line2d_16">
    <path clip-path="url(#p61f4e0462a)" d="M 92.290909 66.96 
L 96.349091 78.538536 
L 100.407273 83.88731 
L 104.465455 88.658728 
L 108.523636 92.84871 
L 112.581818 94.852777 
L 116.64 97.119412 
L 120.698182 99.428136 
L 124.756364 101.332856 
L 128.814545 103.744648 
L 132.872727 105.083794 
L 136.930909 107.178477 
L 140.989091 109.499513 
L 145.047273 111.067749 
L 149.105455 112.219629 
L 153.163636 113.63996 
L 157.221818 115.173959 
L 161.28 117.090326 
L 165.338182 118.76698 
L 169.396364 119.864563 
L 173.454545 121.685755 
L 177.512727 122.910876 
L 181.570909 124.052813 
L 185.629091 125.809317 
L 189.687273 126.714756 
L 193.745455 127.617839 
L 197.803636 128.836658 
L 201.861818 130.194769 
L 205.92 131.571601 
L 209.978182 132.431828 
L 214.036364 133.111696 
L 218.094545 134.24902 
L 222.152727 135.793136 
L 226.210909 136.769539 
L 230.269091 137.689122 
L 234.327273 138.500595 
L 238.385455 139.422336 
L 242.443636 140.491289 
L 246.501818 140.963661 
L 250.56 142.332995 
L 254.618182 143.731675 
L 258.676364 144.515796 
L 262.734545 145.682451 
L 266.792727 148.383654 
L 270.850909 149.81138 
L 274.909091 151.078108 
L 278.967273 152.729259 
L 283.025455 154.631685 
L 287.083636 155.949359 
L 291.141818 157.397709 
L 295.2 158.540182 
L 299.258182 160.166469 
L 303.316364 160.836526 
L 307.374545 162.544353 
L 311.432727 163.473361 
L 315.490909 164.556129 
L 319.549091 166.174622 
L 323.607273 168.277615 
L 327.665455 169.118632 
L 331.723636 170.187414 
L 335.781818 171.583999 
L 339.84 172.842691 
L 343.898182 174.787418 
L 347.956364 177.533689 
L 352.014545 178.637116 
L 356.072727 179.796572 
L 360.130909 180.643688 
L 364.189091 181.893142 
L 368.247273 183.041415 
L 372.305455 184.600299 
L 376.363636 186.026302 
L 380.421818 187.705403 
L 384.48 189.06791 
L 388.538182 189.741435 
L 392.596364 190.704262 
L 396.654545 192.028601 
L 400.712727 192.727671 
L 404.770909 194.128389 
L 408.829091 196.99836 
L 412.887273 201.433905 
L 416.945455 207.15521 
L 421.003636 209.485157 
L 425.061818 210.916628 
L 429.12 215.562697 
L 433.178182 218.31419 
L 437.236364 220.924466 
L 441.294545 227.762331 
L 445.352727 230.366601 
L 449.410909 235.691535 
L 453.469091 247.601408 
L 457.527273 250.131989 
L 461.585455 253.184755 
L 465.643636 255.936353 
L 469.701818 257.91119 
L 473.76 264.870046 
L 477.818182 271.786473 
L 481.876364 283.01477 
L 485.934545 296.024939 
L 489.992727 317.651501 
L 494.050909 331.991652 
L 498.109091 343.267825 
" style="fill:none;stroke:#ff7f0e;stroke-linecap:square;stroke-width:1.5;"/>
   </g>
   <g id="line2d_17">
    <path clip-path="url(#p61f4e0462a)" d="M 92.290909 66.96 
L 96.349091 74.685239 
L 100.407273 77.486128 
L 104.465455 80.9792 
L 108.523636 82.146326 
L 112.581818 83.043759 
L 116.64 85.918907 
L 120.698182 87.89954 
L 124.756364 88.852248 
L 128.814545 90.9565 
L 132.872727 92.590758 
L 136.930909 93.749602 
L 140.989091 95.238551 
L 145.047273 97.066345 
L 149.105455 98.029232 
L 153.163636 98.515489 
L 157.221818 99.613194 
L 161.28 100.845718 
L 165.338182 101.326111 
L 169.396364 102.407647 
L 173.454545 103.325364 
L 177.512727 104.390325 
L 181.570909 105.333954 
L 185.629091 106.799548 
L 189.687273 106.991415 
L 193.745455 107.666425 
L 197.803636 108.861982 
L 201.861818 110.193602 
L 205.92 111.272621 
L 209.978182 112.629646 
L 214.036364 113.513397 
L 218.094545 114.128935 
L 222.152727 116.21616 
L 226.210909 117.578584 
L 230.269091 119.320638 
L 234.327273 121.32189 
L 238.385455 124.026807 
L 242.443636 124.576841 
L 246.501818 125.635951 
L 250.56 127.750395 
L 254.618182 128.72488 
L 258.676364 129.577472 
L 262.734545 130.912728 
L 266.792727 132.61289 
L 270.850909 133.295006 
L 274.909091 134.649853 
L 278.967273 135.190059 
L 283.025455 136.359702 
L 287.083636 136.888383 
L 291.141818 137.847158 
L 295.2 139.06092 
L 299.258182 139.675003 
L 303.316364 140.42366 
L 307.374545 141.246613 
L 311.432727 142.150719 
L 315.490909 143.526047 
L 319.549091 146.5291 
L 323.607273 147.883355 
L 327.665455 150.24671 
L 331.723636 152.802389 
L 335.781818 154.486239 
L 339.84 156.442695 
L 343.898182 157.388405 
L 347.956364 158.135436 
L 352.014545 162.706562 
L 356.072727 164.331957 
L 360.130909 165.216059 
L 364.189091 167.12547 
L 368.247273 170.096839 
L 372.305455 171.651697 
L 376.363636 173.551537 
L 380.421818 175.79408 
L 384.48 176.854191 
L 388.538182 178.166079 
L 392.596364 179.233683 
L 396.654545 181.441021 
L 400.712727 182.39399 
L 404.770909 184.076623 
L 408.829091 187.812973 
L 412.887273 188.480417 
L 416.945455 189.424789 
L 421.003636 190.425825 
L 425.061818 200.75297 
L 429.12 203.13697 
L 433.178182 205.843657 
L 437.236364 208.95244 
L 441.294545 212.639576 
L 445.352727 219.217238 
L 449.410909 229.519559 
L 453.469091 230.108914 
L 457.527273 235.940494 
L 461.585455 244.541878 
L 465.643636 248.318165 
L 469.701818 252.575755 
L 473.76 253.594229 
L 477.818182 259.448079 
L 481.876364 263.789607 
L 485.934545 273.177371 
L 489.992727 293.509653 
L 494.050909 301.379209 
L 498.109091 365.107688 
" style="fill:none;stroke:#2ca02c;stroke-linecap:square;stroke-width:1.5;"/>
   </g>
   <g id="line2d_18">
    <path clip-path="url(#p61f4e0462a)" d="M 92.290909 66.96 
L 96.349091 78.22733 
L 100.407273 82.394222 
L 104.465455 86.904086 
L 108.523636 90.77208 
L 112.581818 90.542004 
L 116.64 93.221983 
L 120.698182 95.59129 
L 124.756364 96.847554 
L 128.814545 100.050316 
L 132.872727 99.335937 
L 136.930909 103.017725 
L 140.989091 105.680121 
L 145.047273 105.89655 
L 149.105455 105.907697 
L 153.163636 108.108897 
L 157.221818 109.923143 
L 161.28 112.626063 
L 165.338182 113.834835 
L 169.396364 113.369223 
L 173.454545 117.044773 
L 177.512727 116.831313 
L 181.570909 117.708041 
L 185.629091 121.041629 
L 189.687273 119.477257 
L 193.745455 120.370175 
L 197.803636 122.737734 
L 201.861818 124.498906 
L 205.92 125.926237 
L 209.978182 124.994032 
L 214.036364 124.741056 
L 218.094545 127.888898 
L 222.152727 130.566064 
L 226.210909 129.82505 
L 230.269091 130.512015 
L 234.327273 130.833385 
L 238.385455 132.254349 
L 242.443636 133.89505 
L 246.501818 131.115422 
L 250.56 136.667501 
L 254.618182 138.144238 
L 258.676364 136.713158 
L 262.734545 139.41873 
L 266.792727 145.050193 
L 270.850909 144.299344 
L 274.909091 145.123566 
L 278.967273 147.742583 
L 283.025455 150.142219 
L 287.083636 150.141601 
L 291.141818 151.938119 
L 295.2 152.197189 
L 299.258182 155.125648 
L 303.316364 152.407621 
L 307.374545 157.677518 
L 311.432727 156.335928 
L 315.490909 158.008951 
L 319.549091 161.116621 
L 323.607273 164.130212 
L 327.665455 161.592194 
L 331.723636 163.590566 
L 335.781818 165.991056 
L 339.84 166.864372 
L 343.898182 170.373729 
L 347.956364 174.251792 
L 352.014545 172.162006 
L 356.072727 173.509447 
L 360.130909 173.145638 
L 364.189091 175.887276 
L 368.247273 176.717607 
L 372.305455 179.407559 
L 376.363636 180.509843 
L 380.421818 182.778434 
L 384.48 183.383978 
L 388.538182 181.333234 
L 392.596364 183.705589 
L 396.654545 186.239556 
L 400.712727 184.468463 
L 404.770909 188.546302 
L 408.829091 193.8523 
L 412.887273 199.501498 
L 416.945455 205.806419 
L 421.003636 205.67832 
L 425.061818 205.414182 
L 429.12 213.744157 
L 433.178182 215.038194 
L 437.236364 217.48337 
L 441.294545 226.758584 
L 445.352727 226.918219 
L 449.410909 234.188611 
L 453.469091 247.313872 
L 457.527273 246.592366 
L 461.585455 250.225379 
L 465.643636 252.660478 
L 469.701818 253.550205 
L 473.76 263.897267 
L 477.818182 270.802949 
L 481.876364 282.67633 
L 485.934545 295.803481 
L 489.992727 317.632984 
L 494.050909 332.174004 
L 498.109091 368.27089 
" style="fill:none;stroke:#d62728;stroke-dasharray:5.55,2.4;stroke-dashoffset:0;stroke-width:1.5;"/>
   </g>
   <g id="line2d_19">
    <path clip-path="url(#p61f4e0462a)" d="M 92.290909 66.96 
L 96.349091 74.569198 
L 100.407273 77.080917 
L 104.465455 80.602948 
L 108.523636 81.062233 
L 112.581818 81.772908 
L 116.64 85.434777 
L 120.698182 87.547305 
L 124.756364 87.71393 
L 128.814545 90.343694 
L 132.872727 91.739757 
L 136.930909 92.394387 
L 140.989091 94.442253 
L 145.047273 96.463321 
L 149.105455 97.383062 
L 153.163636 97.176185 
L 157.221818 98.687981 
L 161.28 99.834408 
L 165.338182 99.943635 
L 169.396364 101.028241 
L 173.454545 102.354549 
L 177.512727 103.563577 
L 181.570909 104.476955 
L 185.629091 106.209878 
L 189.687273 105.30252 
L 193.745455 105.77888 
L 197.803636 107.715848 
L 201.861818 109.027739 
L 205.92 109.981404 
L 209.978182 111.95268 
L 214.036364 112.51067 
L 218.094545 111.823089 
L 222.152727 115.274503 
L 226.210909 116.469762 
L 230.269091 118.931682 
L 234.327273 120.520213 
L 238.385455 123.695726 
L 242.443636 123.303824 
L 246.501818 124.485965 
L 250.56 127.148202 
L 254.618182 127.312041 
L 258.676364 128.699006 
L 262.734545 129.730239 
L 266.792727 132.076659 
L 270.850909 132.569924 
L 274.909091 133.827753 
L 278.967273 133.791716 
L 283.025455 135.62414 
L 287.083636 136.098299 
L 291.141818 137.051174 
L 295.2 138.199533 
L 299.258182 138.870888 
L 303.316364 138.757703 
L 307.374545 139.48304 
L 311.432727 140.168867 
L 315.490909 142.425061 
L 319.549091 145.980715 
L 323.607273 147.122643 
L 327.665455 149.096614 
L 331.723636 152.406097 
L 335.781818 153.954532 
L 339.84 155.860278 
L 343.898182 156.525795 
L 347.956364 157.188773 
L 352.014545 162.392833 
L 356.072727 164.075578 
L 360.130909 163.878929 
L 364.189091 165.97474 
L 368.247273 169.681756 
L 372.305455 170.290952 
L 376.363636 173.158486 
L 380.421818 175.367899 
L 384.48 176.320907 
L 388.538182 177.225805 
L 392.596364 178.516137 
L 396.654545 180.974683 
L 400.712727 181.550421 
L 404.770909 183.520007 
L 408.829091 187.672789 
L 412.887273 187.775056 
L 416.945455 188.503277 
L 421.003636 188.571396 
L 425.061818 200.664574 
L 429.12 202.865477 
L 433.178182 205.435952 
L 437.236364 208.241724 
L 441.294545 212.493545 
L 445.352727 219.033654 
L 449.410909 229.493909 
L 453.469091 228.867404 
L 457.527273 235.556299 
L 461.585455 244.475288 
L 465.643636 248.055226 
L 469.701818 252.503579 
L 473.76 253.03573 
L 477.818182 259.097359 
L 481.876364 263.33926 
L 485.934545 273.039818 
L 489.992727 293.500008 
L 494.050909 301.235033 
L 498.109091 369.36 
" style="fill:none;stroke:#9467bd;stroke-dasharray:5.55,2.4;stroke-dashoffset:0;stroke-width:1.5;"/>
   </g>
   <g id="line2d_20">
    <path clip-path="url(#p61f4e0462a)" d="M 92.290909 66.96 
L 96.349091 78.22733 
L 100.407273 82.394222 
L 104.465455 86.904086 
L 108.523636 90.77208 
L 112.581818 90.542004 
L 116.64 93.221983 
L 120.698182 95.59129 
L 124.756364 96.847554 
L 128.814545 100.050316 
L 132.872727 99.335937 
L 136.930909 103.017725 
L 140.989091 105.680121 
L 145.047273 105.89655 
L 149.105455 105.907697 
L 153.163636 108.108897 
L 157.221818 109.923143 
L 161.28 112.626063 
L 165.338182 113.834835 
L 169.396364 113.369223 
L 173.454545 117.044766 
L 177.512727 116.821584 
L 181.570909 115.34848 
L 185.629091 115.170945 
L 189.687273 121.065182 
L 193.745455 116.655633 
L 197.803636 117.281993 
L 201.861818 120.515514 
L 205.92 122.406276 
L 209.978182 113.645029 
L 214.036364 124.610453 
L 218.094545 116.940719 
L 222.152727 126.115212 
L 226.210909 125.134068 
L 230.269091 123.812452 
L 234.327273 119.111033 
L 238.385455 127.928252 
L 242.443636 130.023149 
L 246.501818 125.10474 
L 250.56 126.996744 
L 254.618182 126.4328 
L 258.676364 129.764579 
L 262.734545 124.696517 
L 266.792727 128.590703 
L 270.850909 128.343722 
L 274.909091 130.940375 
L 278.967273 124.012266 
L 283.025455 134.159423 
L 287.083636 119.490392 
L 291.141818 128.880109 
L 295.2 124.90537 
L 299.258182 123.055817 
L 303.316364 136.59403 
L 307.374545 123.479508 
L 311.432727 132.895182 
L 315.490909 135.842743 
L 319.549091 130.188151 
L 323.607273 133.33217 
L 327.665455 133.21686 
L 331.723636 131.158217 
L 335.781818 139.14498 
L 339.84 128.953836 
L 343.898182 132.165298 
L 347.956364 136.170528 
L 352.014545 140.928706 
L 356.072727 141.915952 
L 360.130909 131.156497 
L 364.189091 129.844912 
L 368.247273 144.575179 
L 372.305455 132.931121 
L 376.363636 134.15397 
L 380.421818 144.752145 
L 384.48 137.886594 
L 388.538182 139.727929 
L 392.596364 134.740846 
L 396.654545 146.274217 
L 400.712727 138.718888 
L 404.770909 137.79785 
L 408.829091 147.476173 
L 412.887273 148.134185 
L 416.945455 131.858675 
L 421.003636 136.747599 
L 425.061818 143.960716 
L 429.12 144.911905 
L 433.178182 143.623683 
L 437.236364 136.229 
L 441.294545 137.600698 
L 445.352727 135.815032 
L 449.410909 152.020326 
L 453.469091 134.30258 
L 457.527273 142.317469 
L 461.585455 142.038743 
L 465.643636 152.905226 
L 469.701818 138.483997 
L 473.76 144.786116 
L 477.818182 152.864493 
L 481.876364 148.722137 
L 485.934545 133.498506 
L 489.992727 143.42773 
L 494.050909 137.640842 
L 498.109091 146.035369 
" style="fill:none;stroke:#8c564b;stroke-linecap:square;stroke-width:1.5;"/>
    <defs>
     <path d="M -3 3 
L 3 -3 
M -3 -3 
L 3 3 
" id="m755b865858" style="stroke:#8c564b;"/>
    </defs>
    <g clip-path="url(#p61f4e0462a)">
     <use style="fill:#8c564b;stroke:#8c564b;" x="92.290909" xlink:href="#m755b865858" y="66.96"/>
     <use style="fill:#8c564b;stroke:#8c564b;" x="96.349091" xlink:href="#m755b865858" y="78.22733"/>
     <use style="fill:#8c564b;stroke:#8c564b;" x="100.407273" xlink:href="#m755b865858" y="82.394222"/>
     <use style="fill:#8c564b;stroke:#8c564b;" x="104.465455" xlink:href="#m755b865858" y="86.904086"/>
     <use style="fill:#8c564b;stroke:#8c564b;" x="108.523636" xlink:href="#m755b865858" y="90.77208"/>
     <use style="fill:#8c564b;stroke:#8c564b;" x="112.581818" xlink:href="#m755b865858" y="90.542004"/>
     <use style="fill:#8c564b;stroke:#8c564b;" x="116.64" xlink:href="#m755b865858" y="93.221983"/>
     <use style="fill:#8c564b;stroke:#8c564b;" x="120.698182" xlink:href="#m755b865858" y="95.59129"/>
     <use style="fill:#8c564b;stroke:#8c564b;" x="124.756364" xlink:href="#m755b865858" y="96.847554"/>
     <use style="fill:#8c564b;stroke:#8c564b;" x="128.814545" xlink:href="#m755b865858" y="100.050316"/>
     <use style="fill:#8c564b;stroke:#8c564b;" x="132.872727" xlink:href="#m755b865858" y="99.335937"/>
     <use style="fill:#8c564b;stroke:#8c564b;" x="136.930909" xlink:href="#m755b865858" y="103.017725"/>
     <use style="fill:#8c564b;stroke:#8c564b;" x="140.989091" xlink:href="#m755b865858" y="105.680121"/>
     <use style="fill:#8c564b;stroke:#8c564b;" x="145.047273" xlink:href="#m755b865858" y="105.89655"/>
     <use style="fill:#8c564b;stroke:#8c564b;" x="149.105455" xlink:href="#m755b865858" y="105.907697"/>
     <use style="fill:#8c564b;stroke:#8c564b;" x="153.163636" xlink:href="#m755b865858" y="108.108897"/>
     <use style="fill:#8c564b;stroke:#8c564b;" x="157.221818" xlink:href="#m755b865858" y="109.923143"/>
     <use style="fill:#8c564b;stroke:#8c564b;" x="161.28" xlink:href="#m755b865858" y="112.626063"/>
     <use style="fill:#8c564b;stroke:#8c564b;" x="165.338182" xlink:href="#m755b865858" y="113.834835"/>
     <use style="fill:#8c564b;stroke:#8c564b;" x="169.396364" xlink:href="#m755b865858" y="113.369223"/>
     <use style="fill:#8c564b;stroke:#8c564b;" x="173.454545" xlink:href="#m755b865858" y="117.044766"/>
     <use style="fill:#8c564b;stroke:#8c564b;" x="177.512727" xlink:href="#m755b865858" y="116.821584"/>
     <use style="fill:#8c564b;stroke:#8c564b;" x="181.570909" xlink:href="#m755b865858" y="115.34848"/>
     <use style="fill:#8c564b;stroke:#8c564b;" x="185.629091" xlink:href="#m755b865858" y="115.170945"/>
     <use style="fill:#8c564b;stroke:#8c564b;" x="189.687273" xlink:href="#m755b865858" y="121.065182"/>
     <use style="fill:#8c564b;stroke:#8c564b;" x="193.745455" xlink:href="#m755b865858" y="116.655633"/>
     <use style="fill:#8c564b;stroke:#8c564b;" x="197.803636" xlink:href="#m755b865858" y="117.281993"/>
     <use style="fill:#8c564b;stroke:#8c564b;" x="201.861818" xlink:href="#m755b865858" y="120.515514"/>
     <use style="fill:#8c564b;stroke:#8c564b;" x="205.92" xlink:href="#m755b865858" y="122.406276"/>
     <use style="fill:#8c564b;stroke:#8c564b;" x="209.978182" xlink:href="#m755b865858" y="113.645029"/>
     <use style="fill:#8c564b;stroke:#8c564b;" x="214.036364" xlink:href="#m755b865858" y="124.610453"/>
     <use style="fill:#8c564b;stroke:#8c564b;" x="218.094545" xlink:href="#m755b865858" y="116.940719"/>
     <use style="fill:#8c564b;stroke:#8c564b;" x="222.152727" xlink:href="#m755b865858" y="126.115212"/>
     <use style="fill:#8c564b;stroke:#8c564b;" x="226.210909" xlink:href="#m755b865858" y="125.134068"/>
     <use style="fill:#8c564b;stroke:#8c564b;" x="230.269091" xlink:href="#m755b865858" y="123.812452"/>
     <use style="fill:#8c564b;stroke:#8c564b;" x="234.327273" xlink:href="#m755b865858" y="119.111033"/>
     <use style="fill:#8c564b;stroke:#8c564b;" x="238.385455" xlink:href="#m755b865858" y="127.928252"/>
     <use style="fill:#8c564b;stroke:#8c564b;" x="242.443636" xlink:href="#m755b865858" y="130.023149"/>
     <use style="fill:#8c564b;stroke:#8c564b;" x="246.501818" xlink:href="#m755b865858" y="125.10474"/>
     <use style="fill:#8c564b;stroke:#8c564b;" x="250.56" xlink:href="#m755b865858" y="126.996744"/>
     <use style="fill:#8c564b;stroke:#8c564b;" x="254.618182" xlink:href="#m755b865858" y="126.4328"/>
     <use style="fill:#8c564b;stroke:#8c564b;" x="258.676364" xlink:href="#m755b865858" y="129.764579"/>
     <use style="fill:#8c564b;stroke:#8c564b;" x="262.734545" xlink:href="#m755b865858" y="124.696517"/>
     <use style="fill:#8c564b;stroke:#8c564b;" x="266.792727" xlink:href="#m755b865858" y="128.590703"/>
     <use style="fill:#8c564b;stroke:#8c564b;" x="270.850909" xlink:href="#m755b865858" y="128.343722"/>
     <use style="fill:#8c564b;stroke:#8c564b;" x="274.909091" xlink:href="#m755b865858" y="130.940375"/>
     <use style="fill:#8c564b;stroke:#8c564b;" x="278.967273" xlink:href="#m755b865858" y="124.012266"/>
     <use style="fill:#8c564b;stroke:#8c564b;" x="283.025455" xlink:href="#m755b865858" y="134.159423"/>
     <use style="fill:#8c564b;stroke:#8c564b;" x="287.083636" xlink:href="#m755b865858" y="119.490392"/>
     <use style="fill:#8c564b;stroke:#8c564b;" x="291.141818" xlink:href="#m755b865858" y="128.880109"/>
     <use style="fill:#8c564b;stroke:#8c564b;" x="295.2" xlink:href="#m755b865858" y="124.90537"/>
     <use style="fill:#8c564b;stroke:#8c564b;" x="299.258182" xlink:href="#m755b865858" y="123.055817"/>
     <use style="fill:#8c564b;stroke:#8c564b;" x="303.316364" xlink:href="#m755b865858" y="136.59403"/>
     <use style="fill:#8c564b;stroke:#8c564b;" x="307.374545" xlink:href="#m755b865858" y="123.479508"/>
     <use style="fill:#8c564b;stroke:#8c564b;" x="311.432727" xlink:href="#m755b865858" y="132.895182"/>
     <use style="fill:#8c564b;stroke:#8c564b;" x="315.490909" xlink:href="#m755b865858" y="135.842743"/>
     <use style="fill:#8c564b;stroke:#8c564b;" x="319.549091" xlink:href="#m755b865858" y="130.188151"/>
     <use style="fill:#8c564b;stroke:#8c564b;" x="323.607273" xlink:href="#m755b865858" y="133.33217"/>
     <use style="fill:#8c564b;stroke:#8c564b;" x="327.665455" xlink:href="#m755b865858" y="133.21686"/>
     <use style="fill:#8c564b;stroke:#8c564b;" x="331.723636" xlink:href="#m755b865858" y="131.158217"/>
     <use style="fill:#8c564b;stroke:#8c564b;" x="335.781818" xlink:href="#m755b865858" y="139.14498"/>
     <use style="fill:#8c564b;stroke:#8c564b;" x="339.84" xlink:href="#m755b865858" y="128.953836"/>
     <use style="fill:#8c564b;stroke:#8c564b;" x="343.898182" xlink:href="#m755b865858" y="132.165298"/>
     <use style="fill:#8c564b;stroke:#8c564b;" x="347.956364" xlink:href="#m755b865858" y="136.170528"/>
     <use style="fill:#8c564b;stroke:#8c564b;" x="352.014545" xlink:href="#m755b865858" y="140.928706"/>
     <use style="fill:#8c564b;stroke:#8c564b;" x="356.072727" xlink:href="#m755b865858" y="141.915952"/>
     <use style="fill:#8c564b;stroke:#8c564b;" x="360.130909" xlink:href="#m755b865858" y="131.156497"/>
     <use style="fill:#8c564b;stroke:#8c564b;" x="364.189091" xlink:href="#m755b865858" y="129.844912"/>
     <use style="fill:#8c564b;stroke:#8c564b;" x="368.247273" xlink:href="#m755b865858" y="144.575179"/>
     <use style="fill:#8c564b;stroke:#8c564b;" x="372.305455" xlink:href="#m755b865858" y="132.931121"/>
     <use style="fill:#8c564b;stroke:#8c564b;" x="376.363636" xlink:href="#m755b865858" y="134.15397"/>
     <use style="fill:#8c564b;stroke:#8c564b;" x="380.421818" xlink:href="#m755b865858" y="144.752145"/>
     <use style="fill:#8c564b;stroke:#8c564b;" x="384.48" xlink:href="#m755b865858" y="137.886594"/>
     <use style="fill:#8c564b;stroke:#8c564b;" x="388.538182" xlink:href="#m755b865858" y="139.727929"/>
     <use style="fill:#8c564b;stroke:#8c564b;" x="392.596364" xlink:href="#m755b865858" y="134.740846"/>
     <use style="fill:#8c564b;stroke:#8c564b;" x="396.654545" xlink:href="#m755b865858" y="146.274217"/>
     <use style="fill:#8c564b;stroke:#8c564b;" x="400.712727" xlink:href="#m755b865858" y="138.718888"/>
     <use style="fill:#8c564b;stroke:#8c564b;" x="404.770909" xlink:href="#m755b865858" y="137.79785"/>
     <use style="fill:#8c564b;stroke:#8c564b;" x="408.829091" xlink:href="#m755b865858" y="147.476173"/>
     <use style="fill:#8c564b;stroke:#8c564b;" x="412.887273" xlink:href="#m755b865858" y="148.134185"/>
     <use style="fill:#8c564b;stroke:#8c564b;" x="416.945455" xlink:href="#m755b865858" y="131.858675"/>
     <use style="fill:#8c564b;stroke:#8c564b;" x="421.003636" xlink:href="#m755b865858" y="136.747599"/>
     <use style="fill:#8c564b;stroke:#8c564b;" x="425.061818" xlink:href="#m755b865858" y="143.960716"/>
     <use style="fill:#8c564b;stroke:#8c564b;" x="429.12" xlink:href="#m755b865858" y="144.911905"/>
     <use style="fill:#8c564b;stroke:#8c564b;" x="433.178182" xlink:href="#m755b865858" y="143.623683"/>
     <use style="fill:#8c564b;stroke:#8c564b;" x="437.236364" xlink:href="#m755b865858" y="136.229"/>
     <use style="fill:#8c564b;stroke:#8c564b;" x="441.294545" xlink:href="#m755b865858" y="137.600698"/>
     <use style="fill:#8c564b;stroke:#8c564b;" x="445.352727" xlink:href="#m755b865858" y="135.815032"/>
     <use style="fill:#8c564b;stroke:#8c564b;" x="449.410909" xlink:href="#m755b865858" y="152.020326"/>
     <use style="fill:#8c564b;stroke:#8c564b;" x="453.469091" xlink:href="#m755b865858" y="134.30258"/>
     <use style="fill:#8c564b;stroke:#8c564b;" x="457.527273" xlink:href="#m755b865858" y="142.317469"/>
     <use style="fill:#8c564b;stroke:#8c564b;" x="461.585455" xlink:href="#m755b865858" y="142.038743"/>
     <use style="fill:#8c564b;stroke:#8c564b;" x="465.643636" xlink:href="#m755b865858" y="152.905226"/>
     <use style="fill:#8c564b;stroke:#8c564b;" x="469.701818" xlink:href="#m755b865858" y="138.483997"/>
     <use style="fill:#8c564b;stroke:#8c564b;" x="473.76" xlink:href="#m755b865858" y="144.786116"/>
     <use style="fill:#8c564b;stroke:#8c564b;" x="477.818182" xlink:href="#m755b865858" y="152.864493"/>
     <use style="fill:#8c564b;stroke:#8c564b;" x="481.876364" xlink:href="#m755b865858" y="148.722137"/>
     <use style="fill:#8c564b;stroke:#8c564b;" x="485.934545" xlink:href="#m755b865858" y="133.498506"/>
     <use style="fill:#8c564b;stroke:#8c564b;" x="489.992727" xlink:href="#m755b865858" y="143.42773"/>
     <use style="fill:#8c564b;stroke:#8c564b;" x="494.050909" xlink:href="#m755b865858" y="137.640842"/>
     <use style="fill:#8c564b;stroke:#8c564b;" x="498.109091" xlink:href="#m755b865858" y="146.035369"/>
    </g>
   </g>
   <g id="patch_3">
    <path d="M 72 384.48 
L 72 51.84 
" style="fill:none;stroke:#000000;stroke-linecap:square;stroke-linejoin:miter;stroke-width:0.8;"/>
   </g>
   <g id="patch_4">
    <path d="M 518.4 384.48 
L 518.4 51.84 
" style="fill:none;stroke:#000000;stroke-linecap:square;stroke-linejoin:miter;stroke-width:0.8;"/>
   </g>
   <g id="patch_5">
    <path d="M 72 384.48 
L 518.4 384.48 
" style="fill:none;stroke:#000000;stroke-linecap:square;stroke-linejoin:miter;stroke-width:0.8;"/>
   </g>
   <g id="patch_6">
    <path d="M 72 51.84 
L 518.4 51.84 
" style="fill:none;stroke:#000000;stroke-linecap:square;stroke-linejoin:miter;stroke-width:0.8;"/>
   </g>
   <g id="legend_1">
    <g id="patch_7">
     <path d="M 79 379.48 
L 215.382812 379.48 
Q 217.382812 379.48 217.382812 377.48 
L 217.382812 290.41125 
Q 217.382812 288.41125 215.382812 288.41125 
L 79 288.41125 
Q 77 288.41125 77 290.41125 
L 77 377.48 
Q 77 379.48 79 379.48 
z
" style="fill:#ffffff;opacity:0.8;stroke:#cccccc;stroke-linejoin:miter;"/>
    </g>
    <g id="line2d_21">
     <path d="M 81 296.509688 
L 101 296.509688 
" style="fill:none;stroke:#1f77b4;stroke-linecap:square;stroke-width:1.5;"/>
    </g>
    <g id="line2d_22">
     <g>
      <use style="fill:#1f77b4;stroke:#1f77b4;stroke-linejoin:miter;" x="91" xlink:href="#m994249003d" y="296.509688"/>
     </g>
    </g>
    <g id="text_17">
     <!-- CG -->
     <g transform="translate(109 300.009688)scale(0.1 -0.1)">
      <defs>
       <path d="M 4122 4306 
L 4122 3641 
Q 3803 3938 3442 4084 
Q 3081 4231 2675 4231 
Q 1875 4231 1450 3742 
Q 1025 3253 1025 2328 
Q 1025 1406 1450 917 
Q 1875 428 2675 428 
Q 3081 428 3442 575 
Q 3803 722 4122 1019 
L 4122 359 
Q 3791 134 3420 21 
Q 3050 -91 2638 -91 
Q 1578 -91 968 557 
Q 359 1206 359 2328 
Q 359 3453 968 4101 
Q 1578 4750 2638 4750 
Q 3056 4750 3426 4639 
Q 3797 4528 4122 4306 
z
" id="DejaVuSans-43" transform="scale(0.015625)"/>
       <path d="M 3809 666 
L 3809 1919 
L 2778 1919 
L 2778 2438 
L 4434 2438 
L 4434 434 
Q 4069 175 3628 42 
Q 3188 -91 2688 -91 
Q 1594 -91 976 548 
Q 359 1188 359 2328 
Q 359 3472 976 4111 
Q 1594 4750 2688 4750 
Q 3144 4750 3555 4637 
Q 3966 4525 4313 4306 
L 4313 3634 
Q 3963 3931 3569 4081 
Q 3175 4231 2741 4231 
Q 1884 4231 1454 3753 
Q 1025 3275 1025 2328 
Q 1025 1384 1454 906 
Q 1884 428 2741 428 
Q 3075 428 3337 486 
Q 3600 544 3809 666 
z
" id="DejaVuSans-47" transform="scale(0.015625)"/>
      </defs>
      <use xlink:href="#DejaVuSans-43"/>
      <use x="69.824219" xlink:href="#DejaVuSans-47"/>
     </g>
    </g>
    <g id="line2d_23">
     <path d="M 81 311.187813 
L 101 311.187813 
" style="fill:none;stroke:#ff7f0e;stroke-linecap:square;stroke-width:1.5;"/>
    </g>
    <g id="line2d_24"/>
    <g id="text_18">
     <!-- GMRES (krylov) -->
     <g transform="translate(109 314.687813)scale(0.1 -0.1)">
      <defs>
       <path d="M 628 4666 
L 1569 4666 
L 2759 1491 
L 3956 4666 
L 4897 4666 
L 4897 0 
L 4281 0 
L 4281 4097 
L 3078 897 
L 2444 897 
L 1241 4097 
L 1241 0 
L 628 0 
L 628 4666 
z
" id="DejaVuSans-4d" transform="scale(0.015625)"/>
       <path d="M 2841 2188 
Q 3044 2119 3236 1894 
Q 3428 1669 3622 1275 
L 4263 0 
L 3584 0 
L 2988 1197 
Q 2756 1666 2539 1819 
Q 2322 1972 1947 1972 
L 1259 1972 
L 1259 0 
L 628 0 
L 628 4666 
L 2053 4666 
Q 2853 4666 3247 4331 
Q 3641 3997 3641 3322 
Q 3641 2881 3436 2590 
Q 3231 2300 2841 2188 
z
M 1259 4147 
L 1259 2491 
L 2053 2491 
Q 2509 2491 2742 2702 
Q 2975 2913 2975 3322 
Q 2975 3731 2742 3939 
Q 2509 4147 2053 4147 
L 1259 4147 
z
" id="DejaVuSans-52" transform="scale(0.015625)"/>
       <path d="M 628 4666 
L 3578 4666 
L 3578 4134 
L 1259 4134 
L 1259 2753 
L 3481 2753 
L 3481 2222 
L 1259 2222 
L 1259 531 
L 3634 531 
L 3634 0 
L 628 0 
L 628 4666 
z
" id="DejaVuSans-45" transform="scale(0.015625)"/>
       <path d="M 3425 4513 
L 3425 3897 
Q 3066 4069 2747 4153 
Q 2428 4238 2131 4238 
Q 1616 4238 1336 4038 
Q 1056 3838 1056 3469 
Q 1056 3159 1242 3001 
Q 1428 2844 1947 2747 
L 2328 2669 
Q 3034 2534 3370 2195 
Q 3706 1856 3706 1288 
Q 3706 609 3251 259 
Q 2797 -91 1919 -91 
Q 1588 -91 1214 -16 
Q 841 59 441 206 
L 441 856 
Q 825 641 1194 531 
Q 1563 422 1919 422 
Q 2459 422 2753 634 
Q 3047 847 3047 1241 
Q 3047 1584 2836 1778 
Q 2625 1972 2144 2069 
L 1759 2144 
Q 1053 2284 737 2584 
Q 422 2884 422 3419 
Q 422 4038 858 4394 
Q 1294 4750 2059 4750 
Q 2388 4750 2728 4690 
Q 3069 4631 3425 4513 
z
" id="DejaVuSans-53" transform="scale(0.015625)"/>
       <path d="M 1984 4856 
Q 1566 4138 1362 3434 
Q 1159 2731 1159 2009 
Q 1159 1288 1364 580 
Q 1569 -128 1984 -844 
L 1484 -844 
Q 1016 -109 783 600 
Q 550 1309 550 2009 
Q 550 2706 781 3412 
Q 1013 4119 1484 4856 
L 1984 4856 
z
" id="DejaVuSans-28" transform="scale(0.015625)"/>
       <path d="M 581 4863 
L 1159 4863 
L 1159 1991 
L 2875 3500 
L 3609 3500 
L 1753 1863 
L 3688 0 
L 2938 0 
L 1159 1709 
L 1159 0 
L 581 0 
L 581 4863 
z
" id="DejaVuSans-6b" transform="scale(0.015625)"/>
       <path d="M 2059 -325 
Q 1816 -950 1584 -1140 
Q 1353 -1331 966 -1331 
L 506 -1331 
L 506 -850 
L 844 -850 
Q 1081 -850 1212 -737 
Q 1344 -625 1503 -206 
L 1606 56 
L 191 3500 
L 800 3500 
L 1894 763 
L 2988 3500 
L 3597 3500 
L 2059 -325 
z
" id="DejaVuSans-79" transform="scale(0.015625)"/>
       <path d="M 191 3500 
L 800 3500 
L 1894 563 
L 2988 3500 
L 3597 3500 
L 2284 0 
L 1503 0 
L 191 3500 
z
" id="DejaVuSans-76" transform="scale(0.015625)"/>
       <path d="M 513 4856 
L 1013 4856 
Q 1481 4119 1714 3412 
Q 1947 2706 1947 2009 
Q 1947 1309 1714 600 
Q 1481 -109 1013 -844 
L 513 -844 
Q 928 -128 1133 580 
Q 1338 1288 1338 2009 
Q 1338 2731 1133 3434 
Q 928 4138 513 4856 
z
" id="DejaVuSans-29" transform="scale(0.015625)"/>
      </defs>
      <use xlink:href="#DejaVuSans-47"/>
      <use x="77.490234" xlink:href="#DejaVuSans-4d"/>
      <use x="163.769531" xlink:href="#DejaVuSans-52"/>
      <use x="233.251953" xlink:href="#DejaVuSans-45"/>
      <use x="296.435547" xlink:href="#DejaVuSans-53"/>
      <use x="359.912109" xlink:href="#DejaVuSans-20"/>
      <use x="391.699219" xlink:href="#DejaVuSans-28"/>
      <use x="430.712891" xlink:href="#DejaVuSans-6b"/>
      <use x="488.623047" xlink:href="#DejaVuSans-72"/>
      <use x="529.736328" xlink:href="#DejaVuSans-79"/>
      <use x="588.916016" xlink:href="#DejaVuSans-6c"/>
      <use x="616.699219" xlink:href="#DejaVuSans-6f"/>
      <use x="677.880859" xlink:href="#DejaVuSans-76"/>
      <use x="737.060547" xlink:href="#DejaVuSans-29"/>
     </g>
    </g>
    <g id="line2d_25">
     <path d="M 81 325.865938 
L 101 325.865938 
" style="fill:none;stroke:#2ca02c;stroke-linecap:square;stroke-width:1.5;"/>
    </g>
    <g id="line2d_26"/>
    <g id="text_19">
     <!-- GMRES (grad) -->
     <g transform="translate(109 329.365938)scale(0.1 -0.1)">
      <defs>
       <path d="M 2906 1791 
Q 2906 2416 2648 2759 
Q 2391 3103 1925 3103 
Q 1463 3103 1205 2759 
Q 947 2416 947 1791 
Q 947 1169 1205 825 
Q 1463 481 1925 481 
Q 2391 481 2648 825 
Q 2906 1169 2906 1791 
z
M 3481 434 
Q 3481 -459 3084 -895 
Q 2688 -1331 1869 -1331 
Q 1566 -1331 1297 -1286 
Q 1028 -1241 775 -1147 
L 775 -588 
Q 1028 -725 1275 -790 
Q 1522 -856 1778 -856 
Q 2344 -856 2625 -561 
Q 2906 -266 2906 331 
L 2906 616 
Q 2728 306 2450 153 
Q 2172 0 1784 0 
Q 1141 0 747 490 
Q 353 981 353 1791 
Q 353 2603 747 3093 
Q 1141 3584 1784 3584 
Q 2172 3584 2450 3431 
Q 2728 3278 2906 2969 
L 2906 3500 
L 3481 3500 
L 3481 434 
z
" id="DejaVuSans-67" transform="scale(0.015625)"/>
      </defs>
      <use xlink:href="#DejaVuSans-47"/>
      <use x="77.490234" xlink:href="#DejaVuSans-4d"/>
      <use x="163.769531" xlink:href="#DejaVuSans-52"/>
      <use x="233.251953" xlink:href="#DejaVuSans-45"/>
      <use x="296.435547" xlink:href="#DejaVuSans-53"/>
      <use x="359.912109" xlink:href="#DejaVuSans-20"/>
      <use x="391.699219" xlink:href="#DejaVuSans-28"/>
      <use x="430.712891" xlink:href="#DejaVuSans-67"/>
      <use x="494.189453" xlink:href="#DejaVuSans-72"/>
      <use x="535.302734" xlink:href="#DejaVuSans-61"/>
      <use x="596.582031" xlink:href="#DejaVuSans-64"/>
      <use x="660.058594" xlink:href="#DejaVuSans-29"/>
     </g>
    </g>
    <g id="line2d_27">
     <path d="M 81 340.544062 
L 101 340.544062 
" style="fill:none;stroke:#d62728;stroke-dasharray:5.55,2.4;stroke-dashoffset:0;stroke-width:1.5;"/>
    </g>
    <g id="line2d_28"/>
    <g id="text_20">
     <!-- FOM (krylov) -->
     <g transform="translate(109 344.044062)scale(0.1 -0.1)">
      <defs>
       <path d="M 628 4666 
L 3309 4666 
L 3309 4134 
L 1259 4134 
L 1259 2759 
L 3109 2759 
L 3109 2228 
L 1259 2228 
L 1259 0 
L 628 0 
L 628 4666 
z
" id="DejaVuSans-46" transform="scale(0.015625)"/>
       <path d="M 2522 4238 
Q 1834 4238 1429 3725 
Q 1025 3213 1025 2328 
Q 1025 1447 1429 934 
Q 1834 422 2522 422 
Q 3209 422 3611 934 
Q 4013 1447 4013 2328 
Q 4013 3213 3611 3725 
Q 3209 4238 2522 4238 
z
M 2522 4750 
Q 3503 4750 4090 4092 
Q 4678 3434 4678 2328 
Q 4678 1225 4090 567 
Q 3503 -91 2522 -91 
Q 1538 -91 948 565 
Q 359 1222 359 2328 
Q 359 3434 948 4092 
Q 1538 4750 2522 4750 
z
" id="DejaVuSans-4f" transform="scale(0.015625)"/>
      </defs>
      <use xlink:href="#DejaVuSans-46"/>
      <use x="57.519531" xlink:href="#DejaVuSans-4f"/>
      <use x="136.230469" xlink:href="#DejaVuSans-4d"/>
      <use x="222.509766" xlink:href="#DejaVuSans-20"/>
      <use x="254.296875" xlink:href="#DejaVuSans-28"/>
      <use x="293.310547" xlink:href="#DejaVuSans-6b"/>
      <use x="351.220703" xlink:href="#DejaVuSans-72"/>
      <use x="392.333984" xlink:href="#DejaVuSans-79"/>
      <use x="451.513672" xlink:href="#DejaVuSans-6c"/>
      <use x="479.296875" xlink:href="#DejaVuSans-6f"/>
      <use x="540.478516" xlink:href="#DejaVuSans-76"/>
      <use x="599.658203" xlink:href="#DejaVuSans-29"/>
     </g>
    </g>
    <g id="line2d_29">
     <path d="M 81 355.222188 
L 101 355.222188 
" style="fill:none;stroke:#9467bd;stroke-dasharray:5.55,2.4;stroke-dashoffset:0;stroke-width:1.5;"/>
    </g>
    <g id="line2d_30"/>
    <g id="text_21">
     <!-- FOM (grad) -->
     <g transform="translate(109 358.722188)scale(0.1 -0.1)">
      <use xlink:href="#DejaVuSans-46"/>
      <use x="57.519531" xlink:href="#DejaVuSans-4f"/>
      <use x="136.230469" xlink:href="#DejaVuSans-4d"/>
      <use x="222.509766" xlink:href="#DejaVuSans-20"/>
      <use x="254.296875" xlink:href="#DejaVuSans-28"/>
      <use x="293.310547" xlink:href="#DejaVuSans-67"/>
      <use x="356.787109" xlink:href="#DejaVuSans-72"/>
      <use x="397.900391" xlink:href="#DejaVuSans-61"/>
      <use x="459.179688" xlink:href="#DejaVuSans-64"/>
      <use x="522.65625" xlink:href="#DejaVuSans-29"/>
     </g>
    </g>
    <g id="line2d_31">
     <path d="M 81 369.900313 
L 101 369.900313 
" style="fill:none;stroke:#8c564b;stroke-linecap:square;stroke-width:1.5;"/>
    </g>
    <g id="line2d_32">
     <g>
      <use style="fill:#8c564b;stroke:#8c564b;" x="91" xlink:href="#m755b865858" y="369.900313"/>
     </g>
    </g>
    <g id="text_22">
     <!-- CG (IterativeSolvers) -->
     <g transform="translate(109 373.400313)scale(0.1 -0.1)">
      <defs>
       <path d="M 628 4666 
L 1259 4666 
L 1259 0 
L 628 0 
L 628 4666 
z
" id="DejaVuSans-49" transform="scale(0.015625)"/>
      </defs>
      <use xlink:href="#DejaVuSans-43"/>
      <use x="69.824219" xlink:href="#DejaVuSans-47"/>
      <use x="147.314453" xlink:href="#DejaVuSans-20"/>
      <use x="179.101562" xlink:href="#DejaVuSans-28"/>
      <use x="218.115234" xlink:href="#DejaVuSans-49"/>
      <use x="247.607422" xlink:href="#DejaVuSans-74"/>
      <use x="286.816406" xlink:href="#DejaVuSans-65"/>
      <use x="348.339844" xlink:href="#DejaVuSans-72"/>
      <use x="389.453125" xlink:href="#DejaVuSans-61"/>
      <use x="450.732422" xlink:href="#DejaVuSans-74"/>
      <use x="489.941406" xlink:href="#DejaVuSans-69"/>
      <use x="517.724609" xlink:href="#DejaVuSans-76"/>
      <use x="576.904297" xlink:href="#DejaVuSans-65"/>
      <use x="638.427734" xlink:href="#DejaVuSans-53"/>
      <use x="701.904297" xlink:href="#DejaVuSans-6f"/>
      <use x="763.085938" xlink:href="#DejaVuSans-6c"/>
      <use x="790.869141" xlink:href="#DejaVuSans-76"/>
      <use x="850.048828" xlink:href="#DejaVuSans-65"/>
      <use x="911.572266" xlink:href="#DejaVuSans-72"/>
      <use x="952.685547" xlink:href="#DejaVuSans-73"/>
      <use x="1004.785156" xlink:href="#DejaVuSans-29"/>
     </g>
    </g>
   </g>
  </g>
 </g>
 <defs>
  <clipPath id="p61f4e0462a">
   <rect height="332.64" width="446.4" x="72" y="51.84"/>
  </clipPath>
 </defs>
</svg>
