<?xml version="1.0" encoding="utf-8" standalone="no"?>
<!DOCTYPE svg PUBLIC "-//W3C//DTD SVG 1.1//EN"
  "http://www.w3.org/Graphics/SVG/1.1/DTD/svg11.dtd">
<!-- Created with matplotlib (http://matplotlib.org/) -->
<svg height="362.948906pt" version="1.1" viewBox="0 0 496.962812 362.948906" width="496.962812pt" xmlns="http://www.w3.org/2000/svg" xmlns:xlink="http://www.w3.org/1999/xlink">
 <defs>
  <style type="text/css">
*{stroke-linecap:butt;stroke-linejoin:round;}
  </style>
 </defs>
 <g id="figure_1">
  <g id="patch_1">
   <path d="M 0 362.948906 
L 496.962812 362.948906 
L 496.962812 0 
L 0 0 
z
" style="fill:#ffffff;"/>
  </g>
  <g id="axes_1">
   <g id="patch_2">
    <path d="M 39.862813 336.86 
L 486.262812 336.86 
L 486.262812 10.7 
L 39.862813 10.7 
z
" style="fill:#ffffff;"/>
   </g>
   <g id="matplotlib.axis_1">
    <g id="xtick_1">
     <g id="line2d_1">
      <defs>
       <path d="M 0 0 
L 0 3.5 
" id="m2a85a3bc43" style="stroke:#000000;stroke-width:0.8;"/>
      </defs>
      <g>
       <use style="stroke:#000000;stroke-width:0.8;" x="60.153722" xlink:href="#m2a85a3bc43" y="336.86"/>
      </g>
     </g>
     <g id="text_1">
      <!-- −1 -->
      <defs>
       <path d="M 52.828125 31.203125 
L 5.5625 31.203125 
L 5.5625 39.40625 
L 52.828125 39.40625 
z
" id="ArialMT-2212"/>
       <path d="M 37.25 0 
L 28.46875 0 
L 28.46875 56 
Q 25.296875 52.984375 20.140625 49.953125 
Q 14.984375 46.921875 10.890625 45.40625 
L 10.890625 53.90625 
Q 18.265625 57.375 23.78125 62.296875 
Q 29.296875 67.234375 31.59375 71.875 
L 37.25 71.875 
z
" id="ArialMT-31"/>
      </defs>
      <g transform="translate(52.742706 353.165156)scale(0.13 -0.13)">
       <use xlink:href="#ArialMT-2212"/>
       <use x="58.398438" xlink:href="#ArialMT-31"/>
      </g>
     </g>
    </g>
    <g id="xtick_2">
     <g id="line2d_2">
      <g>
       <use style="stroke:#000000;stroke-width:0.8;" x="263.062813" xlink:href="#m2a85a3bc43" y="336.86"/>
      </g>
     </g>
     <g id="text_2">
      <!-- 0 -->
      <defs>
       <path d="M 4.15625 35.296875 
Q 4.15625 48 6.765625 55.734375 
Q 9.375 63.484375 14.515625 67.671875 
Q 19.671875 71.875 27.484375 71.875 
Q 33.25 71.875 37.59375 69.546875 
Q 41.9375 67.234375 44.765625 62.859375 
Q 47.609375 58.5 49.21875 52.21875 
Q 50.828125 45.953125 50.828125 35.296875 
Q 50.828125 22.703125 48.234375 14.96875 
Q 45.65625 7.234375 40.5 3 
Q 35.359375 -1.21875 27.484375 -1.21875 
Q 17.140625 -1.21875 11.234375 6.203125 
Q 4.15625 15.140625 4.15625 35.296875 
z
M 13.1875 35.296875 
Q 13.1875 17.671875 17.3125 11.828125 
Q 21.4375 6 27.484375 6 
Q 33.546875 6 37.671875 11.859375 
Q 41.796875 17.71875 41.796875 35.296875 
Q 41.796875 52.984375 37.671875 58.78125 
Q 33.546875 64.59375 27.390625 64.59375 
Q 21.34375 64.59375 17.71875 59.46875 
Q 13.1875 52.9375 13.1875 35.296875 
z
" id="ArialMT-30"/>
      </defs>
      <g transform="translate(259.448203 353.165156)scale(0.13 -0.13)">
       <use xlink:href="#ArialMT-30"/>
      </g>
     </g>
    </g>
    <g id="xtick_3">
     <g id="line2d_3">
      <g>
       <use style="stroke:#000000;stroke-width:0.8;" x="465.971903" xlink:href="#m2a85a3bc43" y="336.86"/>
      </g>
     </g>
     <g id="text_3">
      <!-- 1 -->
      <g transform="translate(462.357294 353.165156)scale(0.13 -0.13)">
       <use xlink:href="#ArialMT-31"/>
      </g>
     </g>
    </g>
   </g>
   <g id="matplotlib.axis_2">
    <g id="ytick_1">
     <g id="line2d_4">
      <defs>
       <path d="M 0 0 
L -3.5 0 
" id="m9184807f66" style="stroke:#000000;stroke-width:0.8;"/>
      </defs>
      <g>
       <use style="stroke:#000000;stroke-width:0.8;" x="39.862813" xlink:href="#m9184807f66" y="302.527368"/>
      </g>
     </g>
     <g id="text_4">
      <!-- −0.5 -->
      <defs>
       <path d="M 9.078125 0 
L 9.078125 10.015625 
L 19.09375 10.015625 
L 19.09375 0 
z
" id="ArialMT-2e"/>
       <path d="M 4.15625 18.75 
L 13.375 19.53125 
Q 14.40625 12.796875 18.140625 9.390625 
Q 21.875 6 27.15625 6 
Q 33.5 6 37.890625 10.78125 
Q 42.28125 15.578125 42.28125 23.484375 
Q 42.28125 31 38.0625 35.34375 
Q 33.84375 39.703125 27 39.703125 
Q 22.75 39.703125 19.328125 37.765625 
Q 15.921875 35.84375 13.96875 32.765625 
L 5.71875 33.84375 
L 12.640625 70.609375 
L 48.25 70.609375 
L 48.25 62.203125 
L 19.671875 62.203125 
L 15.828125 42.96875 
Q 22.265625 47.46875 29.34375 47.46875 
Q 38.71875 47.46875 45.15625 40.96875 
Q 51.609375 34.46875 51.609375 24.265625 
Q 51.609375 14.546875 45.953125 7.46875 
Q 39.0625 -1.21875 27.15625 -1.21875 
Q 17.390625 -1.21875 11.203125 4.25 
Q 5.03125 9.71875 4.15625 18.75 
z
" id="ArialMT-35"/>
      </defs>
      <g transform="translate(7.2 307.179947)scale(0.13 -0.13)">
       <use xlink:href="#ArialMT-2212"/>
       <use x="58.398438" xlink:href="#ArialMT-30"/>
       <use x="114.013672" xlink:href="#ArialMT-2e"/>
       <use x="141.796875" xlink:href="#ArialMT-35"/>
      </g>
     </g>
    </g>
    <g id="ytick_2">
     <g id="line2d_5">
      <g>
       <use style="stroke:#000000;stroke-width:0.8;" x="39.862813" xlink:href="#m9184807f66" y="216.695789"/>
      </g>
     </g>
     <g id="text_5">
      <!-- 0.0 -->
      <g transform="translate(14.792813 221.348368)scale(0.13 -0.13)">
       <use xlink:href="#ArialMT-30"/>
       <use x="55.615234" xlink:href="#ArialMT-2e"/>
       <use x="83.398438" xlink:href="#ArialMT-30"/>
      </g>
     </g>
    </g>
    <g id="ytick_3">
     <g id="line2d_6">
      <g>
       <use style="stroke:#000000;stroke-width:0.8;" x="39.862813" xlink:href="#m9184807f66" y="130.864211"/>
      </g>
     </g>
     <g id="text_6">
      <!-- 0.5 -->
      <g transform="translate(14.792813 135.516789)scale(0.13 -0.13)">
       <use xlink:href="#ArialMT-30"/>
       <use x="55.615234" xlink:href="#ArialMT-2e"/>
       <use x="83.398438" xlink:href="#ArialMT-35"/>
      </g>
     </g>
    </g>
   </g>
   <g id="line2d_7">
    <path clip-path="url(#pf86bededa2)" d="M 60.153722 45.032632 
L 64.252895 48.500574 
L 68.352069 51.968517 
L 72.451242 55.436459 
L 76.550416 58.904402 
L 80.649589 62.372344 
L 84.748763 65.840287 
L 88.847936 69.30823 
L 92.94711 72.776172 
L 97.046284 76.244115 
L 101.145457 79.712057 
L 105.244631 83.18 
L 109.343804 86.647943 
L 113.442978 90.115885 
L 117.542151 93.583828 
L 121.641325 97.05177 
L 125.740498 100.519713 
L 129.839672 103.987656 
L 133.938846 107.455598 
L 138.038019 110.923541 
L 142.137193 114.391483 
L 146.236366 117.859426 
L 150.33554 121.327368 
L 154.434713 124.795311 
L 158.533887 128.263254 
L 162.63306 131.731196 
L 166.732234 135.199139 
L 170.831408 138.667081 
L 174.930581 142.135024 
L 179.029755 145.602967 
L 183.128928 149.070909 
L 187.228102 152.538852 
L 191.327275 156.006794 
L 195.426449 159.474737 
L 199.525622 162.942679 
L 203.624796 166.410622 
L 207.72397 169.878565 
L 211.823143 173.346507 
L 215.922317 176.81445 
L 220.02149 180.282392 
L 224.120664 183.750335 
L 228.219837 187.218278 
L 232.319011 190.68622 
L 236.418184 194.154163 
L 240.517358 197.622105 
L 244.616532 201.090048 
L 248.715705 204.55799 
L 252.814879 208.025933 
L 256.914052 211.493876 
L 261.013226 214.961818 
L 265.112399 214.961818 
L 269.211573 211.493876 
L 273.310746 208.025933 
L 277.40992 204.55799 
L 281.509093 201.090048 
L 285.608267 197.622105 
L 289.707441 194.154163 
L 293.806614 190.68622 
L 297.905788 187.218278 
L 302.004961 183.750335 
L 306.104135 180.282392 
L 310.203308 176.81445 
L 314.302482 173.346507 
L 318.401655 169.878565 
L 322.500829 166.410622 
L 326.600003 162.942679 
L 330.699176 159.474737 
L 334.79835 156.006794 
L 338.897523 152.538852 
L 342.996697 149.070909 
L 347.09587 145.602967 
L 351.195044 142.135024 
L 355.294217 138.667081 
L 359.393391 135.199139 
L 363.492565 131.731196 
L 367.591738 128.263254 
L 371.690912 124.795311 
L 375.790085 121.327368 
L 379.889259 117.859426 
L 383.988432 114.391483 
L 388.087606 110.923541 
L 392.186779 107.455598 
L 396.285953 103.987656 
L 400.385127 100.519713 
L 404.4843 97.05177 
L 408.583474 93.583828 
L 412.682647 90.115885 
L 416.781821 86.647943 
L 420.880994 83.18 
L 424.980168 79.712057 
L 429.079341 76.244115 
L 433.178515 72.776172 
L 437.277689 69.30823 
L 441.376862 65.840287 
L 445.476036 62.372344 
L 449.575209 58.904402 
L 453.674383 55.436459 
L 457.773556 51.968517 
L 461.87273 48.500574 
L 465.971903 45.032632 
" style="fill:none;stroke:#1f77b4;stroke-linecap:square;stroke-width:2;"/>
   </g>
   <g id="line2d_8">
    <path clip-path="url(#pf86bededa2)" d="M 110.880994 139.447368 
L 126.900133 147.578781 
L 142.919272 155.710194 
L 158.938411 163.841607 
L 174.957549 171.973019 
L 190.976688 180.104432 
L 206.995827 188.235845 
L 223.014966 196.367258 
L 239.034104 204.49867 
L 255.053243 212.630083 
L 271.072382 220.761496 
L 287.091521 228.892909 
L 303.110659 237.024321 
L 319.129798 245.155734 
L 335.148937 253.287147 
L 351.168076 261.41856 
L 367.187214 269.549972 
L 383.206353 277.681385 
L 399.225492 285.812798 
L 415.244631 293.944211 
" style="fill:none;stroke:#ff7f0e;stroke-dasharray:4.48,1.12,0.7,1.12;stroke-dashoffset:0;stroke-width:0.7;"/>
   </g>
   <g id="line2d_9">
    <path clip-path="url(#pf86bededa2)" d="M 110.880994 170.346737 
L 126.900133 175.225584 
L 142.919272 180.104432 
L 158.938411 184.98328 
L 174.957549 189.862127 
L 190.976688 194.740975 
L 206.995827 199.619823 
L 223.014966 204.49867 
L 239.034104 209.377518 
L 255.053243 214.256366 
L 271.072382 219.135213 
L 287.091521 224.014061 
L 303.110659 228.892909 
L 319.129798 233.771756 
L 335.148937 238.650604 
L 351.168076 243.529452 
L 367.187214 248.408299 
L 383.206353 253.287147 
L 399.225492 258.165994 
L 415.244631 263.044842 
" style="fill:none;stroke:#2ca02c;stroke-dasharray:4.48,1.12,0.7,1.12;stroke-dashoffset:0;stroke-width:0.7;"/>
   </g>
   <g id="line2d_10">
    <path clip-path="url(#pf86bededa2)" d="M 110.880994 201.246105 
L 126.900133 202.872388 
L 142.919272 204.49867 
L 158.938411 206.124953 
L 174.957549 207.751235 
L 190.976688 209.377518 
L 206.995827 211.003801 
L 223.014966 212.630083 
L 239.034104 214.256366 
L 255.053243 215.882648 
L 271.072382 217.508931 
L 287.091521 219.135213 
L 303.110659 220.761496 
L 319.129798 222.387778 
L 335.148937 224.014061 
L 351.168076 225.640343 
L 367.187214 227.266626 
L 383.206353 228.892909 
L 399.225492 230.519191 
L 415.244631 232.145474 
" style="fill:none;stroke:#d62728;stroke-dasharray:4.48,1.12,0.7,1.12;stroke-dashoffset:0;stroke-width:0.7;"/>
   </g>
   <g id="line2d_11">
    <path clip-path="url(#pf86bededa2)" d="M 110.880994 232.145474 
L 126.900133 230.519191 
L 142.919272 228.892909 
L 158.938411 227.266626 
L 174.957549 225.640343 
L 190.976688 224.014061 
L 206.995827 222.387778 
L 223.014966 220.761496 
L 239.034104 219.135213 
L 255.053243 217.508931 
L 271.072382 215.882648 
L 287.091521 214.256366 
L 303.110659 212.630083 
L 319.129798 211.003801 
L 335.148937 209.377518 
L 351.168076 207.751235 
L 367.187214 206.124953 
L 383.206353 204.49867 
L 399.225492 202.872388 
L 415.244631 201.246105 
" style="fill:none;stroke:#9467bd;stroke-dasharray:4.48,1.12,0.7,1.12;stroke-dashoffset:0;stroke-width:0.7;"/>
   </g>
   <g id="line2d_12">
    <path clip-path="url(#pf86bededa2)" d="M 110.880994 263.044842 
L 126.900133 258.165994 
L 142.919272 253.287147 
L 158.938411 248.408299 
L 174.957549 243.529452 
L 190.976688 238.650604 
L 206.995827 233.771756 
L 223.014966 228.892909 
L 239.034104 224.014061 
L 255.053243 219.135213 
L 271.072382 214.256366 
L 287.091521 209.377518 
L 303.110659 204.49867 
L 319.129798 199.619823 
L 335.148937 194.740975 
L 351.168076 189.862127 
L 367.187214 184.98328 
L 383.206353 180.104432 
L 399.225492 175.225584 
L 415.244631 170.346737 
" style="fill:none;stroke:#8c564b;stroke-dasharray:4.48,1.12,0.7,1.12;stroke-dashoffset:0;stroke-width:0.7;"/>
   </g>
   <g id="line2d_13">
    <path clip-path="url(#pf86bededa2)" d="M 110.880994 293.944211 
L 126.900133 285.812798 
L 142.919272 277.681385 
L 158.938411 269.549972 
L 174.957549 261.41856 
L 190.976688 253.287147 
L 206.995827 245.155734 
L 223.014966 237.024321 
L 239.034104 228.892909 
L 255.053243 220.761496 
L 271.072382 212.630083 
L 287.091521 204.49867 
L 303.110659 196.367258 
L 319.129798 188.235845 
L 335.148937 180.104432 
L 351.168076 171.973019 
L 367.187214 163.841607 
L 383.206353 155.710194 
L 399.225492 147.578781 
L 415.244631 139.447368 
" style="fill:none;stroke:#e377c2;stroke-dasharray:4.48,1.12,0.7,1.12;stroke-dashoffset:0;stroke-width:0.7;"/>
   </g>
   <g id="line2d_14">
    <defs>
     <path d="M 0 3 
C 0.795609 3 1.55874 2.683901 2.12132 2.12132 
C 2.683901 1.55874 3 0.795609 3 0 
C 3 -0.795609 2.683901 -1.55874 2.12132 -2.12132 
C 1.55874 -2.683901 0.795609 -3 0 -3 
C -0.795609 -3 -1.55874 -2.683901 -2.12132 -2.12132 
C -2.683901 -1.55874 -3 -0.795609 -3 0 
C -3 0.795609 -2.683901 1.55874 -2.12132 2.12132 
C -1.55874 2.683901 -0.795609 3 0 3 
z
" id="m11450446e9" style="stroke:#0000ff;"/>
    </defs>
    <g clip-path="url(#pf86bededa2)">
     <use style="fill:#0000ff;stroke:#0000ff;" x="263.062813" xlink:href="#m11450446e9" y="216.695789"/>
    </g>
   </g>
   <g id="patch_3">
    <path d="M 39.862813 336.86 
L 39.862813 10.7 
" style="fill:none;stroke:#000000;stroke-linecap:square;stroke-linejoin:miter;stroke-width:0.8;"/>
   </g>
   <g id="patch_4">
    <path d="M 486.262812 336.86 
L 486.262812 10.7 
" style="fill:none;stroke:#000000;stroke-linecap:square;stroke-linejoin:miter;stroke-width:0.8;"/>
   </g>
   <g id="patch_5">
    <path d="M 39.862813 336.86 
L 486.262812 336.86 
" style="fill:none;stroke:#000000;stroke-linecap:square;stroke-linejoin:miter;stroke-width:0.8;"/>
   </g>
   <g id="patch_6">
    <path d="M 39.862813 10.7 
L 486.262812 10.7 
" style="fill:none;stroke:#000000;stroke-linecap:square;stroke-linejoin:miter;stroke-width:0.8;"/>
   </g>
   <g id="legend_1">
    <g id="patch_7">
     <path d="M 50.362813 329.36 
L 117.412813 329.36 
Q 120.412813 329.36 120.412813 326.36 
L 120.412813 305.21 
Q 120.412813 302.21 117.412813 302.21 
L 50.362813 302.21 
Q 47.362813 302.21 47.362813 305.21 
L 47.362813 326.36 
Q 47.362813 329.36 50.362813 329.36 
z
" style="fill:#ffffff;opacity:0.8;stroke:#cccccc;stroke-linejoin:miter;"/>
    </g>
    <g id="line2d_15">
     <path d="M 53.362813 314.51 
L 83.362813 314.51 
" style="fill:none;stroke:#1f77b4;stroke-linecap:square;stroke-width:2;"/>
    </g>
    <g id="line2d_16"/>
    <g id="text_7">
     <!-- $|x|$ -->
     <defs>
      <path d="M 21 76.421875 
L 21 -23.578125 
L 12.703125 -23.578125 
L 12.703125 76.421875 
z
" id="DejaVuSans-7c"/>
      <path d="M 60.015625 54.6875 
L 34.90625 27.875 
L 50.296875 0 
L 39.984375 0 
L 28.421875 21.6875 
L 8.296875 0 
L -2.59375 0 
L 24.3125 28.8125 
L 10.015625 54.6875 
L 20.3125 54.6875 
L 30.8125 34.90625 
L 49.125 54.6875 
z
" id="DejaVuSans-Oblique-78"/>
     </defs>
     <g transform="translate(95.362813 319.76)scale(0.15 -0.15)">
      <use transform="translate(0 0.578125)" xlink:href="#DejaVuSans-7c"/>
      <use transform="translate(33.691406 0.578125)" xlink:href="#DejaVuSans-Oblique-78"/>
      <use transform="translate(92.871094 0.578125)" xlink:href="#DejaVuSans-7c"/>
     </g>
    </g>
   </g>
  </g>
 </g>
 <defs>
  <clipPath id="pf86bededa2">
   <rect height="326.16" width="446.4" x="39.862813" y="10.7"/>
  </clipPath>
 </defs>
</svg>
