<?xml version="1.0" encoding="utf-8" standalone="no"?>
<!DOCTYPE svg PUBLIC "-//W3C//DTD SVG 1.1//EN"
  "http://www.w3.org/Graphics/SVG/1.1/DTD/svg11.dtd">
<!-- Created with matplotlib (http://matplotlib.org/) -->
<svg height="362.948906pt" version="1.1" viewBox="0 0 478.529219 362.948906" width="478.529219pt" xmlns="http://www.w3.org/2000/svg" xmlns:xlink="http://www.w3.org/1999/xlink">
 <defs>
  <style type="text/css">
*{stroke-linecap:butt;stroke-linejoin:round;}
  </style>
 </defs>
 <g id="figure_1">
  <g id="patch_1">
   <path d="M 0 362.948906 
L 478.529219 362.948906 
L 478.529219 0 
L 0 0 
z
" style="fill:#ffffff;"/>
  </g>
  <g id="axes_1">
   <g id="patch_2">
    <path d="M 21.429219 336.86 
L 467.829219 336.86 
L 467.829219 10.7 
L 21.429219 10.7 
z
" style="fill:#ffffff;"/>
   </g>
   <g id="matplotlib.axis_1">
    <g id="xtick_1">
     <g id="line2d_1">
      <defs>
       <path d="M 0 0 
L 0 3.5 
" id="m6cf1cbff94" style="stroke:#000000;stroke-width:0.8;"/>
      </defs>
      <g>
       <use style="stroke:#000000;stroke-width:0.8;" x="122.883764" xlink:href="#m6cf1cbff94" y="336.86"/>
      </g>
     </g>
     <g id="text_1">
      <!-- 0 -->
      <defs>
       <path d="M 4.15625 35.296875 
Q 4.15625 48 6.765625 55.734375 
Q 9.375 63.484375 14.515625 67.671875 
Q 19.671875 71.875 27.484375 71.875 
Q 33.25 71.875 37.59375 69.546875 
Q 41.9375 67.234375 44.765625 62.859375 
Q 47.609375 58.5 49.21875 52.21875 
Q 50.828125 45.953125 50.828125 35.296875 
Q 50.828125 22.703125 48.234375 14.96875 
Q 45.65625 7.234375 40.5 3 
Q 35.359375 -1.21875 27.484375 -1.21875 
Q 17.140625 -1.21875 11.234375 6.203125 
Q 4.15625 15.140625 4.15625 35.296875 
z
M 13.1875 35.296875 
Q 13.1875 17.671875 17.3125 11.828125 
Q 21.4375 6 27.484375 6 
Q 33.546875 6 37.671875 11.859375 
Q 41.796875 17.71875 41.796875 35.296875 
Q 41.796875 52.984375 37.671875 58.78125 
Q 33.546875 64.59375 27.390625 64.59375 
Q 21.34375 64.59375 17.71875 59.46875 
Q 13.1875 52.9375 13.1875 35.296875 
z
" id="ArialMT-30"/>
      </defs>
      <g transform="translate(119.269155 353.165156)scale(0.13 -0.13)">
       <use xlink:href="#ArialMT-30"/>
      </g>
     </g>
    </g>
    <g id="xtick_2">
     <g id="line2d_2">
      <g>
       <use style="stroke:#000000;stroke-width:0.8;" x="285.211037" xlink:href="#m6cf1cbff94" y="336.86"/>
      </g>
     </g>
     <g id="text_2">
      <!-- 1 -->
      <defs>
       <path d="M 37.25 0 
L 28.46875 0 
L 28.46875 56 
Q 25.296875 52.984375 20.140625 49.953125 
Q 14.984375 46.921875 10.890625 45.40625 
L 10.890625 53.90625 
Q 18.265625 57.375 23.78125 62.296875 
Q 29.296875 67.234375 31.59375 71.875 
L 37.25 71.875 
z
" id="ArialMT-31"/>
      </defs>
      <g transform="translate(281.596428 353.165156)scale(0.13 -0.13)">
       <use xlink:href="#ArialMT-31"/>
      </g>
     </g>
    </g>
    <g id="xtick_3">
     <g id="line2d_3">
      <g>
       <use style="stroke:#000000;stroke-width:0.8;" x="447.53831" xlink:href="#m6cf1cbff94" y="336.86"/>
      </g>
     </g>
     <g id="text_3">
      <!-- 2 -->
      <defs>
       <path d="M 50.34375 8.453125 
L 50.34375 0 
L 3.03125 0 
Q 2.9375 3.171875 4.046875 6.109375 
Q 5.859375 10.9375 9.828125 15.625 
Q 13.8125 20.3125 21.34375 26.46875 
Q 33.015625 36.03125 37.109375 41.625 
Q 41.21875 47.21875 41.21875 52.203125 
Q 41.21875 57.421875 37.46875 61 
Q 33.734375 64.59375 27.734375 64.59375 
Q 21.390625 64.59375 17.578125 60.78125 
Q 13.765625 56.984375 13.71875 50.25 
L 4.6875 51.171875 
Q 5.609375 61.28125 11.65625 66.578125 
Q 17.71875 71.875 27.9375 71.875 
Q 38.234375 71.875 44.234375 66.15625 
Q 50.25 60.453125 50.25 52 
Q 50.25 47.703125 48.484375 43.546875 
Q 46.734375 39.40625 42.65625 34.8125 
Q 38.578125 30.21875 29.109375 22.21875 
Q 21.1875 15.578125 18.9375 13.203125 
Q 16.703125 10.84375 15.234375 8.453125 
z
" id="ArialMT-32"/>
      </defs>
      <g transform="translate(443.9237 353.165156)scale(0.13 -0.13)">
       <use xlink:href="#ArialMT-32"/>
      </g>
     </g>
    </g>
   </g>
   <g id="matplotlib.axis_2">
    <g id="ytick_1">
     <g id="line2d_4">
      <defs>
       <path d="M 0 0 
L -3.5 0 
" id="m0400a01f5c" style="stroke:#000000;stroke-width:0.8;"/>
      </defs>
      <g>
       <use style="stroke:#000000;stroke-width:0.8;" x="21.429219" xlink:href="#m0400a01f5c" y="275.968288"/>
      </g>
     </g>
     <g id="text_4">
      <!-- 0 -->
      <g transform="translate(7.2 280.620866)scale(0.13 -0.13)">
       <use xlink:href="#ArialMT-30"/>
      </g>
     </g>
    </g>
    <g id="ytick_2">
     <g id="line2d_5">
      <g>
       <use style="stroke:#000000;stroke-width:0.8;" x="21.429219" xlink:href="#m0400a01f5c" y="150.746871"/>
      </g>
     </g>
     <g id="text_5">
      <!-- 1 -->
      <g transform="translate(7.2 155.399449)scale(0.13 -0.13)">
       <use xlink:href="#ArialMT-31"/>
      </g>
     </g>
    </g>
    <g id="ytick_3">
     <g id="line2d_6">
      <g>
       <use style="stroke:#000000;stroke-width:0.8;" x="21.429219" xlink:href="#m0400a01f5c" y="25.525455"/>
      </g>
     </g>
     <g id="text_6">
      <!-- 2 -->
      <g transform="translate(7.2 30.178033)scale(0.13 -0.13)">
       <use xlink:href="#ArialMT-32"/>
      </g>
     </g>
    </g>
   </g>
   <g id="line2d_7">
    <path clip-path="url(#pd5f3b4c949)" d="M 122.885387 275.982705 
L 123.535995 278.744093 
L 124.837209 282.628874 
L 126.138423 285.783887 
L 128.090244 289.783362 
L 130.042065 293.204364 
L 131.993886 296.209581 
L 134.596315 299.721454 
L 137.198743 302.783523 
L 139.801171 305.478587 
L 142.403599 307.863598 
L 145.006027 309.980159 
L 147.608456 311.860007 
L 150.861491 313.914572 
L 154.114526 315.676698 
L 157.367562 317.176963 
L 160.620597 318.440148 
L 163.873632 319.486743 
L 167.777275 320.480828 
L 171.680917 321.212738 
L 175.584559 321.703492 
L 179.488202 321.970988 
L 183.391844 322.030647 
L 187.946093 321.855389 
L 192.500343 321.43401 
L 197.054592 320.782637 
L 201.608842 319.91541 
L 206.813698 318.675953 
L 212.018554 317.187344 
L 217.223411 315.464147 
L 222.428267 313.519319 
L 228.283731 311.080866 
L 234.139194 308.391343 
L 239.994658 305.463978 
L 246.500729 301.946837 
L 253.006799 298.165426 
L 259.51287 294.13297 
L 266.669547 289.421556 
L 273.826225 284.435244 
L 280.982903 279.187076 
L 288.790187 273.177067 
L 296.597472 266.883537 
L 304.404757 260.319238 
L 312.862649 252.915851 
L 321.32054 245.221895 
L 330.429039 236.625331 
L 339.537538 227.720301 
L 349.296644 217.851615 
L 359.05575 207.658335 
L 368.814856 197.153882 
L 379.224569 185.620052 
L 389.634281 173.760035 
L 400.694601 160.815592 
L 411.754921 147.531376 
L 423.465848 133.109844 
L 435.176776 118.336252 
L 447.53831 102.374544 
L 447.53831 102.374544 
" style="fill:none;stroke:#1f77b4;stroke-linecap:square;stroke-width:1.5;"/>
   </g>
   <g id="line2d_8">
    <path clip-path="url(#pd5f3b4c949)" d="M 41.720128 213.35758 
L 45.819301 216.519737 
L 49.918475 219.681894 
L 54.017649 222.844051 
L 58.116822 226.006208 
L 62.215996 229.168365 
L 66.315169 232.330522 
L 70.414343 235.492679 
L 74.513516 238.654836 
L 78.61269 241.816993 
L 82.711863 244.97915 
L 86.811037 248.141307 
L 90.91021 251.303464 
L 95.009384 254.465621 
L 99.108558 257.627778 
L 103.207731 260.789935 
L 107.306905 263.952092 
L 111.406078 267.114249 
L 115.505252 270.276406 
L 119.604425 273.438563 
L 123.703599 275.335857 
L 127.802772 272.1737 
L 131.901946 269.011543 
L 136.00112 265.849386 
L 140.100293 262.687229 
L 144.199467 259.525072 
L 148.29864 256.362915 
L 152.397814 253.200758 
L 156.496987 250.038601 
L 160.596161 246.876444 
L 164.695334 243.714287 
L 168.794508 240.55213 
L 172.893682 237.389973 
L 176.992855 234.227816 
L 181.092029 231.065659 
L 185.191202 227.903502 
L 189.290376 224.741345 
L 193.389549 221.579188 
L 197.488723 218.417031 
L 201.587896 215.254874 
L 205.68707 212.092717 
L 209.786244 208.93056 
L 213.885417 205.768403 
L 217.984591 202.606246 
L 222.083764 199.444089 
L 226.182938 196.281932 
L 230.282111 193.119775 
L 234.381285 189.957618 
L 238.480458 186.795461 
L 242.579632 183.633304 
L 246.678806 180.471147 
L 250.777979 177.30899 
L 254.877153 174.146833 
L 258.976326 170.984676 
L 263.0755 167.822519 
L 267.174673 164.660362 
L 271.273847 161.498205 
L 275.37302 158.336048 
L 279.472194 155.173891 
L 283.571368 152.011734 
L 287.670541 148.849577 
L 291.769715 145.68742 
L 295.868888 142.525263 
L 299.968062 139.363106 
L 304.067235 136.200949 
L 308.166409 133.038792 
L 312.265582 129.876635 
L 316.364756 126.714478 
L 320.463929 123.552321 
L 324.563103 120.390164 
L 328.662277 117.228007 
L 332.76145 114.06585 
L 336.860624 110.903693 
L 340.959797 107.741536 
L 345.058971 104.579379 
L 349.158144 101.417222 
L 353.257318 98.255065 
L 357.356491 95.092908 
L 361.455665 91.930751 
L 365.554839 88.768594 
L 369.654012 85.606437 
L 373.753186 82.44428 
L 377.852359 79.282123 
L 381.951533 76.119966 
L 386.050706 72.957809 
L 390.14988 69.795652 
L 394.249053 66.633495 
L 398.348227 63.471338 
L 402.447401 60.309181 
L 406.546574 57.147024 
L 410.645748 53.984867 
L 414.744921 50.82271 
L 418.844095 47.660553 
L 422.943268 44.498396 
L 427.042442 41.336239 
L 431.141615 38.174083 
L 435.240789 35.011926 
L 439.339963 31.849769 
L 443.439136 28.687612 
L 447.53831 25.525455 
" style="fill:none;stroke:#ff7f0e;stroke-linecap:square;stroke-width:1.5;"/>
   </g>
   <g id="patch_3">
    <path d="M 21.429219 336.86 
L 21.429219 10.7 
" style="fill:none;stroke:#000000;stroke-linecap:square;stroke-linejoin:miter;stroke-width:0.8;"/>
   </g>
   <g id="patch_4">
    <path d="M 467.829219 336.86 
L 467.829219 10.7 
" style="fill:none;stroke:#000000;stroke-linecap:square;stroke-linejoin:miter;stroke-width:0.8;"/>
   </g>
   <g id="patch_5">
    <path d="M 21.429219 336.86 
L 467.829219 336.86 
" style="fill:none;stroke:#000000;stroke-linecap:square;stroke-linejoin:miter;stroke-width:0.8;"/>
   </g>
   <g id="patch_6">
    <path d="M 21.429219 10.7 
L 467.829219 10.7 
" style="fill:none;stroke:#000000;stroke-linecap:square;stroke-linejoin:miter;stroke-width:0.8;"/>
   </g>
   <g id="legend_1">
    <g id="patch_7">
     <path d="M 31.929219 67.4 
L 164.829219 67.4 
Q 167.829219 67.4 167.829219 64.4 
L 167.829219 21.2 
Q 167.829219 18.2 164.829219 18.2 
L 31.929219 18.2 
Q 28.929219 18.2 28.929219 21.2 
L 28.929219 64.4 
Q 28.929219 67.4 31.929219 67.4 
z
" style="fill:#ffffff;opacity:0.8;stroke:#cccccc;stroke-linejoin:miter;"/>
    </g>
    <g id="line2d_9">
     <path d="M 34.929219 30.35 
L 64.929219 30.35 
" style="fill:none;stroke:#1f77b4;stroke-linecap:square;stroke-width:1.5;"/>
    </g>
    <g id="line2d_10"/>
    <g id="text_7">
     <!-- $f(x)=x\log x$ -->
     <defs>
      <path d="M 47.796875 75.984375 
L 46.390625 68.5 
L 37.796875 68.5 
Q 32.90625 68.5 30.6875 66.578125 
Q 28.46875 64.65625 27.390625 59.515625 
L 26.421875 54.6875 
L 41.21875 54.6875 
L 39.890625 47.703125 
L 25.09375 47.703125 
L 15.828125 0 
L 6.78125 0 
L 16.109375 47.703125 
L 7.515625 47.703125 
L 8.796875 54.6875 
L 17.390625 54.6875 
L 18.109375 58.5 
Q 19.96875 68.171875 24.625 72.078125 
Q 29.296875 75.984375 39.3125 75.984375 
z
" id="DejaVuSans-Oblique-66"/>
      <path d="M 31 75.875 
Q 24.46875 64.65625 21.28125 53.65625 
Q 18.109375 42.671875 18.109375 31.390625 
Q 18.109375 20.125 21.3125 9.0625 
Q 24.515625 -2 31 -13.1875 
L 23.1875 -13.1875 
Q 15.875 -1.703125 12.234375 9.375 
Q 8.59375 20.453125 8.59375 31.390625 
Q 8.59375 42.28125 12.203125 53.3125 
Q 15.828125 64.359375 23.1875 75.875 
z
" id="DejaVuSans-28"/>
      <path d="M 60.015625 54.6875 
L 34.90625 27.875 
L 50.296875 0 
L 39.984375 0 
L 28.421875 21.6875 
L 8.296875 0 
L -2.59375 0 
L 24.3125 28.8125 
L 10.015625 54.6875 
L 20.3125 54.6875 
L 30.8125 34.90625 
L 49.125 54.6875 
z
" id="DejaVuSans-Oblique-78"/>
      <path d="M 8.015625 75.875 
L 15.828125 75.875 
Q 23.140625 64.359375 26.78125 53.3125 
Q 30.421875 42.28125 30.421875 31.390625 
Q 30.421875 20.453125 26.78125 9.375 
Q 23.140625 -1.703125 15.828125 -13.1875 
L 8.015625 -13.1875 
Q 14.5 -2 17.703125 9.0625 
Q 20.90625 20.125 20.90625 31.390625 
Q 20.90625 42.671875 17.703125 53.65625 
Q 14.5 64.65625 8.015625 75.875 
z
" id="DejaVuSans-29"/>
      <path d="M 10.59375 45.40625 
L 73.1875 45.40625 
L 73.1875 37.203125 
L 10.59375 37.203125 
z
M 10.59375 25.484375 
L 73.1875 25.484375 
L 73.1875 17.1875 
L 10.59375 17.1875 
z
" id="DejaVuSans-3d"/>
      <path d="M 9.421875 75.984375 
L 18.40625 75.984375 
L 18.40625 0 
L 9.421875 0 
z
" id="DejaVuSans-6c"/>
      <path d="M 30.609375 48.390625 
Q 23.390625 48.390625 19.1875 42.75 
Q 14.984375 37.109375 14.984375 27.296875 
Q 14.984375 17.484375 19.15625 11.84375 
Q 23.34375 6.203125 30.609375 6.203125 
Q 37.796875 6.203125 41.984375 11.859375 
Q 46.1875 17.53125 46.1875 27.296875 
Q 46.1875 37.015625 41.984375 42.703125 
Q 37.796875 48.390625 30.609375 48.390625 
z
M 30.609375 56 
Q 42.328125 56 49.015625 48.375 
Q 55.71875 40.765625 55.71875 27.296875 
Q 55.71875 13.875 49.015625 6.21875 
Q 42.328125 -1.421875 30.609375 -1.421875 
Q 18.84375 -1.421875 12.171875 6.21875 
Q 5.515625 13.875 5.515625 27.296875 
Q 5.515625 40.765625 12.171875 48.375 
Q 18.84375 56 30.609375 56 
z
" id="DejaVuSans-6f"/>
      <path d="M 45.40625 27.984375 
Q 45.40625 37.75 41.375 43.109375 
Q 37.359375 48.484375 30.078125 48.484375 
Q 22.859375 48.484375 18.828125 43.109375 
Q 14.796875 37.75 14.796875 27.984375 
Q 14.796875 18.265625 18.828125 12.890625 
Q 22.859375 7.515625 30.078125 7.515625 
Q 37.359375 7.515625 41.375 12.890625 
Q 45.40625 18.265625 45.40625 27.984375 
z
M 54.390625 6.78125 
Q 54.390625 -7.171875 48.1875 -13.984375 
Q 42 -20.796875 29.203125 -20.796875 
Q 24.46875 -20.796875 20.265625 -20.09375 
Q 16.0625 -19.390625 12.109375 -17.921875 
L 12.109375 -9.1875 
Q 16.0625 -11.328125 19.921875 -12.34375 
Q 23.78125 -13.375 27.78125 -13.375 
Q 36.625 -13.375 41.015625 -8.765625 
Q 45.40625 -4.15625 45.40625 5.171875 
L 45.40625 9.625 
Q 42.625 4.78125 38.28125 2.390625 
Q 33.9375 0 27.875 0 
Q 17.828125 0 11.671875 7.65625 
Q 5.515625 15.328125 5.515625 27.984375 
Q 5.515625 40.671875 11.671875 48.328125 
Q 17.828125 56 27.875 56 
Q 33.9375 56 38.28125 53.609375 
Q 42.625 51.21875 45.40625 46.390625 
L 45.40625 54.6875 
L 54.390625 54.6875 
z
" id="DejaVuSans-67"/>
     </defs>
     <g transform="translate(76.929219 35.6)scale(0.15 -0.15)">
      <use transform="translate(0 0.015625)" xlink:href="#DejaVuSans-Oblique-66"/>
      <use transform="translate(35.205078 0.015625)" xlink:href="#DejaVuSans-28"/>
      <use transform="translate(74.21875 0.015625)" xlink:href="#DejaVuSans-Oblique-78"/>
      <use transform="translate(133.398438 0.015625)" xlink:href="#DejaVuSans-29"/>
      <use transform="translate(191.894531 0.015625)" xlink:href="#DejaVuSans-3d"/>
      <use transform="translate(295.166016 0.015625)" xlink:href="#DejaVuSans-Oblique-78"/>
      <use transform="translate(354.345703 0.015625)" xlink:href="#DejaVuSans-6c"/>
      <use transform="translate(382.128906 0.015625)" xlink:href="#DejaVuSans-6f"/>
      <use transform="translate(443.310547 0.015625)" xlink:href="#DejaVuSans-67"/>
      <use transform="translate(506.787109 0.015625)" xlink:href="#DejaVuSans-Oblique-78"/>
     </g>
    </g>
    <g id="line2d_11">
     <path d="M 34.929219 52.55 
L 64.929219 52.55 
" style="fill:none;stroke:#ff7f0e;stroke-linecap:square;stroke-width:1.5;"/>
    </g>
    <g id="line2d_12"/>
    <g id="text_8">
     <!-- $f(x)=|x|$ -->
     <defs>
      <path d="M 21 76.421875 
L 21 -23.578125 
L 12.703125 -23.578125 
L 12.703125 76.421875 
z
" id="DejaVuSans-7c"/>
     </defs>
     <g transform="translate(76.929219 57.8)scale(0.15 -0.15)">
      <use transform="translate(0 0.578125)" xlink:href="#DejaVuSans-Oblique-66"/>
      <use transform="translate(35.205078 0.578125)" xlink:href="#DejaVuSans-28"/>
      <use transform="translate(74.21875 0.578125)" xlink:href="#DejaVuSans-Oblique-78"/>
      <use transform="translate(133.398438 0.578125)" xlink:href="#DejaVuSans-29"/>
      <use transform="translate(191.894531 0.578125)" xlink:href="#DejaVuSans-3d"/>
      <use transform="translate(295.166016 0.578125)" xlink:href="#DejaVuSans-7c"/>
      <use transform="translate(328.857422 0.578125)" xlink:href="#DejaVuSans-Oblique-78"/>
      <use transform="translate(388.037109 0.578125)" xlink:href="#DejaVuSans-7c"/>
     </g>
    </g>
   </g>
  </g>
 </g>
 <defs>
  <clipPath id="pd5f3b4c949">
   <rect height="326.16" width="446.4" x="21.429219" y="10.7"/>
  </clipPath>
 </defs>
</svg>
