<?xml version="1.0" encoding="utf-8" standalone="no"?>
<!DOCTYPE svg PUBLIC "-//W3C//DTD SVG 1.1//EN"
  "http://www.w3.org/Graphics/SVG/1.1/DTD/svg11.dtd">
<svg height="432pt" version="1.1" viewBox="0 0 576 432" width="576pt" xmlns="http://www.w3.org/2000/svg" xmlns:xlink="http://www.w3.org/1999/xlink">
 <metadata>
  <rdf:RDF xmlns:cc="http://creativecommons.org/ns#" xmlns:dc="http://purl.org/dc/elements/1.1/" xmlns:rdf="http://www.w3.org/1999/02/22-rdf-syntax-ns#">
   <cc:Work>
    <dc:type rdf:resource="http://purl.org/dc/dcmitype/StillImage"/>
    <dc:date>2021-07-12T22:38:20.433274</dc:date>
    <dc:format>image/svg+xml</dc:format>
    <dc:creator>
     <cc:Agent>
      <dc:title>Matplotlib v3.4.2, https://matplotlib.org/</dc:title>
     </cc:Agent>
    </dc:creator>
   </cc:Work>
  </rdf:RDF>
 </metadata>
 <defs>
  <style type="text/css">*{stroke-linecap:butt;stroke-linejoin:round;}</style>
 </defs>
 <g id="figure_1">
  <g id="patch_1">
   <path d="M 0 432 
L 576 432 
L 576 0 
L 0 0 
z
" style="fill:#ffffff;"/>
  </g>
  <g id="axes_1">
   <g id="patch_2">
    <path d="M 72 384.48 
L 518.4 384.48 
L 518.4 51.84 
L 72 51.84 
z
" style="fill:#ffffff;"/>
   </g>
   <g id="matplotlib.axis_1">
    <g id="xtick_1">
     <g id="line2d_1">
      <defs>
       <path d="M 0 0 
L 0 3.5 
" id="madd3412893" style="stroke:#000000;stroke-width:0.8;"/>
      </defs>
      <g>
       <use style="stroke:#000000;stroke-width:0.8;" x="92.290909" xlink:href="#madd3412893" y="384.48"/>
      </g>
     </g>
     <g id="text_1">
      <!-- 0 -->
      <g transform="translate(89.109659 399.078438)scale(0.1 -0.1)">
       <defs>
        <path d="M 2034 4250 
Q 1547 4250 1301 3770 
Q 1056 3291 1056 2328 
Q 1056 1369 1301 889 
Q 1547 409 2034 409 
Q 2525 409 2770 889 
Q 3016 1369 3016 2328 
Q 3016 3291 2770 3770 
Q 2525 4250 2034 4250 
z
M 2034 4750 
Q 2819 4750 3233 4129 
Q 3647 3509 3647 2328 
Q 3647 1150 3233 529 
Q 2819 -91 2034 -91 
Q 1250 -91 836 529 
Q 422 1150 422 2328 
Q 422 3509 836 4129 
Q 1250 4750 2034 4750 
z
" id="DejaVuSans-30" transform="scale(0.015625)"/>
       </defs>
       <use xlink:href="#DejaVuSans-30"/>
      </g>
     </g>
    </g>
    <g id="xtick_2">
     <g id="line2d_2">
      <g>
       <use style="stroke:#000000;stroke-width:0.8;" x="173.454545" xlink:href="#madd3412893" y="384.48"/>
      </g>
     </g>
     <g id="text_2">
      <!-- 10 -->
      <g transform="translate(167.092045 399.078438)scale(0.1 -0.1)">
       <defs>
        <path d="M 794 531 
L 1825 531 
L 1825 4091 
L 703 3866 
L 703 4441 
L 1819 4666 
L 2450 4666 
L 2450 531 
L 3481 531 
L 3481 0 
L 794 0 
L 794 531 
z
" id="DejaVuSans-31" transform="scale(0.015625)"/>
       </defs>
       <use xlink:href="#DejaVuSans-31"/>
       <use x="63.623047" xlink:href="#DejaVuSans-30"/>
      </g>
     </g>
    </g>
    <g id="xtick_3">
     <g id="line2d_3">
      <g>
       <use style="stroke:#000000;stroke-width:0.8;" x="254.618182" xlink:href="#madd3412893" y="384.48"/>
      </g>
     </g>
     <g id="text_3">
      <!-- 20 -->
      <g transform="translate(248.255682 399.078438)scale(0.1 -0.1)">
       <defs>
        <path d="M 1228 531 
L 3431 531 
L 3431 0 
L 469 0 
L 469 531 
Q 828 903 1448 1529 
Q 2069 2156 2228 2338 
Q 2531 2678 2651 2914 
Q 2772 3150 2772 3378 
Q 2772 3750 2511 3984 
Q 2250 4219 1831 4219 
Q 1534 4219 1204 4116 
Q 875 4013 500 3803 
L 500 4441 
Q 881 4594 1212 4672 
Q 1544 4750 1819 4750 
Q 2544 4750 2975 4387 
Q 3406 4025 3406 3419 
Q 3406 3131 3298 2873 
Q 3191 2616 2906 2266 
Q 2828 2175 2409 1742 
Q 1991 1309 1228 531 
z
" id="DejaVuSans-32" transform="scale(0.015625)"/>
       </defs>
       <use xlink:href="#DejaVuSans-32"/>
       <use x="63.623047" xlink:href="#DejaVuSans-30"/>
      </g>
     </g>
    </g>
    <g id="xtick_4">
     <g id="line2d_4">
      <g>
       <use style="stroke:#000000;stroke-width:0.8;" x="335.781818" xlink:href="#madd3412893" y="384.48"/>
      </g>
     </g>
     <g id="text_4">
      <!-- 30 -->
      <g transform="translate(329.419318 399.078438)scale(0.1 -0.1)">
       <defs>
        <path d="M 2597 2516 
Q 3050 2419 3304 2112 
Q 3559 1806 3559 1356 
Q 3559 666 3084 287 
Q 2609 -91 1734 -91 
Q 1441 -91 1130 -33 
Q 819 25 488 141 
L 488 750 
Q 750 597 1062 519 
Q 1375 441 1716 441 
Q 2309 441 2620 675 
Q 2931 909 2931 1356 
Q 2931 1769 2642 2001 
Q 2353 2234 1838 2234 
L 1294 2234 
L 1294 2753 
L 1863 2753 
Q 2328 2753 2575 2939 
Q 2822 3125 2822 3475 
Q 2822 3834 2567 4026 
Q 2313 4219 1838 4219 
Q 1578 4219 1281 4162 
Q 984 4106 628 3988 
L 628 4550 
Q 988 4650 1302 4700 
Q 1616 4750 1894 4750 
Q 2613 4750 3031 4423 
Q 3450 4097 3450 3541 
Q 3450 3153 3228 2886 
Q 3006 2619 2597 2516 
z
" id="DejaVuSans-33" transform="scale(0.015625)"/>
       </defs>
       <use xlink:href="#DejaVuSans-33"/>
       <use x="63.623047" xlink:href="#DejaVuSans-30"/>
      </g>
     </g>
    </g>
    <g id="xtick_5">
     <g id="line2d_5">
      <g>
       <use style="stroke:#000000;stroke-width:0.8;" x="416.945455" xlink:href="#madd3412893" y="384.48"/>
      </g>
     </g>
     <g id="text_5">
      <!-- 40 -->
      <g transform="translate(410.582955 399.078438)scale(0.1 -0.1)">
       <defs>
        <path d="M 2419 4116 
L 825 1625 
L 2419 1625 
L 2419 4116 
z
M 2253 4666 
L 3047 4666 
L 3047 1625 
L 3713 1625 
L 3713 1100 
L 3047 1100 
L 3047 0 
L 2419 0 
L 2419 1100 
L 313 1100 
L 313 1709 
L 2253 4666 
z
" id="DejaVuSans-34" transform="scale(0.015625)"/>
       </defs>
       <use xlink:href="#DejaVuSans-34"/>
       <use x="63.623047" xlink:href="#DejaVuSans-30"/>
      </g>
     </g>
    </g>
    <g id="xtick_6">
     <g id="line2d_6">
      <g>
       <use style="stroke:#000000;stroke-width:0.8;" x="498.109091" xlink:href="#madd3412893" y="384.48"/>
      </g>
     </g>
     <g id="text_6">
      <!-- 50 -->
      <g transform="translate(491.746591 399.078438)scale(0.1 -0.1)">
       <defs>
        <path d="M 691 4666 
L 3169 4666 
L 3169 4134 
L 1269 4134 
L 1269 2991 
Q 1406 3038 1543 3061 
Q 1681 3084 1819 3084 
Q 2600 3084 3056 2656 
Q 3513 2228 3513 1497 
Q 3513 744 3044 326 
Q 2575 -91 1722 -91 
Q 1428 -91 1123 -41 
Q 819 9 494 109 
L 494 744 
Q 775 591 1075 516 
Q 1375 441 1709 441 
Q 2250 441 2565 725 
Q 2881 1009 2881 1497 
Q 2881 1984 2565 2268 
Q 2250 2553 1709 2553 
Q 1456 2553 1204 2497 
Q 953 2441 691 2322 
L 691 4666 
z
" id="DejaVuSans-35" transform="scale(0.015625)"/>
       </defs>
       <use xlink:href="#DejaVuSans-35"/>
       <use x="63.623047" xlink:href="#DejaVuSans-30"/>
      </g>
     </g>
    </g>
    <g id="text_7">
     <!-- Number of iterations -->
     <g transform="translate(243.389062 412.756563)scale(0.1 -0.1)">
      <defs>
       <path d="M 628 4666 
L 1478 4666 
L 3547 763 
L 3547 4666 
L 4159 4666 
L 4159 0 
L 3309 0 
L 1241 3903 
L 1241 0 
L 628 0 
L 628 4666 
z
" id="DejaVuSans-4e" transform="scale(0.015625)"/>
       <path d="M 544 1381 
L 544 3500 
L 1119 3500 
L 1119 1403 
Q 1119 906 1312 657 
Q 1506 409 1894 409 
Q 2359 409 2629 706 
Q 2900 1003 2900 1516 
L 2900 3500 
L 3475 3500 
L 3475 0 
L 2900 0 
L 2900 538 
Q 2691 219 2414 64 
Q 2138 -91 1772 -91 
Q 1169 -91 856 284 
Q 544 659 544 1381 
z
M 1991 3584 
L 1991 3584 
z
" id="DejaVuSans-75" transform="scale(0.015625)"/>
       <path d="M 3328 2828 
Q 3544 3216 3844 3400 
Q 4144 3584 4550 3584 
Q 5097 3584 5394 3201 
Q 5691 2819 5691 2113 
L 5691 0 
L 5113 0 
L 5113 2094 
Q 5113 2597 4934 2840 
Q 4756 3084 4391 3084 
Q 3944 3084 3684 2787 
Q 3425 2491 3425 1978 
L 3425 0 
L 2847 0 
L 2847 2094 
Q 2847 2600 2669 2842 
Q 2491 3084 2119 3084 
Q 1678 3084 1418 2786 
Q 1159 2488 1159 1978 
L 1159 0 
L 581 0 
L 581 3500 
L 1159 3500 
L 1159 2956 
Q 1356 3278 1631 3431 
Q 1906 3584 2284 3584 
Q 2666 3584 2933 3390 
Q 3200 3197 3328 2828 
z
" id="DejaVuSans-6d" transform="scale(0.015625)"/>
       <path d="M 3116 1747 
Q 3116 2381 2855 2742 
Q 2594 3103 2138 3103 
Q 1681 3103 1420 2742 
Q 1159 2381 1159 1747 
Q 1159 1113 1420 752 
Q 1681 391 2138 391 
Q 2594 391 2855 752 
Q 3116 1113 3116 1747 
z
M 1159 2969 
Q 1341 3281 1617 3432 
Q 1894 3584 2278 3584 
Q 2916 3584 3314 3078 
Q 3713 2572 3713 1747 
Q 3713 922 3314 415 
Q 2916 -91 2278 -91 
Q 1894 -91 1617 61 
Q 1341 213 1159 525 
L 1159 0 
L 581 0 
L 581 4863 
L 1159 4863 
L 1159 2969 
z
" id="DejaVuSans-62" transform="scale(0.015625)"/>
       <path d="M 3597 1894 
L 3597 1613 
L 953 1613 
Q 991 1019 1311 708 
Q 1631 397 2203 397 
Q 2534 397 2845 478 
Q 3156 559 3463 722 
L 3463 178 
Q 3153 47 2828 -22 
Q 2503 -91 2169 -91 
Q 1331 -91 842 396 
Q 353 884 353 1716 
Q 353 2575 817 3079 
Q 1281 3584 2069 3584 
Q 2775 3584 3186 3129 
Q 3597 2675 3597 1894 
z
M 3022 2063 
Q 3016 2534 2758 2815 
Q 2500 3097 2075 3097 
Q 1594 3097 1305 2825 
Q 1016 2553 972 2059 
L 3022 2063 
z
" id="DejaVuSans-65" transform="scale(0.015625)"/>
       <path d="M 2631 2963 
Q 2534 3019 2420 3045 
Q 2306 3072 2169 3072 
Q 1681 3072 1420 2755 
Q 1159 2438 1159 1844 
L 1159 0 
L 581 0 
L 581 3500 
L 1159 3500 
L 1159 2956 
Q 1341 3275 1631 3429 
Q 1922 3584 2338 3584 
Q 2397 3584 2469 3576 
Q 2541 3569 2628 3553 
L 2631 2963 
z
" id="DejaVuSans-72" transform="scale(0.015625)"/>
       <path id="DejaVuSans-20" transform="scale(0.015625)"/>
       <path d="M 1959 3097 
Q 1497 3097 1228 2736 
Q 959 2375 959 1747 
Q 959 1119 1226 758 
Q 1494 397 1959 397 
Q 2419 397 2687 759 
Q 2956 1122 2956 1747 
Q 2956 2369 2687 2733 
Q 2419 3097 1959 3097 
z
M 1959 3584 
Q 2709 3584 3137 3096 
Q 3566 2609 3566 1747 
Q 3566 888 3137 398 
Q 2709 -91 1959 -91 
Q 1206 -91 779 398 
Q 353 888 353 1747 
Q 353 2609 779 3096 
Q 1206 3584 1959 3584 
z
" id="DejaVuSans-6f" transform="scale(0.015625)"/>
       <path d="M 2375 4863 
L 2375 4384 
L 1825 4384 
Q 1516 4384 1395 4259 
Q 1275 4134 1275 3809 
L 1275 3500 
L 2222 3500 
L 2222 3053 
L 1275 3053 
L 1275 0 
L 697 0 
L 697 3053 
L 147 3053 
L 147 3500 
L 697 3500 
L 697 3744 
Q 697 4328 969 4595 
Q 1241 4863 1831 4863 
L 2375 4863 
z
" id="DejaVuSans-66" transform="scale(0.015625)"/>
       <path d="M 603 3500 
L 1178 3500 
L 1178 0 
L 603 0 
L 603 3500 
z
M 603 4863 
L 1178 4863 
L 1178 4134 
L 603 4134 
L 603 4863 
z
" id="DejaVuSans-69" transform="scale(0.015625)"/>
       <path d="M 1172 4494 
L 1172 3500 
L 2356 3500 
L 2356 3053 
L 1172 3053 
L 1172 1153 
Q 1172 725 1289 603 
Q 1406 481 1766 481 
L 2356 481 
L 2356 0 
L 1766 0 
Q 1100 0 847 248 
Q 594 497 594 1153 
L 594 3053 
L 172 3053 
L 172 3500 
L 594 3500 
L 594 4494 
L 1172 4494 
z
" id="DejaVuSans-74" transform="scale(0.015625)"/>
       <path d="M 2194 1759 
Q 1497 1759 1228 1600 
Q 959 1441 959 1056 
Q 959 750 1161 570 
Q 1363 391 1709 391 
Q 2188 391 2477 730 
Q 2766 1069 2766 1631 
L 2766 1759 
L 2194 1759 
z
M 3341 1997 
L 3341 0 
L 2766 0 
L 2766 531 
Q 2569 213 2275 61 
Q 1981 -91 1556 -91 
Q 1019 -91 701 211 
Q 384 513 384 1019 
Q 384 1609 779 1909 
Q 1175 2209 1959 2209 
L 2766 2209 
L 2766 2266 
Q 2766 2663 2505 2880 
Q 2244 3097 1772 3097 
Q 1472 3097 1187 3025 
Q 903 2953 641 2809 
L 641 3341 
Q 956 3463 1253 3523 
Q 1550 3584 1831 3584 
Q 2591 3584 2966 3190 
Q 3341 2797 3341 1997 
z
" id="DejaVuSans-61" transform="scale(0.015625)"/>
       <path d="M 3513 2113 
L 3513 0 
L 2938 0 
L 2938 2094 
Q 2938 2591 2744 2837 
Q 2550 3084 2163 3084 
Q 1697 3084 1428 2787 
Q 1159 2491 1159 1978 
L 1159 0 
L 581 0 
L 581 3500 
L 1159 3500 
L 1159 2956 
Q 1366 3272 1645 3428 
Q 1925 3584 2291 3584 
Q 2894 3584 3203 3211 
Q 3513 2838 3513 2113 
z
" id="DejaVuSans-6e" transform="scale(0.015625)"/>
       <path d="M 2834 3397 
L 2834 2853 
Q 2591 2978 2328 3040 
Q 2066 3103 1784 3103 
Q 1356 3103 1142 2972 
Q 928 2841 928 2578 
Q 928 2378 1081 2264 
Q 1234 2150 1697 2047 
L 1894 2003 
Q 2506 1872 2764 1633 
Q 3022 1394 3022 966 
Q 3022 478 2636 193 
Q 2250 -91 1575 -91 
Q 1294 -91 989 -36 
Q 684 19 347 128 
L 347 722 
Q 666 556 975 473 
Q 1284 391 1588 391 
Q 1994 391 2212 530 
Q 2431 669 2431 922 
Q 2431 1156 2273 1281 
Q 2116 1406 1581 1522 
L 1381 1569 
Q 847 1681 609 1914 
Q 372 2147 372 2553 
Q 372 3047 722 3315 
Q 1072 3584 1716 3584 
Q 2034 3584 2315 3537 
Q 2597 3491 2834 3397 
z
" id="DejaVuSans-73" transform="scale(0.015625)"/>
      </defs>
      <use xlink:href="#DejaVuSans-4e"/>
      <use x="74.804688" xlink:href="#DejaVuSans-75"/>
      <use x="138.183594" xlink:href="#DejaVuSans-6d"/>
      <use x="235.595703" xlink:href="#DejaVuSans-62"/>
      <use x="299.072266" xlink:href="#DejaVuSans-65"/>
      <use x="360.595703" xlink:href="#DejaVuSans-72"/>
      <use x="401.708984" xlink:href="#DejaVuSans-20"/>
      <use x="433.496094" xlink:href="#DejaVuSans-6f"/>
      <use x="494.677734" xlink:href="#DejaVuSans-66"/>
      <use x="529.882812" xlink:href="#DejaVuSans-20"/>
      <use x="561.669922" xlink:href="#DejaVuSans-69"/>
      <use x="589.453125" xlink:href="#DejaVuSans-74"/>
      <use x="628.662109" xlink:href="#DejaVuSans-65"/>
      <use x="690.185547" xlink:href="#DejaVuSans-72"/>
      <use x="731.298828" xlink:href="#DejaVuSans-61"/>
      <use x="792.578125" xlink:href="#DejaVuSans-74"/>
      <use x="831.787109" xlink:href="#DejaVuSans-69"/>
      <use x="859.570312" xlink:href="#DejaVuSans-6f"/>
      <use x="920.751953" xlink:href="#DejaVuSans-6e"/>
      <use x="984.130859" xlink:href="#DejaVuSans-73"/>
     </g>
    </g>
   </g>
   <g id="matplotlib.axis_2">
    <g id="ytick_1">
     <g id="line2d_7">
      <defs>
       <path d="M 0 0 
L -3.5 0 
" id="mfabd4d7688" style="stroke:#000000;stroke-width:0.8;"/>
      </defs>
      <g>
       <use style="stroke:#000000;stroke-width:0.8;" x="72" xlink:href="#mfabd4d7688" y="369.36"/>
      </g>
     </g>
     <g id="text_8">
      <!-- 0 -->
      <g transform="translate(58.6375 373.159219)scale(0.1 -0.1)">
       <use xlink:href="#DejaVuSans-30"/>
      </g>
     </g>
    </g>
    <g id="ytick_2">
     <g id="line2d_8">
      <g>
       <use style="stroke:#000000;stroke-width:0.8;" x="72" xlink:href="#mfabd4d7688" y="309.869887"/>
      </g>
     </g>
     <g id="text_9">
      <!-- 5000 -->
      <g transform="translate(39.55 313.669106)scale(0.1 -0.1)">
       <use xlink:href="#DejaVuSans-35"/>
       <use x="63.623047" xlink:href="#DejaVuSans-30"/>
       <use x="127.246094" xlink:href="#DejaVuSans-30"/>
       <use x="190.869141" xlink:href="#DejaVuSans-30"/>
      </g>
     </g>
    </g>
    <g id="ytick_3">
     <g id="line2d_9">
      <g>
       <use style="stroke:#000000;stroke-width:0.8;" x="72" xlink:href="#mfabd4d7688" y="250.379775"/>
      </g>
     </g>
     <g id="text_10">
      <!-- 10000 -->
      <g transform="translate(33.1875 254.178994)scale(0.1 -0.1)">
       <use xlink:href="#DejaVuSans-31"/>
       <use x="63.623047" xlink:href="#DejaVuSans-30"/>
       <use x="127.246094" xlink:href="#DejaVuSans-30"/>
       <use x="190.869141" xlink:href="#DejaVuSans-30"/>
       <use x="254.492188" xlink:href="#DejaVuSans-30"/>
      </g>
     </g>
    </g>
    <g id="ytick_4">
     <g id="line2d_10">
      <g>
       <use style="stroke:#000000;stroke-width:0.8;" x="72" xlink:href="#mfabd4d7688" y="190.889662"/>
      </g>
     </g>
     <g id="text_11">
      <!-- 15000 -->
      <g transform="translate(33.1875 194.688881)scale(0.1 -0.1)">
       <use xlink:href="#DejaVuSans-31"/>
       <use x="63.623047" xlink:href="#DejaVuSans-35"/>
       <use x="127.246094" xlink:href="#DejaVuSans-30"/>
       <use x="190.869141" xlink:href="#DejaVuSans-30"/>
       <use x="254.492188" xlink:href="#DejaVuSans-30"/>
      </g>
     </g>
    </g>
    <g id="ytick_5">
     <g id="line2d_11">
      <g>
       <use style="stroke:#000000;stroke-width:0.8;" x="72" xlink:href="#mfabd4d7688" y="131.39955"/>
      </g>
     </g>
     <g id="text_12">
      <!-- 20000 -->
      <g transform="translate(33.1875 135.198769)scale(0.1 -0.1)">
       <use xlink:href="#DejaVuSans-32"/>
       <use x="63.623047" xlink:href="#DejaVuSans-30"/>
       <use x="127.246094" xlink:href="#DejaVuSans-30"/>
       <use x="190.869141" xlink:href="#DejaVuSans-30"/>
       <use x="254.492188" xlink:href="#DejaVuSans-30"/>
      </g>
     </g>
    </g>
    <g id="ytick_6">
     <g id="line2d_12">
      <g>
       <use style="stroke:#000000;stroke-width:0.8;" x="72" xlink:href="#mfabd4d7688" y="71.909437"/>
      </g>
     </g>
     <g id="text_13">
      <!-- 25000 -->
      <g transform="translate(33.1875 75.708656)scale(0.1 -0.1)">
       <use xlink:href="#DejaVuSans-32"/>
       <use x="63.623047" xlink:href="#DejaVuSans-35"/>
       <use x="127.246094" xlink:href="#DejaVuSans-30"/>
       <use x="190.869141" xlink:href="#DejaVuSans-30"/>
       <use x="254.492188" xlink:href="#DejaVuSans-30"/>
      </g>
     </g>
    </g>
    <g id="text_14">
     <!-- Norm of the residuals -->
     <g transform="translate(27.107812 272.004531)rotate(-90)scale(0.1 -0.1)">
      <defs>
       <path d="M 3513 2113 
L 3513 0 
L 2938 0 
L 2938 2094 
Q 2938 2591 2744 2837 
Q 2550 3084 2163 3084 
Q 1697 3084 1428 2787 
Q 1159 2491 1159 1978 
L 1159 0 
L 581 0 
L 581 4863 
L 1159 4863 
L 1159 2956 
Q 1366 3272 1645 3428 
Q 1925 3584 2291 3584 
Q 2894 3584 3203 3211 
Q 3513 2838 3513 2113 
z
" id="DejaVuSans-68" transform="scale(0.015625)"/>
       <path d="M 2906 2969 
L 2906 4863 
L 3481 4863 
L 3481 0 
L 2906 0 
L 2906 525 
Q 2725 213 2448 61 
Q 2172 -91 1784 -91 
Q 1150 -91 751 415 
Q 353 922 353 1747 
Q 353 2572 751 3078 
Q 1150 3584 1784 3584 
Q 2172 3584 2448 3432 
Q 2725 3281 2906 2969 
z
M 947 1747 
Q 947 1113 1208 752 
Q 1469 391 1925 391 
Q 2381 391 2643 752 
Q 2906 1113 2906 1747 
Q 2906 2381 2643 2742 
Q 2381 3103 1925 3103 
Q 1469 3103 1208 2742 
Q 947 2381 947 1747 
z
" id="DejaVuSans-64" transform="scale(0.015625)"/>
       <path d="M 603 4863 
L 1178 4863 
L 1178 0 
L 603 0 
L 603 4863 
z
" id="DejaVuSans-6c" transform="scale(0.015625)"/>
      </defs>
      <use xlink:href="#DejaVuSans-4e"/>
      <use x="74.804688" xlink:href="#DejaVuSans-6f"/>
      <use x="135.986328" xlink:href="#DejaVuSans-72"/>
      <use x="175.349609" xlink:href="#DejaVuSans-6d"/>
      <use x="272.761719" xlink:href="#DejaVuSans-20"/>
      <use x="304.548828" xlink:href="#DejaVuSans-6f"/>
      <use x="365.730469" xlink:href="#DejaVuSans-66"/>
      <use x="400.935547" xlink:href="#DejaVuSans-20"/>
      <use x="432.722656" xlink:href="#DejaVuSans-74"/>
      <use x="471.931641" xlink:href="#DejaVuSans-68"/>
      <use x="535.310547" xlink:href="#DejaVuSans-65"/>
      <use x="596.833984" xlink:href="#DejaVuSans-20"/>
      <use x="628.621094" xlink:href="#DejaVuSans-72"/>
      <use x="667.484375" xlink:href="#DejaVuSans-65"/>
      <use x="729.007812" xlink:href="#DejaVuSans-73"/>
      <use x="781.107422" xlink:href="#DejaVuSans-69"/>
      <use x="808.890625" xlink:href="#DejaVuSans-64"/>
      <use x="872.367188" xlink:href="#DejaVuSans-75"/>
      <use x="935.746094" xlink:href="#DejaVuSans-61"/>
      <use x="997.025391" xlink:href="#DejaVuSans-6c"/>
      <use x="1024.808594" xlink:href="#DejaVuSans-73"/>
     </g>
    </g>
   </g>
   <g id="line2d_13">
    <path clip-path="url(#p8322234915)" d="M 92.290909 66.96 
L 100.407273 80.573179 
L 108.523636 87.098202 
L 116.64 92.568592 
L 124.756364 108.752403 
L 132.872727 109.039402 
L 140.989091 109.76697 
L 149.105455 110.813591 
L 157.221818 112.922809 
L 165.338182 147.192631 
L 173.454545 147.196759 
L 181.570909 148.053516 
L 189.687273 182.005767 
L 197.803636 189.493303 
L 205.92 192.839628 
L 214.036364 193.256958 
L 222.152727 195.306063 
L 230.269091 213.123166 
L 238.385455 223.496051 
L 246.501818 241.731811 
L 254.618182 250.548113 
L 262.734545 252.663732 
L 270.850909 255.011474 
L 278.967273 271.866609 
L 287.083636 292.478518 
L 295.2 295.919616 
L 303.316364 297.377471 
L 311.432727 302.034419 
L 319.549091 303.447872 
L 327.665455 318.662703 
L 335.781818 321.027327 
L 343.898182 321.085865 
L 352.014545 354.508005 
L 360.130909 358.78251 
L 368.247273 358.785975 
L 376.363636 359.396849 
L 384.48 360.436127 
L 392.596364 360.827464 
L 400.712727 362.464749 
L 408.829091 362.52584 
L 416.945455 363.321276 
L 425.061818 363.82578 
L 433.178182 363.860353 
L 441.294545 367.115773 
L 449.410909 367.752644 
L 457.527273 367.829522 
L 465.643636 367.854742 
L 473.76 369.072809 
L 481.876364 369.252583 
L 489.992727 369.35507 
L 498.109091 369.36 
" style="fill:none;stroke:#1f77b4;stroke-linecap:square;stroke-width:1.5;"/>
   </g>
   <g id="line2d_14">
    <path clip-path="url(#p8322234915)" d="M 92.290909 66.96 
L 100.407273 215.627681 
L 108.523636 281.173008 
L 116.64 299.203436 
L 124.756364 318.925523 
L 132.872727 323.887048 
L 140.989091 331.574159 
L 149.105455 335.824265 
L 157.221818 339.634687 
L 165.338182 342.589062 
L 173.454545 349.609767 
L 181.570909 354.382291 
L 189.687273 357.323618 
L 197.803636 358.756469 
L 205.92 359.879212 
L 214.036364 360.66297 
L 222.152727 361.30598 
L 230.269091 362.164117 
L 238.385455 363.009673 
L 246.501818 363.456136 
L 254.618182 364.052463 
L 262.734545 364.482779 
L 270.850909 364.928621 
L 278.967273 365.275686 
L 287.083636 365.602999 
L 295.2 365.804895 
L 303.316364 366.010319 
L 311.432727 366.281502 
L 319.549091 366.472817 
L 327.665455 366.608929 
L 335.781818 366.895427 
L 343.898182 367.094067 
L 352.014545 367.540676 
L 360.130909 367.728815 
L 368.247273 367.844029 
L 376.363636 368.300816 
L 384.48 368.461368 
L 392.596364 368.665641 
L 400.712727 368.804861 
L 408.829091 369.019762 
L 416.945455 369.113989 
L 425.061818 369.20213 
L 433.178182 369.239547 
L 441.294545 369.252812 
L 449.410909 369.274549 
L 457.527273 369.323712 
L 465.643636 369.326573 
L 473.76 369.355218 
L 481.876364 369.3588 
L 489.992727 369.359998 
L 498.109091 369.36 
" style="fill:none;stroke:#ff7f0e;stroke-linecap:square;stroke-width:1.5;"/>
   </g>
   <g id="line2d_15">
    <path clip-path="url(#p8322234915)" d="M 92.290909 66.96 
L 100.407273 78.183044 
L 108.523636 111.952773 
L 116.64 112.626313 
L 124.756364 190.071495 
L 132.872727 191.454765 
L 140.989091 203.333136 
L 149.105455 203.933993 
L 157.221818 219.055132 
L 165.338182 225.774482 
L 173.454545 231.24419 
L 181.570909 238.568964 
L 189.687273 238.888449 
L 197.803636 250.822111 
L 205.92 251.402941 
L 214.036364 266.313623 
L 222.152727 283.485561 
L 230.269091 285.460316 
L 238.385455 306.34316 
L 246.501818 312.091174 
L 254.618182 315.025885 
L 262.734545 315.073133 
L 270.850909 317.323697 
L 278.967273 318.990226 
L 287.083636 338.980626 
L 295.2 340.000495 
L 303.316364 340.426041 
L 311.432727 341.546713 
L 319.549091 347.282675 
L 327.665455 348.963926 
L 335.781818 349.333333 
L 343.898182 350.258062 
L 352.014545 355.358212 
L 360.130909 356.401599 
L 368.247273 356.402264 
L 376.363636 362.621674 
L 384.48 363.97136 
L 392.596364 365.904722 
L 400.712727 366.007659 
L 408.829091 366.425806 
L 416.945455 367.024346 
L 425.061818 367.026629 
L 433.178182 367.034998 
L 441.294545 367.756093 
L 449.410909 367.75976 
L 457.527273 368.807629 
L 465.643636 369.319281 
L 473.76 369.352623 
L 481.876364 369.357235 
L 489.992727 369.35978 
L 498.109091 369.36 
" style="fill:none;stroke:#2ca02c;stroke-linecap:square;stroke-width:1.5;"/>
   </g>
   <g id="line2d_16">
    <defs>
     <path d="M -3 3 
L 3 -3 
M -3 -3 
L 3 3 
" id="m5371fe1af6" style="stroke:#d62728;"/>
    </defs>
    <g clip-path="url(#p8322234915)">
     <use style="fill:#d62728;stroke:#d62728;" x="92.290909" xlink:href="#m5371fe1af6" y="66.96"/>
     <use style="fill:#d62728;stroke:#d62728;" x="100.407273" xlink:href="#m5371fe1af6" y="78.183044"/>
     <use style="fill:#d62728;stroke:#d62728;" x="108.523636" xlink:href="#m5371fe1af6" y="111.952773"/>
     <use style="fill:#d62728;stroke:#d62728;" x="116.64" xlink:href="#m5371fe1af6" y="112.626313"/>
     <use style="fill:#d62728;stroke:#d62728;" x="124.756364" xlink:href="#m5371fe1af6" y="190.071495"/>
     <use style="fill:#d62728;stroke:#d62728;" x="132.872727" xlink:href="#m5371fe1af6" y="191.454765"/>
     <use style="fill:#d62728;stroke:#d62728;" x="140.989091" xlink:href="#m5371fe1af6" y="203.333136"/>
     <use style="fill:#d62728;stroke:#d62728;" x="149.105455" xlink:href="#m5371fe1af6" y="203.933993"/>
     <use style="fill:#d62728;stroke:#d62728;" x="157.221818" xlink:href="#m5371fe1af6" y="219.055132"/>
     <use style="fill:#d62728;stroke:#d62728;" x="165.338182" xlink:href="#m5371fe1af6" y="225.774482"/>
     <use style="fill:#d62728;stroke:#d62728;" x="173.454545" xlink:href="#m5371fe1af6" y="231.24419"/>
     <use style="fill:#d62728;stroke:#d62728;" x="181.570909" xlink:href="#m5371fe1af6" y="238.568964"/>
     <use style="fill:#d62728;stroke:#d62728;" x="189.687273" xlink:href="#m5371fe1af6" y="238.888449"/>
     <use style="fill:#d62728;stroke:#d62728;" x="197.803636" xlink:href="#m5371fe1af6" y="250.822111"/>
     <use style="fill:#d62728;stroke:#d62728;" x="205.92" xlink:href="#m5371fe1af6" y="251.402941"/>
     <use style="fill:#d62728;stroke:#d62728;" x="214.036364" xlink:href="#m5371fe1af6" y="266.313623"/>
     <use style="fill:#d62728;stroke:#d62728;" x="222.152727" xlink:href="#m5371fe1af6" y="283.485561"/>
     <use style="fill:#d62728;stroke:#d62728;" x="230.269091" xlink:href="#m5371fe1af6" y="285.460316"/>
     <use style="fill:#d62728;stroke:#d62728;" x="238.385455" xlink:href="#m5371fe1af6" y="306.34316"/>
     <use style="fill:#d62728;stroke:#d62728;" x="246.501818" xlink:href="#m5371fe1af6" y="312.091174"/>
     <use style="fill:#d62728;stroke:#d62728;" x="254.618182" xlink:href="#m5371fe1af6" y="315.025885"/>
     <use style="fill:#d62728;stroke:#d62728;" x="262.734545" xlink:href="#m5371fe1af6" y="315.073133"/>
     <use style="fill:#d62728;stroke:#d62728;" x="270.850909" xlink:href="#m5371fe1af6" y="317.323697"/>
     <use style="fill:#d62728;stroke:#d62728;" x="278.967273" xlink:href="#m5371fe1af6" y="318.990226"/>
     <use style="fill:#d62728;stroke:#d62728;" x="287.083636" xlink:href="#m5371fe1af6" y="338.980626"/>
     <use style="fill:#d62728;stroke:#d62728;" x="295.2" xlink:href="#m5371fe1af6" y="340.000495"/>
     <use style="fill:#d62728;stroke:#d62728;" x="303.316364" xlink:href="#m5371fe1af6" y="340.426041"/>
     <use style="fill:#d62728;stroke:#d62728;" x="311.432727" xlink:href="#m5371fe1af6" y="341.546713"/>
     <use style="fill:#d62728;stroke:#d62728;" x="319.549091" xlink:href="#m5371fe1af6" y="347.282675"/>
     <use style="fill:#d62728;stroke:#d62728;" x="327.665455" xlink:href="#m5371fe1af6" y="348.963926"/>
     <use style="fill:#d62728;stroke:#d62728;" x="335.781818" xlink:href="#m5371fe1af6" y="349.333333"/>
     <use style="fill:#d62728;stroke:#d62728;" x="343.898182" xlink:href="#m5371fe1af6" y="350.258062"/>
     <use style="fill:#d62728;stroke:#d62728;" x="352.014545" xlink:href="#m5371fe1af6" y="355.358212"/>
     <use style="fill:#d62728;stroke:#d62728;" x="360.130909" xlink:href="#m5371fe1af6" y="356.401599"/>
     <use style="fill:#d62728;stroke:#d62728;" x="368.247273" xlink:href="#m5371fe1af6" y="356.402264"/>
     <use style="fill:#d62728;stroke:#d62728;" x="376.363636" xlink:href="#m5371fe1af6" y="362.621674"/>
     <use style="fill:#d62728;stroke:#d62728;" x="384.48" xlink:href="#m5371fe1af6" y="363.97136"/>
     <use style="fill:#d62728;stroke:#d62728;" x="392.596364" xlink:href="#m5371fe1af6" y="365.904722"/>
     <use style="fill:#d62728;stroke:#d62728;" x="400.712727" xlink:href="#m5371fe1af6" y="366.007659"/>
     <use style="fill:#d62728;stroke:#d62728;" x="408.829091" xlink:href="#m5371fe1af6" y="366.425806"/>
     <use style="fill:#d62728;stroke:#d62728;" x="416.945455" xlink:href="#m5371fe1af6" y="367.024346"/>
     <use style="fill:#d62728;stroke:#d62728;" x="425.061818" xlink:href="#m5371fe1af6" y="367.026629"/>
     <use style="fill:#d62728;stroke:#d62728;" x="433.178182" xlink:href="#m5371fe1af6" y="367.034998"/>
     <use style="fill:#d62728;stroke:#d62728;" x="441.294545" xlink:href="#m5371fe1af6" y="367.756093"/>
     <use style="fill:#d62728;stroke:#d62728;" x="449.410909" xlink:href="#m5371fe1af6" y="367.75976"/>
     <use style="fill:#d62728;stroke:#d62728;" x="457.527273" xlink:href="#m5371fe1af6" y="368.807629"/>
     <use style="fill:#d62728;stroke:#d62728;" x="465.643636" xlink:href="#m5371fe1af6" y="369.319281"/>
     <use style="fill:#d62728;stroke:#d62728;" x="473.76" xlink:href="#m5371fe1af6" y="369.352623"/>
     <use style="fill:#d62728;stroke:#d62728;" x="481.876364" xlink:href="#m5371fe1af6" y="369.357235"/>
     <use style="fill:#d62728;stroke:#d62728;" x="489.992727" xlink:href="#m5371fe1af6" y="369.35978"/>
     <use style="fill:#d62728;stroke:#d62728;" x="498.109091" xlink:href="#m5371fe1af6" y="369.36"/>
    </g>
   </g>
   <g id="patch_3">
    <path d="M 72 384.48 
L 72 51.84 
" style="fill:none;stroke:#000000;stroke-linecap:square;stroke-linejoin:miter;stroke-width:0.8;"/>
   </g>
   <g id="patch_4">
    <path d="M 518.4 384.48 
L 518.4 51.84 
" style="fill:none;stroke:#000000;stroke-linecap:square;stroke-linejoin:miter;stroke-width:0.8;"/>
   </g>
   <g id="patch_5">
    <path d="M 72 384.48 
L 518.4 384.48 
" style="fill:none;stroke:#000000;stroke-linecap:square;stroke-linejoin:miter;stroke-width:0.8;"/>
   </g>
   <g id="patch_6">
    <path d="M 72 51.84 
L 518.4 51.84 
" style="fill:none;stroke:#000000;stroke-linecap:square;stroke-linejoin:miter;stroke-width:0.8;"/>
   </g>
   <g id="legend_1">
    <g id="patch_7">
     <path d="M 448.0625 118.5525 
L 511.4 118.5525 
Q 513.4 118.5525 513.4 116.5525 
L 513.4 58.84 
Q 513.4 56.84 511.4 56.84 
L 448.0625 56.84 
Q 446.0625 56.84 446.0625 58.84 
L 446.0625 116.5525 
Q 446.0625 118.5525 448.0625 118.5525 
z
" style="fill:#ffffff;opacity:0.8;stroke:#cccccc;stroke-linejoin:miter;"/>
    </g>
    <g id="line2d_17">
     <path d="M 450.0625 64.938438 
L 470.0625 64.938438 
" style="fill:none;stroke:#1f77b4;stroke-linecap:square;stroke-width:1.5;"/>
    </g>
    <g id="line2d_18"/>
    <g id="text_15">
     <!-- rand -->
     <g transform="translate(478.0625 68.438438)scale(0.1 -0.1)">
      <use xlink:href="#DejaVuSans-72"/>
      <use x="41.113281" xlink:href="#DejaVuSans-61"/>
      <use x="102.392578" xlink:href="#DejaVuSans-6e"/>
      <use x="165.771484" xlink:href="#DejaVuSans-64"/>
     </g>
    </g>
    <g id="line2d_19">
     <path d="M 450.0625 79.616563 
L 470.0625 79.616563 
" style="fill:none;stroke:#ff7f0e;stroke-linecap:square;stroke-width:1.5;"/>
    </g>
    <g id="line2d_20"/>
    <g id="text_16">
     <!-- grad -->
     <g transform="translate(478.0625 83.116563)scale(0.1 -0.1)">
      <defs>
       <path d="M 2906 1791 
Q 2906 2416 2648 2759 
Q 2391 3103 1925 3103 
Q 1463 3103 1205 2759 
Q 947 2416 947 1791 
Q 947 1169 1205 825 
Q 1463 481 1925 481 
Q 2391 481 2648 825 
Q 2906 1169 2906 1791 
z
M 3481 434 
Q 3481 -459 3084 -895 
Q 2688 -1331 1869 -1331 
Q 1566 -1331 1297 -1286 
Q 1028 -1241 775 -1147 
L 775 -588 
Q 1028 -725 1275 -790 
Q 1522 -856 1778 -856 
Q 2344 -856 2625 -561 
Q 2906 -266 2906 331 
L 2906 616 
Q 2728 306 2450 153 
Q 2172 0 1784 0 
Q 1141 0 747 490 
Q 353 981 353 1791 
Q 353 2603 747 3093 
Q 1141 3584 1784 3584 
Q 2172 3584 2450 3431 
Q 2728 3278 2906 2969 
L 2906 3500 
L 3481 3500 
L 3481 434 
z
" id="DejaVuSans-67" transform="scale(0.015625)"/>
      </defs>
      <use xlink:href="#DejaVuSans-67"/>
      <use x="63.476562" xlink:href="#DejaVuSans-72"/>
      <use x="104.589844" xlink:href="#DejaVuSans-61"/>
      <use x="165.869141" xlink:href="#DejaVuSans-64"/>
     </g>
    </g>
    <g id="line2d_21">
     <path d="M 450.0625 94.294688 
L 470.0625 94.294688 
" style="fill:none;stroke:#2ca02c;stroke-linecap:square;stroke-width:1.5;"/>
    </g>
    <g id="line2d_22"/>
    <g id="text_17">
     <!-- krylov -->
     <g transform="translate(478.0625 97.794688)scale(0.1 -0.1)">
      <defs>
       <path d="M 581 4863 
L 1159 4863 
L 1159 1991 
L 2875 3500 
L 3609 3500 
L 1753 1863 
L 3688 0 
L 2938 0 
L 1159 1709 
L 1159 0 
L 581 0 
L 581 4863 
z
" id="DejaVuSans-6b" transform="scale(0.015625)"/>
       <path d="M 2059 -325 
Q 1816 -950 1584 -1140 
Q 1353 -1331 966 -1331 
L 506 -1331 
L 506 -850 
L 844 -850 
Q 1081 -850 1212 -737 
Q 1344 -625 1503 -206 
L 1606 56 
L 191 3500 
L 800 3500 
L 1894 763 
L 2988 3500 
L 3597 3500 
L 2059 -325 
z
" id="DejaVuSans-79" transform="scale(0.015625)"/>
       <path d="M 191 3500 
L 800 3500 
L 1894 563 
L 2988 3500 
L 3597 3500 
L 2284 0 
L 1503 0 
L 191 3500 
z
" id="DejaVuSans-76" transform="scale(0.015625)"/>
      </defs>
      <use xlink:href="#DejaVuSans-6b"/>
      <use x="57.910156" xlink:href="#DejaVuSans-72"/>
      <use x="99.023438" xlink:href="#DejaVuSans-79"/>
      <use x="158.203125" xlink:href="#DejaVuSans-6c"/>
      <use x="185.986328" xlink:href="#DejaVuSans-6f"/>
      <use x="247.167969" xlink:href="#DejaVuSans-76"/>
     </g>
    </g>
    <g id="line2d_23"/>
    <g id="line2d_24">
     <g>
      <use style="fill:#d62728;stroke:#d62728;" x="460.0625" xlink:href="#m5371fe1af6" y="108.972813"/>
     </g>
    </g>
    <g id="text_18">
     <!-- gmres -->
     <g transform="translate(478.0625 112.472813)scale(0.1 -0.1)">
      <use xlink:href="#DejaVuSans-67"/>
      <use x="63.476562" xlink:href="#DejaVuSans-6d"/>
      <use x="160.888672" xlink:href="#DejaVuSans-72"/>
      <use x="199.751953" xlink:href="#DejaVuSans-65"/>
      <use x="261.275391" xlink:href="#DejaVuSans-73"/>
     </g>
    </g>
   </g>
  </g>
 </g>
 <defs>
  <clipPath id="p8322234915">
   <rect height="332.64" width="446.4" x="72" y="51.84"/>
  </clipPath>
 </defs>
</svg>
